P2
47 64
255
 182 182 186 190 187 190 186 182 175 164 176 180 174 172 176 179 175 171 174 182 181 174 176 181 180 181 177 180 191 176 173 179 172 178 180 181 182 184 188 191 196 205 193 185 188 182 173
 187 186 188 188 177 182 182 172 159 155 163 174 182 173 175 177 174 168 176 187 188 178 173 165 184 180 172 184 206 186 173 172 166 171 173 177 152 111 151 173 176 184 187 186 185 181 178
 187 187 191 190 182 185 186 182 171 164 167 175 183 195 184 177 179 181 178 172 173 168 154 130 123 115 130 153 181 175 176 177 175 179 176 185 170 132 164 184 182 187 187 187 188 189 188
 192 189 190 186 182 179 179 178 168 160 172 174 166 173 176 175 187 186 154 108  60  49  64  71  70  44  80  87  79  66 106 127 143 172 176 179 188 184 193 189 196 196 190 190 189 185 175
 192 190 189 180 179 181 182 180 172 157 155 172 166 167 170 163 139 103  79  73  62  96 154 168 160 145 168 170 159 135 104  76  74  93 117 178 182 182 185 182 185 185 188 189 185 184 183
 188 189 186 183 184 189 190 186 177 172 155 174 176 157 134  70  63  75 135 173 157 157 174 184 164 154 166 172 171 181 174 171 166 149 147 181 184 187 190 189 186 182 190 184 183 187 194
 187 191 190 188 185 186 186 178 170 167 151 154 129  70  56  68 133 148 157 167 162 166 165 180 175 180 187 190 207 218 203 212 228 219 217 187 178 190 191 194 192 186 191 188 189 188 193
 184 191 191 192 184 182 178 168 161 171 136  94  58  78 124 168 179 180 186 192 207 189 206 219 215 210 209 207 204 206 202 214 217 216 210 183 188 192 193 198 197 186 184 189 190 185 192
 180 177 180 187 189 184 181 180 173 166 127  98 161 214 221 212 215 208 219 228 220 192 206 222 216 210 207 213 204 212 200 211 220 220 216 187 169 180 187 182 181 182 186 187 181 182 185
 180 179 182 184 188 176 179 181 170 168 130 157 235 227 221 213 212 200 205 219 221 188 201 225 221 216 210 214 206 216 200 212 220 217 220 191 164 174 180 187 180 186 183 182 183 182 182
 173 176 179 192 196 181 191 194 182 188 156 168 225 215 213 215 214 203 200 221 230 196 200 220 228 225 216 225 198 195 182 182 169 174 222 194 164 171 193 194 176 169 177 192 190 189 190
 183 190 192 197 194 183 190 192 184 180 161 155 221 214 220 218 221 203 191 213 217 187 174 185 174 170 156 140 118 116 112 114 128 158 219 196 164 161 167 176 180 176 187 200 196 193 193
 186 188 184 186 179 178 184 186 181 180 164 150 217 218 214 196 197 165 109 132 136 118  95 122 129 136 132 130 155 164 145 115 152 173 201 198 173 168 175 182 188 199 193 199 203 199 190
 182 180 184 185 187 180 184 191 183 183 162 134 212 209 154 122 131 112  68 108 156 124 101 155 192 186 146 147 152 138 104  94  88 140 193 201 181 178 190 192 184 187 187 193 192 183 183
 188 187 184 186 182 175 178 181 169 175 166 139 212 221 173 175 151 124 101 128 169 131  86 122 176 147  75  75  45  29  20  20  13 111 211 214 182 168 170 175 166 175 184 191 195 190 190
 190 188 184 179 177 174 181 182 166 180 184 142 188 208 162 173 108  86  60  46  45  28   9  78 200 150  14   8  17  19  26  45  13 107 218 207 184 175 182 186 183 190 191 196 197 199 201
 187 186 187 186 189 187 188 187 178 182 183 135 172 203 164 155  57  10  15  13  15  21  22  82 214 186  46  19  50  49  28  50  17  97 199 206 193 185 190 188 186 197 197 201 198 196 196
 173 179 179 180 191 193 194 194 182 180 183 138 175 231 185 165  95  51  64  73  74  83  81 106 214 198  69  16  51  50  31  55  41 102 194 216 193 179 178 184 180 185 182 192 195 190 188
 188 193 189 187 192 188 184 191 181 175 174 128 173 239 189 168 114  87  94  97  91  94  88  96 194 227  90  40  63  63  50  56  41  76 171 199 185 176 180 191 203 204 193 192 195 194 191
 186 191 190 186 188 186 181 180 178 173 186 140 163 231 192 166 118  88  81  83  75  77  78  71 177 234  97  23  35  47  27  44  43  49 171 208 195 200 198 208 219 207 194 193 195 193 190
 184 185 186 185 186 189 186 180 181 173 183 145 157 225 194 162 132  86  64  69  64  63  67  59 165 242 111  25  30  54  25  42  51  34 175 219 204 201 201 206 217 203 191 185 181 186 190
 183 179 179 183 186 189 187 183 178 174 173 147 136 201 188 160 148  83  58  63  64  62  64  49 148 246 128  29  31  58  34  48  58  43 169 211 209 205 192 195 207 211 200 188 179 185 186
 181 176 179 179 185 190 191 193 187 184 189 189 169 190 198 173 162  84  60  60  62  65  66  58 134 242 146  46  47  64  41  47  56  43 162 201 206 200 194 196 204 216 197 190 188 188 181
 177 182 182 180 185 186 200 221 210 199 206 224 183 159 204 174 177  83  61  62  60  61  71  65 116 234 177  43  29  43  32  33  43  19 121 200 192 193 191 187 191 196 202 205 203 205 200
 180 185 183 187 185 184 199 219 210 196 196 215 186 139 198 180 175  97  83  87  91  93  94  78 114 234 186  44  24  47  37  27  43  20 105 203 194 193 189 189 192 190 193 186 187 188 187
 184 182 178 186 188 188 197 220 212 193 194 218 201 141 198 184 172 109  86  87  75  68  64  56  88 223 200  53  18  37  36  25  46  27  92 204 193 194 187 188 189 185 189 187 196 199 194
 187 187 186 186 184 186 196 224 213 194 188 202 188 139 200 190 171 102  39  50  44  44  47  40  67 212 214  79  40  50  58  46  67  34  81 194 183 182 182 184 190 191 195 193 196 196 195
 189 187 186 184 177 185 186 193 192 186 176 180 173 135 201 186 171 109  35  54  60  62  53  44  60 202 222 108  31  42  51  26  45  28  61 179 181 176 179 180 188 187 184 183 187 192 195
 194 196 187 187 185 185 183 178 180 177 180 184 184 132 162 177 165 110  38  54  52  55  50  48  54 172 230 112   7  36  43  28  36  28  48 173 176 173 176 178 187 197 189 190 197 196 198
 194 195 186 190 193 191 190 192 185 182 178 178 181 125 144 169 154  99  35  55  51  50  45  54  43 155 235 138  18  34  39  33  36  38  46 150 184 180 172 181 186 190 188 189 194 196 201
 193 197 195 204 198 190 188 192 190 185 174 173 182 132 148 182 147  93  35  51  46  46  50  56  37 134 233 154  28  43  58  51  45  52  41 145 188 164 166 180 183 185 189 190 199 210 210
 190 193 191 201 194 187 186 189 189 185 177 180 191 143 154 199 145  93  34  55  60  56  54  58  46 114 230 167  35  30  49  36  35  46  19 135 192 177 175 182 182 185 187 187 187 191 197
 195 195 191 198 202 198 192 195 196 193 188 186 189 139 142 197 142  90  38  54  62  59  55  53  45  91 222 177  40  16  45  28  24  42  17 122 186 179 183 182 183 190 190 196 192 192 204
 188 197 202 210 200 191 194 197 196 191 187 189 191 144 127 192 133  91  45  52  51  56  50  51  44  69 204 194  53  13  38  22  11  37  26 104 172 192 191 190 186 188 194 201 198 201 202
 186 188 189 194 190 184 188 187 184 185 187 189 190 148 124 184 139  87  41  48  45  49  49  48  47  55 188 195  61  40  71  82  99 132 140 168 178 196 192 187 185 188 192 184 188 195 195
 201 192 191 193 182 176 187 182 175 169 171 178 188 163 135 186 144  85  36  43  39  45  48  61  60  70 174 195 168 198 213 223 238 228 235 210 188 195 191 185 185 192 195 188 192 202 203
 198 188 184 186 187 185 196 188 183 180 185 184 188 169 123 171 145 105  84  90  93 106 108 105  98 101 169 200 192 199 179 166 163 151 137 115 172 194 196 186 181 182 185 192 194 201 203
 183 181 172 180 190 179 185 190 196 192 197 189 190 172 112 170 158 125 122 119 111 112 101 105 104  92 158 207 113  59  42  28  23  17   9  27 166 199 191 186 179 181 188 190 194 201 200
 177 175 176 189 201 194 187 190 195 191 183 186 185 176 122 161 167 136 116  55  67  47  32  26  17  15 125 218  91   7  13  31  17  31  32  25 167 200 188 181 177 177 187 188 191 199 196
 186 185 183 182 185 179 177 178 175 187 189 190 191 193 143 164 177 145 121  20  14  21  24  19  33   9 102 223 138  24  35  55  36  47  47  28 154 193 188 185 184 186 195 185 184 194 200
 182 185 184 178 182 186 192 190 189 192 190 185 186 177 143 148 181 150 142  34  28  43  45  29  62  27  91 217 154  28  35  56  52  54  57  49 138 196 188 183 184 185 191 186 184 196 201
 194 200 207 210 199 177 172 175 180 177 175 173 178 183 151 126 176 151 143  53  30  52  59  50  67  42  95 217 167  54  50  54  37  37  45  44 114 196 187 177 176 176 180 179 185 199 198
 210 217 231 228 213 175 155 159 163 170 172 166 175 190 169 130 185 153 146  79  48  63  53  45  51  44  90 209 179  47  31  54  43  43  48  23  96 191 192 181 177 179 183 189 199 211 205
 204 206 206 203 205 198 162 157 155 155 167 180 179 184 169 127 192 156 153  98  39  65  52  47  44  43  70 200 198  66  17  49  34  44  48  30  78 191 196 189 177 183 192 196 194 197 193
 206 209 204 206 205 194 152 141 146 143 162 188 184 178 168 127 188 166 153  98  24  55  55  44  46  52  62 183 213  82  11  55  54  65  71  41  87 193 195 188 176 182 193 194 192 194 188
 160 151 136 119 107  92  36  33  47  57  87 148 178 173 166 132 185 172 153 105  28  58  62  49  41  56  56 169 229 107  32  72  84  88  89  46  76 179 197 193 182 176 177 179 179 182 182
 108 122 133 145 157 157  96  61  25  26  85 179 186 187 182 144 184 182 151 120  50  61  65  51  45  65  43 150 238 115  19  39  59  44  47  30  47 163 201 188 182 177 178 180 179 180 180
 188 192 196 207 212 210 212 183 136 137 146 190 188 182 184 141 174 195 149 135  67  55  67  59  54  62  23 139 244 130  13  28  39  20  26  33  30 152 205 194 196 193 187 184 182 183 182
 198 205 201 211 210 211 238 240 197 181 189 179 177 172 177 141 167 208 150 143  45  34  55  49  41  44  21 119 238 150  29  23  49  30  29  54  30 147 203 195 192 196 188 185 188 188 188
 205 210 209 209 205 184 180 169 107 103 119 128 134 160 175 146 157 209 146 152  61  34  51  45  39  52  26 101 239 169  50  46  65  47  45  54  24 137 192 183 178 181 171 168 169 175 177
 197 191 184 171 165 133 117 110  38  20  27  26  53 167 183 165 160 217 156 155  71  37  63  66  53  71  41  89 238 190  48  32  53  29  28  38  13 107 200 195 185 188 181 185 188 196 193
 163 155 151 173 191 191 194 200 101  57  55  41  79 178 176 159 138 203 163 152  87  48  59  58  40  61  29  56 226 203  41  12  33  20  19  32  14  83 191 202 195 193 190 191 191 195 186
 154 153 156 186 200 201 207 217 123  70  68  63  87 180 182 167 120 177 161 140  88  46  41  45  16  30  10  45 211 212  58  30  44  49  44  48  24  80 179 205 198 185 175 172 174 179 178
 156 151 150 181 208 205 207 226 141  89  72  66  80 191 203 197 127 180 180 137 104  33  54  84  84 110 137 136 209 216 189 191 206 220 225 174 149 146 173 200 190 157 162 169 171 172 178
 151 142 141 169 203 206 203 221 148  89  76  60  59 165 182 182 139 175 193 166 169 159 196 217 223 220 236 230 215 220 213 219 217 217 227 196 164 158 161 180 207 173 166 166 161 156 156
 153 145 146 154 182 190 177 174 131  91 100 116 141 192 195 197 189 204 217 214 219 215 223 231 230 221 226 227 222 219 214 212 205 210 219 223 185 151 160 163 207 196 167 171 168 159 157
 150 149 161 160 159 160 163 174 175 149 185 220 211 221 213 207 208 208 212 220 222 216 211 227 230 236 235 226 206 206 200 183 174 167 142 127  89  50  63  67 100 109  79  95 102 102 108
 151 162 192 190 191 194 194 204 218 169 172 217 210 211 221 222 223 226 224 224 221 210 196 182 180 166 157 131  79  70  61  45  43  39  41  43  29  14  14   5  11  13  10  10  16  16  16
 147 172 198 189 190 194 191 199 215 173 169 217 231 226 212 195 182 167 145 118 104  96  93  95 110 106 101 107  90  86  87  83  94 100 122 141  86  45  31  20  32  35  41  31  30  32  33
 146 172 207 195 191 196 192 194 198 174 130 144 143 127 111  93  87  78  79  86 116 136 147 156 171 170 165 165 158 161 153 130 130 118 138 160 110  53  36  28  41  49  52  31  31  31  30
 143 163 193 190 194 198 184 179 178 150 100 111 114 116 118 126 135 131 121 137 159 165 182 180 188 186 175 168 170 170 154 127 125 130 140 158 123  61  43  27  39  64  70  29  33  32  29
 145 153 163 168 167 165 154 159 174 149 121 150 159 162 159 160 167 162 115 123 135 141 177 180 184 190 182 174 167 163 156 132 122 118 133 151 126  63  42  31  35  56  58  27  30  31  31
 155 160 155 156 151 154 150 153 165 153 115 163 181 176 174 176 181 176 148 135 132 136 172 183 182 190 181 172 163 148 147 138 132 130 138 136 109  49  47  42  28  43  56  37  29  26  28
 157 151 153 152 149 159 156 146 153 151 116 151 191 187 187 192 184 174 160 147 159 149 158 157 143 157 163 171 160 148 148 158 164 164 161 146 120  71  62  44  32  43  53  37  29  27  23
