P2
44 57
255
 172 173 176 170 169 169 169 169 175 180 184 198 198 191 189 182 180 188 182 179 181 181 181 179 178 175 169 167 167 162 165 169 172 176 178 183 180 193 212 207 200 202 202 207
 175 174 172 164 169 168 170 178 194 190 184 186 185 183 178 169 167 178 180 177 179 179 177 177 173 166 168 173 173 169 170 171 171 170 172 176 175 185 214 199 193 203 205 202
 162 158 156 153 166 163 162 163 173 169 170 172 165 161 168 167 170 174 174 174 171 185 183 180 184 181 182 176 173 177 173 170 167 165 172 175 167 183 197 177 172 178 174 171
 171 172 173 175 175 174 182 182 182 177 178 176 168 169 175 183 189 179 173 183 156 202 207 202 216 213 208 186 178 170 167 168 171 168 173 180 184 195 192 174 175 185 183 185
 177 187 190 192 182 180 193 196 190 183 188 187 179 182 184 190 192 177 172 177 124 195 209 206 204 197 199 184 174 171 172 178 178 170 172 186 212 200 199 192 194 211 210 205
 171 172 172 171 163 180 184 188 188 187 185 185 185 184 185 188 182 177 175 186 130 184 215 207 203 203 199 186 177 177 173 171 172 161 159 177 205 199 196 195 201 203 207 205
 189 184 178 184 187 183 187 189 186 182 183 178 174 174 172 179 176 171 182 183 127 153 226 208 211 218 211 191 160 153 157 175 180 179 175 180 207 209 203 197 203 199 195 191
 194 185 175 173 176 167 173 171 171 173 177 177 168 159 171 182 190 196 210 167  81  90 187 162 163 196 218 190 134 115 125 160 166 172 173 171 165 141 129 118 117 104  97  95
 167 164 170 169 170 170 171 168 166 165 170 170 165 163 183 186 189 199 188 114  51  31  64  55  38  89 192 189 137 122 137 169 172 174 173 172 147 112 104 120 124 131 149 159
 165 169 172 167 169 170 170 175 169 170 157 120  96 103 161 181 186 157  72  38  40  40  44  47   6  25 173 213 189 173 183 194 181 168 170 169 164 157 159 176 170 170 178 177
 173 173 177 176 178 175 177 177 176 186 167 118 100 104 154 173 163 127 108 129 115 160 178 155  44  24 152 191 178 170 168 149 143 142 137 147 165 165 164 175 173 180 179 176
 184 179 179 180 183 184 177 179 179 176 174 153 148 150 166 172 162 159 176 191 173 200 186 164  56  36 154 196 186 179 170 117 106 112 109 138 162 166 161 164 168 178 178 173
 179 175 173 178 180 182 174 176 173 178 176 168 163 158 165 178 185 181 178 198 169 205 185 143  59  23 142 210 186 187 182 151 147 162 171 178 173 170 160 158 168 182 178 169
 175 174 172 177 182 169 172 185 188 193 190 187 184 183 181 182 185 176 157 204 172 209 192 136  51  25 120 186 175 180 177 175 169 171 177 169 170 171 158 163 165 171 169 170
 180 186 188 193 194 170 183 186 178 183 179 174 169 169 163 165 170 167 155 201 186 207 188 147  67  45 122 184 180 183 185 178 175 163 169 172 205 201 168 167 172 178 174 174
 190 181 177 175 176 163 156 165 161 161 162 156 159 151 137 147 161 162 156 182 182 172 171 137  60  24 105 190 189 177 176 175 173 171 173 178 215 217 183 172 184 188 186 180
 169 175 167 161 161 162 161 167 168 175 184 190 191 176 150 164 172 172 143 114 106 105 106  88  38  21  72 187 188 167 170 173 173 174 172 178 214 230 193 174 183 185 183 177
 145 178 169 169 160 160 156 165 183 179 179 178 178 169 180 183 185 178 156  86  65  18  29  72  50  26  51 184 194 166 170 174 176 175 175 181 206 232 201 173 180 180 180 178
 158 169 161 174 166 163 162 166 178 178 178 171 166 165 167 164 171 170 166 151 131  29  23 102  66  42  62 184 192 169 173 177 177 175 169 171 201 232 203 164 172 175 182 185
 194 182 178 191 179 167 164 165 171 169 168 160 162 177 179 177 181 187 166 142 126  34  16 106  74  54  58 173 185 174 171 162 149 139 127 132 189 233 202 173 178 179 184 187
 178 177 167 172 171 166 163 167 168 170 172 163 170 173 177 178 177 168 164 153 144  36  16 111  75  26  21 148 191 179 179 153  92  79  83 112 179 202 186 175 181 179 175 178
 168 172 171 161 152 152 143 158 170 175 171 163 168 168 168 164 158 150 152 151 152  60  17  97  72  27  33 132 181 174 177 171 154 161 161 165 183 184 178 177 180 180 178 182
 180 187 184 152 107 108 106 144 164 163 166 167 168 161 154 155 168 170 165 153 157  80  17  82  79  52  71 137 194 197 197 182 176 187 183 179 181 180 179 181 180 179 180 185
 180 182 180 164 145 147 147 163 164 161 161 163 167 168 167 163 175 183 180 159 143  87  12  48  54  64  83 129 188 197 201 180 174 177 173 177 183 181 174 182 178 176 182 189
 171 173 166 167 160 163 163 165 168 164 167 170 168 170 166 165 165 160 159 156 122  93  13  23  37  57  53  94 163 172 177 160 163 158 163 175 182 181 176 179 174 175 184 193
 167 171 172 172 171 172 171 180 180 170 168 169 166 165 166 166 166 163 167 176 128  63  16  31  39  51  49  93 171 193 185 182 178 179 174 178 179 180 181 180 178 175 188 191
 171 178 183 185 187 179 174 179 177 175 177 178 173 175 179 179 179 174 174 192 164 116  25  33  49  69  99 114 172 196 190 190 188 189 177 175 182 187 182 179 179 179 184 185
 174 183 183 183 183 175 176 180 179 176 178 176 173 184 182 180 181 176 175 189 180 148  42  25  38  49  93  95 156 178 170 173 174 175 175 171 176 187 192 184 180 182 181 180
 162 178 182 184 184 179 176 171 170 168 167 164 166 181 180 175 173 169 168 173 153 127  47  20  37  49  81  75 139 178 167 167 169 171 176 178 185 206 229 199 180 181 180 182
 174 181 181 183 182 176 168 159 164 169 167 167 171 184 180 169 164 159 158 162 136 124  49  18  48  92 129 117 166 195 179 176 179 181 184 183 187 205 226 211 179 180 182 186
 175 177 172 177 186 187 193 186 180 179 187 197 193 205 192 141 123 119 120 115  97  93  56  15  69 135 165 168 187 201 179 174 176 180 179 178 169 194 218 219 188 181 186 185
 180 181 178 178 182 186 187 179 179 180 191 194 182 189 180 122  91  92 106 111  99  97  61  10  86 157 181 189 196 196 181 173 171 173 177 185 175 190 215 225 181 180 178 180
 178 177 172 164 165 159 157 163 170 175 182 187 179 177 176 147 138 146 162 181 172 155 100  13 113 203 233 232 212 183 177 167 164 170 173 180 175 187 204 221 190 183 178 178
 178 173 181 186 178 174 171 175 172 168 169 175 176 172 172 175 182 182 186 197 186 159 113  20 136 213 226 220 204 177 181 168 162 169 181 181 180 181 181 196 182 170 173 188
 174 168 173 176 180 178 168 169 169 167 166 163 163 163 174 181 183 177 179 181 174 151 117  22 112 173 176 177 185 175 196 193 191 199 204 212 220 217 211 192 182 185 179 197
 181 178 175 176 176 175 168 165 171 174 170 163 163 167 175 173 175 174 177 185 178 166 143  31  98 176 199 200 215 189 217 230 226 222 220 221 217 209 183 142 157 171 169 170
 182 174 174 177 178 174 173 172 166 168 170 165 172 187 188 188 196 203 212 225 229 215 180  43 108 192 227 227 227 168 188 200 190 197 195 193 187 170 117  94 132 146 144 150
 183 185 187 184 175 180 193 204 206 217 218 219 220 224 235 237 240 231 225 214 202 198 162  46  76 152 182 181 175 142 158 188 177 193 197 195 191 154  72  86 143 153 161 145
 217 226 229 220 228 230 228 228 230 222 222 221 213 200 188 189 192 186 183 182 162 170 143  60  61 140 176 184 182 136 139 184 167 178 209 200 197 145  67  78 117 155 211 204
 226 223 219 206 202 204 203 201 200 192 196 197 195 193 188 191 198 197 197 200 179 174 152  78  41 134 181 189 182 128  97 138 134 160 218 210 208 136  56  53  87 172 227 223
 193 204 205 188 190 204 205 210 212 212 208 205 205 204 199 205 209 206 202 200 189 179 159  98  30 140 181 182 161 107  61  81  70 111 210 212 196 110  32  30  68 181 235 222
 205 211 214 203 195 211 211 212 210 211 208 207 208 207 200 203 206 203 200 204 192 184 171 112  21 145 183 189 166  95  43  39  32  75 209 218 176  73  31  30  44 137 223 227
 209 210 213 204 194 208 207 209 208 208 207 209 209 207 201 203 205 203 202 201 192 190 180 123  24 144 185 202 178  91  36  47  44  93 218 220 161  57  36  37  22  98 221 238
 209 210 211 204 195 207 207 210 211 207 208 210 209 205 205 207 207 203 199 207 190 183 178 124  27 104 161 186 165  79  28  56  52  95 181 189 137  54  25  31  28  84 203 244
 211 209 212 208 196 210 211 212 210 208 210 212 210 205 201 203 201 192 184 181 168 159 146  81  12  48 119 150 130  53  18  42  42  80 154 168 114  56  38  38  25  27 138 240
 215 211 216 211 200 203 211 203 197 196 191 190 181 173 160 159 169 160 152 144 143 132 125  91  40  38 105 130 118  51  20  27  40  43  84 127  83  52  38  33  33  28 107 230
 204 205 198 185 173 172 177 190 180 176 169 165 160 159 154 152 157 149 145 141 141 121 120  85  17  12  88 135 120  48  16  29  31  32  51  79  58  46  39  32  34  25  93 186
 153 140 131 124 129 118 143 171 165 160 156 155 153 157 156 157 156 148 145 147 137 136 157  97  23  16  80 159 159  45  18  31  28  30  38  43  38  37  35  34  33  34  65 127
 130 101 113 127 124 119 150 168 166 160 158 158 153 155 159 156 153 150 147 145 137 129 136  75  12  21  41 125 132  41  27  29  20  20  35  31  27  34  31  28  24  36  50 114
 159 144 156 157 156 170 175 177 175 168 166 164 160 165 164 152 146 150 151 150 133 123 124  73   5  14  40 143 112  32  35  32  20  15  33  30  23  34  29  22  32  39  47 102
 167 171 170 167 171 176 173 166 165 155 157 159 156 159 162 151 150 160 165 169 163 153 184 137  20  21  58 121  89  46  38  27  25  29  31  33  33  28  29  24  29  29  21  57
 170 171 170 169 169 170 168 166 170 159 158 156 157 171 186 180 176 178 181 182 176 126 105  81  16  37  38  46  39  49  32  27  29  36  23  31  35  28  29  31  33  20  25  34
 172 176 171 168 170 174 174 172 171 165 160 151 154 174 191 190 186 185 189 186 126  67  60  64  68  87 116 129 118  91  37  27  31  34  29  29  28  27  35  40  32  31  42  23
 169 173 168 164 164 161 160 165 171 165 159 154 158 177 196 198 196 194 194 154 142 144 149 139 123 135 165 174 150 115  36  26  28  25  30  28  33  31  29  28  36  37  35  30
 157 160 157 159 164 161 161 164 167 171 165 162 164 175 197 202 203 194 183 146 147 159 156 135 114 126 148 162 144  91  23  25  25  24  27  23  32  33  26  28  30  27  36  26
 165 167 171 173 181 184 168 167 170 172 167 160 162 174 195 198 196 194 164 141 146 155 155 133 124 134 155 161 148  77  22  31  24  29  28  19  27  27  26  22  27  25  23  31
 166 169 174 178 176 171 162 169 168 169 167 160 162 172 186 168 145  91  94 133 152 163 183 184 174 157 154 165 143  61  20  26  26  29  25  17  28  25  27  20  40  38  21  30
