P2
87 75
255
 106 106 128 148 148 150 153 150 158 152 164 170 158 160 170 158 160 164 164 165 161 157 158 152 151 154 154 156 164 173 178 172 170 168 178 189 208 212 208 203 200 168 195 200 195 194 190 187 185 193 184 178 180 191 184 174 167 170 170 173 172 168 156 166 174 168 156 159 150 140 153 157 146 142 153 172 182 177 178 176 167 162 158 167 175 170 167
 132 147 162 167 157 162 165 158 164 161 153 157 151 156 160 159 163 169 171 168 161 164 162 162 164 169 172 171 171 177 178 176 181 187 194 209 211 212 212 215 209 177 201 210 200 199 190 185 183 187 184 181 189 209 213 198 185 187 174 170 172 166 157 172 185 171 163 148 121 113 147 150 143 141 152 165 174 172 162 165 161 161 162 171 184 163 163
 142 140 140 156 154 157 156 141 149 153 156 150 147 165 175 182 183 189 185 163 157 164 159 169 176 179 176 165 169 184 195 201 200 194 191 211 213 223 224 224 206 173 189 211 209 214 196 187 186 192 191 184 185 197 205 198 196 210 194 185 181 180 170 167 165 158 154 149 132 130 162 159 154 151 161 163 171 176 157 161 158 163 165 164 173 166 160
 138 131 147 162 157 158 155 133 139 148 150 151 153 168 171 177 172 172 179 167 160 171 176 175 172 173 178 180 187 198 209 211 203 198 194 221 219 203 181 158 150 142 125 119 122 141 141 151 161 171 178 181 189 191 194 195 195 197 190 192 197 194 185 176 172 166 154 159 164 168 171 158 148 143 152 164 170 178 168 171 165 168 174 169 173 171 169
 150 136 152 159 160 158 160 141 147 157 163 166 164 171 168 175 180 173 180 182 176 176 182 174 171 179 185 192 199 205 208 209 209 202 180 168 149 113 119 125 122 123 112  90  58  59  54  56  67  85 137 141 157 172 190 192 200 194 193 198 197 200 200 194 192 180 169 173 164 152 152 135 130 131 145 175 172 171 168 170 175 171 178 175 179 179 177
 150 142 150 165 175 169 171 160 155 160 164 167 175 181 178 179 176 171 177 177 178 173 176 186 192 197 198 203 206 212 217 213 182 139 100  59  64  62  72  74  88  81  69  88  59  65  53  37  49  46  78  76 108 127 130 125 145 170 181 202 202 194 201 199 197 192 185 187 175 151 138 143 144 146 152 182 185 178 180 175 182 176 181 187 182 179 177
 160 161 156 160 159 158 158 153 151 148 158 165 167 169 167 172 171 172 177 176 176 180 187 193 198 201 205 212 220 211 187 162 105  65  59  46  51  59  64  49  69  58  45  76  78 100  91  78  80  69  75  73  81  79  82  56  69  80 111 159 184 195 199 198 197 198 194 188 179 169 159 163 166 171 177 201 200 192 187 170 170 178 178 173 175 173 174
 167 163 148 148 134 131 129 131 148 151 150 150 148 157 156 171 179 180 176 176 182 199 201 191 191 199 221 213 191 161 140 125  94  59  50  51  62  89 118 105  81  67  60  78  85 118 120 118 121 111 109  79  71  76  73  47  55  42  49  69 122 170 185 192 198 198 193 184 182 176 174 176 177 178 181 197 205 201 191 172 172 184 182 171 170 171 173
 160 158 156 153 137 140 145 146 165 172 170 165 161 179 180 182 182 176 175 188 198 203 201 193 192 198 190 155 135 135 117 106 101  93 101 123 129 112  99  74  64  51  49  47  51  45  43  37  50  65  63  51  48  54  60  50  71  64  67  58  82 121 141 161 178 190 208 191 176 180 173 181 180 176 179 194 207 204 192 172 167 174 178 175 172 173 177
 138 134 137 142 147 166 180 173 174 171 162 162 154 170 175 168 168 178 188 200 200 194 202 199 179 138 103  78  84 102 101  96  94  94 128 128  98  53  53  49  63  80 104 102 113 123 127 104  73  60  51  42  39  42  42  59  92 100 126 130 109  94  93 117 135 139 166 178 184 181 180 193 190 180 184 205 212 211 198 173 162 167 171 171 172 178 179
 134 126 133 139 139 157 167 162 161 166 163 161 178 178 177 177 191 193 201 201 200 195 186 148 105  54  54  63  41  64  96  87  68  62  63  49  50  64 112 164 186 205 237 223 236 233 230 231 221 203 185 139 115  98  61  51  58  63  83 122 124  88  70  70  98  71  75  94 140 169 173 168 158 144 129 186 210 206 199 182 169 170 171 165 172 175 176
 155 156 157 153 156 171 178 172 164 172 177 174 175 171 175 194 199 207 203 200 201 185 147  81  61  53  49  67  68  51  81  64  53  47  54  72 116 171 211 236 239 236 246 233 245 244 243 237 230 227 228 219 214 204 167 147 137 103  80  68  74  59  68  81  96  56  57  43  54  79  82  72  66  53  74 175 204 206 201 186 176 182 177 177 177 175 176
 175 168 163 160 165 171 167 161 144 137 153 149 144 163 195 207 207 206 207 201 174 154 122  82  68  67  93 122 119  98  65  41  50  84 128 179 218 225 238 237 237 222 193 148 149 154 166 179 197 215 224 229 219 218 197 224 231 198 169 145 112  67  54  69  74  44  76  71  50  46  53  56  60  85 141 178 207 212 205 191 164 161 177 174 170 177 182
 167 161 163 161 158 170 160 155 158 152 156 173 173 183 198 203 201 203 202 167 142 119 109 119 122 136 139 118  76  62  55  65 129 195 225 217 235 223 220 183 135  88  48  22  21  20  21  25  43  63  96 132 156 176 175 237 243 229 217 192 199 175 129  86  60  57  76 108 115  86  54  55  71 134 172 171 199 209 203 193 130 125 167 171 174 172 164
 171 165 167 168 171 188 194 192 204 196 191 206 195 191 192 198 206 195 161 141 122 108 107 109 131 131 110  73  64  80 121 160 200 228 242 217 212 165 110  67  36  22  22  27  33  34  33  22  13  14  16  20  26  47  73 136 188 209 201 197 223 233 220 179 129  77  63  78 118 129 109  88 116 184 190 170 197 207 203 195 171 169 196 197 199 164 113
 174 172 166 171 177 201 200 206 208 202 204 210 206 193 192 198 182 123  91  97 109 109 108  93  78  67  77  95 129 167 212 214 226 211 203 131  83  46  32  27  29  31  34  32  31  33  32  26  12  19  31  36  30  28  18  12  36  58 116 148 206 238 244 234 226 191 148  97  90  89  71  62 131 195 183 167 194 206 203 196 204 232 226 224 221 174 119
 178 179 174 172 176 199 201 201 197 193 195 198 213 208 189 161  97  53  40  40  82 110  94  67  49  66 100 149 188 209 235 216 199 144  94  37  29  31  31  30  31  32  33  32  30  30  27  25  20  19  24  28  34  32  32  29  30  18  24  35  97 159 210 234 233 222 200 164 129  92  40  37 141 201 183 169 188 205 205 190 196 232 223 222 220 196 167
 161 159 164 167 170 201 202 204 200 186 176 183 180 154 134  80  40  45  48  48  49  82  61  42  68 106 167 200 230 228 221 168  96  46  36  39  37  35  30  31  33  33  33  31  30  31  20  14  25  23  13  14  32  32  37  36  35  36  31  29  21  23  71 143 200 204 202 201 189 162 122 114 168 200 191 175 189 204 205 197 198 233 222 232 235 205 172
 147 151 163 159 154 192 201 208 196 160 103  80  67  64  63  45  53  76  90  88  84  67  56  82 135 195 211 200 219 188 121  67  37  39  33  26  30  33  30  33  33  33  33  32  32  29  26  17  40  43  32  20  32  35  35  37  29  33  39  37  35  25  24  30  61 117 158 189 197 201 197 162 168 203 189 169 186 201 201 203 194 205 192 196 197 195 177
 115 123 132 131 141 189 202 207 203 179 149 104  62  48  54  46  69  96 126 107  90  88  92 147 202 227 229 200 154  85  49  46  36  31  31  30  30  33  30  32  33  33  32  33  34  31  45  37  58  56  47  22  23  37  35  35  33  32  38  37  43  46  44  44  33  49  81 139 183 196 195 161 161 191 181 163 182 203 203 201 191 191 190 197 196 206 208
 153 154 166 174 169 188 204 210 206 189 184 167 150  99  77  75 110 132  83  86  93 107 164 211 229 226 202 118  51  31  41  35  28  27  28  32  28  29  30  35  35  32  35  35  38  31  50  29  54  65  51  30  28  46  40  50  46  47  52  50  57  61  72  78  76  71  75  84 125 175 185 163 154 179 172 168 184 215 205 197 201 219 222 229 222 215 208
 182 176 182 181 179 184 200 210 204 192 180 180 182 160 130 100 101  91  55  78 113 157 199 224 224 185 101  49  34  40  33  26  24  26  25  30  29  33  32  34  37  36  39  39  42  42  52  36  62  80  53  42  39  61  53  56  51  51  52  49  55  62  71  79  86  83  87  82 107 186 204 182 164 181 186 175 185 224 210 202 206 215 215 223 218 218 218
 173 168 171 169 170 178 202 206 207 189 184 171 175 173 171 147  93  48  50 100 174 190 199 202 168  67  39  41  38  31  27  24  26  29  28  31  30  35  36  39  40  41  45  44  48  48  56  48  54  76  58  42  32  63  56  54  50  51  47  46  62  65  72  79  84  89  90  88  98 199 225 186 167 186 195 173 180 222 208 208 224 219 212 219 216 209 203
 167 179 182 188 185 185 204 205 210 190 183 175 179 172 176 185 157 113 109 151 207 208 193 132  61  37  38  28  25  29  26  28  30  31  32  36  34  36  35  38  43  46  49  46  51  50  43  54  74 117  63  48  36  58  57  59  54  54  44  43  59  63  68  77  89  88  88  91  89 184 231 201 174 175 195 169 176 211 193 182 190 187 182 184 182 180 184
 190 216 218 230 220 200 200 211 208 198 189 179 170 173 173 182 171 157 167 186 225 201 135  50  41  36  29  27  24  23  24  30  30  27  31  32  34  40  40  41  45  49  51  46  51  54  63 131 178 216 128  48  25  63  59  58  55  56  44  44  60  66  57  60  86  88  89  90  83 172 225 200 181 175 185 173 168 199 198 183 184 195 200 198 193 196 212
 190 214 216 221 218 197 200 211 212 197 191 185 170 171 177 188 172 156 174 191 206 128  31  26  33  15  16  13  17  18  23  31  29  30  30  32  36  38  40  42  44  42  48  56  56  61  61  96  82  90  53  19  43  61  60  55  57  56  47  42  56  64  47  44  82  88  92  91  89 150 211 194 186 179 185 178 175 188 200 213 212 213 212 219 223 209 209
 185 216 223 225 220 202 199 207 208 195 183 184 174 169 168 181 173 156 172 194 185  75  18  38  33  24  23  18  21  22  21  29  28  30  31  34  38  40  42  44  48  49  56  59  55  55  45  54  45  50  50  42  65  67  68  60  58  57  54  48  63  67  54  53  83  91  88  92  92 144 228 205 197 182 196 182 181 182 209 224 217 214 200 219 230 231 225
 184 201 198 198 202 194 196 206 208 209 190 182 170 170 179 182 179 162 188 231 219 104  29  43  35  30  27  23  26  27  28  34  34  32  32  33  38  43  46  49  50  52  59  62  61  65  61  64  66  70  67  51  62  65  65  66  62  61  60  47  67  78  71  64  76  98  89  92  89 131 241 217 207 181 194 187 180 200 229 227 219 208 186 201 198 183 164
 186 190 187 196 210 200 203 212 208 209 193 185 175 173 183 188 183 159 186 237 234 124  41  50  40  32  29  24  27  29  27  32  36  33  37  37  41  43  45  47  52  52  53  58  61  61  61  66  66  65  68  49  64  73  68  66  67  66  66  51  67  68  57  53  54  80  80  84  70 105 234 211 200 180 190 182 172 155 136 127 122 117 110 121 112 106 105
 211 212 209 210 212 197 196 212 210 203 195 187 178 171 178 181 181 160 183 230 240 134  53  42  41  37  32  24  27  28  29  34  38  33  37  36  41  43  45  47  53  55  58  63  67  67  62  67  65  67  68  57  63  65  67  63  67  66  73  66  68  58  53  50  31  28  42  48  23  46 208 202 201 188 185 177 167 137 135 132 133 140 147 161 167 174 172
 207 200 202 202 207 203 197 201 208 206 194 190 176 152 161 167 167 160 170 208 225 138  54  41  36  42  35  31  29  28  29  31  35  38  38  39  34  38  47  47  58  56  59  62  63  62  66  69  68  67  77  67  58  60  91  52  45  43  34  21  24  26  30  34  42  48  51  14   1  19 209 227 201 199 187 179 176 186 193 186 184 181 175 171 173 173 172
 199 193 203 205 202 202 197 193 195 199 195 182 176 151 164 171 170 172 178 201 224 153  70  54  44  41  37  33  31  28  26  32  32  37  34  43  41  42  45  48  56  57  60  61  59  54  47  44  41  33  37  51  14  32 127  31   8  16  25   6  43 113 134 125 147 164 143  41   2  15 201 230 203 193 190 182 180 189 195 186 183 181 179 177 174 170 172
 177 172 178 174 171 175 176 176 186 203 182 175 185 160 167 174 176 182 182 204 243 173  74  61  49  39  36  33  30  26  25  32  30  31  32  36  35  29  27  32  21  17  15  13  10   6   3   1   1   1  15  63   9  26 153  51   8  21  35  10  63 180 200 176 180 186 150  46   2   4 186 242 213 190 191 183 182 192 199 191 189 184 180 181 181 172 177
 174 175 185 183 185 192 194 193 189 185 186 181 186 164 170 179 185 189 180 204 240 192  83  71  61  42  38  34  32  29  30  41  39  20  25  28  19   6   2   4   5   2   3   6   6   3   6   7   7   7  17  70  15  16 133  51   9  16  14  24  28 142 196 183 168 200 142  42   1   1 157 245 219 198 196 182 180 190 197 189 187 184 178 179 186 170 177
 192 194 211 210 205 207 199 197 193 182 169 178 186 169 170 190 193 194 176 193 237 206  82  65  68  42  36  32  31  30  25  45  53  17  24  36  23   8   5   8   6   6   8   9   7   6   5   8   8   3  12  65  19   9 118  70   3  12   8  26  12 105 200 187 169 208 154  37   1   1 137 243 213 200 196 181 178 185 190 181 177 177 167 161 167 167 177
 195 201 203 207 205 207 208 212 207 198 156 155 186 169 164 186 188 178 171 175 223 204  93  71  68  51  39  33  29  29  23  40  54  12  13  17  19  16   6   4   6   5   5   4   4   6   3   4   5   2   8  64  25   7 102  84   4   7  10  31  15  58 182 198 175 197 152  52   3   2 110 232 204 207 182 168 170 185 185 185 174 171 175 173 172 177 180
 197 203 199 195 191 170 157 148 136 122  98  95 147 149 133 133 157 188 176 185 225 221 115  74  76  60  41  36  34  30  26  36  55  15   7   9  24  20   2   3   6   5   5   5   4   5   4   4   5   3   4  55  31   4  80 100   8   9   7  18  21  50 170 183 166 170 145  59   5   6  92 233 208 199 186 177 178 192 193 191 187 185 188 186 185 179 180
 118 117 104  97  95  96 108 119  58  25  55  55  99  93  91  64  94 210 187 185 228 233 133  66  75  64  43  34  31  28  29  30  88  29   7  11  24  24   4   6   5   6   5   4   5   4   4   4   4   4   1  48  43   4  69 117  14  22  21  20  27  28 116 134  99  77  59  25   6   2  79 234 223 204 195 181 180 193 194 193 190 189 188 187 187 183 182
 120 124 131 149 159 162 174 189 101  49 105  95 120  98 127  75  67 204 188 190 227 237 149  63  72  68  47  34  30  29  22  27 133  50   5  13  19  22   4   5   5   5   5   5   5   3   4   4   4   5   0  39  54   6  72 134  25  45  31   9  25   7  27  35  26  28  23  14   7   4  54 221 227 204 192 184 181 195 198 196 196 194 186 187 188 189 186
 176 170 170 178 177 176 182 200 123  33 110  91 129  95 112  77  75 201 190 189 218 232 160  67  73  72  44  33  33  28  24  23 134  57   5  12  20  25   5   6   5   5   5   5   5   3   5   4   3   6   3  32  59   5  62 140  26  49  45  29  35   7  11   9  15   9   8  15  12   2  34 210 228 204 195 185 180 195 200 198 199 194 182 184 186 186 182
 175 173 180 179 176 177 180 185 128  29  88 101 115 112 100  95 131 209 189 180 211 236 162  62  69  68  46  34  32  26  25  15 121  74   3  15  17  30   9   5   7   4   4   5   5   4   5   3   3   5   4  30  66   5  49 140  42  37  40  42  62  25  12  24  28  22  20  20  15   5  21 196 235 207 204 187 182 197 197 200 198 188 182 179 176 175 173
 164 168 178 178 173 173 172 174 156  93  98  86  66  66  57  45  63 170 187 167 193 217 165  68  66  65  49  36  30  26  30  16 114  93   7  13   9  27  13   8   5   4   5   6   4   3   5   3   3   5   5  14  65   9  27 140 115  64  33  30  85  41   9  15  15  26  23   6  10   8  13 165 229 209 200 181 183 194 200 196 194 185 179 176 171 170 171
 158 168 182 178 169 172 168 168 139  36  55  60  40  47  90  96  55 162 197 185 209 230 192  80  67  71  59  39  32  31  30  14 103 101   8  23  12  31  15   5   4   5   7   6   3   4   5   3   3   5   3  13 104  26   6 141 179 106  27  13  78  55   4   8  24  31  22  15  11   8   6 111 199 192 187 179 182 186 200 197 195 186 181 178 173 177 179
 163 165 171 169 170 167 170 170 156  55  78  95  69  39  61  42  22 148 202 179 213 229 206  85  64  73  61  36  31  31  31  16  81 128  64  23   9  30  16   9   5   5   5   6   4   4   5   3   3   5   5  16 140  48   3 112 187 113  10   1  73  58   7  23  29  32  17  18  10  11   1  80 200 192 187 182 179 181 198 200 193 186 183 186 187 183 183
 167 172 178 174 174 164 169 180 174  53  11  11   7  21  34  49  88 170 201 183 210 219 211  93  64  69  59  38  35  31  34  23  56 171 154  43  20  31  13   9   7   4   4   5   5   4   5   3   3   5   5  10 125  54   2 103 175 112  13   1  62  60   3  15  19  16  17  15   8   3   1  69 205 195 192 184 177 183 195 201 197 186 182 186 188 188 185
 172 184 188 186 180 169 180 184 177 146 130 160 175 195 192 185 201 206 201 181 205 224 219 107  58  69  65  41  32  30  31  26  37 170 189  46   4  26  22  12   7   6   7   8   6   5   4   3   4   4   6   8 117  75   3  87 116  11   4   5  52  77   5  23  25  20  16  20  14   8   9  52 197 190 192 184 178 178 187 194 193 183 177 180 184 185 184
 174 183 185 183 177 169 178 180 186 184 191 198 198 197 193 182 192 196 196 184 196 227 235 118  56  69  65  43  33  30  25  28  39 156 189  54   3  26  26   7   7   5   4   6   5   5   4   3   4   4   7   7 109  90   3  75 113  12   4   5  41 104  18  11  23  22  20  26  27  26  26  51 187 190 188 180 176 178 185 189 189 181 177 179 182 189 186
 173 180 180 180 178 170 174 178 180 180 182 187 196 192 191 178 185 190 189 180 170 200 216 119  51  63  61  42  33  30  25  26  37 137 117  27   3  37  65   8   8   4   3   4   5   5   5   4   4   4   6   6  90 110   6  47 159  84  14  12  47 105  35  19  27  23  20  21  22  19  13  25 160 187 184 184 177 175 180 185 185 181 176 181 182 187 188
 164 172 175 182 185 178 178 189 182 171 180 184 190 187 181 168 176 184 184 178 165 192 204 129  45  63  64  47  38  33  32  26  27 119  70   1   4  35  99  13   9   5   4   5   4   5   5   3   4   4   5   3  65 124  12  34 167 145  45  12  13  45  12  11  16  19  17  17  19  13  13  15 145 185 178 176 169 169 178 185 191 182 168 169 166 165 177
 173 178 179 184 187 177 173 183 175 171 175 174 174 182 181 171 176 184 185 181 183 200 205 149  58  64  65  48  37  31  32  32  24 118 122   3   7  28 116  30   9   7   7   6   3   5   4   4   3   4   7   2  50 132  19  22 156 116  19   3  13  51  11  14  23  18  19  19  20  12  14  11 129 177 172 172 169 170 178 183 185 178 164 171 170 174 187
 175 181 179 175 178 169 171 175 178 177 182 179 178 185 184 178 178 185 183 189 187 194 205 163  61  71  70  56  41  37  36  26  19 104 196  77  10  29  59  19   9   3   4   8   5   7   5   4   6   7   9   5  28 132  24  21 149  78  10   9  11  44  15  13  20  19  23  21  18  10  15  10 112 175 172 174 175 172 177 182 183 181 178 183 184 189 195
 177 180 180 178 182 182 179 179 180 178 182 184 182 186 187 172 178 192 191 193 184 193 213 173  62  75  70  57  42  36  33  32  15  89 176 100  13   8  40  16   4   4   5   6   5   7   7   7   9  10   8   7  24 134  32  19 131  66   6  11  10  36  16  10  13  19  22  19  17  11  13   9 107 184 179 177 175 169 177 185 187 188 184 185 184 186 192
 181 180 179 180 185 183 177 176 177 174 172 180 180 184 188 175 179 194 192 192 187 188 211 186  76  71  68  59  44  37  35  29  12  84 153  53   8  24  58  33   1   6   7   5   6   9   8   8   7   6   9   7  19 135  45  14 115  87   8   9  11  29  25  11  14  20  22  20  19  15  16   7  94 196 185 184 179 171 177 183 183 187 185 185 183 185 189
 182 178 176 182 189 184 178 178 180 175 172 181 180 181 183 175 176 191 193 194 183 184 212 198  92  64  69  59  40  32  30  32  20  93 144  25   5  14  34  18   3   8   8   6   6   7   9  10  11  11   8   8  12 128  73   6  87 105  11  12   8  23  33   8  14  25  27  22  19  12  17   6  74 194 184 181 177 171 177 186 186 190 186 185 184 180 181
 179 174 175 184 193 181 176 178 178 170 170 178 180 182 180 175 177 194 195 193 177 171 196 195 102  54  67  59  38  32  35  27  47 141 158  22  16  17  28  23   7   8   8   8   6   6   8   9   8   7   6  11   3 108  86   1  66 116  11  13  10  23  38   7  14  19  24  23  21  14  14   7  57 181 180 174 167 157 167 178 177 182 179 179 181 174 174
 180 178 175 188 191 184 183 179 184 177 169 174 179 177 181 175 172 184 190 189 171 167 181 188 111  52  66  70  49  41  37  27  55 160 172  34  13  20  28  30   3   7   9   8   7   7   8  15  10   7   8   7   1  91  98   1  55 122  11  10  11  19  57  10  11  21  20  25  19  18  14  10  23 172 179 169 150 146 165 172 169 175 176 176 189 191 200
 179 179 179 184 185 181 182 179 186 184 173 172 174 176 184 173 168 180 193 197 182 181 192 199 135  59  73  73  48  36  36  29  55 156 178  39  13  19  27  36   5   6   8   9   8   9  10  11   8  11   9  10   4  81 116   1  49 133  15   8   7  20  67  15   9  17  23  26  24  19  13  14  21 170 184 163 153 159 176 173 175 186 187 176 180 181 181
 184 180 182 181 180 176 178 173 179 181 180 184 191 189 188 186 179 189 198 198 187 184 199 211 152  64  75  74  52  39  41  33  54 141 177  46   9  19  22  33   8   6   7   8   8   9  13  10   7  11  12  10   7  69 133   4  41 145  29  10  10  24  84  29   9  20  26  24  27  21  14  16  19 161 178 156 151 156 159 142 136 151 153 147 149 151 156
 199 180 181 180 182 187 191 182 183 185 185 186 192 191 191 188 180 191 201 198 188 181 199 216 167  69  71  72  58  42  39  31  53 135 182  59   6  20  19  32  13   8   6   8   6  11  14   9  10  10  13   4   4  51 139  11  20 136  40   3   7  14  85  34   4  22  24  24  24  21  14  17  14 143 181 161 160 163 164 148 143 146 143 143 144 147 145
 211 179 180 182 186 192 199 188 186 187 187 187 194 193 191 187 176 187 200 199 188 180 191 212 180  70  69  71  56  31  23  16  48 134 192  85  15  26  28  43  17   9   5   7   4  15  12   5  11  11  19   5   2  39 149  23  14 131  52   4   8   9  90  44   7  15  17  26  21  19  13  18   4 115 180 164 162 159 158 150 136 141 152 172 179 164 166
 219 188 181 186 185 189 197 188 192 189 190 190 193 188 185 179 176 180 188 189 179 172 180 196 178  70  63  60  49  26  46  79 118 132 187 120  13  21  18  44  19   6   8   6  11  20  10   8   8  12  16   8   3  19 134  38  12 123  63   6  12   7  85  52   9  11  26  28  25  24  17  11   3  97 188 168 166 161 159 149 137 147 168 213 221 217 229
 225 181 180 178 180 188 194 184 185 182 177 182 186 182 184 177 166 168 178 178 169 159 168 191 188  79  64  66  66  54  80  88  81  71 125 124  15  23  16  62  31   4   6   2  12  13   7   8   8  11  18   5   3  15 128  38   9 111  79   6  10  11  77  63  14   7  22  30  25  21  13  13   7  91 206 173 169 164 164 156 146 146 191 231 223 221 231
 221 190 183 178 178 177 185 179 176 170 164 170 173 171 178 189 179 177 184 187 194 183 179 189 204  96  67  71  72  64  66  46  43  39 101 137  19  18  11  75  49   3   5   9  16   8   7   7   9  11  23   8   8  13 120  52   5  91  86   9  29  28  45  35   9   5  17  28  18  19  10   5   3  78 218 180 170 164 162 158 149 153 215 237 222 222 226
 196 182 170 173 188 185 187 183 186 191 197 208 216 208 205 205 207 203 193 187 178 173 169 173 197 109  68  72  73  65  59  54  53  38  93 150  26   9  10  62  90  13   3  12  13   8   9   5   8   9  16   8   7   9 102 136 128 170 107  15  23  15  28  30  25  17  25  33  23  39  56  56  57 101 204 190 174 166 163 163 154 175 229 231 223 228 241
 192 182 185 179 197 210 216 214 210 209 206 201 195 180 170 180 176 174 175 171 169 164 168 171 191 122  72  74  75  70  62  56  47  42  70 162  40  14  18  53  62   8   4  19  15   8   8   2   4   7   9   9   7   6  88 198 219 218 135  31  47  51  61  41  49  59  57  50  30  53  96  98 107 131 197 199 181 173 171 175 157 188 231 224 220 228 228
 142 157 171 169 170 176 177 163 169 175 177 177 169 159 157 169 168 166 164 166 167 165 160 165 197 142  72  83  80  74  61  53  49  46  64 164  75  18  25  29  30  11   8  17  17  12  15  24  29  37  32  43  68  71  93 133 129 121 104  63  97 111 101  85  85 101  95  41  10  58 140 174 177 188 195 195 178 175 159 169 171 204 227 221 220 235 209
  94 132 146 144 150 159 164 167 169 169 165 169 168 164 163 162 169 169 167 169 169 166 164 168 216 166  78  89  84  80  62  53  45  45  61 157  82  19  34  22  34  43  32  14  23  36  41  41  49  49  34  46  75  85  98 110 110 120 134 125 133 141 146 144 157 162 154  91  28  84 173 188 188 176 168 163 154 150 144 152 187 221 225 217 219 233 189
  86 143 153 161 145 151 153 181 180 164 164 169 168 162 161 167 173 169 163 167 174 168 167 168 224 181  76  89  83  69  51  48  40  41  48 127  88  59  76  61  61  88  26  29  48  51  61  67  80  53 119 136 147 154 166 177 179 185 188 179 184 177 175 163 163 157 155 111  19  33 133 163 161 167 174 182 183 179 178 177 211 234 222 220 227 217 163
  78 117 155 211 204 195 203 229 193 166 175 177 172 166 165 173 176 172 168 169 172 168 170 179 226 196  75  68  78  83  75  81  81  99 109 130 127 131 138 134 142 109  27  99 107 116 116 118 123  82 143 182 186 181 183 179 179 177 174 170 166 161 162 155 138 150 161 106   9   8 119 201 185 173 202 192 182 179 179 178 231 226 210 211 214 191 151
  53  87 172 227 223 226 238 232 164 162 185 182 172 164 164 172 175 174 168 163 166 165 170 185 218 193 105 108 126 143 144 160 164 174 170 173 181 175 174 177 179  91  17 105 127 121 117 119 128 102 130 177 181 176 173 172 172 170 165 165 163 163 166 169 142 174 176 101  16   7  87 169 174 158 181 180 169 177 169 159 157 164 194 209 203 160 145
  30  68 181 235 222 224 227 187 159 176 192 198 172 163 169 176 172 169 166 168 167 167 170 182 204 207 188 199 208 200 194 191 180 181 175 173 175 170 164 167 129  34  75 101 117 124 118 121 100 167 189 183 186 176 182 182 173 175 173 171 169 165 163 166 130 158 148  82  10   6  75 153 175 164 184 182 180 185 173 120 111 148 180 189 170 140 144
  30  44 137 223 227 229 221 169 162 185 202 184 133 148 163 167 168 168 164 159 161 164 170 175 184 186 179 188 191 183 181 180 171 172 169 167 168 166 173 176 102  36 136 132 125 133 131 126  88 172 202 182 180 174 174 171 165 162 157 155 154 153 156 151 132 148 160 114  11   9 102 173 169 158 192 195 169 133 105 103 172 192 168 138 134 141 154
  37  22  98 221 238 232 203 159 174 189 211 148  94 145 150 160 173 168 157 150 152 154 161 161 164 171 177 182 178 172 172 180 185 191 193 180 183 184 195 178  43  34 130 119 129 122 114 115 109 152 171 160 161 161 166 160 163 150 136 139 150 155 160 172 161 135 120  86  19  26  29  46  37  59 120 165 119  50  87 116 169 186 165 142 151 146 155
  31  28  84 203 244 227 182 171 186 193 193  95  74 156 160 165 176 173 185 200 202 200 197 189 191 193 200 197 193 191 177 182 181 176 174 169 164 161 167 115  29  71 112 115 119 103  92 100 164 167 170 174 176 174 179 177 182 163 146 147 155 164 162 163 129  48  45  48  62  75  96 100 106 113 110 139 103  56 150 176 183 189 178 159 153 157 164
  38  25  27 138 240 204 158 177 189 203 159  68  83 161 165 165 168 169 192 205 210 209 199 184 184 182 185 176 174 175 164 167 166 164 169 164 164 165 155  65  48 126 123 126 131 117 103  83 167 174 173 177 177 172 173 168 168 158 153 147 151 151 148 133 102  99 129 136 149 167 184 179 161 177 149  97  78  64 122 143 175 180 179 170 170 164 159
