P2
104 60
255
  14  40  30  30  30  22  19  20  27  36  15   4   8   5   5  12  16  21  34  40  57  66  92 126 139 147 164 167 189 176 166 177 182 192 172 185 187 192 213 210 209 186 194 210 202 184 179 167 201 205 208 203 210 214 221 211 206 210 201 189 173 162 155 153 149 134 129 131 133 124 118  95 101 172 165  80  61  47  41  27  27  17   7  53 164 187 203 204 207 210 186  95  71  13  21  52  48   7  20  38  63  63  42  31
  10  17  30  40  26  21  21  14  12   9   3  10  45  59  29  33 129 165 186 197 214 208 199 223 210 204 210 203 207 199 175 176 180 199 181 174 189 191 206 212 216 178 185 211 219 211 188 160 193 204 203 189 177 172 170 148 134 135 136 135 116 118 147 133  89  92  76  61  54  41  26  36  83 199 183  32  11  14  24  26  27  39  19  61 168 204 205 206 208 218 196 106  82  16  14  47  59  12  27  42  60  66  51  36
   4   8  22  24  20  29  32  18  20   8   5  13  65  88  29  91 187 194 187 189 199 196 183 205 204 195 198 198 206 199 187 176 187 207 197 184 196 196 210 228 217 182 179 198 203 181 156 118 133 144 142 135 124 120 127 120 110  94  88  75  70 124 216 148  31  25  51  34  82  87  74  90 117 210 217  69  18  28  48  39  37  47  21  42 174 212 211 215 211 221 207 115  87  20  18  50  62  15  26  41  56  66  56  34
   8  10  23  25  24  27  25  16  18  12   7   8  34  35  17  98 182 180 185 186 194 193 173 193 203 197 197 189 196 205 194 181 185 201 190 163 159 154 156 166 146 128 122 136 140 136 121  96 101 103 156 210 170  48  38  36  25  14  15  12   8  86 229 182  37  50 120 102 118 124 113 113 124 201 227 105  27  25  43  32  35  52  38  44 170 204 205 205 213 218 211 118  88  22  18  47  62  16  26  43  58  69  58  36
   6   8  15  10  10   9  10  13  17   9   2  18  53  29  18  78 159 176 183 192 199 200 176 196 205 199 195 173 166 173 143 117 116 128 119 101  89  85 103 136 173 137  71  66  60  58  39  23  19  15 113 232 178  26   5  22  28  28  22  39  18  79 225 204  62  59 117 104 117 121 116 117 126 199 228 123  43  31  61  60  73  89  75  77 169 201 207 206 200 206 214 124  92  29  19  40  62  22  22  44  57  70  60  38
   4   6   9   8   6   9  10   9   9   7   5   7  47  27  23  39 142 171 175 182 179 177 149 154 163 148 139 119 112 129 118  79  81  82  74  66  42  34  36 111 225 159  25   6   9  14  18  13  23  10 102 237 207  60  22  27  54  39  30  56  20  73 208 222  81  64 116 110 115 121 103 113 113 179 234 145  66  55  91  98 123 128  92  81 159 200 207 205 203 209 221 122  82  39  23  38  65  31  17  39  52  70  65  42
   5   2   4   4   7   5   4   8   8   6   7   6  26  27  26  10  96 132 119 111 111 115  93  83 100 104 101  59 103 191 142  21  12   5   5   5   9  19  38 109 236 175  54  27  20  41  34  25  45  13  73 233 217  83  24  22  44  31  23  49  31  61 194 235  98  47 111 109 118 127 123 126 134 178 232 153  41  44 101 105 131 156 116  97 148 208 209 208 207 207 210 141  90  49  13  41  64  41  12  37  45  61  56  36
  22  24  36  26   9   5   9   5   5   4   4   7  14  32  46  25 105 115 105 124  51  59  48  28  20  14  13   6  66 205 162  20  10  11  30  26  29  55  76 115 229 196 103  29  21  52  30  18  41  21  55 219 222  99  47  39  57  62  59  64  63  66 178 238 116  50 119 135 141 151 147 147 154 168 231 164  52  47  91  98 105 128 111  85 133 205 206 209 205 208 215 150  91  53  16  40  63  45  12  40  50  66  73  44
  32  48  65  53  23   6   8   7   6   6   5  12   9  29 102  95  68  50  87 131  21   3   9   7   8   9  19   3  50 201 189  55  26  23  53  36  22  51  65 104 222 202 117  31  26  54  49  47  64  54  62 214 227 127  58  52  75  76  58  75  80  75 179 240 138  49 124 146 144 155 150 143 150 164 230 176  62  38  75 101  99 107  99  84 123 203 203 208 211 213 219 163  94  56  17  35  58  46  11  36  51  65  69  46
  36  37  29  21  13   7   6   6   5   5   4   5   8  24  61  65  22  18  50 110  49  19  12  31  19  14  37  13  42 198 208  67  27  13  37  26  23  57  66  94 211 206 129  62  52  63  62  60  83  65  60 197 234 128  45  56  98  92  86  93  88  82 161 242 158  42 115 138 136 149 147 137 144 163 223 186  89  60  89 117 108 107  98  88 120 197 205 210 208 206 206 163  89  60  20  34  59  53   6  28  51  65  69  50
  31  27  18   6   4   4   6   8   5   7  11   9  27  41  41  34  33  30  43  62  62  22  10  35  14  15  33  16  35 182 211  77  41  38  56  46  38  53  54  75 205 214 130  55  54  85  77  80  94  78  75 188 240 140  49  53  87  77  65  79  71  56 148 243 174  36 103 136 131 144 140 124 130 150 217 197 103  57  83  94  78  88  90  78 107 183 202 207 209 202 201 168  94  67  24  32  53  50   4  26  48  59  73  49
  11   8   3   3   3   3   5   7   8  16  18  19  27  39  29  10  30  39  51  58  49  24  29  52  43  31  52  48  49 175 224  87  35  35  65  70  57  70  77  86 184 224 143  68  55  94  83  69  84  69  49 164 245 158  53  41  79  75  72  84  86  79 140 238 187  37  90 128 125 135 148 130 140 152 200 217 102  38  75  85  69  81  93  76  98 166 203 213 216 220 212 195 112  77  33  29  53  58  15  27  45  59  76  59
   2   3   2   4   4   4   4   7   6  14  18  14  12  29  27  20  38  35  31  55  40  20  38  61  70  51  63  61  28 156 222 104  40  18  69  87  64  86  89  72 175 231 151  83  34  67  70  51  77  71  53 150 243 172  77  65  98  86  87  88  87  82 129 233 196  41  87 135 137 144 153 138 147 151 200 219 106  39  70  81  69  68  90  68  77 155 192 207 213 216 209 199 122  84  34  23  53  64  20  26  44  56  70  62
   2   7   6   4   4   5   5   8   9   7   5   6   9  14  23  25  63  47  25  85  79  15  21  56  78  62  82  86  59 151 226 132  32  17  59  73  42  62  68  51 156 230 165  87  47  85  93  84  84  94  80 144 239 179  72  43  90  85  79  81  85  81 114 225 212  58  79 133 134 142 151 138 139 138 189 223 122  56  50  82  75  72  84  78  84 144 186 201 208 209 203 203 133  84  39  24  51  63  23  22  42  55  67  60
  11  27  40  26  13  32  31   7   8  10   9   8  10   8  18  25  56  51  92 148 121  26  13  50  71  47  73  80  52 142 226 149  33  20  56  80  67  77  85  82 152 223 179  83  59  91  85  73  82  82  55 120 235 199  88  36  85  89  81  81  84  76  92 222 220  75  69 130 129 138 148 138 132 137 181 224 135  64  70  96  80  82  87  87  93 140 187 200 208 210 204 210 143  88  47  21  48  71  25  17  40  54  66  68
  23  38  52  37  44  59  32   4   8  12   8   5  10  10  17  28  20  34 115 171 136  53  11  42  68  37  63  74  48 123 216 160  34  45  68  86  91 103  97 101 143 220 196  77  41  82  86  66  80  84  55 118 229 207 101  24  67  86  74  65  70  68  74 211 225  98  65 120 122 128 136 131 125 135 174 225 145  70  67  82  77  74  80  87  83 138 181 194 207 211 205 213 146  80  51  23  43  65  27  15  39  53  62  75
  24  46  54  40  36  57  32   6   7   8  10   5   7  10  13  23  26  35 138 182 147  72  37  69  84  66  72  87  70 113 210 179  34  37  48  85  79  90  86  80 119 220 208  95  44  73  80  64  71  77  44  90 210 221 112  30  68  86  80  77  76  81  84 201 229 119  51 119 130 137 149 142 138 152 168 218 158  62  48  76  80  56  73  75  72 125 175 191 202 202 204 220 156  85  61  17  44  65  39  15  39  50  62  78
  40  44  46  47  44  36  24   7   8   6   9   8   9  12  18  27  22  36 170 180 159  87  41  69  77  50  63  80  65  99 204 184  52  27  43  86  68  71  81  82 105 205 210 105  46  52  70  68  62  71  55  90 197 234 126  60  92  96  88  88  82  85  90 182 235 137  56 126 137 144 158 150 142 153 161 215 166  70  41  67  66  42  53  64  64 115 173 191 201 206 204 216 164  89  69  19  43  66  48   9  31  64  65  67
  45  30  37  45  29  32  30   6   7   6   7   9   8  10  16  21  14  45 178 171 166  79  18  60  77  47  58  81  61  84 196 194  76  26  18  64  58  56  69  59  79 197 212 120  67  67  87  78  75  82  73  92 188 237 132  44  65  96  87  87  84  84  79 175 233 153  61 116 138 143 155 150 138 143 146 207 173  74  46  71  72  63  76  72  71 109 171 188 202 205 203 214 176  90  75  17  37  60  58  15  35 104 142  84
  29  22  32  18  11  21  11   4   8  13   9   7   5   9  17  23  21  76 183 169 169  81  27  42  71  47  44  69  56  70 180 203  98  32  37  75  70  74  72  76  88 181 211 127  60  60  88  80  72  78  72  75 179 239 145  42  57  89  90  85  79  76  60 160 240 168  53 107 139 137 144 146 134 137 141 207 184  86  60  84  81  78  86  75  75 102 171 189 204 205 203 213 187  95  82  19  36  56  56  12  17  99 184 111
  23  28  26  16   4   4   4  11  11  21  13   7   5  10  20  23  18  83 186 171 172  88  32  33  62  52  43  67  68  71 169 208 110  37  43  78  80  74  74  76  83 166 212 135  47  50  81  77  62  73  66  57 168 238 162  41  44  74  86  82  70  68  59 144 234 185  63  98 133 124 128 134 125 135 137 203 189  96  47  75  72  71  73  76  76  98 172 190 202 208 203 209 196  99  85  19  37  53  60  11  12  91 188 123
  15   9  17  29  11   7   7  11   8   9  12   3   5  12  17  26  29  37 111 169 159 101  51  46  81  69  61  78  79  64 161 216 124  29  29  74  66  68  78  73  79 153 217 150  52  36  71  67  52  58  61  41 133 239 183  68  47  81  89  84  74  77  77 136 227 195  54  83 135 127 128 144 142 147 152 191 198 108  39  67  78  68  71  76  73  82 171 196 206 212 202 203 203 101  78  31  28  46  66  20  12  68 179 145
   8   9  17  25  16  13   4   6   8   8   4   5   7   8  17  22  21  14  57 153 164 113  51  30  77  65  52  81  75  53 146 218 135  30  29  55  71  63  71  71  62 141 217 157  71  42  67  66  59  64  66  54 127 236 196  84  63  92  92  89  72  81  69 121 216 210  64  80 141 129 118 149 144 144 153 182 200 123  41  61  76  60  56  70  64  73 157 191 199 201 193 195 196  92  60  34  22  32  50  23  17  49 158 152
  10  11   9  20  18  26  18  13  12  16  23  10   4   3  11  21  29  20  51 117 137 121  42  19  69  67  48  75  64  41 126 212 143  43  25  38  54  38  56  56  61 130 213 168  85  64  81  84  72  72  72  69 120 238 202  79  55  90  92  87  79  85  73 114 208 221  71  75 139 127 109 147 142 145 146 181 211 127  37  64  90  78  79  89  98 115 160 175 188 195 189 191 201 113  76  77  62  72  73  52  64  77 151 166
   4  15  16  12  14  33  36  31  45  41  53  33  29  31  18  23  27  22  26  52  91 123  52  19  49  53  41  62  60  43 114 210 161  51  32  57  78  67  71  67  77 121 204 174  79  47  67  77  70  67  74  70 104 230 210  94  43  71  89  83  78  77  71  99 191 221  73  46 109  97  82  96  89  78  88 146 196 145 121 142 158 162 177 173 187 194 187 176 189 197 193 192 203 126  80  78  54  66  59  48  48  56 131 170
   9  26  26   4  11  33  39  43  63  58  62  52  46  44  17  24  23  24  25  33  63 103  57  18  46  61  45  54  76  59 112 209 177  52  37  56  80  64  73  75  69 113 203 197  97  32  68  84  64  64  82  68  93 232 222 113  40  60  86  86  71  77  71  90 171 216  93  47  69  75  97 113 121 138 149 172 200 193 207 217 212 208 203 194 195 190 172 168 181 184 189 193 197 140  81  54  13  20  37  24   9  10  71 162
  46  46  48  35  36  44  44  50  48  40  62  48  46  39  10  19  15  23  26  25  42  39  43  25  55  71  57  61  73  65  84 194 191  53  17  39  81  64  75  77  66  97 185 203 109  30  50  73  53  48  67  60  71 206 217 128  56  77 103 105 112 126 137 140 169 203 180 186 196 198 204 200 196 204 203 196 208 186 160 152 141 126 107  82  56  38  90 164 192 202 202 205 213 159  84  64  10  24  59  40   5  10  53 171
  74  54  39  47  50  66  62  52  28  37  31  11  24  14   4  16  17  20  26  38  47  37  34  15  42  66  58  61  70  64  74 185 200  59  25  30  78  65  66  68  66  79 172 199 117  27  49  75  56  61  86  91  93 184 205 168 154 182 187 183 185 193 198 197 189 204 197 194 191 178 172 160 136 119 103 134 196 157  48  25  21  16  14   9  16   8  71 176 193 206 201 196 210 164  93  71  14  31  61  44   9  16  55 181
  58  55  55  43  30  57  65  38  30  26  14   8   9  10   5   8  16  22  29  47  54  52  37  15  33  63  56  60  69  59  53 177 206  82  31  21  53  48  51  46  48  56 152 206 138  97 130 144 147 161 180 190 188 191 211 205 217 222 222 203 196 190 173 141 151 194 164  89  49  37  28  20   9   9   3  75 197 164  32   9  24  43  32  27  42  20  66 165 179 189 191 190 206 175 104  79  18  31  56  45  13  20  55 187
  31  40  48  47  40  45  37  27  21  19  10   8  10  11  16  21  15  18  29  52  66  81  55  19  26  52  38  44  48  39  41 156 194  86  54  62  85  93 102 119 139 139 178 198 186 191 204 204 205 211 217 206 187 177 208 181 141 141 104  77  61  53  38  29  92 204 156  24   9  14  31  28  31  37  17  63 190 178  72  25  22  49  30  29  49  22  48 161 175 176 185 189 198 182 107  83  25  30  54  55  21  23  56 180
  11  19  25  34  35  35  18  12  14  12  12   9  10  10  17  26  15  20  26  35  32  61  48  17  21  48  36  50  70  79 107 160 181 136 148 158 173 178 190 202 204 190 177 195 194 187 186 167 142 119 114  98  73 128 202 141  24  17  10  10  14  16  17   4  74 213 175  38  37  25  47  34  29  47  27  63 194 187  88  27  22  43  40  31  46  34  51 153 179 178 187 189 199 189 111  86  30  25  48  57  20  15  46 179
   8  26  24  32  32  33  13   5   9   8   7   7   7   7  10  11  13  18  23  33  25  30  31  19  25  20  52 147 200 200 194 166 177 161 174 168 169 158 144 133 126 103 129 188 144  36  31  21   9   3   3   9   3  88 205 164  44  21  35  45  29  31  47  26  64 210 192  65  43  17  43  41  25  44  28  47 186 201 108  57  56  67  66  68  82  68  78 167 185 180 185 186 189 191 125  87  36  25  49  63  15  16  43 174
  31  41  28  27  20  18   7   5   7   6   6   6   6   7   7   8  11  17  21  30  32  45  44  30  30  35 110 185 187 172 154 140 182 122  63  60  50  35  21  16  12  10  62 198 153  23   5  16  20  16  20  37  12  85 206 189  72  27  41  58  27  21  52  23  55 196 199  80  42  38  57  52  47  72  68  53 183 207 120  74  78  83  74  68  76  63  77 156 186 183 186 187 188 200 129  91  43  23  49  64  21  14  46 171
  37  36  27  21  13   8   4   4   4   4   5   7   8   8   6   7  12  18  22  31  35  41  26  15  19  21  51  67  48  27  21  73 182 117  11   2   5   8  15  18  20   6  52 196 172  63  28  21  44  32  20  45  22  65 194 195  77  30  39  62  41  36  64  48  65 186 208  97  46  53  69  61  53  74  67  54 173 208 141  57  59  86  81  53  81  87  67 135 183 185 188 189 189 200 133  89  49  16  46  62  28   9  45 174
  22  20  20  12  12   8   7  10   7   7   7   9  11   5   3   6  13  16  23  26  31  47  41   9   5   4   7   6   5  10   6  63 180 130  31  20  15  39  50  47  51  23  50 201 185  89  39  13  39  35  22  45  36  70 191 203  97  56  55  86  75  59  66  71  79 176 212 110  25  31  72  67  57  84  63  60 167 214 146  55  46  66  73  64  84  81  53 126 180 188 192 196 197 204 151  88  58  15  48  63  42  11  42 161
  10   9   6  15  17   7   4  11  14  12  10   9   9   6   5  10  15  16  22  26  30  46  43  12   6  11  25  12  15  41  16  57 177 144  47  31  10  51  63  45  50  26  44 189 189 103  54  42  68  58  45  63  60  62 179 217 108  35  42  93  87  66  73  73  81 172 222 130  33  35  84  70  56  89  70  54 153 217 159  65  61  78  74  70  86  79  71 121 181 192 197 204 204 217 176  95  70  22  47  60  49  10  36 142
   8   7   7  12  12   7   6  13  14  17  16  15   8   6   7   4  27  27  21  26  22  24  36  23   6   9  35  16  15  40  10  42 161 163  63  29  26  60  70  45  52  45  60 180 198 116  41  48  86  74  37  67  63  55 170 222 121  39  41  75  75  64  72  71  68 159 224 144  34  31  48  65  51  78  66  63 137 220 171  74  76  95  93  84  91  77  81 114 187 192 196 198 200 223 190 103  74  18  42  57  57   9  17 115
   3   4   4   3   6   5   5  10   9  11  21  26  11   6   8   6  29  32  18  18  25  36  49  34  10  13  35  27  21  46  30  52 156 176  72  32  42  71  76  62  71  63  76 166 206 125  37  38  82  71  40  67  65  58 164 220 139  38  34  77  80  63  67  74  65 147 222 166  42  46  67  79  73  83  76  66 131 217 177  91  64  82  84  75  75  75  75 104 192 196 196 197 203 225 196 103  82  21  41  57  58   9  18 119
   1   2   3   2   5   6   5   7   4   6  12  17   7   7   9   6  21  22  24  19  35  92 118  71  38  32  55  71  50  74  58  46 140 181  90  28  32  67  69  65  76  71  66 152 209 138  48  42  65  58  39  63  66  46 146 223 150  47  41  81  92  78  73  80  76 148 222 183  47  46  71  79  58  84  82  62 120 217 187 100  52  83  80  65  55  71  70  87 183 198 203 197 197 222 203 106  87  27  31  54  64  16  18 108
   3   2   2   5   6   6   6   5   5   7   5   7   6   4   6   4  16  19  21  11  77 165 149 110  43   4  31  59  37  74  73  38 129 186  96  33  28  52  58  57  69  70  55 137 213 156  60  34  79  69  54  66  68  55 132 220 165  69  58  79  86  81  77  82  75 135 217 203  53  31  52  83  55  80  81  55 107 207 197 117  40  64  73  61  70  77  64  90 173 196 204 198 199 224 215 118  95  43  28  51  70  22  12  95
   1   1   2   3   2   3   4   4   3   5   5   9   7   9   7   3  15  23  24  23 126 190 153 123  45   4  47  67  33  61  63  26 122 189 112  40  14  39  60  59  60  63  53 129 217 168  77  55  87  78  66  72  75  67 126 218 186  64  44  74  84  76  71  81  76 130 213 211  58  28  43  85  49  76  80  52  97 192 211 122  45  73  81  67  75  81  72  86 163 199 216 205 200 216 212 119  89  45  26  46  70  27  13  88
   4   4  12   9   2   3   3   3   4   5   5   6   6  12  12   2  15  21  21  16  68 160 152 129  39   3  45  63  40  63  67  35 115 186 124  48  39  61  74  70  75  80  70 129 212 177  67  44  82  78  62  72  70  56 118 223 201  79  36  63  79  67  69  78  65 107 208 218  82  37  41  74  53  71  75  58  83 185 225 138  67  79  79  70  85  79  76  77 150 185 193 186 185 187 181 123  77  45  20  43  70  29  11  70
   6   7  14   4   3  10   9   5   5   5   5   9  11  19   9   6  14  20  14  20  54 102 121 131  49  13  56  72  54  69  82  52 111 183 142  54  31  61  77  76  80  83  73 116 210 188  70  33  74  75  57  65  67  57 102 209 200  97  29  54  81  74  68  78  72 100 203 222 101  49  44  75  61  71  82  62  82 175 226 146  62  72  78  73  82  76  68  76 138 181 189 187 185 195 204 140  87  58  20  43  70  33   7  51
   3   2   6   4   8  18  15   8   7   8   9  10   9  17   9  13  16  29  32  47  52  51  61 131  75  31  58  67  45  60  80  53  94 182 157  58  22  45  77  72  77  80  66  88 195 200  81  30  68  75  55  60  67  62  92 202 208 115  34  59  84  77  73  81  82  94 195 229 119  47  30  64  61  68  82  59  73 163 225 156  70  58  76  67  53  67  67  60 127 183 189 182 182 198 214 151  93  60  18  40  64  41  10  43
   2   5   4   2   2  11  12  10   2   7  12  13  11  15  12  12  10  20  17  25  29  42  80 134  77  14  42  62  43  56  75  48  79 176 159  63  28  36  61  57  65  74  65  77 183 211  98  38  76  85  63  64  69  65  84 189 211 122  39  67  88  78  78  82  82  86 180 228 138  41  21  63  63  64  79  65  63 150 219 168  72  45  67  79  64  75  59  59 126 181 197 183 181 191 206 161 100  69  16  39  58  46  15  37
  10  14   4  10   3   5   5   5   5   7  10  11  11  16  13  10  12  11   8   6  14  29 108 150  81  10  42  62  34  40  63  44  66 174 161  66  30  30  69  68  65  65  64  80 179 220 116  53  74  82  64  68  73  71  79 174 215 131  24  55  81  72  68  82  77  80 168 224 150  39  23  71  65  54  77  76  53 130 216 185  74  60  83  85  69  82  65  75 125 172 206 194 185 186 203 168  99  78  13  42  58  48  13  36
  62  60  43  42  20  27  25   7   9   6  12  13  10  11  12  12   9   6   8  10  16  13  78 143  92  17  26  62  34  38  56  53  52 168 170  88  35  38  72  65  70  68  73  78 166 225 125  49  69  88  70  68  74  65  69 163 225 150  29  45  70  58  56  77  67  55 146 225 161  43  25  63  61  55  70  73  72 122 213 192  81  60  88  81  72  88  79  76 111 172 201 196 178 177 198 175  98  83  16  33  54  58  12  23
  47  50  36  29  37  51  36  10  21  14  14  13  11  11  11  13  12   9   9  10  10  13  25 119 103  30  28  71  46  46  63  56  49 162 173 101  38  30  66  68  68  73  75  73 162 227 139  47  52  77  56  53  65  60  51 148 225 156  42  38  78  70  71  75  76  69 137 223 170  59  47  77  80  61  86  78  69 111 212 197  93  61  84  81  74  83  80  70  98 170 204 195 178 178 194 185 107  82  19  30  52  61  14  19
  39  53  44  39  41  30  17  12  13  10  12  10   9  15   8   5   8   8   7  14   9  10  22 124 105  40  34  67  41  38  59  54  41 154 174 109  34  16  57  64  60  73  79  59 149 220 150  53  38  82  70  60  64  69  56 142 221 166  64  56  85  75  74  79  79  77 125 215 180  66  41  67  86  57  83  68  59  98 208 204 109  58  77  78  66  73  85  70 101 173 209 200 190 181 196 197 111  82  20  21  39  56  17  10
  49  45  46  56  44  15   4  10   9   9  11   7   6  19   6   2   6   7   9  13   7  26  80 115  96  38  21  66  45  35  57  52  36 145 179 121  36  15  46  56  51  61  69  55 137 219 162  68  43  82  69  63  66  68  59 132 211 179  62  50  76  76  74  76  77  76 120 209 195  78  32  59  91  54  81  80  63  86 201 210 120  50  70  80  73  84  94  77 106 158 192 192 184 176 181 185  99  74  46  36  36  57  39  30
  65  66  54  36  28   8   4   8   7   6   7   6   9  13   3   2   6   3  12   6   6  59 122  53  59  47  23  53  42  28  50  47  30 133 180 130  40  18  46  58  57  54  60  57 127 221 171  72  55  85  72  68  65  71  60 125 208 192  65  27  69  74  68  70  78  70 105 192 203  91  29  52  80  55  70  76  54  71 175 200 124  55  88  99  96 103 112 119 138 153 171 191 202 190 196 217 127  88  75  56  39  59  57  42
  73  60  59  43  30   6  16  31  15  10   5   7  10   7   4   2   5   7  14  11  15  64  89  24  52  32  17  48  49  36  62  65  34 116 186 131  49  28  54  71  60  67  71  68 115 217 182  80  50  76  71  59  63  69  51  98 205 204  85  33  62  79  74  77  80  68 101 186 215 110  31  44  66  49  64  85  73  83 161 187 137 149 177 168 163 158 151 152 152 162 174 190 207 198 204 223 150  95  80  63  62  62  60  68
  35  21  31  55  51  14  19  39  12  10   7   6   7   5   6   4   5  10  12  15  18  28  25  27  39  28  12  43  59  41  57  63  45 111 184 138  63  30  40  66  60  68  78  60 100 206 189  96  43  68  71  55  59  68  53  89 196 206  93  32  56  90  91  88  90  99 121 171 190 125 107 129 140 140 153 177 177 187 200 201 164 169 178 152 150 150 147 150 153 152 166 188 201 203 206 226 161  95  84  68  84 109 116 120
  11  12  32  39  48  14   8  10   9   8   7   5   4   1   5   3   3   9  16  14  19  22  23  25  38  36   7  28  58  45  60  64  38 101 182 153  72  22  33  60  59  62  69  54  92 199 193 107  45  72  82  69  71  75  74  98 182 196 108  84 106 135 144 149 147 160 165 188 196 158 174 185 180 179 176 183 187 197 203 199 168 159 174 161 162 165 162 164 164 156 161 182 197 202 206 228 181 106  95  97 114 123 115  80
   8  17  28  13  18   6   7   8   8   6   5   3   3   4   6   5   5   9  18  18  19  23  24  29  38  34   7  23  43  34  47  55  34  90 175 160  70  28  33  59  58  54  55  62  81 185 195 115  54  87 101 107 114 121 128 142 182 194 154 174 187 183 180 180 177 178 177 187 199 164 169 175 177 177 180 185 190 196 185 178 172 182 192 178 179 181 174 174 178 170 163 176 194 199 200 212 173  91  85  71  57  62  67  53
   9  13  11   3   7   7   5   6   8   6   3   2   3   5   4   5   6   5  13  19  17  25  25  28  34  33  14  18  33  41  54  59  46  74 169 169  60  16  24  56  58  49  54  66  93 172 182 146 147 169 162 172 178 170 173 177 186 201 173 183 177 176 178 179 181 180 183 178 189 173 178 185 187 192 196 192 197 202 194 192 186 193 194 184 186 187 178 176 171 159 150 160 175 176 181 195 169  90  78  58  41  57  75  66
   8   7   7  10   5   5   8   6  11  10   5   6   3   7   4   3   5   7  15  20  22  24  21  25  35  28  16   3  28  58  61  75  67  82 160 173  86  88 108 136 154 150 158 151 151 175 192 161 184 187 176 180 183 176 177 178 179 187 177 186 187 190 191 192 191 194 195 189 193 191 191 197 195 196 197 196 194 191 184 185 182 182 177 176 176 172 168 170 164 157 164 171 181 182 188 204 195 110  85  72  68  63  73  65
   5   5   9   6   3   5   6   2  10  14   7   5   8   4   3   4   5   7  17  20  20  24  23  29  33  28  10  19  96 129 129 139 140 144 166 168 144 194 197 185 177 169 166 162 160 175 190 168 180 187 183 188 190 187 190 189 182 184 190 200 201 198 194 195 196 197 195 191 188 185 178 180 181 185 180 177 178 181 173 171 166 169 169 168 165 163 164 164 160 175 189 198 200 214 211 203 203 117  90  82  78  68  67  49
   2   2   5   5   3   3   5   4   7  11   8   3   4   3   6   7   6   8  13  15  15  20  21  23  25  28  17  61 172 177 163 166 166 172 173 175 168 201 192 177 177 181 184 172 167 175 186 178 189 194 192 191 189 189 194 197 189 189 194 200 199 192 190 187 180 178 178 173 168 171 165 167 171 173 173 170 162 157 159 162 158 161 163 165 162 163 163 158 161 185 199 205 201 213 203 196 199 123  87  93  91  79  69  58
   6   6   3  14  10   6   5   6   7   8  10   9  13   4   6   3   2   6  14  17  19  23  22  25  29  28   8  56 166 170 168 173 175 174 172 180 178 194 192 190 194 194 195 190 183 189 197 194 199 197 193 188 185 181 182 180 175 179 177 177 174 169 173 176 176 178 172 160 169 172 171 175 177 161 161 161 162 163 167 173 169 166 164 162 163 166 167 166 167 185 201 207 205 201 192 195 204 137  82  85  67  60  64  52
