P2
74 122
255
 137 137 138 138 136 136 136 137 138 136 136 136 136 136 138 137 136 136 137 138 138 138 137 136 138 138 137 137 137 137 138 139 138 137 137 137 137 137 137 138 138 138 138 138 138 137 137 136 136 137 137 137 137 137 138 137 136 137 138 139 138 138 138 137 139 138 138 137 137 135 137 138 138 137
 137 137 137 138 136 136 137 137 137 138 138 138 137 138 138 137 137 137 137 137 139 140 138 137 138 138 138 138 138 137 138 138 138 137 136 137 137 138 138 139 138 138 138 139 138 138 138 138 136 137 137 137 137 138 137 137 136 137 138 139 139 140 138 137 138 139 138 137 137 136 137 137 138 138
 136 136 137 137 136 137 137 138 138 139 139 138 138 139 138 137 136 137 137 136 139 141 140 138 139 139 139 139 139 137 138 139 138 138 136 137 137 138 138 138 138 138 138 139 138 139 140 139 137 138 138 138 138 138 136 136 136 138 139 139 139 140 139 137 139 139 138 137 137 137 137 136 137 139
 138 138 138 138 137 138 138 138 137 139 138 138 138 139 137 137 137 137 137 139 139 139 139 138 136 139 135 142 139 137 136 138 139 136 137 137 137 138 139 138 138 138 138 137 138 137 136 136 136 138 138 138 138 138 138 138 139 138 138 140 140 139 139 138 137 137 138 137 137 137 139 140 139 139
 138 138 138 138 137 138 138 138 137 139 138 138 138 138 137 137 137 137 136 139 138 138 138 138 136 138 135 156 144 140 137 137 138 138 140 139 138 138 138 138 138 138 138 138 138 138 138 138 139 139 139 139 139 139 139 139 140 139 139 140 140 139 138 139 137 138 138 138 137 138 138 140 139 139
 139 139 139 138 137 138 138 138 137 139 138 139 138 139 137 137 137 137 136 139 139 139 139 139 141 132 196 226 148 140 139 138 138 139 139 139 138 139 139 137 138 138 139 139 137 137 137 138 140 138 138 138 138 138 140 140 141 140 140 140 140 139 139 138 137 138 138 138 137 138 139 139 139 139
 139 139 139 139 137 138 139 138 138 139 138 138 139 139 137 137 137 136 136 140 140 140 140 139 139 139 214 246 193 136 139 139 139 139 138 137 138 139 140 137 137 138 139 139 138 137 137 138 139 137 137 137 137 137 139 139 140 139 139 140 139 139 138 139 138 139 139 139 138 139 138 138 139 140
 139 139 139 139 137 138 138 138 137 139 138 138 138 138 137 137 137 136 137 140 140 139 139 140 142 135 175 205 154 131 138 141 139 138 139 138 137 137 137 136 137 138 139 139 140 140 138 138 139 138 138 138 138 138 138 138 139 138 138 140 140 139 138 138 138 139 139 139 139 139 138 138 139 140
 137 137 138 138 138 138 138 138 139 139 138 139 138 138 138 139 138 138 138 140 138 138 140 140 139 143 136 136 121 134 143 140 137 138 137 138 139 140 140 138 138 138 138 138 139 139 139 139 139 138 139 139 139 139 139 139 138 138 138 140 139 139 139 139 140 140 139 140 140 139 138 137 138 139
 137 138 137 137 137 138 138 138 139 138 139 139 139 139 139 138 138 138 138 140 138 138 140 141 131 135 140 146 150 158 146 140 140 138 138 138 139 140 140 138 138 138 137 138 140 140 140 140 140 138 138 138 139 138 140 140 140 139 139 139 139 139 139 139 139 139 138 139 139 140 139 138 139 140
 139 138 137 137 137 137 139 139 138 138 139 139 139 138 138 138 138 138 138 138 138 140 139 135 157 205 227 236 238 228 176 144 140 143 138 138 139 139 139 138 138 138 137 137 141 140 140 140 140 138 138 138 138 138 139 139 139 138 138 139 139 138 139 139 138 138 138 138 138 141 140 139 140 140
 139 138 139 139 136 138 139 138 137 139 139 138 139 138 138 138 139 138 138 137 139 142 139 133 201 247 247 247 252 232 182 156 141 138 139 139 138 139 139 138 138 138 137 137 140 140 140 140 140 138 139 139 139 138 139 139 138 138 138 140 139 138 139 139 139 139 138 139 139 140 139 138 139 140
 138 139 139 140 135 138 140 139 137 139 139 139 138 138 138 139 139 138 139 139 138 140 142 141 218 239 224 226 248 211 178 170 150 143 140 139 138 139 138 138 138 138 138 137 139 139 139 139 139 138 139 139 139 139 140 140 139 139 139 139 139 139 139 140 140 140 139 140 140 139 138 137 138 139
 138 138 138 139 139 138 139 140 140 138 137 138 139 138 138 140 139 140 138 140 140 141 136 166 239 225 199 210 224 175 160 175 144 138 141 140 139 140 140 139 138 139 139 139 140 140 140 140 140 139 139 139 139 140 140 141 139 138 140 140 140 139 139 139 140 139 138 139 140 138 140 141 139 137
 138 138 138 139 139 139 139 140 140 140 138 139 140 139 139 140 140 139 138 138 140 140 140 175 232 218 206 220 216 141 126 158 130 139 140 140 139 140 140 140 140 140 140 140 140 140 139 140 139 140 138 138 139 140 139 140 139 139 141 139 139 140 140 140 141 139 138 139 139 140 142 142 141 139
 139 139 139 139 139 139 139 140 140 141 139 140 140 138 139 139 139 139 138 141 142 140 143 186 224 212 215 231 207 146 124 114  88 130 140 140 140 139 141 140 140 140 140 140 140 140 139 139 139 140 140 139 140 140 139 140 139 139 142 138 139 140 141 141 142 141 139 139 138 141 141 142 140 140
 139 139 139 140 139 139 139 140 140 141 139 139 139 137 138 139 139 140 138 138 140 140 149 202 223 203 206 227 205 165 145  88  48 121 141 140 140 139 140 139 139 139 139 139 140 139 139 139 139 141 140 139 140 141 139 140 139 139 141 139 139 140 140 140 140 141 141 140 139 140 140 139 139 139
 140 139 140 140 139 139 139 140 140 140 138 138 138 136 138 139 140 139 139 139 142 140 150 210 216 205 212 225 198 172 160  97  25 100 141 139 140 140 141 140 140 140 140 140 140 140 140 139 139 141 140 140 140 141 140 141 139 138 140 140 140 139 139 139 139 141 142 141 140 141 140 139 139 139
 139 139 140 140 141 140 140 140 141 140 139 139 139 139 138 138 138 140 140 142 141 139 163 207 214 211 216 218 182 165 168  85  24  79 142 137 140 139 139 140 139 140 139 140 139 142 140 138 140 139 139 139 140 140 139 140 140 139 140 141 140 140 140 141 141 141 141 141 140 141 141 141 140 140
 139 140 140 141 141 140 140 140 141 142 141 140 140 140 139 139 138 139 141 140 141 136 177 221 224 224 231 220 177 170 165  58  19  51 135 139 140 139 139 141 140 140 140 140 141 140 140 141 139 140 140 140 141 141 140 140 140 140 140 141 140 140 141 141 141 141 140 141 140 141 140 141 140 140
 140 139 140 141 141 140 140 140 141 141 140 139 139 140 140 140 139 139 141 139 141 136 192 227 222 217 227 211 180 164 150  40  32  31 114 140 139 139 141 140 140 140 140 140 142 139 141 142 139 140 139 140 140 140 141 141 140 141 141 141 140 139 140 141 142 141 140 141 140 141 140 140 140 140
 140 140 140 141 141 140 139 140 141 140 139 138 138 139 142 140 139 140 140 141 140 145 202 221 213 219 232 200 173 177 120  20  34  25  90 139 138 137 137 141 141 141 141 141 142 141 141 141 140 138 139 139 140 140 141 142 141 142 142 141 140 140 141 141 142 141 141 140 140 141 140 140 140 141
 140 140 140 141 141 140 140 140 141 141 140 140 139 140 142 141 140 140 140 142 138 156 210 215 212 222 234 193 171 178  97  20  39  28  66 132 136 139 142 142 141 142 142 142 141 143 141 140 141 139 140 140 141 141 141 142 142 142 142 141 140 140 140 141 142 141 141 141 140 141 140 140 141 141
 140 140 140 140 141 141 140 139 138 138 139 141 141 141 143 139 140 142 141 143 142 167 207 209 208 214 211 179 171 169  75  19  35  35  49 115 138 139 140 141 141 141 141 139 139 140 141 141 141 141 140 140 140 141 141 142 142 142 142 141 142 143 142 141 139 140 141 141 142 142 141 140 140 140
 142 141 141 141 141 141 140 140 139 139 140 141 141 141 140 139 140 140 138 141 143 172 204 204 198 203 195 174 176 152  52  26  37  36  28 102 145 135 141 142 141 141 140 139 138 140 140 140 140 141 140 140 141 141 141 141 141 142 141 141 142 142 142 141 140 140 141 142 142 142 141 140 140 140
 141 141 141 141 140 141 141 141 141 139 140 141 141 141 141 142 143 142 140 142 148 188 212 211 212 216 184 163 175 139  35  32  32  28  24  71 139 138 139 142 142 141 140 138 137 138 140 140 139 141 140 140 140 141 142 141 141 142 142 141 142 143 142 141 140 141 142 142 143 142 141 140 140 140
 140 140 140 140 142 142 141 141 141 140 141 141 141 140 139 142 142 141 143 139 152 203 219 219 229 229 183 167 178  99  22  33  37  37  20  53 131 136 136 140 141 141 140 139 138 140 140 140 140 141 140 140 141 141 141 141 141 142 141 141 142 142 142 141 141 141 142 143 143 142 141 140 140 140
 141 141 141 141 144 143 141 140 140 140 141 141 140 140 141 144 144 144 149 152 162 214 218 214 223 217 175 172 173  71  23  34  37  33  30  33 116 143 137 139 140 141 141 141 139 140 141 141 141 141 140 140 140 141 142 142 142 142 142 141 142 143 142 141 141 142 142 143 144 142 141 140 140 140
 140 144 140 142 140 141 143 139 140 138 139 141 148 149 155 159 151 142 169 173 187 213 215 210 218 201 172 170 162  52  23  35  35  30  32  24  87 139 137 139 139 140 141 140 140 140 142 141 141 140 141 141 142 141 143 142 141 141 142 142 142 142 143 143 143 142 142 142 143 141 142 141 142 142
 142 141 144 144 140 144 139 147 154 158 161 167 175 175 160 146 116 107 127 127 184 213 204 207 226 198 171 171 152  40  26  37  33  32  34  18  57 133 138 140 140 141 141 141 140 140 142 141 141 143 142 141 142 144 142 142 140 141 141 142 142 143 143 143 142 141 141 141 142 141 142 141 142 142
 144 142 153 154 173 173 153 169 181 184 171 151 137 123 118 102  84  91 107 132 196 212 202 207 217 185 166 167 122  30  34  40  35  34  36  20  33 121 140 140 141 141 141 141 140 140 142 141 141 143 140 139 141 144 143 142 141 141 141 143 143 143 143 143 141 141 140 141 141 142 142 141 142 142
 179 183 183 177 165 159 135 143 150 148 134 122 123 119 107  99  89  80  91 181 215 199 195 208 210 173 165 169  97  17  34  37  37  37  32  27  22  93 135 139 139 140 140 139 140 140 141 141 141 141 140 140 141 142 142 142 140 141 142 143 143 143 142 142 142 141 141 141 142 141 142 141 142 142
 153 150 144 147 144 139 124 120 115 111  95  89 104 110 109 100  88  81 129 219 209 196 222 214 182 156 164 161  62  20  40  37  36  33  32  33  21  71 133 137 138 139 139 138 140 140 141 141 141 141 142 143 143 142 143 142 141 141 142 144 143 142 142 141 143 142 142 142 143 141 142 141 142 142
 128 135 134 120 102  93  89  83  70  69  66  82 100 105 101  92  89 117 164 211 194 184 223 222 178 148 156 146  48  35  37  37  35  34  31  27  30  40 118 142 140 141 138 142 141 141 140 141 141 141 141 141 141 141 141 141 141 141 141 144 143 141 141 142 141 142 142 142 141 141 142 140 139 142
  95  96  89  83  76  77  84  88  83  81  85  93  96  91  83  72  72 133 185 197 204 200 195 222 202 157 161 120  31  36  36  36  35  34  31  34  32  23  99 143 139 141 140 142 142 142 141 142 142 142 142 142 142 142 142 142 142 142 142 144 143 142 142 142 141 142 142 142 141 142 143 141 140 142
  76  78  80  88  82  83  86  85  80  76  83  83  83  82  67  73  98 180 201 182 186 185 156 152 160 124 141  97  28  36  35  35  35  34  36  42  41  20  75 141 139 140 142 142 144 143 143 143 144 143 144 144 144 144 143 143 144 143 143 142 143 143 142 143 142 142 143 142 142 144 143 142 142 142
  74  88  88  89  94  94  89  83  80  76  90  91  89  84  75  88 112 178 179 176 180 191 175 122  85  42  65  49  33  35  35  34  34  34  41  46  43  22  46 133 139 139 142 142 143 143 143 143 143 143 143 143 143 143 143 143 143 143 143 141 143 144 143 143 142 143 144 143 142 144 141 141 142 141
  80  94  92  96  96  93  82  74  72  78  88  86  91  90  84  90  99 167 194 186 193 204 206 173 151  78  19  34  36  36  34  32  33  34  38  48  43  27  34 125 140 140 140 142 143 142 142 142 143 142 143 143 142 143 142 142 142 142 142 140 142 144 143 142 142 143 144 143 142 143 140 140 142 140
  82  93  92  95 102  99  90  85  80  81  90  95  95  96  93  87 107 181 203 195 196 210 197 186 174  97  27  37  35  35  33  37  34  37  45  60  58  35  15  94 146 137 142 138 140 141 141 141 141 144 140 142 144 142 143 143 143 143 143 142 143 144 143 142 142 142 143 143 142 144 141 144 145 143
  95 102  97  98 101  94  81  79  81  88  94  94  86  85  81  79 127 193 211 201 205 211 208 204 197 113  40  39  36  31  33  37  38  44  59  57  48  35  17  73 136 137 143 140 143 143 143 143 143 145 142 142 142 141 143 143 144 144 144 142 143 144 143 143 142 143 143 143 142 143 142 143 145 144
 102  98  93  95  91  97  93  91  90  86  83  80  79  77  69  89 161 209 216 204 204 202 203 196 155  66  39  35  39  36  34  33  42  57  54  46  36  34  21  37 119 140 137 139 141 141 141 141 141 145 143 142 141 141 143 143 144 144 144 142 143 144 143 142 143 144 144 143 142 143 143 143 144 144
  93  90  95  99  97 102  96  95  98  99  89  84  87  89  89  95 136 186 199 200 199 200 200 201 146  41  37  32  37  33  35  38  45  47  38  45  54  57  26  19  96 144 137 142 142 142 142 142 142 143 144 142 141 143 143 143 144 144 144 142 143 144 143 143 145 145 144 143 142 142 143 143 143 144
  84  85  94  93  93 100  93  91  93 101 101  93  93 102  94  81 101 180 204 200 202 203 199 219 180  62  34  32  39  39  37  39  46  42  42  43  64  79  40  17  72 141 139 141 142 142 142 142 142 142 143 141 141 144 142 143 144 144 144 142 143 144 143 143 146 146 145 143 142 142 144 143 142 145
  89  93  92  91  85  82  82  79  80  87  87  90  91  89  85  88  94 190 212 204 202 210 214 225 193  78  31  34  38  38  38  41  42  46  60  46  57  76  45  15  44 130 140 140 141 142 141 141 140 143 143 143 143 144 143 143 144 144 144 143 143 144 143 143 144 144 142 141 141 143 143 143 142 143
  94  92  88  92  84  80  77  76  85  90  91  92  88  81  80  87 101 188 217 211 213 213 212 219 189  85  28  35  36  39  40  44  41  43  52  46  70  68  52  26  28 109 140 141 142 142 142 142 142 143 143 144 144 144 142 143 144 144 144 144 144 144 144 144 145 145 144 143 142 143 143 143 143 143
  88  89  87  89  81  77  81  87  93  99 102 105 109 110 132 153 178 218 219 221 208 193 200 212 207 102  30  40  36  34  42  52  44  45  44  44  76  76  52  39  20  85 142 139 142 143 144 144 143 142 143 144 143 144 142 143 144 144 143 146 146 146 146 146 146 146 145 145 144 145 145 145 145 144
  87  88  84  80  78  79 100 117 125 131 146 164 173 177 214 230 245 238 209 203 205 194 219 246 232 125  38  38  37  36  43  56  48  55  63  54  48  54  51  38  19  54 134 141 141 142 144 144 144 142 143 144 144 144 142 143 144 144 144 144 144 144 144 144 146 145 145 145 145 143 144 144 144 143
 119 125 123 125 139 143 159 175 186 188 195 201 201 202 218 215 232 222 204 194 221 202 201 222 213 121  40  37  50  37  38  46  42  58  86  56  44  58  61  50  31  30 122 145 141 142 143 143 143 142 143 144 144 144 143 143 144 144 144 144 144 144 144 144 144 144 144 145 144 142 142 142 142 142
 232 215 204 190 189 190 182 198 197 191 192 185 201 216 224 232 237 236 219 183 165 182 133 166 196 123  50  28  42  37  43  43  46  62  74  45  55  81  70  73  60  21  93 140 139 144 145 143 144 143 143 144 145 145 145 144 143 143 143 145 144 144 144 144 143 144 144 144 144 145 144 144 143 143
 241 220 207 199 193 188 182 195 190 179 184 195 191 202 190 176 152 132 102  74  43  41  31  77 162 167  67  23  40  35  48  50  48  63  52  43  53  69  64  77  66  10  66 135 142 139 142 146 145 143 144 144 145 145 144 143 143 144 144 145 144 144 144 144 143 144 145 144 144 145 144 144 144 143
 233 220 210 210 203 188 179 175 158 138 118 114 100  84  70  69  75  97  94 117  60  68  49   8  99 201 146  44  48  42  39  46  54  64  34  24  53  60  67  68  61  24  39 117 141 143 144 145 144 143 144 144 145 145 142 143 144 145 147 145 144 143 143 144 143 144 145 144 143 145 145 144 143 144
 213 186 149 142 116  91  79  70  61  57  70  77  99 113 146 168 177 195 193 199 152 152  90  16  25  80 127  75  36  36  54  60  57  71  51  46  75  64  73  80  69  56  12  53 133 140 142 142 144 143 143 144 145 145 144 143 144 146 147 145 144 143 144 144 143 144 144 144 143 145 144 144 143 143
 106  89  58  62  68  71 101 119 128 139 155 158 165 166 189 211 202 204 204 201 182 213 125  30  24  16  55  79  56  47  64  70  59  61  46  56  54  50  78  80  66  62  20  75 143 141 142 143 142 144 143 144 145 145 144 144 144 145 146 145 144 143 144 144 143 144 145 144 144 145 144 144 144 144
 119 131 143 154 170 157 163 173 178 182 178 171 166 173 195 203 198 190 200 198 187 214 147  41  40  30  28  37  52  58  64  66  67  62  35  42  46  41  58  55  52  50  20  86 148 141 145 140 144 144 142 144 146 146 144 144 143 144 145 145 144 143 143 142 145 144 145 144 144 144 145 144 144 144
 173 169 165 160 172 157 162 172 174 174 171 167 164 170 200 205 192 190 196 197 186 208 155  55  42  37  29  24  31  58  69  63  56  55  47  46  49  53  56  41  32  44  25  65 136 142 141 142 142 144 142 143 144 143 146 145 144 145 146 145 145 144 144 144 145 144 144 144 144 145 145 145 145 145
 169 166 162 160 164 158 158 165 171 164 165 168 168 173 202 211 202 209 212 216 204 206 158  50  39  40  35  31  40  56  58  54  61  72  58  51  49  56  54  37  43  57  30  37 116 145 138 140 145 146 145 145 145 145 146 146 145 146 147 145 145 146 145 145 145 145 145 144 145 146 146 146 146 145
 169 168 163 159 158 164 160 163 170 168 169 173 170 170 202 211 204 202 205 203 182 167 144  52  38  39  38  38  47  71  70  68  68  63  51  46  46  47  45  44  45  64  44  18  59 125 142 142 142 143 144 143 142 145 146 145 144 145 146 143 144 144 145 146 145 144 144 144 145 145 145 145 145 145
 146 162 168 164 164 172 168 169 169 169 171 176 172 169 184 191 185 178 190 203 185 169 166  82  40  39  40  38  41  69  72  70  65  53  50  45  62  58  49  50  51  58  42  22  42 111 142 144 142 143 145 144 143 147 144 144 143 144 145 142 143 143 144 145 145 145 144 144 145 145 145 144 144 145
  78 147 179 176 170 173 175 166 165 166 166 169 174 178 179 173 177 178 195 220 200 194 195  97  28  40  37  39  31  53  55  48  47  49  69  50  58  50  54  55  51  60  52  42  63 134 144 143 145 147 146 145 145 146 147 145 144 144 144 144 144 144 144 144 146 145 145 145 145 146 147 148 147 146
 136 166 176 174 170 172 173 167 166 157 162 168 171 172 173 171 173 173 195 218 204 193 200 124  44  37  37  40  44  59  72  52  35  45  72  63  50  50  64  59  54  52  45  30  57 126 145 145 145 145 145 144 145 145 147 145 145 144 144 144 144 144 144 144 145 145 145 145 145 145 146 146 146 145
 175 169 169 170 172 172 172 171 170 167 171 173 169 162 159 165 170 168 191 216 210 189 193 132  60  37  47  44  39  47  58  60  51  37  52  58  66  61  68  53  40  43  30  39  62 120 141 144 144 144 143 143 145 145 147 145 145 144 144 145 144 144 143 143 146 146 146 146 146 145 145 146 145 145
 170 172 175 174 170 168 167 170 168 165 169 173 171 167 164 169 171 166 185 216 214 194 198 141  49  22  34  36  34  45  52  51  50  48  58  40  53  57  61  46  28  65  56  61  76 120 142 143 142 145 145 144 145 146 147 145 144 144 144 144 144 144 144 143 146 146 146 146 146 147 146 145 146 147
 170 173 174 176 169 167 164 171 169 167 168 170 169 169 169 167 167 164 184 207 203 186 193 137  55  39  39  34  34  47  50  41  41  48  57  39  48  66  56  53  40  54  32  37  66 108 140 145 143 147 146 145 145 145 147 145 145 145 145 144 145 144 143 144 146 145 146 146 145 148 146 146 146 148
 169 168 176 178 178 179 178 170 170 168 166 171 169 171 165 160 161 171 177 184 178 171 170 144 138 176 157  59  32  50  54  59  47  49  47  45  88  88  64  68  54  45  35  24  43  89 143 149 146 144 144 144 144 145 146 145 146 146 143 145 145 145 145 146 145 145 147 145 141 146 149 146 144 142
 181 175 178 184 178 178 179 168 168 169 169 172 170 170 167 176 184 186 185 183 186 184 177 149 181 209 215 136  38  31  63  77  75  58  47  55 111 118  90  68  50  63  59  37  31  72 137 144 146 145 145 145 145 145 145 144 145 146 145 146 146 146 144 142 145 145 146 145 142 139 139 143 143 140
 173 165 162 169 168 159 152 145 162 175 174 170 168 167 172 182 187 187 188 187 185 189 183 135 169 190 208 205  94  22  47  70  70  57  42  74 114 114 112  65  44  66  63  45  33  74 137 145 144 144 144 145 144 145 148 145 146 146 145 144 142 141 144 144 133 135 138 137 132 137 132 135 127 117
 183 183 172 167 160 130  96  84 124 164 168 169 170 167 162 173 184 187 186 186 193 189 175 138 168 190 199 224 160  40  34  57  48  43  36  73 111 120 132  95  63  60  55  47  70 129 149 144 145 144 144 145 145 146 146 140 136 134 131 127 122 122 126 126 124 123 123 122 118 102  86  79  69  69
 179 177 171 171 172 127  70  50 102 150 163 170 168 158 156 164 180 194 199 195 194 186 172 135 143 158 169 175 160  50  40  65  58  40  35  85 119 122 140  88  66  62  57  37  84 188 177 149 145 142 139 134 128 124 120 116 114 115 115 117 113 112 109 101  94  82  69  64  62  58  52  59  55  63
  91 125 162 177 173 117  83  55  63 120 145 142 140 134 133 134 147 181 188 180 173 171 149 106 114 141 162 186 183  64  31  65  54  28  41 111 133 129 138  60  65  71  66  55  77 144 143 124 119 123 114 103 100 101 100  96  90  80  70  64  61  56  49  47  44  51  52  53  59  59  58  58  58  58
  40 103 147 157 137  87  43  20  50 117 114 117 113 100  92  79  86 140 147 145 161 183 163 130 146 172 196 213 206  79  25  57  60  31  51 126 137 135 133  56 112 114 100  94  84  91  87  83  80  84  80  76  70  64  59  60  62  57  50  51  53  55  56  56  53  54  55  56  56  57  62  59  55  59
  66 127 151 133 131 105  40  38  82  72  63  89  85  62  80  80  74 129 145 136 155 185 168 145 147 162 184 193 189  96  35  45  55  45  73 141 138 143 123  68 129 173 123  84  61  62  65  52  49  54  45  47  51  54  56  57  59  60  57  56  56  58  58  55  58  56  58  60  56  58  60  59  58  58
  75 106 121 112  70  62  27  44  54  47  60  78  60  54  75  87  88 132 141 142 153 178 173 156 139 155 190 192 185  94  37  43  56  43  92 141 137 146 107  59 110 135  82 101  67  51  56  57  56  53  47  55  56  56  61  57  57  59  59  60  57  57  57  54  58  57  59  59  57  58  55  55  56  55
  83  74  61  58  52  57  42  47  61  68  64  70  60  51  56  43  66 141 153 150 159 183 189 164 136 140 166 153 142  80  37  30  42  51 111 143 140 141  82  58 105 105  78  91  67  56  53  54  56  54  46  56  56  55  56  55  57  59  58  60  53  54  57  56  58  58  57  56  54  59  59  54  54  60
  83  56  44  44  47  56  41  40  41  49  43  32  33  33  28   8  33 134 142 138 141 164 164 143 120 113 124 138 142  84  28  30  46  64 120 143 135 146  77  76 103  87  70  63  57  55  53  52  53  51  51  55  53  55  56  57  58  57  55  55  56  56  57  57  57  56  56  58  61  60  58  58  58  60
  60  45  24  29  38  51  41  14  27  44  35  13  29  63  63  22  47 148 158 148 145 149 143 133 131 134 156 171 175 116  44  38  45  68 120 142 147 141  59  81  95  77  63  59  57  55  52  52  53  54  53  56  54  55  60  58  56  54  53  56  55  55  55  55  55  55  56  57  59  63  61  59  59  61
  54  52  31  28  37  44  39  24  35  53  46  19  40 114  79  18  45 139 158 153 151 146 138 139 137 148 174 182 175 129  47  38  36  57 125 137 156 136  61  83  84  65  59  59  57  54  53  53  53  53  54  58  57  59  58  59  57  55  52  58  58  57  56  55  58  57  55  54  54  62  60  58  58  59
  32  51  36  26  24  31  33  39  38  35  19  23  43 109 114  75 114 162 162 158 154 150 143 144 141 151 175 181 173 122  51  31  31  63 142 142 159 119  61  86  78  63  62  62  53  48  49  53  51  49  50  55  54  56  60  60  60  59  57  55  55  55  54  55  55  56  57  57  56  59  57  56  56  57
  20  37  20  28  26  25  20  30  49  58  75 115 103 147 181 140 159 170 167 163 154 152 150 148 130 120 120 112 102  77  45  28  27  70 149 147 162 102  51  90  77  65  64  62  53  49  52  56  55  53  53  56  53  54  59  55  51  53  56  55  56  56  57  57  56  58  59  58  56  57  56  55  56  58
  30  23  16  16  31  45  68  64 117 152 161 156 146 150 181 153 145 159 162 167 159 149 141 123  87  85  99 111 120 105  77  93  41  84 166 155 162  87  58  83  72  64  62  59  56  50  58  54  53  54  55  57  56  55  59  60  58  56  57  57  56  54  57  64  59  60  58  57  58  61  57  57  59  58
  63 100  80  58  99 114 121 109 141 170 174 171 156 151 172 153 150 162 163 163 158 151 140 122 121 147 183 203 203 160  87  90  59  97 166 156 157  80  68  81  69  62  60  57  51  50  65  63  53  53  56  59  59  59  60  60  58  56  58  60  62  61  57  57  56  58  57  58  60  63  60  59  59  57
  58 118  85  46  61 100 142 167 174 164 171 166 157 160 172 149 151 168 170 166 161 155 147 139 141 176 186 186 193 148  75  51  31  82 156 161 149  62  69  82  71  64  63  60  55  59  68  62  53  52  55  58  60  60  60  59  59  59  59  58  60  58  54  53  58  58  57  56  58  62  61  60  59  59
  29  52  38  45  45  58 101 151 107  93 159 174 166 159 166 149 153 166 163 157 150 143 140 144 149 169 181 170 166 155  91  33  28  88 151 164 135  55  74  80  70  63  62  60  54  59  59  55  53  53  55  57  58  58  58  56  56  58  57  59  60  58  57  59  57  59  58  59  61  59  60  60  59  60
  46  43  27  61  49  47  42  78  37  46 151 168 163 158 161 149 143 153 160 158 151 144 139 147 152 174 195 184 195 207 166  75  62 128 161 163 122  64  90  79  70  63  62  59  58  58  59  57  51  57  58  59  58  57  60  57  58  61  59  59  62  61  59  59  61  61  59  58  60  59  62  60  56  56
  82  46  77 111  70  34  35  39  49  61 140 168 154 142 159 147 120 136 159 160 152 147 144 147 141 178 205 193 209 225 169  78 100 154 170 167  93  81  98  78  67  64  60  55  57  59  61  59  54  59  59  60  59  58  61  63  63  64  63  63  58  58  62  61  64  65  59  50  54  52  52  58  62  67
  49  33  52 108 104  47  41  36  46  34 117 174 161 134 152 142 100 125 157 156 151 150 148 152 139 165 208 195 204 219 158  73  77 135 157 147  85  90 101  77  66  64  62  58  53  56  62  61  55  58  60  62  61  66  61  61  61  66  59  59  58  56  57  60  52  55  70  71  91 111 129 149 168 192
  47  44  29  42  63  26  22  31  31  35  87 159 163 143 156 151 127 140 160 172 161 149 142 145 141 164 197 192 195 196 177 146  84 114 161 134  80  96  98  72  63  63  60  55  58  55  55  55  55  61  60  62  60  57  62  51  50  48  58  55  64  76  98 120 142 159 184 202 219 224 234 238 230 232
  38  39  37  37  33  32  27  42  45  33  44 135 165 144 158 151 146 152 163 171 163 154 148 155 158 176 192 192 193 203 205 201 104 110 172 145 108 109  97  73  67  68  61  51  55  60  58  51  49  52  48  48  54  60  76  89 116 129 150 172 195 215 222 225 225 233 229 229 222 220 221 224 220 221
  32  32  30  37  36  41  29  34  55  23  31 109 130 130 151 153 146 156 160 166 166 163 159 165 168 176 199 192 192 201 209 205 117  97 165 134 106 101  95  66  62  64  53  39  43  55  57  59  71  88 110 133 156 180 194 212 221 238 237 235 236 232 226 223 223 220 220 218 222 222 229 235 231 233
  39  42  41  26  25  27  18  41  71  23  20  44  69  99 130 135 138 149 154 160 164 166 165 165 163 173 194 187 193 204 212 221 139 100 161 108 103 106  82  65  77  80 100 116 144 166 179 204 221 227 234 232 234 232 229 231 232 222 220 220 221 220 226 225 226 226 231 234 233 219 205 185 162 145
  42  54  38  30  50  63  27  40  68  29  26  30  39  68  72 112 130 143 152 159 170 173 174 181 174 180 200 192 192 206 215 213 146  93 154 129 135 153 159 178 194 202 217 231 235 235 236 229 224 229 225 226 216 218 221 222 229 228 231 234 232 228 223 211 200 187 160 134 122 101  97  96  96  94
  53  54  44  36  65  82  59  51  67  80  56  39  34  33  28 108 136 146 162 170 173 173 172 174 169 176 197 187 175 181 190 182 154 156 215 213 221 231 234 234 228 233 234 222 224 216 223 224 236 226 231 234 234 232 236 229 225 205 185 158 138 117  99  85  56  58  65  82  92  93 108 136 151 149
  39  44  50  32  31  19  18  32  88 117  91  63  52  42  75 141 144 145 156 166 163 164 167 165 171 177 191 179 164 155 177 173 174 214 226 221 216 221 221 218 217 223 225 231 229 230 239 230 227 215 204 182 170 154 125 107  99  93  90  93  77  75  96 120 129 130 139 153 144 125 122 127 138 145
  26  48  56  46  32  27  24  26  81 124  86  70  83  68  85 126 126 152 166 165 169 174 180 185 182 183 187 174 163 116 152 157 189 226 223 225 220 226 230 227 227 235 225 215 197 178 164 143 122 118 100  93  97 107 105 108 120 127 133 140 134 133 138 153 156 150 151 163 154 146 147 143 144 152
  29  47  24  29  35  47  47  44  64 114 102  73  63  51  48  56  89 180 199 189 195 200 187 188 183 173 171 137 144 105 142 175 209 237 227 221 197 186 175 151 135 114  88  71  72  71  92 105 115 139 149 159 157 160 162 152 148 141 141 147 141 148 147 150 149 149 152 160 157 150 143 145 154 157
  30  31   9  22  37  34  34  63  43  70  71  43  31  38  24  21  94 193 203 190 209 214 196 198 193 165 146 112  95  85 121 144 150 156 125 110 111 108  97  85  95 106  91  75  79  93 139 153 154 160 170 174 166 163 165 159 158 153 151 156 146 147 141 139 140 155 159 160 162 152 155 159 167 175
  44  39  16  19  27  24  22  78  52  36  38  40  35  37  34  63 136 192 202 190 207 231 224 202 163 103  68  31  24  44  69  71  96 108 127 126 144 169 172 166 174 174 135 103 106 129 158 149 147 158 174 184 185 185 182 163 146 146 151 163 152 141 139 150 166 177 173 167 165 165 166 161 159 165
  50  49  31  16  29  26  14  48  47  36  35  35  32  62  74 125 178 143 126  95 104 106  95  86  95  86  97  42  14  51  67  66 113 140 153 163 167 187 190 185 178 174 155 151 160 167 163 158 162 182 189 185 180 177 173 176 174 166 153 141 136 129 140 161 191 189 177 168 163 163 154 153 168 181
  31  34  31  18  19  13   9  21  37  34  21  15  13  51  52 105 158  70  75  88 101 109 117 122 148 159 167  95  31  42  42  45  82 121 144 156 170 174 175 172 163 163 157 168 175 178 179 191 178 179 179 165 159 156 165 179 184 174 154 140 138 141 153 161 169 173 167 166 170 171 163 170 183 182
  19  26  15  14   8   6  20  28  39  31  27  42 105  69   9  25  32  68 107 146 145 146 151 151 164 174 180 125  60  42  25  30  47  64  85 138 168 164 159 164 171 179 180 184 182 187 182 182 169 166 166 157 150 151 165 176 169 166 170 172 161 154 155 157 155 158 160 160 162 161 157 165 169 170
  18  16   8  11  14  27  57  43  39  37  87 114 130  54   6  11  27  46  73 139 148 154 159 158 167 175 176 141  64  33  39  28  29  33  62 108 158 186 181 176 176 175 172 168 172 176 170 168 173 172 177 172 155 155 159 159 158 159 154 152 155 149 156 161 160 160 161 158 154 153 155 163 158 151
  40  12  24  52  45  40  48  43  41  19  79 122  73  15  15   9  26  70 110 149 163 168 172 170 166 174 173 161  93  51  66  45  46  44  38  64 132 166 172 175 169 166 174 176 182 188 183 174 186 194 189 184 164 159 163 154 160 173 172 177 187 173 162 157 155 148 141 147 149 144 148 155 151 150
  33  24  39  43  30  23  22  25  27  22  18  59  25  12  23  16  21  54  83 148 172 174 171 162 152 147 158 169 133 100  85  44  49  50  32  92 173 175 166 163 171 176 187 186 187 185 171 170 182 179 172 161 154 151 153 150 176 193 186 183 185 169 147 143 138 146 145 148 147 146 159 171 170 170
  21  30  38  55  38  24  17  11  32  40  29  38  23  26  39  29  32  33  52 140 159 154 156 156 132 107 138 166 152 122 104  66  65  65  82 136 157 143 137 142 156 162 175 179 173 171 156 160 163 165 166 139 132 132 124 118 160 190 179 169 168 151 104  86 137 157 159 160 157 153 155 152 142 142
   8  26  23  69  63  52  36  40  56  45  39  50  47  42  56  56  57  17  56 144 148 153 165 164 134 117 121 129  94  72  83  52  76  91 131 141 116  96 145 161 161 162 170 172 166 171 178 173 171 183 183 140 122 121 111  98 137 157 161 158 153 143  88  90 155 164 166 167 169 161 155 151 157 164
  34  54  55  58  46  40  55  51  43  24  32  38  36  37  30  34  44  12  67 122 139 157 163 171 135 113  88  72  56  41  61  51 102 109 130 162 133 100 166 177 169 186 191 180 175 173 175 172 172 179 180 138 106 109 110 106 136 143 139 141 147 153 137 147 164 164 161 166 172 168 168 161 161 170
  58  65  60  48  32  23  51  46  37  11  18  23  26  30  25  17  14  13  69 110 152 161 162 163 149  87  49  74  70  13  43  32  54  66 113 153 133  96 154 161 160 179 178 174 168 164 164 169 173 165 161 147 136 146 152 153 164 156 148 145 149 150 152 155 161 158 158 167 171 171 167 159 159 162
  43  42  32  43  28  18  35  32  31  12   9  16  15  19  22   6   2  23  56 106 156 152 158 158 158 149  98  83  93  66  83  53  39  51  80 129 106  83 141 153 163 172 168 174 172 168 167 174 174 164 166 165 154 148 153 157 159 152 146 154 156 157 166 169 170 166 167 171 165 162 160 160 159 156
  27  36  28  55  37  13  16  22  30  40  36  46  31  37  40   7   2  19  46  81 140 154 155 157 165 165 112  61  89 105  94  49  44  37  41 100 108 119 159 131 145 156 165 164 174 168 162 162 155 164 183 173 157 155 157 164 166 163 158 162 163 162 166 169 161 159 165 173 167 163 177 183 177 173
  23  17  44  41  12   8   8  16  18  35  32  40  57  36  34  31  49  44  43  58 127 150 157 160 164 133  46  20  46  73  73  46  35  36  35  53  74  57  68  54 118 153 167 160 183 188 192 194 204 218 221 184 172 176 171 170 166 167 167 173 178 167 175 185 192 194 196 202 190 161 151 152 143 146
  20  10  31  36   8  13  12  36  18  37  40  33  34  24  29  47  65  40  26  76 154 160 155 173 184 150  36  14  33  51  68  48  36  25  35  40  35  27  10  40 137 182 185 186 213 217 214 208 206 210 209 178 165 166 167 177 185 186 187 194 196 184 187 195 201 196 191 194 186 162 164 163 158 171
  22  18  21  16  28  23  14  46  46  43  48  44  42  33  34  37  39  25  33 105 162 101  91 148 151 125  53  13  15  57  74  59  49  27  27  45  33  19  10  96 155 172 170 173 192 207 201 195 194 195 203 189 179 184 174 184 192 189 190 188 190 183 185 191 186 187 185 184 177 176 189 181 168 174
   8  11  15  16  34  31  13  13  16  26  29  31  43  50  30  27  37  30  30  93  97  39  45  92  79  97  69  13  33  43  47  37  33  23  21  45  58  56  93 152 169 174 181 179 188 203 190 189 186 186 181 169 163 175 173 175 187 188 192 191 192 184 175 173 164 162 157 155 157 164 170 166 170 174
   7   6   8  10  39  57  44  34  23  31  48  41  35  48  42  14  17  23  23  37  36  35  28  54  61  90  53  20  46  56  52  34  21  27  39  61 105 125 162 186 186 178 179 175 186 190 173 174 163 151 147 159 167 176 175 172 186 189 190 192 192 182 163 152 152 160 166 168 172 178 179 180 194 187
  19   9  12  13  54  61  44  59  70  83 112  29  22  38  47  18  13  15  23  30  40  76  50  45  70 112  68  38  26  33  41  35  38  50  65  48 108 162 170 170 167 165 162 163 180 172 155 169 169 165 168 191 185 177 177 176 187 192 193 192 185 178 164 154 159 183 187 184 185 177 166 175 185 176
  11  31  53  90  95  37  29  38  47  38  55  19  16  17  25  23  11   7  19  25  24  53  37  36  69 112  79  59  53  79  72  35  55  67  62  31  96 171 169 170 173 177 178 172 176 174 148 145 148 156 163 181 181 176 165 164 175 175 169 172 166 184 200 200 178 164 160 152 139 135 133 151 163 153
  12  79 102 114  83  24  28  22  20  26  35  41  38  31  30  33  26  38  49  45  32  35  38  39  66  81  38  55  73 100  92  50  57  64  60  54 105 174 176 178 181 190 170 137 115 105  96  78  93 145 152 151 157 167 157 154 166 172 171 170 189 214 215 207 176 164 170 148 115 119 131 150 157 156
  38  95  85  77  65  47  43  26  24  18  35  29  23  39  51  48  47  45  28  25  37  57  43  25  49  74  68  65  51  63  58  38  43  53  49  39  77 164 177 177 179 179 118  74  81  56  57  38  61 145 169 156 159 173 177 173 174 171 169 167 176 166 148 154 160 165 174 175 172 175 182 184 180 180
  71  89  75  71  60  55  58  62  90  39  53  58  69  64  54  53  53  35  12  19  30  75  37  27  41  45  73  56  49  53  48  38  48  43  40  19  41 139 160 146 173 182  88  45  65  59  52  23  24 121 176 170 161 166 167 154 145 150 163 168 171 164 159 173 184 195 190 189 189 190 186 184 183 181
  59  54  55  50  47  44  54  50  80  49  59  64  53  63  29  29  45  30   8   9  11  27  40  33  20  17  27  38  35  42  43  36  35  31  29  17  25  55  75  74 114 121  68  49  55  58  57  65  79 147 161 164 154 171 142 118 140 177 191 190 192 186 188 192 190 189 189 189 190 186 184 182 182 181
  31  22  27  40  42  41  55  48  57  57  50  46  41  73  36  30  30  19  13   6   9  19  34  30  11  16  34  27  36  37  38  36  28  31  37  38  24  30  37  58  93  93  68  64  44  40  55 132 166 174 166 169 160 156 125 143 181 197 195 189 190 183 184 187 189 188 187 187 187 187 183 183 185 184
  13  12  22  28  31  34  43  40  41  39  39  45  22  27  44  26  16  13  13  11  20  18  31  42  35  34  41  42  53  58  41  27  35  26  24  41  30  36  31  49  85  73  41  25  25  18  49 144 157 163 157 130  73  26 105 190 201 189 192 187 188 182 185 187 188 188 185 186 186 184 182 184 186 186
  22  21  14  21  16  26  33  33  24  22  14  18  19  32  33  15  10  14  11  17  41  35  28  29  33  34  32  46  39  29  36  17  26  11   6  23  37  60  48  16  41  29  27  55  53  29 101 180 163 177 117  60  46  80 150 193 183 194 188 189 189 185 189 190 188 188 183 186 184 185 186 189 188 185
