P2
59 88
255
 170 168 169 166 165 166 166 166 163 167 176 128  63  16  31  39  51  49  93 171 193 185 182 178 179 174 178 179 180 181 180 178 175 188 191 184 183 179 184 177 169 174 179 177 181 175 172 184 190 189 171 167 181 188 111  52  66  70  49
 175 177 178 173 175 179 179 179 174 174 192 164 116  25  33  49  69  99 114 172 196 190 190 188 189 177 175 182 187 182 179 179 179 184 185 181 182 179 186 184 173 172 174 176 184 173 168 180 193 197 182 181 192 199 135  59  73  73  48
 176 178 176 173 184 182 180 181 176 175 189 180 148  42  25  38  49  93  95 156 178 170 173 174 175 175 171 176 187 192 184 180 182 181 180 176 178 173 179 181 180 184 191 189 188 186 179 189 198 198 187 184 199 211 152  64  75  74  52
 168 167 164 166 181 180 175 173 169 168 173 153 127  47  20  37  49  81  75 139 178 167 167 169 171 176 178 185 206 229 199 180 181 180 182 187 191 182 183 185 185 186 192 191 191 188 180 191 201 198 188 181 199 216 167  69  71  72  58
 169 167 167 171 184 180 169 164 159 158 162 136 124  49  18  48  92 129 117 166 195 179 176 179 181 184 183 187 205 226 211 179 180 182 186 192 199 188 186 187 187 187 194 193 191 187 176 187 200 199 188 180 191 212 180  70  69  71  56
 179 187 197 193 205 192 141 123 119 120 115  97  93  56  15  69 135 165 168 187 201 179 174 176 180 179 178 169 194 218 219 188 181 186 185 189 197 188 192 189 190 190 193 188 185 179 176 180 188 189 179 172 180 196 178  70  63  60  49
 180 191 194 182 189 180 122  91  92 106 111  99  97  61  10  86 157 181 189 196 196 181 173 171 173 177 185 175 190 215 225 181 180 178 180 188 194 184 185 182 177 182 186 182 184 177 166 168 178 178 169 159 168 191 188  79  64  66  66
 175 182 187 179 177 176 147 138 146 162 181 172 155 100  13 113 203 233 232 212 183 177 167 164 170 173 180 175 187 204 221 190 183 178 178 177 185 179 176 170 164 170 173 171 178 189 179 177 184 187 194 183 179 189 204  96  67  71  72
 168 169 175 176 172 172 175 182 182 186 197 186 159 113  20 136 213 226 220 204 177 181 168 162 169 181 181 180 181 181 196 182 170 173 188 185 187 183 186 191 197 208 216 208 205 205 207 203 193 187 178 173 169 173 197 109  68  72  73
 167 166 163 163 163 174 181 183 177 179 181 174 151 117  22 112 173 176 177 185 175 196 193 191 199 204 212 220 217 211 192 182 185 179 197 210 216 214 210 209 206 201 195 180 170 180 176 174 175 171 169 164 168 171 191 122  72  74  75
 174 170 163 163 167 175 173 175 174 177 185 178 166 143  31  98 176 199 200 215 189 217 230 226 222 220 221 217 209 183 142 157 171 169 170 176 177 163 169 175 177 177 169 159 157 169 168 166 164 166 167 165 160 165 197 142  72  83  80
 168 170 165 172 187 188 188 196 203 212 225 229 215 180  43 108 192 227 227 227 168 188 200 190 197 195 193 187 170 117  94 132 146 144 150 159 164 167 169 169 165 169 168 164 163 162 169 169 167 169 169 166 164 168 216 166  78  89  84
 217 218 219 220 224 235 237 240 231 225 214 202 198 162  46  76 152 182 181 175 142 158 188 177 193 197 195 191 154  72  86 143 153 161 145 151 153 181 180 164 164 169 168 162 161 167 173 169 163 167 174 168 167 168 224 181  76  89  83
 222 222 221 213 200 188 189 192 186 183 182 162 170 143  60  61 140 176 184 182 136 139 184 167 178 209 200 197 145  67  78 117 155 211 204 195 203 229 193 166 175 177 172 166 165 173 176 172 168 169 172 168 170 179 226 196  75  68  78
 192 196 197 195 193 188 191 198 197 197 200 179 174 152  78  41 134 181 189 182 128  97 138 134 160 218 210 208 136  56  53  87 172 227 223 226 238 232 164 162 185 182 172 164 164 172 175 174 168 163 166 165 170 185 218 193 105 108 126
 212 208 205 205 204 199 205 209 206 202 200 189 179 159  98  30 140 181 182 161 107  61  81  70 111 210 212 196 110  32  30  68 181 235 222 224 227 187 159 176 192 198 172 163 169 176 172 169 166 168 167 167 170 182 204 207 188 199 208
 211 208 207 208 207 200 203 206 203 200 204 192 184 171 112  21 145 183 189 166  95  43  39  32  75 209 218 176  73  31  30  44 137 223 227 229 221 169 162 185 202 184 133 148 163 167 168 168 164 159 161 164 170 175 184 186 179 188 191
 208 207 209 209 207 201 203 205 203 202 201 192 190 180 123  24 144 185 202 178  91  36  47  44  93 218 220 161  57  36  37  22  98 221 238 232 203 159 174 189 211 148  94 145 150 160 173 168 157 150 152 154 161 161 164 171 177 182 178
 207 208 210 209 205 205 207 207 203 199 207 190 183 178 124  27 104 161 186 165  79  28  56  52  95 181 189 137  54  25  31  28  84 203 244 227 182 171 186 193 193  95  74 156 160 165 176 173 185 200 202 200 197 189 191 193 200 197 193
 208 210 212 210 205 201 203 201 192 184 181 168 159 146  81  12  48 119 150 130  53  18  42  42  80 154 168 114  56  38  38  25  27 138 240 204 158 177 189 203 159  68  83 161 165 165 168 169 192 205 210 209 199 184 184 182 185 176 174
 196 191 190 181 173 160 159 169 160 152 144 143 132 125  91  40  38 105 130 118  51  20  27  40  43  84 127  83  52  38  33  33  28 107 230 175 160 184 200 205 119  60  75 145 157 150 145 150 164 174 186 186 188 191 190 187 183 182 186
 176 169 165 160 159 154 152 157 149 145 141 141 121 120  85  17  12  88 135 120  48  16  29  31  32  51  79  58  46  39  32  34  25  93 186 160 170 187 205 181  70  59  85 164 174 174 186 190 189 193 195 200 202 200 198 188 185 180 177
 160 156 155 153 157 156 157 156 148 145 147 137 136 157  97  23  16  80 159 159  45  18  31  28  30  38  43  38  37  35  34  33  34  65 127 162 178 194 207 137  60  61  97 193 194 191 201 203 195 193 183 181 179 179 181 170 170 168 164
 160 158 158 153 155 159 156 153 150 147 145 137 129 136  75  12  21  41 125 132  41  27  29  20  20  35  31  27  34  31  28  24  36  50 114 156 176 205 181  90  55  51  86 168 176 173 176 181 184 184 182 181 185 188 188 184 181 184 179
 168 166 164 160 165 164 152 146 150 151 150 133 123 124  73   5  14  40 143 112  32  35  32  20  15  33  30  23  34  29  22  32  39  47 102 164 184 205 144  74  53  92 137 170 179 177 185 193 197 200 205 194 195 202 203 193 184 186 176
 155 157 159 156 159 162 151 150 160 165 169 163 153 184 137  20  21  58 121  89  46  38  27  25  29  31  33  33  28  29  24  29  29  21  57 141 185 169  83  58  51 130 184 185 187 189 192 190 188 192 196 181 174 177 179 177 167 169 168
 159 158 156 157 171 186 180 176 178 181 182 176 126 105  81  16  37  38  46  39  49  32  27  29  36  23  31  35  28  29  31  33  20  25  34 115 183 135  64  53  47 117 162 168 175 180 183 181 182 187 183 177 176 178 176 173 167 169 167
 165 160 151 154 174 191 190 186 185 189 186 126  67  60  64  68  87 116 129 118  91  37  27  31  34  29  29  28  27  35  40  32  31  42  23  99 168  89  55  51 118 149 167 169 172 176 178 179 182 186 182 180 179 177 173 166 165 164 159
 165 159 154 158 177 196 198 196 194 194 154 142 144 149 139 123 135 165 174 150 115  36  26  28  25  30  28  33  31  29  28  36  37  35  30  62  97  51  46  54 153 164 165 169 167 166 169 172 175 177 169 170 171 169 167 165 165 167 164
 171 165 162 164 175 197 202 203 194 183 146 147 159 156 135 114 126 148 162 144  91  23  25  25  24  27  23  32  33  26  28  30  27  36  26  42  41  47  32  56 134 160 167 170 171 170 173 178 180 179 180 186 189 186 183 178 177 180 178
 172 167 160 162 174 195 198 196 194 164 141 146 155 155 133 124 134 155 161 148  77  22  31  24  29  28  19  27  27  26  22  27  25  23  31  47  41  54  81 139 175 186 200 196 195 191 190 189 192 190 183 182 180 175 169 165 168 165 159
 169 167 160 162 172 186 168 145  91  94 133 152 163 183 184 174 157 154 165 143  61  20  26  26  29  25  17  28  25  27  20  40  38  21  30  50  54  54  87 164 179 186 194 187 183 186 179 169 170 167 167 163 162 162 161 165 165 163 158
 183 196 194 189 187 192 183 150  87  76 127 156 165 206 244 185 162 155 168 135  51  30  30  27  30  29  22  32  28  29  23  36  33  22  39  35  54  52  76 149 167 174 178 176 175 174 181 183 188 180 178 180 184 178 167 174 172 170 167
 175 198 201 195 189 187 196 180 178 160 133 152 162 198 239 194 169 156 159 135  59  36  42  32  27  32  30  27  25  21  20  32  41  23  22  41  46 118 159 163 167 173 173 174 173 176 182 180 191 186 179 173 172 167 158 163 160 158 156
 173 196 198 201 203 207 212 206 212 201 154 152 163 174 181 150 145 151 157 150  92  31  28  28  26  25  30  23  30  23  25  27  33  19  21  34  41 126 159 155 164 167 163 165 164 163 167 163 173 167 163 159 165 170 166 171 166 164 163
 220 222 226 222 219 220 215 207 209 205 183 167 168 176 166 150 145 155 163 172 122  38  42  31  24  20  19  25  31  31  33  32  19  25  31  35  29  79 127 149 167 175 172 172 182 181 183 176 189 182 179 179 178 180 182 180 171 165 162
 231 227 225 219 218 220 216 201 195 196 202 180 171 179 171 156 144 150 168 168  96  35  38  21  25  27  17  19  27  26  28  34  34  39  36  39  33  54  96 146 194 194 187 183 185 184 180 173 171 163 163 159 160 164 165 165 160 158 157
 211 213 218 214 212 206 187 167 164 169 182 181 174 176 170 154 145 149 173 174  90  22  27  20  22  29  26  22  22  23  29  34  38  41  36  48  53  55  62 108 177 179 179 175 171 161 156 160 158 157 163 160 165 168 163 160 159 163 165
 174 170 171 171 175 173 163 160 160 162 193 195 179 178 176 154 147 149 162 168  93  33  31  19  23  24  30  25  17  19  28  29  30  36  42  30  39  47  39  95 164 170 175 173 170 178 172 174 178 180 174 175 178 179 173 157 155 159 163
 174 172 171 166 165 161 155 151 148 156 185 183 170 171 162 144 132 139 145 148 101  32  24  17  24  27  30  28  22  20  24  21  20  27  41  37  39  42  21  92 179 182 180 175 175 180 171 162 167 166 155 154 152 152 152 152 146 146 149
 165 164 162 162 164 154 146 148 152 145 164 160 159 159 158 153 144 149 151 159 117  37  23  20  33  35  28  27  23  27  24  21  25  32  36  31  36  31  45  91 155 154 156 155 157 160 152 150 152 151 151 150 150 149 149 148 145 147 145
 170 169 174 181 184 177 171 175 181 178 166 162 162 164 164 160 154 159 160 167 111  33  36  28  31  25  23  21  26  29  25  30  34  33  32  26  34  43  29  49 129 144 143 148 147 152 149 148 148 148 149 149 148 149 150 149 151 147 147
 182 178 182 189 189 180 180 185 182 171 169 165 165 168 169 165 162 164 170 181 118  34  36  26  27  23  21  14  26  32  25  26  25  28  34  31  36  52  41  33 102 151 147 147 148 152 152 153 152 151 152 154 153 153 155 149 150 150 159
 178 175 177 182 182 181 178 178 179 174 170 167 168 173 177 167 165 164 171 180 109  37  32  24  23  23  20  16  23  28  28  28  27  27  30  32  34  50  43  22  63 142 150 146 150 154 151 154 155 151 152 157 158 154 155 153 147 156 165
 175 174 174 176 179 180 181 184 185 181 174 168 165 167 169 162 163 158 156 156  70  28  32  25  18  25  25  31  27  29  31  26  26  31  33  29  25  43  34  37  45 127 148 145 148 157 148 152 156 149 148 157 157 151 150 140 131 142 140
 182 176 176 182 177 178 179 176 175 157 156 155 139 138 137 131 130 131 120 107  36  20  25  28  20  33  24  21  21  36  29  14  26  24  22  17  22  25  39  41  36 127 148 140 136 145 129 119 127 125 109 107 117 114 118 107 100 105 107
 169 170 165 163 158 157 157 155 157 146 141 138 122 122 128 115  97 111 106 100  37  26  26  23  23  27  26  18  20  28  30  23  25  22  20  26  32  35  25  28  14  82 114 110 104 104  97  93  99 101  94  95  98  94 101  97  99  99  98
 160 165 159 158 160 166 166 165 166 158 159 157 142 137 142 133 109 103  94  83  41  24  27  27  29  33  24  12  24  24  27  24  23  24  19  35  36  29  23  17   6  61 100  95  95 100  99  97  97 100 101  98  99  96  98  96  98  98  99
 125 138 141 145 150 153 151 147 140 132 137 136 129 122 121 118 111 103  99  97  51  23  28  29  27  29  18  11  26  28  24  22  29  27  24  44  30  16  26  19   8  61  97  90  88  95  96  99 100 103 105 103 107 109 106 108 107 112 118
  86  92  96 113 128 128 123 119 115 113 114 111 113 111 109 109 104 107 100 110  70  36  35  27  25  27  27  22  23  26  17  19  29  18  24  35  25  24  19   7   3  55 100 106 102 107 106 113 114 117 117 122 121 118 115 121 120 118 119
 103 101 106 107 108 109 108 107 108 108 106 103 105 102 101  97  98  96  97  95  55  28  35  22  21  19  22  22  24  31  32  26  32  24  35  29  24  40  23  20   7  62 122 119 118 119 120 120 119 123 120 121 121 120 119 120 121 116 118
 105 103 106 105 106 106 106 101  96  98 101  97  99  96  95  92  97  97  99  98  65  34  39  25  21  20  22  20  21  27  35  27  26  25  31  34  46  38  34  39  26  69 121 119 117 117 118 120 119 116 119 119 118 117 115 116 118 114 113
  98  97 101 100 100 101 103  98  95  99 103 101 105 104 104 108 113 112 115 118  84  41  35  24  27  33  25  26  29  28  24  25  29  32  27  35  39  20  20  39  46  72 119 119 113 117 113 111 111 107 104 103 102 100 100  96  96  91  91
 107 107 112 111 109 112 115 113 113 117 113 111 116 116 118 118 119 117 119 117  76  44  43  25  23  28  18  23  33  31  31  30  34  31  31  19  27  28  25  41  45  53  94 101  94  99  95  91  89  88  88  86  84  83  84  86  85  85  91
 118 117 121 118 116 120 119 117 118 118 117 115 119 118 118 116 116 116 115 102  57  39  45  25  23  21  16  17  23  26  26  31  43  27  25  11  25  25  25  37  49  42  75  88  86  86  88  87  84  85  88  86  84  85  87  90  92  94  97
 120 119 117 116 116 118 115 116 114 117 116 115 114 114 116 112 114 113 111  91  51  36  31  25  24  23  23  20  21  18  17  26  32  36  35  12  20  26  18  27  45  42  72  83  85  87  87  89  84  85  87  84  87  86  90  91  88  88  88
 120 119 117 115 115 119 118 119 115 114 111 108 107 107 102  99 100  96  97  85  50  34  27  22  25  24  24  22  26  23  29  29  23  30  41  25  27  22  26  28  36  22  57  82  84  82  84  84  80  85  86  81  82  86  95  93  89  89  92
 116 113 110 107 105 104 100  98  91  90  86  83  84  83  76  84  82  76  75  70  48  35  31  24  27  24  25  26  29  23  21  30  27  26  30  35  33  27  21  28  39  26  56  84  88  89  92  96  98  98 104 103 104 110 115 110 110 114 113
  91  89  85  82  81  81  78  78  75  77  80  79  81  81  79  84  81  82  82  77  48  40  36  28  29  37  27  21  27  24  15  25  24  24  24  21  35  46  29  33  40  11  32  86 111 115 113 114 117 111 111 114 113 115 112 113 111 112 111
  82  81  80  80  80  81  81  83  80  80  82  82  81  82  84  82  76  81  82  72  42  33  29  22  27  25  21  22  28  22  25  32  33  32  27  17  30  38  38  37  32  20  25  56  87 120 117 110 114 113 113 114 109 107 102 100 103 109 105
  80  80  78  80  76  83  81  79  78  78  82  83  89  82  89  85  92  96  96  69  36  34  27  24  24  19  23  22  25  23  27  36  33  33  33  33  36  28  44  46  39  38  26  26  52 102  97  86  87  87  85  78  72  75  73  70  80  82  76
  81  81  80  83  80  93  92  92  93  93 101  98 103 104 112 112 114 119 113  73  44  29  29  34  29  31  28  23  24  24  19  30  29  29  31  36  36  29  41  45  36  28  20  20  34  71  74  69  71  65  72  68  66  72  71  59  69  73  70
 101 102 104 111 111 112 113 115 118 119 121 117 114 115 117 116 117 114 101  59  41  44  39  31  30  36  28  22  24  26  24  25  26  25  21  27  30  31  36  36  30  24  28  32  37  64  77  68  68  66  80  76  74  77  75  75  75  73  70
 116 114 111 116 115 113 113 111 109 107 106 112 106 109 111 115 119 123 120  87  43  34  29  30  30  30  22  23  24  26  21  21  30  32  29  31  35  40  35  31  20  32  49  46  38  55  74  66  72  74  73  69  68  73  70  71  72  73  72
 112 109 105 109 108 106 111 117 121 123 129 138 127 128 133 140 142 153 156 119  50  35  25  26  30  27  21  26  26  25  17  23  28  24  27  29  32  39  32  30  27  37  43  34  30  41  56  55  64  57  62  59  58  62  58  61  66  70  66
 133 127 131 138 149 146 152 157 154 152 155 156 150 133 139 139 140 147 123  90  41  32  20  26  39  33  28  25  23  17  21  31  25  21  26  29  28  28  25  29  23  35  25  23  31  42  67  69  58  51  56  56  66  63  54  55  62  56  51
 150 147 141 136 140 131 130 137 132 127 121 124 117 113 107 107 101 109 106  76  46  28  31  30  36  24  23  21  20  21  28  35  23  16  20  22  29  25  30  39  26  32  34  42  40  36  63  73  67  63  55  56  62  60  59  56  66  67  72
 118 123 123 115 106 107 101  92  94  83  66  69  82  88  88  76  56  52  51  51  44  33  31  28  25  24  26  20  16  21  25  19  12  19  26  25  30  23  34  35  41  34  29  40  40  35  54  65  65  66  55  58  61  58  63  83  94  96  95
  89  84  75  69  60  57  49  31  30  20  13  16  28  19  19  13   6  10  19  35  37  38  32  32  28  30  29  21  17  20  26  25  24  26  19  33  31  27  29  24  36  35  26  34  37  46  56  65  56  51  45  48  58  70  87  86  83  67  50
  25  22  14  11   9  11  13  28  28  37  45  42  28  29  40  48  53  70 100  83  38  34  38  30  29  30  27  22  20  23  26  33  30  26  21  33  32  31  23  21  35  30  20  33  45  50  45  45  42  45  50  57  65  60  55  41  33  21  24
  61  77  90  97 103 103  98 113 111 106 121 134 131 144 155 159 152 146 149 129  56  34  27  30  35  36  25  18  24  28  22  23  30  25  23  27  32  29  12  16  39  32  21  36  47  37  29  35  38  46  42  32  31  20  20  26  24  20  18
 111 102 114  99 103 109 119 129 129 126 128 140 152 151 152 152 146 144 153 118  43  36  30  26  26  31  24  19  22  30  23  22  21  29  19  20  37  23   8  15  25  18  14  35  33  15  12  26  21  18  19  21  22  16  24  23  17  11  26
  90  81 104 107 117 134 143 144 141 130 118 112 135 135 134 131 135 136 146 102  27  36  29  22  27  23  24  23  21  26  20  20  29  33  19  31  34   8   8  23  24  22  19  34  29  14   9  18  11  10  16  24  29  31  38  48  18   3  36
 129 127 131 125 121 130 121 108  96  91  56  56  95 109 110 119 114 109 119  87  32  36  28  27  30  28  22  23  23  33  32  26  26  28  26  26  25  15  22  27  23  23  29  37  42  24  17   7   6  13  42  50  46  51  54  63  23   1  17
 121 111 102  92 102  99  85  72  60  75  66  71  98 109 117 128 120 125 132 103  42  33  33  43  36  22  16  21  14  12  22  28  15  22  22  25  28  32  35  32  18  13  28  33  44  43  37   9   4   7  45  55  38  36  43  59  26   3  11
 104 100 105 111 122 114 119 121 130 140 139 147 140 131 126 122 117 122 130 109  39  22  28  22  23  19  23  27  20  23  33  27  16  23  19  23  26  35  31  18   9  20  19  24  35  48  60  21   2   4  52  71  60  51  40  65  37   5  22
 147 147 145 139 146 140 147 149 141 149 153 152 140 121 105 101  91  89  94  78  36  32  18  21  33  25  24  26  24  26  28  22  21  26  25  26  29  40  23  10  19  29  32  31  29  41  50  17   3  12  56  64  57  46  24  34  16   2   7
 156 151 149 146 148 142 133 117  86  88  90  85  80  83  75  63  57  55  56  46  53  47  20  35  40  27  25  25  23  18  23  22  30  29  26  19  23  35  17  13  25  32  40  36  24  21  32  12   2   9  12   9   3   3   1   2   2  14  28
 106  86  74  62  55  36  36  33  15   9  15  14  11  43  49  47  50  57  57  52  55  59  26  17  25  16  22  24  27  25  25  27  24  25  28  23  22  22  14  25  26  38  32  18  24  34  29  11   6   9   4   3   3   6  12  37  57  88 105
   9   5  12  18  27  28  27  32  35  24  33  30   9  54  60  54  58  60  56  55  58  58  43  20  19  15  22  17  19  21  18  34  27  25  23  23  22  15  24  49  39  28  29  29  28  28  18   8   5   2   7  13  38  65  90 104 116 121 118
  49  51  49  51  56  50  49  55  58  38  36  33   5  56  69  67  70  63  71  63  65  68  62  20  21  28  24  23  16  21  22  25  20   8  14  22  21  15  27  32  30  30  29  14  16  17   4   9  26  51  78 107 121 118 120 117 117 116 115
  74  58  60  54  60  60  56  69  72  44  41  30   6  60  72  66  63  55  49  39  37  48  62  27  21  22  17  26  25  22  22  20  10   2   8  12   6   7  21  17  17  13  17  18  27  45  59  83  98 115 118 121 120 116 112 113 113 113 112
  99  67  54  59  66  58  50  42  43  48  44  26   1  22  28  17  13   9   5   3   4   9  32  18  13  10   6  11  15  19   7  11  11  14  22  24  22  38  71  82  80  77  88 101 109 117 116 119 117 118 111 110 109 111 114 111 112 113 113
  81  61  38  33  29  40  26   6   5  23  49  14  12  15  12  21  28  29  31  27  36  23  18  12   7  12  12  15  33  54  55  66  73  83  89 101 105 111 120 124 117 113 113 113 110 109 109 112 112 106 111 114 111 109 113 112 114 116 117
  43  33  28  21  32  62  27  19  32  42  45  53  95  85  88 105 127 123 110  85  74  67  62  80  79  86  87  88  98 110 105 113 113 119 121 121 119 115 110 112 107 108 107 108 107 108 110 108 108 109 108 110 110 110 112 113 115 117 118
  44  44  38  56  58  77  49  47  84  74  65  86  99  84  79  81 104 115 112  97  98 103 111 113 114 116 110 108 116 124 121 118 115 116 118 113 111 112 111 108 105 107 108 108 107 110 109 109 110 110 111 109 110 117 121 121 120 119 120
  39  47  33  36  44  43  48  45  54  41  48  31  41  36  26  27  58  87 106 108 114 112 112 112 113 117 118 119 118 117 119 116 112 110 111 107 109 113 113 110 108 112 115 116 114 118 117 116 116 116 116 119 124 125 125 128 126 124 123
  22  46  26  13  36  54  49  43  47  31  38  39  52  43  48  55  83 107 117 114 115 115 117 120 122 119 114 109 107 108 112 111 111 112 113 111 112 114 116 117 118 118 119 120 121 122 124 124 123 124 126 128 129 129 131 136 136 138 140
