P2
100 123
255
 130 178 181 187 186 168 166 179 171 167 169 174 172 152 146 167 174 171 167 163 167 164 162 152 149 154 154 151 153 158 169 143 110 147 151 145 145 147 141 141 143 148 147 151 153 151 144 150 186 218 209 211 215 216 216 216 215 219 219 217 220 219 221 220 219 220 219 219 222 218 218 217 218 219 220 221 220 219 218 218 218 221 224 224 224 226 233 199  96  54  50  48  44  41  47  26   5  87 230 222
 104 174 178 185 183 187 192 191 176 177 181 179 178 179 175 165 171 172 165 160 163 155 149 143 144 148 157 156 154 147 149 125  92 119 125 129 139 138 147 150 151 150 148 147 146 144 144 144 174 217 209 212 216 217 217 218 216 218 217 216 217 217 219 218 218 220 221 220 221 216 214 217 217 219 219 220 220 219 218 218 218 221 223 223 223 225 229 208 102  57  40  49  44  33  45  28   6  72 213 231
 111 198 194 191 186 183 185 192 186 175 174 175 173 174 175 174 167 168 160 155 151 150 156 165 159 144 146 153 160 152 147 144 118 128 142 150 133 130 144 145 147 134 135 140 148 155 159 154 173 221 216 215 218 219 217 218 216 217 216 214 213 216 218 218 218 220 219 219 222 218 218 217 217 218 219 219 219 218 218 218 219 219 221 220 220 222 229 216 116  66  46  59  58  49  45  29  16  64 192 233
 101 205 198 188 188 183 185 185 179 154 155 167 166 174 179 174 174 175 168 160 146 151 160 168 162 151 129 139 150 149 148 146 120 118 142 142 123 127 142 140 155 157 156 155 155 157 168 170 177 217 215 215 218 218 215 215 217 216 217 217 215 216 218 218 219 221 222 221 223 218 217 214 216 218 219 221 219 218 218 219 220 219 221 220 219 221 224 221 128  72  61  65  70  83  71  87 123 146 193 223
  67 176 171 177 180 176 173 177 182 179 177 178 166 173 172 174 174 172 159 149 151 159 164 164 158 162 144 138 130 132 128 128 105  99 141 141 136 148 144 141 147 156 141 138 134 144 157 161 160 219 218 210 217 219 215 216 217 216 215 216 217 216 217 219 220 221 221 219 222 218 219 219 219 218 219 220 221 220 213 216 221 222 220 217 219 221 224 216 154 113  84  79 126 184 178 215 252 246 232 230
  56 173 172 179 180 186 177 173 175 170 167 164 162 165 167 165 170 167 146 133 143 155 158 160 170 164 152 149 137 132 129 131 108  91 126 137 136 136 127 127 132 142 145 148 153 161 163 163 157 210 220 205 213 217 217 219 218 217 216 217 218 219 220 220 218 215 218 219 223 222 223 220 219 218 218 218 215 216 214 217 220 221 219 217 218 221 225 223 224 231 218 175 156 162 171 196 246 242 222 207
  47 190 184 186 185 193 180 169 166 149 137 145 158 156 157 162 165 165 165 163 161 164 159 162 161 159 154 151 147 135 120 118  90  83 124 133 134 125 124 144 161 159 167 164 164 164 157 157 149 195 222 211 216 218 217 217 219 219 218 219 219 218 221 221 218 214 218 219 221 221 221 220 218 217 216 216 215 218 216 219 219 221 220 219 220 222 229 226 236 233 229 225 198 154 125 152 199 207 198 177
  34 185 192 186 189 195 179 161 157 153 160 184 197 195 181 181 171 174 164 155 161 162 153 157 146 156 151 142 148 150 145 136 108 111 145 136 128 116 112 137 155 152 148 145 149 160 161 165 155 189 227 213 215 217 217 217 219 218 218 218 219 217 219 220 219 218 219 221 219 220 218 219 218 217 217 217 221 220 219 222 219 221 221 221 222 223 230 199 200 196 182 211 219 211 177 172 172 174 162 149
  26 168 200 188 189 192 180 166 167 171 190 232 229 223 185 161 155 157 161 166 170 166 159 156 158 166 175 162 155 141 133 133 124 129 147 134 120 114 113 134 150 148 147 160 163 172 174 180 168 189 228 217 217 219 220 219 218 218 217 218 218 217 218 219 219 220 219 222 220 222 220 220 219 219 220 221 221 219 218 223 221 219 220 220 222 223 224 177 166 168 164 173 166 149 145 141 158 170 178 188
  13 144 197 189 180 187 175 164 164 162 169 214 226 219 189 176 172 161 159 160 158 154 157 155 149 155 157 150 149 140 114 107 116 134 149 128 110 102 111 130 151 150 154 161 169 173 177 182 179 180 214 217 216 220 219 219 217 217 218 219 219 218 218 217 217 219 220 218 218 219 221 220 219 218 218 219 218 217 218 217 217 218 219 218 220 223 224 184 155 165 172 178 189 202 220 219 229 227 225 227
   8 122 178 179 179 184 172 168 167 161 169 201 197 192 181 181 176 162 146 144 152 140 150 145 147 154 143 151 160 158 139 101 102 134 148 129 105 122 138 145 158 158 163 172 177 175 172 176 177 177 208 216 215 219 219 220 218 219 219 220 220 218 219 219 219 218 217 218 219 219 218 219 218 217 217 218 217 217 217 218 218 220 220 218 217 219 227 219 218 231 236 227 227 224 229 222 224 222 219 218
   8 109 185 192 191 197 177 155 145 148 162 162 159 173 172 170 170 177 165 164 177 186 179 161 168 168 158 160 164 166 156 105  73 125 152 121 106 149 173 168 169 171 169 174 179 178 174 174 174 173 205 214 212 216 218 219 218 218 218 218 218 218 219 221 221 218 217 216 216 217 218 220 219 218 218 218 215 216 217 218 218 218 220 219 217 219 222 226 225 224 222 222 221 219 223 221 222 221 220 219
   7  97 195 204 196 205 185 163 165 167 164 159 156 178 181 181 177 185 182 189 198 179 163 154 165 163 151 157 160 161 158  98  60 112 144 117 119 158 173 167 166 165 168 177 179 171 172 172 171 167 207 214 212 215 216 219 219 218 218 217 217 218 216 219 222 219 218 216 215 217 219 220 219 219 219 219 215 216 216 217 217 215 218 219 218 220 221 225 222 223 225 225 223 221 220 219 222 221 220 218
   9  85 187 197 192 201 188 159 157 162 161 156 154 176 175 174 173 166 168 177 157 145 142 150 153 149 139 151 147 154 175 131  63 100 149 129 148 164 163 164 167 167 164 169 170 162 160 167 169 164 207 218 214 216 217 219 220 220 219 218 218 218 214 217 221 219 216 217 218 218 218 219 218 217 217 218 216 216 216 216 216 215 219 219 218 218 221 224 222 223 222 223 223 223 221 221 218 219 219 219
   8  72 181 199 197 202 182 156 144 143 148 152 154 170 169 174 174 166 164 164 153 148 144 148 151 146 142 136 128 127 154 163 112  77 132 147 163 160 148 138 155 159 159 156 159 157 155 159 159 162 195 216 212 216 216 219 217 219 218 217 218 219 217 215 215 215 218 219 220 220 219 219 220 219 217 218 215 214 216 217 216 217 217 217 218 219 219 221 222 221 219 222 222 222 221 220 218 219 220 220
  19  63 154 180 182 178 167 161 155 157 170 179 177 179 177 174 160 152 158 172 169 150 139 134 138 138 139 136 122 115 128 160 158  93 131 164 164 154 127 126 146 148 153 151 153 153 152 150 147 152 188 222 213 214 217 219 217 218 219 219 221 217 216 215 216 217 218 219 219 221 221 219 220 219 217 217 214 214 217 218 216 217 218 218 218 218 221 222 222 222 221 220 221 221 220 219 219 219 220 219
 110 120 161 176 181 173 175 181 177 168 167 153 158 162 166 159 147 148 156 174 169 148 138 134 135 135 139 144 134 123 123 141 157 118 142 160 153 132 106 123 146 156 160 153 152 155 152 151 152 156 184 228 217 214 219 219 218 220 219 219 221 216 216 216 217 219 218 218 218 221 223 219 220 219 217 218 217 217 219 221 219 218 218 219 219 218 220 220 220 220 220 220 221 221 220 219 219 219 219 218
 187 175 183 196 201 185 170 168 163 166 169 163 157 161 169 171 172 171 162 163 152 145 134 129 133 137 144 140 133 112 108 124 147 131 142 164 155 121 113 138 149 148 151 148 150 152 145 151 159 155 168 223 220 216 219 219 218 220 219 218 219 217 216 216 218 219 218 219 219 221 221 219 220 218 217 218 217 216 218 218 216 217 219 221 220 219 220 219 218 219 220 221 221 221 220 219 218 218 219 218
 183 180 172 187 197 184 170 173 169 180 190 169 164 179 179 179 181 172 144 139 134 140 135 132 132 132 137 142 152 115  97 127 161 149 152 165 146 102 111 137 135 139 145 148 150 144 148 156 165 153 156 214 220 216 216 216 216 218 218 218 220 218 217 217 218 219 218 219 220 220 219 219 220 218 217 218 218 217 218 218 215 217 219 221 220 219 221 219 218 219 221 219 220 220 219 218 216 218 218 218
 200 198 185 192 198 186 170 174 178 168 161 154 174 187 170 163 167 163 157 146 142 152 148 157 150 145 155 166 159 138  98  93 133 149 133 130 108 101 139 131 123 146 160 164 158 160 164 168 171 161 154 199 213 216 217 218 218 218 218 219 219 219 216 219 217 220 220 219 221 221 219 221 218 218 220 219 219 221 217 217 216 219 217 220 220 218 220 221 221 220 219 218 219 220 220 220 219 219 220 220
 205 195 186 182 181 177 161 162 159 150 152 165 169 166 161 156 160 160 164 160 158 155 158 159 156 146 146 156 143 150 134  96 118 140 125 106 100 127 152 124 110 137 154 159 152 154 151 141 142 148 169 199 212 218 221 220 219 219 218 217 217 219 218 220 218 220 218 219 218 219 220 220 220 219 219 221 220 221 218 220 218 217 219 219 220 221 221 221 221 221 220 220 221 221 220 220 221 221 221 220
 180 178 171 168 166 161 163 165 171 168 167 165 160 149 155 153 143 160 174 166 164 170 168 160 171 170 145 150 142 144 148 126 116 117  99  95 104 121 120 100  95 127 155 165 149 142 136 140 150 152 163 192 209 219 221 217 218 218 219 219 220 216 217 218 220 220 219 219 218 219 221 216 217 218 218 220 219 219 219 223 221 221 221 222 225 220 222 222 221 220 221 222 222 222 220 220 220 220 219 219
 182 171 165 167 169 161 166 167 176 172 163 161 160 161 169 173 157 168 174 168 169 173 172 163 168 166 159 147 130 128 157 179 153 135  89  77 119 109  98  87  80 110 142 157 149 149 145 148 150 161 165 192 210 218 220 221 221 221 221 221 221 221 220 217 219 220 216 216 220 223 221 219 219 223 226 225 228 224 221 222 217 216 214 213 226 229 222 220 218 219 220 220 221 221 220 220 218 219 218 218
 179 171 168 174 182 182 177 174 173 168 167 164 163 167 167 175 173 175 180 173 164 160 160 159 164 167 172 169 141 129 144 167 172 147  76  84 127 102  90  77  65 101 141 164 159 160 161 165 160 176 167 173 188 189 192 203 214 215 216 218 220 220 220 217 225 229 225 222 227 228 218 220 214 215 214 205 201 192 181 175 163 161 166 165 196 224 221 218 217 218 219 218 219 220 220 220 218 219 219 220
 178 170 158 162 163 162 169 170 162 166 175 169 166 166 170 187 186 174 179 177 168 163 157 153 157 164 165 164 163 154 129 118 139 157 106 106 119  88  84  73  75 127 152 156 166 173 171 171 168 169 161 151 165 164 170 194 215 219 225 227 224 225 225 217 214 207 204 194 185 182 172 169 157 152 150 137 136 133 134 129 139 136 139 138 150 189 212 213 220 219 216 217 221 220 219 220 220 216 218 213
 183 173 158 158 165 167 178 187 175 171 182 174 166 166 169 174 164 163 163 177 176 167 160 158 158 158 159 156 162 172 165 145 135 146 114 105 124  95  77  53  74 137 152 148 158 168 169 174 170 168 169 163 175 185 208 229 225 221 219 214 204 203 197 190 181 161 145 140 138 151 158 158 150 150 141 138 132 136 133 124 137 142 139 138 130 137 193 209 216 221 219 222 222 221 220 218 218 219 218 210
 172 166 157 154 163 175 188 194 182 171 171 160 162 162 160 158 161 165 165 163 162 163 159 164 165 161 167 175 180 183 176 179 177 164 100  64 113  90  66  55 108 161 166 168 175 172 172 173 170 168 167 169 193 197 203 206 199 197 198 196 187 192 187 181 169 154 147 146 149 162 167 168 160 154 150 148 129 122 107  89  95  84  73  75  67  60 161 197 212 221 220 223 218 217 215 211 214 211 203 194
 162 158 156 151 158 166 164 168 168 167 162 158 165 164 162 157 155 162 172 166 167 168 161 160 167 171 174 167 155 152 150 146 145 148 127 110 137 116  87  98 162 188 173 163 167 161 154 152 161 163 158 175 215 203 191 188 177 183 188 186 179 173 171 166 154 150 149 138 131 136 134 120 100  89  72  70  48  57  57  34  28  53  77 120 127 114 157 192 211 217 218 218 217 217 218 219 216 220 217 205
 161 161 160 161 171 167 166 171 173 176 172 174 171 166 168 160 171 170 163 164 163 164 166 163 157 151 155 153 153 151 137 123 124 123 123 128 139 120  90 116 173 182 167 152 152 156 155 153 161 157 149 175 210 183 172 176 177 185 183 169 159 144 137 126 105  96  90  75  64  56  36  33  42  78  49  56  66  99 122 114 119 131 127 139 142 143 177 198 212 211 216 220 220 217 217 220 218 221 221 216
 198 203 188 170 176 174 171 165 161 157 156 152 146 166 175 171 175 160 146 146 142 144 151 150 146 147 159 153 157 156 121  99 105 104  94 115 130 115  82 115 153 167 162 158 165 165 163 165 167 168 168 189 201 163 156 158 144 133 126 106  71  50  45  65  68  41  46  65 111  98  83 100 124 143 145 153 154 148 138 143 148 143 137 139 147 151 192 213 218 221 214 216 217 219 217 219 219 221 217 218
 200 201 195 170 169 180 171 143 135 128 127 127 132 164 174 179 178 170 161 160 153 149 159 162 164 172 168 148 136 143 117  98  99  89  89 107 136 128  90 136 145 160 172 172 180 182 171 167 164 163 163 158 147 135 116  77  51  55  95 118  71  64  81 122 144 123 129 129 141 134 142 157 158 151 150 166 162 156 145 145 148 142 141 144 151 157 200 218 214 217 217 217 217 219 214 216 215 219 217 218
 179 168 170 168 180 190 175 129 117 116 119 122 128 168 179 181 185 181 180 179 177 181 176 164 161 169 161 148 127 109 102  85  77  64  78  86 119 115  73  86 117 173 180 174 171 163 163 161 160 161 163 157 158 180 165 133 143 163 179 180 150 162 169 149 143 134 140 137 136 144 159 161 162 157 157 172 172 163 150 155 163 153 144 145 157 158 200 226 220 219 216 218 216 217 218 224 225 225 221 223
 157 145 145 157 167 162 159 130 118 119 115 117 123 162 183 180 173 170 170 168 170 165 166 168 164 159 166 154 154 123  75  84  90 109 113  84  75  89  59  61 133 191 187 181 162 150 149 145 147 161 174 165 183 206 190 183 202 204 195 176 154 176 177 141 142 139 168 158 134 148 163 173 164 157 158 170 169 166 157 157 159 153 143 139 156 156 197 224 217 220 216 219 222 223 215 213 204 202 198 199
 147 150 153 156 152 147 158 138 117 124 121 122 129 150 170 168 165 166 173 172 176 177 180 192 195 188 192 164 156 168 122  79  95 139 135  82  36  87  77  96 141 161 163 165 135 132 153 153 157 164 169 162 177 200 195 190 204 197 196 175 158 191 198 144 142 153 201 193 149 152 167 177 163 159 162 169 169 166 157 158 161 169 167 156 164 167 185 218 218 221 210 197 192 186 179 180 185 179 166 152
 148 149 158 148 142 152 174 145 123 138 140 151 161 160 172 174 179 186 182 180 186 187 180 183 177 177 176 147 117 132 145 111  97 107 109  87  40  68  79  92 113 135 152 150 119 153 178 154 149 149 154 157 183 202 196 190 201 209 199 183 155 181 199 152 145 139 184 206 157 157 157 168 171 161 163 176 174 170 173 177 183 192 189 192 185 180 180 207 223 219 225 198 149 132 113 104  82  49  31  16
 152 144 152 154 154 159 176 167 163 175 173 189 196 192 182 177 177 174 178 184 185 185 177 173 169 168 172 160 116  89 100 124 112  85  93  90  58  65  73  82  88 113 142 118 105 153 157 153 142 144 138 148 184 206 198 189 196 199 196 178 159 167 176 147 143 143 155 167 162 163 160 167 176 177 184 190 184 177 178 180 183 180 182 179 171 170 171 205 224 221 232 195  60  26  51  59  51  19  17  25
 159 171 172 174 174 172 178 179 178 180 174 176 175 180 177 177 173 170 176 180 185 184 179 168 169 176 181 180 154 105  83  98  84  77  85  82  54  37  56  78  81 102 122  97  91  96 132 153 139 139 133 143 174 192 193 188 186 195 202 181 163 155 155 148 149 158 154 154 169 180 169 171 183 191 195 192 186 182 179 174 179 178 174 171 174 178 181 206 220 218 224 213  82  28  47  64  65  35  24  22
 157 171 168 160 157 158 154 152 158 167 171 172 165 163 171 175 151 164 171 169 183 176 166 166 163 167 171 164 161 147 123  91  77  72  59  80  61  48  81  88  67 104 101  82  82  80 126 153 129 107 116 150 154 162 178 176 184 200 203 184 163 157 156 155 161 172 161 159 162 173 164 167 175 179 179 175 169 169 170 167 174 176 178 184 189 184 190 206 219 220 225 226 113  38  45  56  60  29   8   6
 160 163 161 151 149 161 168 161 167 180 186 202 201 178 175 175 164 172 163 135 137 119 115 159 175 177 182 178 161 156 145 117  91  67  42  66  57  34  65  74  60  81  78 109 136 133 148 147 101  71 117 152 136 139 170 169 167 182 177 171 157 157 157 153 158 167 158 158 160 158 161 161 168 166 166 166 170 164 168 170 169 178 185 185 186 184 182 204 218 218 226 234 135  44  49  56  65  33  11  11
 143 167 170 168 170 176 175 166 177 194 195 198 195 177 180 186 183 180 140  80  74  58  64 146 176 170 171 170 151 130 117 103  92  76  52  61  57  37  59  76  56  59  99 176 179 158 129  98  64  61 111 122 108 140 187 174 158 160 167 154 150 150 145 148 149 157 162 161 160 159 158 164 166 166 164 165 170 168 167 172 177 177 178 179 173 177 181 203 219 219 222 237 157  53  46  56  64  38   4  13
 115 158 165 164 157 153 158 151 163 181 186 186 187 179 177 172 168 165 137  71  69  65  79 140 157 146 144 151 154 127 115  97  91  76  52  62  64  67  58  42  18  46 126 162 145 131  95  63  53  68 100  89  91 164 204 182 158 163 171 162 157 162 156 154 154 158 164 164 164 164 164 170 169 165 161 162 167 168 170 174 177 178 179 177 171 174 180 197 222 220 223 244 175  49  42  62  62  39   5  10
 155 177 179 177 170 172 171 167 172 179 177 180 177 171 164 152 154 156 149 123 122 144 153 176 179 173 169 182 184 155 115  93  90  79  62  69  60  72  54  26  33 105 140 127 105  97  73  46  55  74  76  66 120 195 211 183 165 170 176 169 163 166 163 161 163 166 167 167 166 167 168 175 174 169 165 166 169 172 176 180 182 183 185 181 179 182 187 196 224 222 224 245 191  48  37  60  64  48   9   8
 188 187 186 182 166 163 159 162 167 169 166 159 159 165 172 174 171 169 173 179 176 170 167 168 159 163 170 179 178 176 145  94  86  81  67  53  46  50  42  26  52 108 118  97  73  73  58  49  64  78  64  73 152 192 201 184 163 167 171 170 167 169 168 165 167 168 170 168 167 168 169 173 175 175 172 172 172 174 178 182 185 186 188 183 184 187 192 198 218 218 222 242 210  65  37  57  62  53  12   6
 178 180 178 176 160 159 169 172 175 177 176 168 166 169 175 180 174 165 174 169 168 168 164 163 145 153 157 163 167 162 151 111  83  76  75  62  42  53  56  53  64  87  84  63  63  65  56  57  61  65  51  80 149 191 204 185 169 171 170 171 170 172 172 167 171 170 173 171 169 169 171 170 175 177 174 173 178 179 181 186 189 191 193 185 186 188 194 203 213 220 226 236 226  81  32  51  61  58  16   9
 169 161 165 164 160 171 189 179 175 169 165 162 164 175 167 167 163 167 167 164 162 167 172 176 159 152 159 168 160 148 132 103  77  63  54  48  23  36  62  75  67  63  56  37  35  37  45  52  54  50  73  95 126 184 205 191 175 171 172 173 165 168 165 165 172 172 174 174 175 175 174 171 175 181 179 181 186 184 187 191 189 192 189 183 181 184 192 198 213 221 225 237 238  95  36  56  63  59  26   5
 152 151 157 163 160 159 159 160 174 178 174 177 185 187 170 167 169 176 173 171 177 174 176 173 152 146 154 154 156 138 114  82  55  59  47  34  23  29  59  92  74  53  38  31  25  31  31  35  52  79  98  84 103 183 208 199 185 176 175 174 166 166 166 166 173 173 178 180 179 179 182 182 184 187 183 185 187 185 188 193 192 191 191 188 187 189 193 198 213 220 225 237 241 110  36  53  63  61  30   7
 159 172 175 171 170 176 168 172 192 199 196 194 188 188 180 172 178 179 175 174 178 173 171 156 125 107  98 111 133 119  99  69  38  63  75  24  28  50  72  77  73  52  24  21  42  54  30  43 115 135  85  73 117 189 215 214 194 178 173 173 166 167 170 171 177 178 180 185 184 184 190 188 188 188 183 183 184 183 186 190 191 190 193 194 194 195 195 199 212 219 223 233 241 123  31  45  64  61  29   8
 160 168 181 180 178 183 172 175 184 183 180 172 184 186 176 174 166 166 167 169 171 170 167 155 127 101  75  89 102  96  87  73  47  48  75  51  31  48  74  66  62  45  35  41  63  58  30  76 155 154  78  51 137 189 209 211 197 174 167 173 170 170 175 175 179 179 180 185 187 189 192 190 189 188 183 184 187 187 189 192 193 191 195 197 198 200 198 200 211 218 223 231 243 146  35  44  62  59  26   5
 163 157 166 167 169 169 162 171 181 178 178 176 180 180 175 168 160 166 166 166 172 165 156 145 123  94  83  78  71  78  79  45  18  13  42  52  54  58  60  54  46  42  49  61  52  40  50  66  87 120  77  48 130 172 200 217 192 165 156 167 170 174 180 181 182 181 179 184 191 193 192 194 193 192 189 191 189 190 191 192 194 193 195 197 199 202 199 200 210 217 222 228 244 165  44  43  61  65  41  21
 171 175 183 187 172 184 179 170 176 176 183 176 166 166 165 164 155 157 160 161 161 161 151 130 122  93  91  92  82  64  83  56  35  36  23  32  62  75  65  55  40  60  77  49  48  96 124  62  26  55  59  40  80 137 191 226 179 139 142 153 164 178 180 187 188 191 191 188 190 189 193 195 191 195 188 190 189 190 191 194 197 197 198 195 199 209 204 202 204 217 221 228 245 187  52  48  73  77  44  20
 156 170 171 162 158 169 162 159 162 157 145 137 131 152 159 165 166 168 165 160 160 161 153 124  97  81  79  89  90  79  85  81  85  94  68  50  61  70  60  52  37  63  80  52 102 161 143  58  12  46  53  37  68 147 191 229 186 130 118 137 143 171 180 187 186 192 194 191 192 190 193 190 190 192 186 190 191 191 192 194 196 199 201 201 202 208 200 197 201 217 220 227 245 199  58  37  59  65  44  11
 156 165 175 170 170 166 167 170 169 138  82  59  81 139 157 161 159 169 170 159 151 159 162 142  93  73  80  80  83  79  76  68  76  81  70  69  82  59  38  50  59  41  73 100 169 175  98  39  15  39  30  28 103 167 172 209 149  93  82 103 133 177 177 180 180 183 190 188 191 190 192 191 192 191 186 190 195 194 194 195 196 198 203 206 206 208 196 192 198 216 218 226 243 212  72  45  67  67  50  11
 195 190 194 195 198 192 183 179 185 162 121 132 143 169 173 169 181 181 172 155 139 138 165 180 132  87  63  64  90  81  59  42  64  94  90  88  73  48  30  36  36  40 107 138 158 147  34  20  11  19  13  77 145 155 136 173 107  57  55 111 172 195 184 183 183 183 189 189 193 193 195 194 193 193 193 192 195 194 193 192 192 196 202 206 207 205 200 199 202 216 222 224 237 225  92  57  80  86  69  24
 194 193 189 192 191 186 182 179 188 179 173 190 188 180 176 170 170 171 170 152 128 111 133 168 153 108  65  48  75  67  51  42  39  76  79  79  64  38  24  27  20  31 122 129 135 140  31  30  17  33  64 130 137 121  99 124  73  59  90 179 212 199 193 191 189 190 195 195 199 198 199 199 197 200 206 202 200 198 196 194 194 198 201 205 203 199 200 202 201 212 220 224 231 237 107  51  73  87  77  51
 189 191 192 194 194 186 182 184 185 177 177 178 173 181 172 168 168 175 168 145 104  70  95 131 121 110  86  61  52  48  42  58  66  71  68  48  48  35  17  13  13  37 119  84  66  87  28  57  58  83 104 133 112  82  64  70  47  75 169 212 212 188 188 199 200 201 201 198 202 203 201 202 206 209 203 202 203 201 196 197 203 202 206 202 198 199 203 208 203 215 221 227 235 244 118  42  72  92  86  41
 187 188 192 194 197 189 185 186 190 180 170 170 163 166 163 162 167 165 158 136  94  69  83  96 101  99  79  62  32  37  47  63  62  61  45  43  63  48  14   7   3  41  86  44  16  44  43  95 106 104  96 102  95  58  42  46  72 135 209 215 190 167 161 188 198 201 203 200 199 200 199 199 200 202 197 197 195 192 188 189 193 197 201 201 199 201 201 204 200 212 222 225 231 247 141  60  85  97  88  44
 185 193 193 191 197 190 184 187 192 179 162 165 162 168 170 170 174 172 176 162 128 100  88  83  88 110  97  64  40  49  61  53  46  36  37  48  58  62  68  22   8  32  38  36  23  24  93 129 126 106  87  95  89  44  24  62 146 204 217 205 172 139 142 176 196 197 204 207 204 202 199 200 200 199 195 197 197 194 188 185 187 199 201 201 201 203 199 200 199 209 222 224 231 246 160  68  66  69  63  39
 187 189 193 194 206 202 185 185 196 190 171 166 171 178 175 165 164 159 158 157 149 137  91  54  45  79  83  70  66  58  55  36  33  41  56  43  30  46  82  22  12  34  33  40  64  87 102 105  94  90  80  84  79  49  48 124 216 222 203 181 155 112 108 165 196 181 192 205 202 201 198 202 201 201 197 199 199 198 194 193 195 204 203 203 203 204 203 204 205 213 225 226 232 239 192 130  83 100 151 158
 193 188 192 185 186 171 151 145 175 189 169 165 156 151 156 157 163 167 167 165 168 169 140  85  39  28  52  78  62  45  54  39  21  51  63  31  13  38  58  18   4  14  29  33  71 103  91  80  75  80  66  80  87  74 103 181 215 187 189 141 113  67  85 166 163 146 185 201 198 200 201 199 200 202 198 199 200 200 196 194 195 204 202 203 205 205 204 206 208 212 223 226 229 232 235 228 178 125 157 162
 145 140 137 136 129 127 106 132 164 180 171 174 170 171 179 176 172 174 182 174 173 188 198 158 112  66  54  81  82  51  58  42  21  17  29  31  43  91 107  57  43  32  55  36  77  84  68  56  65  68  55  78  88  95 136 190 200 148 175 111  78  44  89 168 117 151 203 199 199 201 201 205 204 203 201 200 199 202 195 193 195 202 205 205 203 205 206 206 209 212 220 225 226 228 221 221 220 181 116 124
 116  98  77  72  69  62  40 109 176 179 182 182 180 173 174 171 171 169 175 172 174 173 165 134 112 107  95  96  79  48  54  53  48  35  36  53  63  97  92  56  30  19  70  91 103  62  56  60  56  61  49  76  94  89 118 151 188 132 124  88  49  46  91 101 117 185 205 202 202 204 204 207 206 205 204 203 203 206 201 201 203 204 207 207 205 206 205 205 209 211 218 225 226 228 208 184 190 195 150 100
  20  17   4   3   7   7   5  78 179 184 183 184 177 160 155 155 161 161 164 157 155 155 162 128  70  71  78  61  61  53  52  44  48  46  47  55  58  61  79  62  14  29  99 104 101  64  49  60  67  54  20  39  55  64 103 110 137 113  84  56  42  55  64 105 182 208 207 205 206 208 207 207 206 205 205 204 205 206 200 200 199 205 206 206 206 205 205 205 209 209 215 222 225 227 216 200 207 221 223 177
  15  17  11  12  13  14   6  87 189 182 182 183 175 158 154 156 169 167 166 162 175 176 170 166 114  76  59  36  53  62  53  36  36  31  32  40  39  42  70  43   6  35  94  75  72  73  36  30  58  65  24  26  70  91 102  82  96 102  71  45  41  53  73 135 191 207 206 205 207 208 208 205 205 205 204 204 202 203 200 203 202 203 204 206 207 206 206 207 211 210 214 223 226 221 221 225 218 217 220 213
  21  24  16  17  16  13   7  84 181 180 182 182 178 170 170 168 170 171 164 152 165 171 144 166 168 143  93  37  24  37  46  34  22  35  49  39  33  33  50  26   2  23  49  46  49  70  58  38  52  77  27  29 115 125  91  78  83  85  54  49  27  37  63 107 174 205 204 204 206 208 206 205 205 205 205 205 203 203 200 202 200 204 204 207 210 209 208 209 212 210 214 224 227 219 218 217 219 214 213 214
  16  20  16  17  16  10   4  65 166 170 181 185 185 180 174 173 162 157 143 127 130 134 103 107 131 146 151  99  19  15  24  20  11  25  62  46  34  37  35  12   6  22  43  40  39  46  46  48  78  77  43  50 120  74  62  65  63  62  92  33  29  46  49  90 181 215 198 202 195 199 206 204 206 206 205 205 206 206 205 204 202 209 209 208 209 211 212 208 211 210 214 220 220 220 214 213 212 212 213 214
  15  25  18  15  14  11   8  57 174 181 183 187 186 182 174 167 146 136 130 101  87  99  92  80  90 109 147 142  69  51  58  42  23  14  39  37  32  31  30  15   9  15  38  40  37  32  26  53  88  83  58  77 132  63  52  59  49  63 128  55  49  66  64  89 169 192 178 180 178 173 205 200 213 211 208 207 210 209 208 208 207 214 213 212 211 212 212 209 210 210 213 222 217 217 215 216 212 212 213 214
  18  22  19  18  15  12   9  45 174 187 186 188 184 183 180 174 144 112 119 100  72  85  95  70  66  86 105 106  87 120 124  78  51  15  26  45  36  31  32  24  12  24  33  41  39  22  24  46  78  87  85  79  99  51  48  55  49  35  72  25  69 131 115 104 152 168 147 178 182 164 183 198 219 211 209 210 209 208 207 208 208 211 211 211 210 210 212 212 210 211 212 222 216 216 214 215 215 216 217 216
  15  19  19  18  15  12   7  29 156 189 188 188 189 187 176 165 149 109  97  83  58  52  67  50  48  80  85  81  72  94  85  47  49  46  49  45  36  38  56  62  48  37  38  55  37  16  26  47  82  89  78  71  78  46  45  62  25  22  40  41  74 141 106  80 101 115 143 175 167 152 151 173 209 210 211 205 207 206 205 206 208 209 211 212 212 211 212 213 211 212 211 218 217 216 215 220 219 219 222 229
  18  21  19  15  12  11  10  15 141 194 188 191 189 182 176 175 182 153  96  54  35  39  54  39  32  77  87  77  61  55  36  22  45  83  91  55  27  35  62  74  55  42  35  45  18  17  46  54  76  80  71  74  70  54  84  95  46  40  44  90  83  95  90  62  63 112 149 157 134 114 106 168 201 200 211 210 209 207 206 208 210 210 211 212 210 208 212 215 211 213 210 216 217 215 217 233 226 228 221 203
  18  20  21  14  12  14  13  13 129 193 190 191 184 181 170 161 167 151 111  93  68  55  77  66  32  67  97  82  63  29  18  16  14  26  27  23  18  22  39  46  43  44  27  24  15  26  68  73  69  58  49  64  56  71  74  48  69 105  81  91  89  80  77  52  77 121 134 116 129  97 116 166 147 173 208 209 210 210 212 206 209 209 208 209 211 209 209 210 210 210 213 219 220 218 225 209 108  69  50  42
  22  18  21  15  14  15  11   9 112 182 181 180 180 172 174 174 182 173 143 132  85  46  69  86  69  65  83  84  68  55  36  40  28  21  26  14   9  17  28  29  33  52  33  31  34  51  65  63  72  50  28  55  57  61  59  50 146 167 105  88  81  68  66  72  86 100  92  77 105 101 128 131 113 187 216 212 212 216 213 211 209 210 209 209 210 208 208 210 210 211 214 216 216 215 224 217  64  87 126 139
  29  21  23  16  14  13  13  10  97 185 189 192 188 166 165 151 147 148 134 117  83  68  67  67  76  80  82  75  77  87  64  63  72  43  22  17  16  23  24  20  28  34  33  26  28  48  54  41  49  39  30  56  48  34  47  81 165 193 139  77  69  67  68  82  74  77  82  68  89  84  94  92 119 199 220 213 205 197 210 209 209 210 209 211 212 212 210 212 211 210 211 211 215 216 225 226 112 144 192 187
  24  19  22  17  16  15  12   8  80 183 194 196 184 165 174 170 172 170 160 124  97  77  90  85  82  84  78  70  75  99  85  49  57  46  11  13  22  23  20  17  24  33  22  27  38  32  41  34  34  46  36  39  36  29  48  87 134 145 117  60  73  95  85  83  66  75  79  69  74  58  56 109 151 171 209 215 181 178 215 211 209 209 209 211 213 212 209 212 212 210 210 211 217 215 218 225 132 135 189 184
  32  21  24  18  15  14  13   5  64 175 187 195 186 174 179 183 178 180 177 151 105  75  80  72  65  69  70  56  69 128  98  68  28  50  32  22  19  14  15  16  20  20  31  54  65  42  37  33  29  68  48  29  23  22  55  99 130 107  77  47  66  87  82  94  79  68  63  60  59  49  57 114 140 131 193 202 163 167 197 202 210 210 208 209 209 207 206 210 213 212 212 215 219 215 220 236 144 122 187 183
  39  21  24  20  14  12  14   5  38 180 180 187 177 165 166 162 153 156 154 134 110  82  58  72  95  75  46  35  64  97  90 125  93  59  40   9   9  21  15  18  14   6  25  49  49  41  38  14  23  49  52  44  22  39  63  82  95  79  69  58  67  63  69  71  66  55  61  65  52  55  67  78  86 130 172 167 121 128 150 170 200 210 210 212 211 208 212 213 213 212 212 216 220 214 224 238 150 105 186 182
  43  19  24  23  17  14  14   8  27 156 173 176 176 168 168 157 150 148 140 118  93  61  47  67  94  78  25  27  54  54  51 117 130  88  55  21  25  60  62  42  20   8  12  16  24  28  39  30  22  27  33  42  29  45  47  69  91  73  69  57  54  31  54  61  55  57  76  71  52  81  87  87 102 117 142 150 100  97 123 132 152 189 207 211 212 211 211 212 212 211 209 210 217 214 218 229 164 106 178 185
  57  21  25  22  16  16  12   7  22 143 179 176 181 174 165 139 137 129 136 119  75  56  48  54  45  46  30  29  52  49  33  64  93  83  64  60  40  82  77  36  17  14  36  18  12  26  41  44  38  30  20  26  32  46  58  78  85  91  78  45  47  24  44  65  70  74  80  96  98  96  70 107 112 105 108 107  99  99 100  86 125 197 211 209 207 208 207 208 210 211 212 212 217 215 217 228 179 101 176 185
  64  21  24  22  16  14  12   7  12 125 180 179 180 173 161 120 117 110 105  96  84  61  43  49  40  42  25  25  35  51  73  61  41  45  35  45  63  89  76  28  12  17  52  42  39  34  49  47  43  40  23  15  37  42  54  68  97 113  94  52  59  26  22  42  56  60  89 108 103  89 106 105  95  93  87  82  82  85  69  72 150 210 204 212 210 211 209 210 210 210 209 212 215 216 215 227 194 105 172 185
  79  14  23  25  17  12  13  10   3 107 184 180 177 175 169 122  94  95  95  85  70  63  52  35  35  39  21  18  36  49  87 108  55  51  46  46  66  84  85  42  11  23  70  56  54  54  36  45  43  39  25  37  49  41  47  85  99  93  82  55  51  27  19  36  59  81  91  86  87  95 111  92  78  74  56  64  83  83  76  96 161 181 169 204 211 208 208 210 211 212 212 209 217 221 217 227 208 118 160 190
  91  14  27  27  16  12  14  10   7  90 169 165 155 130 141 123  82  85  86  89  57  41  47  49  65  57  35  36  69  69  89 114  54  35  38  43  51  71  81  45  40  44  64  56  49  49  30  36  38  42  59  68  76  68  50  59  64  68  58  34  31  12   8  27  39  76  75  76  68  65  70  65  54  43  17  34  71  68  78 100 121 130 156 207 210 211 210 214 214 212 214 209 210 219 216 217 214 125 143 188
 110  16  25  22  23  11  16   9   4  72 160 172 155 108  99 111  70  67  83  86  72  48  47  66  74  72  57  54  71  75  89  74  52  62  53  58  41  53  63  46  73  53  80  76  34  26  23  20  20  51  78  71  61  64  46  51  57  65  42  14  22  14   7  11  44  71  59  57  43  46  55  52  45  64  52  44  71  69  79  87  89 108 186 215 207 211 212 208 212 218 216 212 217 222 216 222 227 133 135 191
 125  19  25  23  30  47  41  12   5  66 177 180 165 128  86  74  39  52  81  67  59  83  47  43  47  40  44  62  41  19  37  26  42  71  74  69  67  63  43  47  74  39  57  62  40  34  26  19  32  41  52  48  30  34  44  52  52  44  40  43  42  28  27  29  46  55  39  37  25  30  37  30  49  76  75  82  81  79  83  72  91 177 211 216 212 212 208 187 197 216 207 213 212 217 216 222 227 146 122 186
 138  28  18  21  49 107  92  20   4  54 169 182 146 107  69  57  27  58  79  59  38  54  56  59  32  12  31  36  34  18   8  25  31  41  64  68  76  70  35  54  57  35  37  48  50  50  60  46  62  45  40  27  23  22  30  29  32  31  31  34  30  25  36  47  36  33  32  21  30  41  53  61  72  83  76  70  74  77  61  89 173 197 206 212 210 218 213 191 200 216 203 216 213 219 216 218 227 166 115 183
 145  33  18  25  73 116  98  27  28  66 156 193 171 117  59  46  42  49  44  53  44  51  44  68  41  24  20  33  41  25  18  29  27  32  45  59  71  68  35  40  31  18  50  95  74  65  55  29  28  29  39  16  19  24  22  32  38  29  13  17  24  25  37  43  34  24  17  11  43  48  53  65  61  57  56  55  54  60  60 143 197 167 167 164 180 198 200 194 196 193 181 204 213 224 217 218 233 176 108 182
 167  46  14  21  69  96  67  19  75  87 136 185 190 164  73  50  58  50  26  35  32  53  35  14  34  37  48  73  36  20  13  25  31  18  65  69  60  59  50  32  19  26  81  95  69  53  64  58  49  62  65  33  20  21  20  32  34  31  22  19  25  30  32  38  29  17  22  32  54  50  37  50  41  24  30  39  26  42  93 128 126  85  94  91 114 133 143 137 138 151 139 171 205 222 211 215 236 190 100 175
 171  56  28  41  37  57  44  34  88  87 139 190 183 179 118  66  58  45  36  35  30  50  40  22  23  23  26  36  15   7   7  19  27  41  65  62  40  62  71  49  25  41  59  56  43  39  81  87  86  73  61  39  16  11   9  13  25  26  25  24  22  44  55  36  23  24  31  27  36  37  26  47  39  17  16  29  15  53  93  87  69  64  79  99  90  88 106 103 102 110 104 148 180 192 190 206 231 200 100 166
 174  90  69  84  59  51  78  82  96  87 134 164 152 146 126  89  57  52  47  55  52  58  51  39  36  35   6   7  11   7  10  55  48  55  67  52  21  31  46  46  36  49  35  37  48  47  56  77  73  62  55  24  28  58  26  16  17  24  22  19  21  47  52  33   7  17  54  24  28  49  48  82  70  45  22  21  30  59  58  30  36  74  71  95  83  86  87  88  92  93  91 129 150 150 186 219 223 207 104 158
 174 105  88  91  95  95  75  85  96 135 166 145 116 108 115  96  77  71  41  29  21  35  62  53  40  40  35  22  14   5  11  49  66  57  62  63  55  36  25  29  34  31  17  34  52  49  38  55  64  70  71  41  43  92  48  12  10  22  21  18  27  31  25  28   8  25  78  27  29  47  59  57  62  64  44  41  42  48  37  29  66  59  58  85  84  78  74  61  72  88  96 107 121 169 222 218 223 219 119 150
 198 151 128  88  64  66  52  69  91 162 154 122 104 101 106  96  88  87  61  28  27  33  61  64  70  59  53  43  25   6   7  12  29  37  54  70  74  55  26  17  24  22  18  30  38  42  39  38  78  78  74  45  40  48  18   7  13  23  25  23  27  23  14  11   4  22  65  33  43  26  26  25  46  63  43  47  42  25  28  54 102  75  69  77  78  60  54  37  58  75  78  55  96 195 221 213 222 228 129 135
 198 182 190 173 101  70  35  56  90 120 113  93  91  94  92  88  87  81  70  70  72  38  31  57  64  61  52  36  22  11  24  27  21  22  35  33  37  36  37  21  35  36  24  25  27  35  46  38  48  57  45  34  57  41   9  29  38  22  30  31  38  22  19  71  63  59  75  52  58  42  36  35  41  24  23  31  34  24  43  83 105  78  77  74  83  49  49  39  33  38  31  60 161 220 219 214 220 223 152 115
 177 174 211 228 210 164  59  30  48  90  94  71  75  73  82  79  77  68  62  78  78  42  26  32  43  33  36  37  47  24  35  54  35  21  42  38  38  29  31  22  30  25  12  21  22  39  56  45  32  44  27  37  58  33  26  57  48  25  25  26  27  21  68 135 111  70  76  62  57  63  42  38  37  27  17  19  20  13  33  68  87  72  65  66  66  48  54  49  14  21  48 154 220 221 214 212 216 227 155 101
 184 143 152 170 180 179 109  42  35  76  82  60  70  64  81  78  71  74  63  65  58  59  50  29  33  27  26  40  42  17  20  47  54  50  51  65  61  45  35  19  19  39  20  45  42  39  40  54  44  28  29  53  47  27  51  56  23  22  31  26  12  63  73  70  53  39  72  68  64  66  39  30  40  15  19   9  14  24  30  72  95  62  45  42  44  31  27  34  12  26  84 211 229 215 213 215 219 232 169 103
 186 134  97 100 113 122 118  89  58  69  79  72  81  69  70  58  55  72  61  47  53  54  56  39  38  29  26  33  32  33  38  65  66  73  56  58  54  48  39  24  24  41  24  53  59  49  34  40  60  33  33  47  33  44  59  31   7  23  17  29  63  96  55  34  59  68  64  66  71  64  41  43  82  57  29   6  19  53  60  76  72  39  18  30  29  24  13  35  58 103 145 219 219 214 217 215 221 227 206 192
 186 163 114  59  72  80  95  91  75  86  78  77  89  81  72  57  53  79  74  41  45  38  40  54  68  47  24   9  26  44  52  65  78  82  59  44  31  32  34  23  20  42  28  32  41  53  46  36  52  28  29  42  32  42  29  10   6  24  26  41  58  66  36  24  55  74  66  66  66  68  38  32  82  88  22  19   8  25  39  41  36  27  42  98  42  13  27  80  80 109 132 211 227 213 221 222 215 199 184 175
 156 161 137  80  62  52  70  70  67  77  74  62  77  81  64  62  57  54  54  40  41  38  48  54  56  51  48  41  47  78  73  62  63  79  69  61  40  21  23  27  25  38  24  22  22  24  28  44  56  23  31  56  50  32  20  24  29  51  63  54  38  21  10  23  52  60  60  62  61  45  49  30  32  39  26  25  22  50  40  42  30  63  89  66  23  26 123 167 103  94 127 222 221 201 163 157 152 144 147 130
 150 164 162 141 107  75  79  77  71  89  75  32  38  54  57  56  46  40  48  34  28  46  63  48  33  39  52  53  69  92  81  56  42  55  63  71  41  12  16  28  30  19  13  22  40  33  16  47  48  21  30  38  31  26  44  69  54  58  61  55  34  17  25  27  47  52  56  60  41  42  62  58  59  49  36  31  59  83  61  39  35  72  46  42  27  56 159 131  63  51 111 215 221 185 149 122 134 134 140 148
 177 169 164 166 152 146  99  50  54  86  71  28  29  32  59  46  46  57  63  60  48  60  68  49  35  39  49  47  53  65  65  58  53  46  66  71  29  10   8  13  16  11   8  18  66  80  39  63  45  44  32  27  41  50  61  79  85  65  34  27  35  51  56  53  49  52  43  28  21  33  53  75  70  51  56  61  71  68  55  39  34  57  45  50  63  87  83  69  55  82 149 232 223 168 124 111 108 102  92  96
 156 165 159 174 176 176 134  55  42  64  66  39  41  27  52  35  31  51  64  77  71  73  53  36  39  37  40  40  43  43  44  54  69  57  69  58  34  36  11   7  10  17  19  22  50  59  53  53  42  56  37  16  45  60  54  49  68  69  47  49  75  85  88  94  72  60  44  36  27  24  53  56  53  50  62  66  66  78  70  52  49  80  84  69  74  88 133  95  94 113 205 206 160 131 108  92  93  94 121 101
 171 170 141 142 145 130 120  96  74  74  83  82  82  67  70  60  33  32  52  57  59  62  48  37  36  26  23  36  60  52  31  27  41  49  48  31  37  48  10  13  22  49  52  52  51  40  42  31  43  38  36  42  52  60  50  35  43  55  54  57  66  72  80  82  70  57  52  49  25  21  43  37  29  36  54  60  70  83  75  63  59  82  89 104  87  94 126 144 116 148 226 214 146 108  99  84  72  70 102  80
 152 142 115  87  93  83  83  83  72  70  82  92  85  69  79  84  53  23  36  40  30  30  38  36  32  24  19  20  43  57  46  30  22  31  30  13  12  12   3  10  23  41  43  37  45  37  36  30  25  26  24  43  47  47  63  58  43  41  48  43  34  38  46  58  63  56  47  41  28  34  32  22  16  30  55  66  60  56  65  56  76 109  89  83  88  68  70 124 143 144 210 212 144  79  86  75  60  66  53  55
 136 116 100  90  77  60  60  61  67  66  52  60  53  61  65  59  40  23  31  26  13  16  28  38  35  38  39  34  22  23  36  29  22  38  31  11  10  13  21  32  26  17  29  27  34  35  29  21  14  15  24  39  38  38  54  52  33  31  38  45  49  35  32  36  47  54  41  32  28  36  27  22  27  42  57  60  42  60  78  46  62 108  80  55  68  70  58  84 107  95 146 160 127  88  81  72  60  73  72  67
 158 129  89  67  78  65  45  34  63  60  43  34  36  56  50  55  38  31  31  22  12  27  51  46  40  35  54  57  35  12  13  27  29  45  31  18   8  21  47  47  12  24  35  30  28  27  21  19   8  13  46  55  38  35  45  36  21  25  38  61  77  57  23  14  27  34  41  31  31  37  29  19  31  41  49  48  37  63  92  65  68  96  98  53  52  77  51  50  71  61  78  95  93  85  75  71  58  85  72  73
 147 155 127  82  79  73  51  31  51  47  44  36  23  37  33  33  37  33  25  21  16  35  58  49  66  59  54  67  50  34  48  64  62  58  41  29  18  23  40  34   8  11  43  34  12  15  13  27  23  13  34  38  19  19  25  20  21  32  51  72  79  53  31   9   8  30  35  26  26  27  16  20  25  27  33  29  44  40  50  68  61  74  82  42  43  51  36  63  91  66  67  66  77  87  85  75  98 124  80  81
 170 174 157 126  95  74  50  41  36  38  40  35  25  24  16  22  33  30  19  18  12  24  21  30  70  72  60  60  70  73  63  72  61  48  45  27  27  32  43  43  34  17  29  18   3   5  16  28  31  13  14  18  11  13  14  24  40  48  58  60  45  49  40  25  18  40  56  45  52  48  24  18  26  33  49  48  61  96  69  63  50  57  62  33  56  71  70 120 134  66  87  82  74  70  81  70  63 108  90  86
 183 178 154 136 104  79  46  33  43  52  53  41  24  35  28  19  24  34  36  20   9  12  18  37  58  59  49  44  80  84  63  68  58  55  47  30  33  39  57  66  70  42  34  38  20  24  49  74  50  32  17  20  23  22  14  26  51  55  45  38  25  35  37  48  58  71  69  44  41  39  26  25  34  38  87  81  42  41  71  44  53  57  45  40  60  83  99 125 125  96  93  92  97  59  57  62  28  51  85  92
 170 168 135 111  88  64  48  51  69  73  66  45  27  35  25  19  24  47  70  30  12  12  35  44  42  33  34  31  52  59  59  45  46  55  51  34  36  42  46  44  46  57  49  32  27  32  45  65  47  32  19  24  21  22  18  27  34  36  31  34  30  26  27  39  48  53  48  35  32  29  22  27  26  26  62  80  71  75  69  35  72  65  45  44  50  71  95  82  98  96  56  64  90  56  41  61  53  59  56  83
 180 171 116  82  63  29  42  52  47  43  53  42  24  25  18  16  28  29  44  30  15  13  26  30  15  30  33  22  26  32  41  31  33  46  50  38  37  37  35  34  36  51  43  25  22  28  30  34  26  29  28  18  19  14  13  24  26  27  22  25  33  29  22  24  25  23  22  29  33  24  22  16   9  12  25  54  60 129 160  84  75  59  46  54  53  71  79  73  86  93  77  71  76  63  28  38  85  93  42  39
 179 143  89  74  63  35  25  24  22  26  26  34  24  16  21  21  22  23  26  32  14  13   9  13  13  45  58  36  21  19  25  19  15  27  42  42  30  28  23  25  26  29  32  29  30  28  16  13  16  24  24  22  26  17  12  21  22  21  13  12  20  22  15  16  14  14  21  32  40  46  64  45  44  58  35  25  45  43  96  77  64  52  61  61  61  65  80  59  80  89  77 107  95  68  21  21  72  63  34  26
 113  93  57  64  58  49  41  38  30  32  31  36  30   9  20  16  20  27  16  19  22  32  28  17  18  23  45  47  43  34  30  19   7  11  23  25  18  26  19  18  20  14  33  38  62  52  29  11  11  19  20  23  26  21  20  25  26  18  16  16  15  18  16  16   9   9  16  26  32  39  61  83  75  89  50  13  37  66  58  63  51  41  69  55  58  49  46  35  58  51  57  78  72  58  62  58  46  57  33  23
  60  72  73  78  63  47  55  72  61  41  39  38  34  23  20  14  14  13  13  39  67  71  53  36  34  19  28  34  25  29  34  20  21  20  21  21  21  22  19  17  26  20  36  56  57  53  30  13  13  19  18  25  17  21  23  26  28  31  28  18  13  18  21  14  10  14  10   7   8  18  42  90  70  97  93  40  39  60  51  64  58  34  52  78  60  42  40  44  46  56 104 127  94  84  91  82  56  52  58  45
  64  61  59  66  56  60  61  59  50  51  52  32  31  27  19  15  15  13  22  45  55  53  50  46  35  26  22  16  16  23  37  22  15  14  18  10  23  33  16  16  20  28  33  38  31  24  19  13  13  15  20  25  24  23  36  51  48  27  17  25  29  22  35  27   7   9  23  53  41  19  36  75  61  83 103  57  51  57  56  61  62  40  46  66  48  19  29  49  65  37  25  52  69  88  86  53  69  74  87  70
  57  49  35  34  24  43  43  40  32  45  53  23  21  17  11  16  11  18  31  42  38  32  32  35  22  28  29  18  36  37  32  26  20  16  22  14  17  22  25   9  22  30  30  32  26  23  21  20  20  14  12  25  24  20  14  23  22  15   8  26  48  48  92  85  18  23 108 151  87  40  48  56  43  34  62  53  52  42  54  72  63  55  46  28  41  30  42  65  85  58  39  36  22  46  70  84  69  84  78  72
  79  75  58  47  33  45  28  51  51  47  39  21  27  18  16  20  19  18  16  24  27  12  16  29  29  36  18  25  57  49  22  22  20  19  34  29  48  31  56  29  17  28  27  28  25  25  23  20  16   8   6  39  69  59  41  63  16  17   3  13  39  53  89 113  85  96  95  91  45  49  58  38  56  45  39  55  76  57  48  58  60  85  91  31  30  37  40  28  27  40  70  43  46  46  55  74  68  78  67  70
  96  92  84  73  58  55  71  92  76  50  25  13  31  22  20  13  21  18  18  26  25  16  13  26  44  56  35  36  44  37  22  18  14  21  48  40  51  42  32  23  18  31  28  28  23  24  25  24  15  11  25  68  94  56  44  46  23  22   7  10  16  44  59  64  73  70  60  40  39  46  58  47  39  56  55  57  63  42  55  55  60  90  66  15  19  31  43  34  36  42  56  50  42  47  39  45  54  73  61  55
  75  77  80  69  68  55  69  80  62  47  26   7  16  33  25  30  48  38  35  39  30  26  27  19  25  47  45  32  22  18  13  12   9  12  18  23  25  14  15   9  28  43  35  26  22  20  15  13  15  14  25  35  17  13  13   7  13  26  33  44  31  55  75  44  61  81  98  69  55  83  85  90  63  39  86  68  44  38  44  51  75 125  83  16  25  29  44  53  57  30  22  41  74  69  32  48 101  96  58  54
  67  67  71  61  77  71  59  48  41  40  28  33  36  61  53  48  62  49  43  44  29  24  15  17  12  15  22  16  16  16  11  11  10  11   5  18  14  21  20  16  25  42  35  27  11   8   9  12  15  14  21  29  51  81  21   5  14  29  53  87  93  86  81  48  50  67  77  63  59  67  75  93  54  16  70  78  46  44  38  59  78 103  57  10  17  22  31  31  37  42  40  40  84 110  63  30  82  69  58  51
  65  50  61  69  68  70  55  35  45  46  26  13  18  45  66  60  53  43  35  39  35  21   6  16  14  12  12  23  24  15  10  14  16  19  14  35  46  26  47  55  43   7  16  17  10  16  26  27  26  25  16  13  40 108  77  33  49  42  34  44  56  83  84  75  49  47  30  33  53  56  56  63  40  14  32  54  68  69  84  79  82  68  23  12  18  10  24  14  13  33  33  15  32  65  48  57  57  55  47  45
  73  51  55  72  47  48  66  45  52  51  23   5  19  20  26  35  37  37  37  33  19  27  15  13  14  15  11  18  26  22  12  13   9  18  43  67  33   9  23  22  20  28  18  20  31  15  29  44  46  39  19  15  31 102  99  29  29  32  33  31  38  30  39  63  50  46  17  41  39  44  56  74  57  25  16  44  74  79  74  53  79  70  32  36  41  15  17  44  39  33  49  37  18  33  49  68  61  47  38  65
  87  63  52  63  51  51  89  81  90  91  55  39  23  18  13  27  24  26  42  49  31  17  22  11  12  13  21  35  25  11  20  24  15  21  42  38  21  13  14  12  13  24  17   9  30  15  26  68  71  52  30  51  68 113  67  12  20   9  21  47  73  76  46  50  49  47  27  63  46  56  51  62  68  45  44  61  76  89  63  60  66  50  33  49  64  44  58  73  59  37  45  50  30  22  63  72  61  48  32  36
  56  57  57  49  63  69  88  85 104 123  71  98  99  43  10  14   5  17  42  54  26   8  36  40  20  24  45  69  26   6  14  20  22  15  13  12  10  15  13  15  15  24  19   4  26  29  41  59  61  50  45  82  66  70  43  19  49  36  65  80  63  76  86  46  26  35  32  51  99  35  14  30  66  76  50  56  64  98  93  64  44  34  42  55  72  55  79  92  86  40  39  76  52  29  84  87  71  51  35  37
  53  54  56  68  89  76  78  85  87  89  33  51  61  38  11  11   5  30  43  59  41  24  73  80  45  43  53  73  54  39  32  21  29  15   8  17  11  12  10  25  41  25  19  11  23  24  41  47  53  49  35  48  38  35  44  94  90  51  64  85  54  56  94  57  18  23  37  30  22  12  29  61  66  69  38  37  36  81  93  65  79  69  57  68  58  43  59  74 100  60  34  80  68  29  67  88  78  51  40  76
  80  67  51  74 112  80  67  61  52  48  40  24  15  11  18  10   9  41  55  59  68  47  78  89  62  44  69  90  79  66  65  49  48  28  13   7  11   7  18  51  78  21   9  11  17  14  52  63  67  75  83  45  46  37  82 164  68  53  94  78  47  68  53  38  24  26  51  32   8  18  39  64  45  80  68  27  46  49  60  58 111 140  98  60  57  37  61  53  70  45  34  49  41  46  71  81  96  89  80  47
  56  53  57  57  82  72  49  33  53  51  47  21  16   9   6   5   6  16  36  44  65  56  67  64  53  63  51  72  69  54  53  49  61  33   6   9   6   9  23  37  45  29  34  28  36  55  80  74  76  83  72  38  56  87 108  97  55  62  72  35  51  55  32  33  47  40  44  17   8  26  50  41  30  90 105  48  17  20  46  67 107 110  99  41  59  70  80  65  67  53  42  13  24  72  88  73  84  82 119  60
