P2
36 45
255
 170 161 166 167 154 145 150 163 168 171 164 159 173 184 195 190 189 189 190 186 184 183 181 182 183 187 193 196 179 177 186 188 191 183 174 172
 164 154 171 142 118 140 177 191 190 192 186 188 192 190 189 189 189 190 186 184 182 182 181 181 181 189 191 196 180 164 171 166 151 145 130 121
 169 160 156 125 143 181 197 195 189 190 183 184 187 189 188 187 187 187 187 183 183 185 184 185 182 187 191 197 176 158 148 133 126 145 139 135
 130  73  26 105 190 201 189 192 187 188 182 185 187 188 188 185 186 186 184 182 184 186 186 186 189 195 196 203 178 162 159 158 163 157 155 151
  60  46  80 150 193 183 194 188 189 189 185 189 190 188 188 183 186 184 185 186 189 188 185 184 188 185 183 200 186 162 154 148 146 143 144 141
  27 114 192 200 163 156 197 193 192 189 185 189 189 192 194 186 191 187 175 174 171 162 151 146 142 127 133 167 171 154 149 145 146 153 162 167
  47 127 199 167 129 165 205 201 197 187 177 182 168 165 157 136 135 139 131 132 136 128 123 111 110  85 129 161 171 172 169 173 168 168 178 176
 108 111 126  77  90 168 181 171 157 148 144 139 123 122 117 122 118 102  96  88  73  65  49  26  25  33 135 181 183 181 178 183 173 160 166 166
 147  60  28  23  66 128 132 137 125 113 115 102  90  50  71 158 131  27  12   5   6  10  19  25  36  34 139 184 187 184 183 188 176 152 152 153
  99  26  20  55 113 100  52  48  41  21  15  17  21  12  56 187 165  53  28  25  21  13  19  35  39  40 144 187 187 188 189 196 186 154 150 155
  60  22  25 121 177 111  20  28  24  17  16  31  39  27  58 192 185  95  50  42  25  23  23  36  42  41 136 185 187 189 187 187 178 164 155 160
  66  54  70 189 210 137  35  47  42  24  18  23  31  23  46 181 196 128  57  44  32  25  22  32  32  13 100 168 176 174 176 164 164 171 177 176
  62  63  95 202 209 159  62  40  35  23  21  23  26  24  47 166 200 140  41  18  28  22  21  30  29   7  86 168 185 190 192 176 168 176 176 178
  46  75 150 218 204 166  79  45  30  20  20  22  24  21  31 156 208 156  41  17  26  22  22  21  21   8  75 177 198 197 194 185 174 192 179 176
  29 108 211 218 207 178  84  44  35  23  18  17  19  18  15 144 212 168  50  20  23  22  22  26  23  11  61 170 195 196 196 187 156 145 137 131
  46 173 221 211 203 178  75  29  32  22  20  19  19  16  14 125 212 174  54   9  27  24  27  37  30  16  53 161 195 193 193 183 137 110 112  92
  93 181 188 184 172 156  84  35  27  22  19  19  17  17  13 116 207 183  72  23  35  35  40  43  35  16  31 147 195 189 195 194 140 118 124 121
 147 193 186 192 185 169 101  53  44  29  18  21  27  28  15 103 208 191  91  28  30  26  25  23  26  15  22 130 178 181 187 186 168 166 179 171
 177 210 204 205 202 191 120  48  26  21  19  18  16  21   7  69 201 200 118  36  30  27  24  24  24  25  23 104 174 178 185 183 187 192 191 176
 166 197 180 194 197 196 128  34  17  16  17  19  18  17   5  47 200 215 123  26  16  21  16  20  24  20  16 111 198 194 191 186 183 185 192 186
 167 171 123 139 174 201 141  37  19  17  18  19  17  17   8  35 194 218 137  29  16  24  19  22  23  20  13 101 205 198 188 188 183 185 185 179
 150 122  49 113 181 181 133  41  18  14  15  16  18  15  15  29 180 213 148  42  13  21  16  21  23  22   9  67 176 171 177 180 176 173 177 182
  95  49  30 156 193 178 147  51  20  16  17  18  15  15  14  22 164 211 157  48  13  22  17  21  21  19   7  56 173 172 179 180 186 177 173 175
  36  17  37 173 206 201 178  71  14  16  15  17  17  15  14  13 143 214 163  55  12  23  19  22  21  21  12  47 190 184 186 185 193 180 169 166
  38  77 121 200 208 196 180  87   9  30  23  15  15  16  15   6 122 217 180  77  19  26  21  27  24  22  14  34 185 192 186 189 195 179 161 157
 126 182 196 207 200 200 190 101  18  57  46  20  16  19  16   4 106 212 182  85  20  24  21  24  20  19  15  26 168 200 188 189 192 180 166 167
 127 206 195 194 192 176 161  97  48  57  19  16  18  20  18   4  93 208 192  98  11  19  22  22  23  21  14  13 144 197 189 180 187 175 164 164
  98 157 165 190 168 134  89  45  34  38  15  19  19  17  22   7  76 200 199 113  24  23  22  26  26  24  16   8 122 178 179 179 184 172 168 167
  73  81  48  96  88  50  34  39  19  24  15  19  20  13  18   8  57 184 201 117  20  15  22  20  23  24  20   8 109 185 192 191 197 177 155 145
  26  34  15  29  36   9  61 101  23  18  15  15  16  19  18  10  44 174 200 127  27  12  20  20  23  23  22   7  97 195 204 196 205 185 163 165
  38  43  40  33  49  44 129 163  41  20  17  18  18  22  18   9  29 162 208 139  35  14  21  23  23  23  24   9  85 187 197 192 201 188 159 157
  34  32  27  62 128 151 184 176  54  19  24  18  18  19  17  16  25 150 214 160  53  16  27  26  28  28  25   8  72 181 199 197 202 182 156 144
  25  44  65 134 177 181 185 174  59  16  21  21  20  16  21  14  19 131 207 160  52  12  25  14  12  11  22  19  63 154 180 182 178 167 161 155
  33  90 179 194 204 202 197 186  77  21  21  22  20  22  19  12  14 118 194 158  63  20  24  41  53  60  87 110 120 161 176 181 173 175 181 177
  26  53 156 203 196 197 201 190  91  26  18  14   9  15  18  25  30 100 175 159 122 121 141 151 157 175 195 187 175 183 196 201 185 170 168 163
  10  19 127 196 191 188 187 174  91  36  41  53  59  85 116 133 141 157 185 176 167 172 173 174 179 183 189 183 180 172 187 197 184 170 173 169
  22  51 146 194 180 167 173 170 139 137 154 172 178 181 187 187 188 181 176 172 174 184 191 190 192 202 198 200 198 185 192 198 186 170 174 178
  46  61 122 183 170 174 198 195 170 184 190 187 192 191 204 203 207 197 176 179 197 216 218 215 209 209 203 205 195 186 182 181 177 161 162 159
  44  29  51 128 165 181 198 186 165 218 216 212 222 221 232 227 235 225 213 204 205 205 194 193 188 186 180 180 178 171 168 166 161 163 165 171
  30  23  25  77 122 171 195 178 169 211 226 225 221 210 207 196 194 189 181 178 176 178 181 178 181 184 183 182 171 165 167 169 161 166 167 176
  36  23  27  31  71 161 185 189 163 138 177 187 180 180 178 183 185 190 186 189 181 177 187 189 189 185 183 179 171 168 174 182 182 177 174 173
  16  12   2  10  75 153 151 154 112  80 128 176 185 184 176 184 189 187 180 168 172 170 184 185 186 189 183 178 170 158 162 163 162 169 170 162
  14  10   2  18  96 124  79  87  37  58 144 177 165 153 167 176 165 159 162 158 168 170 179 181 179 183 183 183 173 158 158 165 167 178 187 175
  14   5  12  63 114  64  15  41  13  56 156 167 162 168 179 185 182 179 175 173 174 172 173 171 166 169 172 172 166 157 154 163 175 188 194 182
  13   3  21  87  64  17  18  44  28  90 174 176 186 181 179 179 176 161 152 167 169 165 164 171 167 167 169 162 158 156 151 158 166 164 168 168
