P2
111 39
255
   5  21  25  21  36  24  16  22  54  54  35   6   9  10  32  63  36  21  18  72 173 180 176 183 181 186 191 187 190 189 191 195 197 191 193 193 195 191 187 194 191 190 188 187 188 186 189 188 184 181 186 189 182 177 180 182 181 179 186 184 182 183 184 184 184 180 177 177 180 183 188 189 190 182 182 180 184 182 182 185 185 177 170 174 163 198 190 184 205 217 205 116  87  70  55  51  59  43  34  38  59  87 118 172 181 180 186 176 172 179 175
   9  30  31  28  34  15  14  11  28  24  22   4   4  13  47  55  32  23  17 100 183 182 177 182 180 182 182 179 177 176 179 183 182 183 184 183 186 183 181 183 180 182 183 187 187 185 184 186 182 180 182 187 180 174 177 179 178 177 181 180 180 179 178 183 181 178 175 173 179 180 184 185 182 170 167 159 156 151 148 142 139 140 140 137 144 175 182 182 188 190 182 102  77  28  12  25  51  14   4  27  72  94 110 178 180 177 184 181 171 174 171
  12  21  22  22  19  35  30  10  11  14   6   8   3  21  43  21  17  16  29 134 172 157 151 156 162 168 172 174 170 172 175 176 176 176 178 179 182 177 177 179 177 180 180 183 184 183 180 184 179 179 179 183 178 174 175 175 175 175 180 181 181 180 177 179 174 167 157 150 152 151 151 145 136 132 133 122 128 145 130 125 119 112 102  88 142 174 182 180 179 186 192 116  89  33   3  22  65  19   9  37  70  97 106 173 179 178 180 188 179 177 172
   5   6   6   7   8  27  21   7   8   6  10   6  16  43  27  13  13  11  24 130 158 145 147 150 157 163 165 167 167 168 172 174 174 173 173 176 176 175 174 173 177 175 174 175 172 175 183 180 180 175 181 183 177 171 167 161 157 151 150 146 141 137 126 127 124 123 129 117 120 107 109 111 100 170 200 125  56  50  35  32  28  19  12  11  96 178 177 179 186 199 208 140 102  47   5  30  69  26   7  35  61 109 101 156 174 176 179 172 161 176 181
   6  11  11   9   5   7   2   4   8   7  10   8  17  43  28  16  20  21  22 123 154 147 143 147 149 154 160 163 166 171 175 174 172 170 170 171 173 175 175 174 179 176 174 172 171 172 175 168 164 156 153 149 140 127 126 128 120 116 108 111 116 116 147 159 105  78  70  60  54  35  24  19  14 162 218 118  10  11  28  25  27  35  39  31 102 185 179 176 182 194 203 140  94  61   8  26  67  35   5  32  59 109  92 134 139 135 134 121 121 169 187
   8  12  11   8   8   8   3   5   9   7   8   5   9  18  20  18  17  11  23 118 148 144 147 146 148 155 161 163 162 171 177 173 169 166 170 169 172 171 167 168 160 144 143 135 131 126 127 120 124 125 118 138 146 116  90  98  93  88  70  45  33  47 151 197  76   2   9  14  17  18  21  20  16 146 231 147  30  33  44  52  48  53  55  45  94 181 187 178 179 191 202 151  96  69  12  26  67  46   6  33  59 114  88 115 104  90  95  94  78 147 181
  12  18  19   9   3   2   5   7   6   6   7   8   9  13  17  17  17  13  26 124 153 145 140 143 148 150 152 155 157 165 164 153 147 142 138 123 123 123 126 121 131 128 114 107 112 113 109  99  70  62  77 177 198  70  10  13  16  16  16  16  23  27 143 205 107  24  30  38  43  39  45  48  39 136 216 157  49  29  55  61  46  53  58  44  93 174 189 180 180 188 197 158  94  71  12  26  64  49   6  32  56 117  89 109 106  96 103 116 128 164 178
   9  24  29  13  10   4   4   5   5   5   4   4   3  12  18  18  18  14  32 116 140 134 127 120 122 116 113 121 114 125 127 121 118 119 125 114 109 104  90 108 179 176  95  29  26  22  20  16  10   8  26 170 216  92  12  23  36  44  37  45  47  33 138 200 121  49  33  41  58  42  47  50  33 122 210 167  65  49  84  92  89 117 122 133 160 185 182 180 179 184 195 166  99  76  15  26  61  51   7  35  57 122  96 126 154 168 176 192 194 191 186
   7  12  17  10   6   6   5   2   6   2   3   3   6  16  17  20  16  20  41  44  87  99 107 107 104  94  86  98  94 161 183  85  42  38  33  22  13  10   4  25 176 197  68   5  19  34  39  30  43  40  35 169 214 122  23  27  51  57  36  51  56  35 119 191 135  49  35  47  70  71  88 100 100 150 193 175  79 100 201 178 183 206 189 183 200 192 179 188 183 184 187 170 103  80  24  23  59  58   6  29  49 118 104 131 183 188 187 186 186 182 180
  11  13   9   8   4   3   5   3   4   2   7   7   2  13  17  19  14  26  84  26  38  61  63  58  56  44  25  20  32 164 201  67   5   6  14  18  17  29  19  32 173 201 102  15  31  49  55  37  52  50  36 149 211 140  25  28  52  54  48  66  75  71 132 192 150  53  52 114 156 154 191 169 171 181 188 187  82  87 218 198 180 209 193 178 191 187 179 184 182 180 187 175 108  83  28  19  57  63  12  24  39 114 114 119 178 184 182 185 182 181 181
  17  14   7   5   7   2   6   9  10   5  21  29  16  20  23  19  12  35 126  71  20   3   4  10  14  16  19  17  25 156 203  91  28  24  41  48  33  48  47  35 161 203 114  19  24  42  50  46  59  53  48 133 197 145  46  77 128 134 136 161 159 160 195 180 159  48  46 143 196 179 214 186 182 176 182 198  97  72 186 173 153 175 168 158 169 172 175 184 184 184 183 171 106  74  29  18  53  63  11  23  43 115 122 115 170 177 178 179 174 177 179
  10   5   5   3   3   2  13  19  15  25  35  37  43  40  37  29  17  40 122  90  41   6  15  36  35  26  37  42  22 139 194 104  33  24  41  48  23  37  40  33 137 193 121  41  65 111 110 121 148 143 153 178 191 151  50 106 193 175 176 198 181 174 193 180 171  59  40 122 178 157 181 168 156 163 182 201 106  65 184 185 171 186 187 166 187 186 175 181 182 183 187 183 122  87  42  15  47  68  19  21  39 113 133 103 163 180 185 182 181 181 176
  10  17  28  20  10  12  33  27  38  37  38  35  36  22  28  33  26  48  66  65  67  10  20  44  42  25  33  38  16 118 194 127  36  29  52  78  71  99 100 110 160 190 140  50 115 199 175 175 206 181 185 188 193 155  55  93 186 169 162 178 163 159 170 176 170  65  35  95 167 153 178 166 158 170 180 201 111  74 170 184 160 183 183 162 185 179 171 190 187 183 197 205 141  90  49  18  47  70  24  21  38 108 132  90 165 189 189 185 187 185 176
  21  19  28  19  20  30  43  39  44  30  25  21  36  44  34  35  39  41  28  59  99  23  22  48  50  48  63  83  79 142 186 140  43  53 141 164 159 186 171 168 175 184 154  54 105 202 176 168 192 178 164 175 188 166  73  63 158 148 138 155 153 155 174 186 163  74  50  94 170 166 183 179 163 172 175 197 129  69 166 205 178 195 204 180 202 200 177 188 189 185 202 210 145  89  57  17  46  68  23  10  34 102 141  90 157 174 176 180 181 179 177
   8  15  15  12  22  34  32  38  29  26  30   6  21  47  32  26  33  25  46 111 116  54  42 100 128 142 155 154 160 169 189 153  47  42 139 179 168 184 168 150 147 177 160  53  73 166 155 142 164 162 158 176 187 175  89  63 171 173 159 173 170 163 168 178 168  94  40  70 144 161 179 186 173 189 176 201 145  64 166 217 186 189 203 167 171 177 172 192 193 193 197 207 152  87  68  20  39  64  29  13  34 102 153  92 153 179 179 175 174 177 180
  26  46  33  37  29  38  23  20  22  27  31  15  30  36  17  10  27  16  81 150 108  43  40 154 162 161 177 166 160 173 192 156  51  35 108 146 134 153 145 137 136 175 169  72  82 186 185 163 185 175 157 177 188 180 101  58 169 169 154 172 172 165 179 183 176 113  26  46 167 183 190 198 174 177 168 197 157  66 119 176 142 140 156 148 151 172 170 191 203 199 194 209 162  92  70  13  33  61  39  14  29  95 160  96 144 184 190 184 184 185 183
  21  31  22  23  24  24  11  19  36  33  21  25  25  29  13   8  18  12  57 104  59   8  41 155 143 136 151 143 130 145 177 162  62  36  97 154 153 170 163 159 159 176 169  78  76 171 171 151 182 180 163 184 187 179 106  57 176 194 167 191 190 170 179 186 175 121  33  57 157 151 148 162 142 138 155 193 165  72 124 189 168 172 194 170 170 193 179 187 195 191 194 212 180  95  77  19  38  55  43   9  24  92 165  92 129 176 184 182 182 182 180
  21  13  12   9   9  17  19  22  26  26  20  28  23  19  13  13  10   7  31  37  25  20  41 153 141 134 142 143 138 153 177 165  80  41  93 159 155 161 161 149 155 171 167  92  82 180 189 171 195 196 177 197 195 179 115  52 150 177 153 166 160 136 142 161 166 126  30  34 147 148 160 178 163 161 172 193 169  80 116 190 171 169 193 174 158 185 177 183 191 192 200 213 197 101  82  17  33  53  52  11  25  92 165  96 128 176 177 175 177 179 178
  18  21  17  12  12  24  32  27  20  16  16  18  13  15  18  20  16  20  33  27  18  24  42 153 152 149 159 151 139 151 168 173  87  30  80 167 160 173 178 159 162 175 172  98  62 159 182 158 163 166 148 152 177 182 128  46 117 163 139 159 180 158 166 187 173 143  49  52 163 163 170 184 158 151 162 184 178  84  97 199 185 184 209 196 184 214 186 184 190 187 189 197 195 101  86  24  33  50  60  14  19  75 163 105 119 180 174 177 181 179 178
  27  21  14  12  15  32  26  15  16  17  25  21   9  10  10  14  14  17  26  15   4   4  27 148 164 147 160 160 151 163 174 177 108  31  79 171 160 167 169 146 148 166 174 113  58 116 150 134 143 165 146 159 180 185 140  52 125 192 152 161 173 145 151 172 167 150  51  36 134 167 171 196 185 175 174 180 181  97  82 197 195 180 196 193 170 183 183 184 186 184 188 199 202 103  88  31  28  45  60  15  17  68 155 109 102 160 163 160 161 163 169
  59  39  17  10   6  22  17  14  17  16  24  26  23  26   5  12  19  11  24  14   9   1  16 142 182 154 164 170 154 153 167 180 115  27  53 135 131 140 142 128 138 159 177 122  55 128 185 165 167 178 156 159 178 185 147  57 111 170 151 160 182 164 168 186 179 163  54  19 131 188 177 196 179 175 171 178 187 113  58 149 154 138 143 129 107  93 154 173 189 187 190 201 207 110  85  34  22  48  59  19  15  59 147 124 100 157 177 184 185 187 189
  51  46  40  35  25  35  26   8   6   8  19  21  27  17  23  37  25  21  14   6   5  12  25 107 153 120 124 131 115 113 151 185 127  34  56 137 152 158 169 144 142 154 179 127  58 113 161 150 169 178 162 161 187 187 159  53 101 194 172 170 193 174 166 185 181 170  64  27 106 161 138 154 137 118 113 163 192 118  36  65  61  52  43  57  48  19 117 168 173 174 176 186 192 119  89  50  22  44  63  25  14  49 137 119  99 163 185 186 178 178 179
  40  33  29  24  14  29  37  19  11  10  10   8  17  16  30  45  24  15   7   7  12  29  32  88 137 120 137 157 139 139 166 185 131  42  55 120 146 145 159 140 141 152 181 133  68 118 184 166 173 191 146 125 137 188 163  53  89 176 169 152 171 152 135 151 172 184  68  12  39  82  47  65  66  50  42 145 208 129  37  34  29  30  19  34  30   6  95 170 175 182 187 199 206 139  95  58  22  42  67  29  11  39 124 128  95 154 177 174 176 176 178
  23  17  15  17   9  21  20  26  35  24  14  13  20  19  18  15  17  16   6   3   2  30  45 106 157 136 138 147 122 132 158 173 137  45  42 124 157 157 180 161 148 155 190 146  71  53  76  57  43  33  29   6  43 185 176  64  43  98 101  75  79  83  56  65 155 182  85  36  28  32  36  16  26  26  14 136 211 141  32  14  15  25   3   9  17   4  83 189 194 199 200 204 219 158  93  67  17  33  64  33  12  35 113 139  88 154 174 175 182 184 184
  21  11  15  10  12  11   7  17  27  27  28  31  30  22   7   5  14  24  11   4  10  54  45  94 160 148 151 178 165 159 178 181 150  49  33  87 112  90  87  74  73 103 155 118  56  15   9  10   4   3  18  13  31 182 175  85  31  36  43  33  31  33  24  17 137 189  95  38  19  21  25   6  17  22   9 117 204 145  33  10  10  26  12  17  22   8  70 183 196 198 198 204 212 156  93  69  20  36  66  41  10  30 108 147  89 143 174 177 180 182 183
  46  30  16  27  15   8   4   5  14  37  50  50  40  32  15   2  10  11   9  16  46  93  55  97 150 144 131 133 112  85 107 176 167  58  21  11  17   5  14  35  58  59  59  58  51  51  38  31  32  35  55  24  36 178 179 106  32  21  31  26  12  22  27   9 124 187 105  50  14  14  22   3  10  34  10  96 201 162  34   5   8  45  54  32  32   7  62 177 195 199 196 205 216 177 101  70  20  32  58  45  12  30  90 150  90 129 174 176 174 176 178
  25  19  11  27   7  13  19  24  52  63  57  64  60  49  30   8   8   7  13   9  14  34  37  34  41  25  17  12  14   9  41 174 181  63  30   6  24  36  45  66  65  55  66  59  52  49  51  46  23  20  33  22   9 158 187 114  20   6  20  18   2  20  27   7 105 186 123  49  21  13  25   3   8  24   6  70 196 179  47   7  17  50  31  48  56  29  71 162 195 200 199 209 213 167 108  83  24  29  55  48   8  28  76 153  96 119 172 176 182 186 183
  20  13  12  29   9  14  11  32  77  65  47  64  60  43  14   6   5  27  42  26  35  17   6  11  19  19  15  12  26  19  38 167 182  63  39  35  58  62  61  65  71  73  67  64  65  44  35  21  14   3  21  12   2 137 189 118  24  10  17  22   6  19  21   4  85 182 132  39  24   7  23  10  16  26   9  65 194 181  52  36  39  53  41  40  49  42  69 147 202 200 197 198 179  98  86  89  24  27  51  58  14  25  66 162 105 113 170 177 179 185 177
  21  33  30  28  16   9  28  37  62  44  35  32  54  50  23  10  16  28  42  49  43  24  14  19  32  49  42  34  45  41  26 166 178  71  47  58  62  63  65  74  76  67  57  56  59  47  30  24  41  20  13  15   1 118 192 126  23   7  14  22   7  18  23   8  73 184 149  40  33  22  45  29  26  41  24  52 188 195  67  44  52  43  45  41  28  31  40  93 166 191 195 197 191  69  67  97  30  16  40  53  10  13  53 159 112 100 167 175 176 178 165
  42  36  37  30  29  35  57  75  58  51  34  29  35  34  21  19  32  47  39  34  28  18  31  31  39  43  34  31  41  31  14 115 116  62  66  65  67  68  72  77  82  66  69  54  50  51  42  24  47  35  18  21   5 109 196 136  38  24  26  41  42  41  32  16  62 177 146  50  31  11  27  17   6  20  14  42 180 199  70  32  45  35  18  27  17  19  21  33 103 180 198 200 188  53  54  89  38  22  39  57  22  15  42 156 116  95 167 174 185 186 179
  46  13  19  31  44  56  55  70  51  28  37  48  43  31  26  37  46  49  47  40  43  27  28  13  21  22  22  29  32  27   2  83  92  40  58  71  68  70  76  75  73  80  92  76  80  63  50  26  31  39  33  39  12  93 185 129  52  23  11  35  48  38  28  29  65 146 135  62  30   5  22   5   4  18  20  46 173 195  88  41  37  31  19  15  22  25  34  42  58 111 139 141 128  36  33  45  46  51  49  58  43  38  39 142 118  87 160 179 186 187 184
  26  15  19  34  61  81  60  71  42  38  52  41  37  32  46  48  41  50  50  40  40  26  18   2   9   9  12  17  29  26   4  99 138  74  64  69  68  69  84  83  69  71  63  60  68  53  31  23  27  44  43  51  33  72 125  87  50  28  55  71  71  63  61  65  81  83  97  82  59  30  41  30  45  50  52  58 124 125  71  54  38  39  37  46  37  42  54  46  37  40  67  64  60  37  32  27  51  53  36  57  51  44  49 126 116  86 152 180 181 181 179
  24  18  23  40  65  74  32  38  44  57  64  51  44  22  27  36  37  40  46  43  38  34  30  11   6   3  28  54  38  28  12  78 102  69  58  54  67  62  70  71  63  54  55  49  39  53  21  26  38  63  59  57  51  68  81  78  55  44  74  77  66  66  64  60  59  67 109  93  65  54  58  58  55  53  70  68  82  71  72  69  30  29  27  47  44  46  40  26  29  17  22  17  36  54  37  40  56  45  26  39  55  86 117 151 120  82 148 184 181 180 176
  22  19  41  73  76  58  27  47  66  80  52  41  36  14  18  12  17  25  42  40  27  14  31  29  32  28  27  34  23  35  48  67  65  58  61  60  64  62  64  63  58  63  67  54  51  45  46  54  65  71  66  59  48  56  59  57  61  54  63  59  56  61  53  49  41  56  84  77  62  57  65  64  61  60  63  45  35  39  47  38  42  39  38  53  40  42  31  34  54  45  44  31  20  31  42  64  66  50  36  32  96 142 145 131 105  82 133 168 178 179 176
  28  13  46  71  63  45  35  62  58  54  41  44  29  14  28  23  24  29  48  43  26  15  12  14  34  27  30  27  28  60  72  75  78  63  62  60  61  54  64  64  63  64  61  29  35  42  54  66  58  69  61  57  38  52  59  63  59  64  55  53  53  51  50  54  61  58  52  54  56  53  60  57  64  69  79  50  43  39  43  65  56  46  44  58  49  58  37  22  22  38  65  59  49  22  38  56  49  29  35  36  84  94  82  67  77  89 142 177 194 201 201
  22  34  54  38  21  17  33  48  37  18  23  43  28  18  28  25  30  31  40  43  38  43  31  45  49  41  46  44  56  72  74  65  59  57  43  39  49  56  67  65  58  56  63  42  34  31  47  68  70  77  61  64  60  48  56  58  49  68  59  60  65  60  68  59  52  51  61  42  33  39  42  63  75  69  69  46  62  60  67  78  63  47  48  57  50  54  35  32  36  36  33  42  45  21  47  47  39  12  22  17  22  53  83  98 119 130 157 180 208 213 206
  46  45  57  46  23  37  75  61  48  46  36  27  27  27  27  21  28  28  42  58  50  57  73  63  65  71  81  77  55  51  57  62  55  49  20  15  25  28  55  53  47  43  52  45  35  28  34  44  46  54  46  47  49  47  63  58  30  35  54  57  58  57  61  56  51  46  52  34  32  30  22  49  64  54  27  15  40  57  56  71  76  60  47  45  44  40  24  41  58  43  25  29  30  44  50  33  33  36  29  17  54 129 156 151 158 144 135 144 199 207 201
  54  67  59  59  68  64  62  37  33  42  52  45  39  37  36  22  22  24  28  40  54  64  65  60  73  68  84  73  56  52  61  67  66  52  27  50  74  59  51  30  20  17  24  19  19  22  28  32  33  31  41  50  55  72  72  47  32  50  75  75  67  67  63  71  52  47  40  52  54  45  38  46  78  62  53  69  62  62  70  85  70  63  55  50  62  66  48  60  64  51  57  37  27  17  15  27  28  64  52  24  70 116 120 105  98  82  90 120 197 208 203
  36  74  51  62  93  53  45  33  18  22  31  22  30  43  36  26  24  28  12  18  51  69  59  56  55  53  60  53  50  56  56  62  72  81  85  94  91  80  68  43  11  12   9  12   5  11  22  23  36  49  38  53  52  57  46  40  50  71  78  78  78  76  51  55  54  42  57  71  77  53  36  46  61  64  57  64  77  68  61  54  53  54  52  48  53  57  45  45  39  32  38  45  30  31  38  23  23  35  38  28  64  80  75  81  85  90  86 116 199 210 211
