P2
129 94
255
  35  36  37  34  29  25  32  40  41  37  33  31  32  41  39  37  36  35  35  37  40  37  35  32  30  30  31  31  31  30  31  32  34  36  38  39  40  43  39  94 178 174 114  97 104 104 103 101  98  95  92  89  88  87  87  87  86  85  83  82  81  82  77  73  75  78  78  82  86  90  96 100  98  97  98  97  94  88  89  89  86  82  79  79  81  82  79  83  87  80  68  66  73  78  80  82  84  84  83  81  80  69  63  61  65  66  60  58  61  62  58  54  54  57  58  54  50  47  47  47  46  46  45  45  45  42  43  44  43
  39  42  42  37  30  46  48  49  47  41  34  28  26  37  35  36  41  43  40  38  39  34  33  31  30  30  30  32  32  32  33  34  37  39  41  43  43  42  46  89 139 132  92  75  79  84  86  89  92  95  96  96  96  89  89  89  88  86  84  83  82  78  77  79  84  85  82  81  83  92  97  99  95  92  91  88  85  81  84  86  85  83  82  85  88  88  88  86  81  70  63  69  78  82  83  84  85  83  81  78  76  68  67  67  68  67  63  64  67  63  57  51  52  56  58  53  48  48  48  48  47  47  47  46  46  45  47  48  45
 152 146 143 145 146 118 112 103  93  82  70  58  50  40  37  40  48  50  42  34  31  33  33  33  33  32  33  34  35  35  35  36  37  39  40  41  41  51  40  40  40  36  40  49  64  64  68  74  81  86  88  88  88  81  81  81  80  78  76  74  73  69  69  74  80  82  79  80  83  91  95  95  90  85  84  82  79  82  85  88  87  84  83  86  90  88  88  81  69  63  66  73  78  77  78  80  81  80  78  76  75  67  67  65  60  58  58  57  54  60  57  53  52  53  54  52  50  49  49  49  49  48  48  47  47  46  48  48  45
 187 169 165 176 187 186 176 162 150 138 126 112 103  70  56  44  42  41  37  36  39  33  34  36  36  35  35  36  37  36  36  36  36  36  36  36  36  34  38  47  44  51  65  61  58  66  68  71  73  72  68  63  59  64  64  63  62  60  58  56  55  61  59  60  65  69  72  80  88  92  97  97  92  89  89  88  85  89  92  94  91  86  83  85  88  85  84  73  60  59  71  77  74  79  80  80  80  77  74  70  68  71  71  66  59  60  66  64  56  58  59  58  55  52  51  53  55  50  50  50  49  49  49  48  48  44  46  47  43
 119 116 120 131 141 137 156 176 181 168 150 139 136 135 123  89  48  33  41  43  33  35  38  41  40  37  34  34  35  39  40  43  46  50  53  56  57  66  65  65  66  70  70  66  60  60  59  57  56  55  55  54  54  54  54  55  54  53  52  50  49  50  50  51  52  55  58  61  63  88  93  96  94  89  87  88  91  84  88  91  89  84  81  84  88  89  78  64  59  63  70  72  72  76  75  73  71  70  69  69  69  67  65  63  62  62  62  59  58  56  56  56  54  51  50  51  52  48  48  48  47  47  46  46  46  44  42  42  43
 140 136 134 135 138 141 127 120 136 164 176 165 148 134 134 132 116  81  44  27  28  36  40  45  47  47  49  53  58  62  62  63  64  64  65  65  66  59  56  56  60  59  53  53  57  53  53  52  51  49  48  48  49  51  51  50  50  50  50  50  51  48  48  48  49  50  52  55  56  63  71  81  86  86  85  87  89  85  88  90  87  83  82  85  89  87  76  64  59  64  70  73  72  74  73  71  69  68  67  67  67  66  64  62  61  62  61  59  57  56  56  56  53  51  49  50  52  48  48  48  47  47  46  46  46  45  42  42  43
 146 145 144 141 140 136 146 152 148 141 146 166 185 160 148 140 138 125  98  72  58  55  58  61  62  61  60  60  61  57  57  56  55  55  54  53  53  54  50  51  54  50  43  47  59  49  52  53  52  49  48  50  53  49  48  47  45  45  46  47  48  47  47  46  45  46  46  47  48  46  53  62  70  75  80  87  92  86  88  87  84  80  79  82  86  84  75  65  61  65  70  72  72  70  69  68  66  65  64  64  64  64  62  60  60  60  60  58  56  55  55  55  53  50  49  50  51  48  48  48  47  47  46  46  46  46  44  43  42
 148 149 150 149 147 141 139 133 125 119 117 121 125 164 158 142 129 136 144 124  94  65  61  58  58  60  60  55  50  52  52  53  53  53  53  54  54  52  53  52  49  48  52  58  62  57  61  64  63  59  57  60  63  56  56  55  54  53  52  51  51  51  51  50  49  48  47  46  46  47  47  48  50  56  66  78  87  88  88  86  82  79  80  83  87  83  76  67  63  65  68  69  69  66  65  64  62  61  61  61  61  62  60  58  58  58  58  56  54  54  55  54  52  49  48  49  50  48  48  48  47  47  46  46  46  46  45  43  41
 123 122 119 114 110 113  99  86  85  92  94  84  72 112 142 160 151 138 134 127 115  81  67  51  46  51  56  54  50  50  50  51  52  53  53  54  54  47  55  52  43  49  67  71  62  74  76  77  74  69  65  64  65  63  65  66  67  67  66  64  63  62  62  61  60  58  57  55  55  54  51  47  45  46  53  62  68  80  80  79  78  78  81  86  89  82  76  69  65  65  65  65  64  62  61  60  59  58  58  58  58  59  57  56  56  56  56  55  53  53  54  53  51  48  47  48  49  48  48  48  47  47  46  46  46  45  45  43  40
  81  81  77  70  64  64  71  74  68  57  55  65  75  60  88 128 153 149 134 133 143 134 113  85  65  56  54  51  48  47  47  47  46  46  46  45  45  43  52  51  44  53  73  76  64  90  89  86  82  77  71  66  62  61  62  64  66  68  68  68  68  70  70  70  69  68  67  65  64  62  62  61  60  59  57  57  56  61  61  62  64  68  73  77  80  75  71  66  63  62  61  60  59  59  58  57  56  56  56  56  56  56  55  53  54  55  55  53  52  53  53  53  50  48  46  47  49  48  48  48  47  47  46  46  46  43  44  42  38
  66  66  63  59  55  51  47  42  41  44  46  47  47  44  48  70 111 143 149 140 132 134 125 109  89  69  55  48  46  54  54  53  52  51  51  50  50  49  50  54  60  67  71  74  76 100  96  92  91  90  85  78  71  62  61  59  58  58  60  62  63  67  68  69  69  68  67  66  65  67  67  68  69  68  66  63  60  56  56  56  58  61  64  66  66  64  62  60  58  57  57  56  55  57  56  56  55  54  55  55  55  55  53  52  52  53  53  52  51  52  53  52  50  47  46  47  48  48  48  48  47  47  46  46  46  41  43  41  37
  57  50  46  44  44  47  47  47  48  48  47  46  45  42  46  54  77 117 141 118  78  62  76  89  88  74  59  53  54  46  46  46  46  46  46  46  46  59  52  60  79  81  68  72  90 104  99  96  98 102 102  94  87  74  69  62  56  54  55  58  61  59  60  62  63  63  62  61  60  65  63  61  61  62  64  66  66  70  68  66  66  66  65  63  61  55  55  54  54  54  54  54  53  56  56  55  54  54  54  55  55  54  52  51  51  52  53  52  50  52  52  52  49  47  45  46  48  48  48  48  47  47  46  46  46  40  42  40  37
  48  50  52  51  50  45  45  45  45  45  46  48  48  43  40  34  39  60  78  71  51  45  63  72  65  60  62  58  48  52  49  44  41  43  49  56  61  76  76  76  83  83  47  87 103  99  99 100 101 102 103 104 104  99  89  72  60  56  58  57  54  54  54  54  54  55  56  57  58  57  56  55  56  59  60  59  58  60  60  60  60  61  61  61  62  63  63  62  60  57  53  49  47  44  45  46  47  47  47  47  47  48  48  47  47  47  47  47  47  49  49  49  49  49  48  47  46  49  48  46  44  43  43  44  45  40  36  36  44
  46  47  46  44  43  43  42  42  42  43  43  44  45  47  46  42  45  63  81  81  68  45  55  60  56  53  54  50  43  45  46  49  53  59  66  73  76  77  79  77  86  68  65  90 104 101 102 103 104 105 106 107 107 108 102  88  71  59  55  52  49  52  52  52  51  52  52  53  54  57  56  55  56  58  59  58  57  56  56  57  57  58  58  59  59  61  61  62  62  61  59  58  57  53  52  51  50  47  45  43  41  44  44  45  46  46  46  46  46  48  48  49  49  48  47  46  46  47  46  45  44  43  43  43  43  41  38  40  46
  48  48  46  44  42  43  43  43  42  43  43  44  45  44  47  48  50  64  84  94  92  50  51  52  51  49  47  46  44  50  54  62  70  77  82  84  85  80  79  82  84  53  88  96 104 105 105 106 107 109 110 111 111 115 116 106  85  64  54  50  48  50  50  49  48  48  48  48  49  53  51  50  51  53  54  53  52  52  53  53  54  55  56  57  57  55  56  57  59  59  59  59  59  63  62  60  58  54  50  47  45  42  42  43  43  44  44  44  44  47  47  48  48  47  47  46  45  44  44  44  44  43  42  41  40  41  40  44  48
  52  53  53  51  49  48  48  47  47  47  47  48  49  43  47  48  46  52  67  80  86  59  56  55  55  51  47  51  59  69  72  78  82  85  84  82  81  83  76  90  73  53 102 106 103 107 108 109 110 112 113 114 115 115 123 117  93  67  54  52  51  50  49  48  46  45  45  45  45  47  45  44  45  47  47  46  45  50  50  51  52  53  54  55  55  55  55  56  57  57  58  58  58  63  62  62  61  59  57  55  54  47  45  42  40  40  40  42  43  45  46  46  47  46  46  45  45  42  42  43  43  43  41  39  37  40  42  46  49
  55  56  56  54  53  52  51  50  50  50  50  51  51  50  51  48  41  37  42  51  57  61  60  60  58  53  52  63  76  81  83  84  85  85  83  81  79  84  73  93  61  69 106 115 103 109 109 111 112 114 116 117 118 118 127 121  93  65  53  52  51  51  50  48  47  45  45  45  45  45  43  42  42  44  44  43  42  45  45  46  47  48  49  49  50  56  56  56  57  59  60  61  62  58  58  59  59  59  58  58  57  56  52  46  41  39  39  41  42  43  44  45  45  45  45  44  44  41  41  42  43  42  40  38  37  40  42  46  48
  55  55  54  52  50  52  51  51  50  49  50  50  50  51  52  50  47  44  45  50  53  56  58  56  52  51  58  72  84  81  81  82  83  84  85  85  86  84  78  85  60  92 108 118 108 111 112 113 115 117 119 120 121 128 134 121  87  59  51  49  46  51  50  49  47  46  46  46  46  47  46  44  45  46  46  45  43  41  41  41  42  42  42  43  43  46  46  48  50  52  55  58  59  59  59  60  61  61  61  60  60  62  58  53  48  44  42  42  43  42  42  43  44  44  44  44  43  42  42  42  41  41  39  38  38  42  42  45  46
  53  55  55  54  53  53  52  51  50  50  50  50  50  51  50  52  55  58  59  59  59  49  50  45  40  48  67  79  81  80  81  81  82  84  86  88  89  83  90  69  73 110 114 114 116 114 115 117 119 121 123 124 125 138 137 116  78  54  50  49  43  50  49  48  47  46  46  47  47  49  47  46  46  47  47  45  44  42  42  42  41  41  41  40  40  38  38  39  40  42  45  47  49  54  55  57  58  59  59  59  59  62  61  61  58  55  50  45  43  40  41  42  43  43  43  43  43  43  43  42  40  40  39  39  39  46  44  44  46
  53  57  60  60  59  54  54  53  52  51  51  51  52  55  52  52  57  60  57  50  46  46  45  36  31  47  74  84  77  84  84  85  85  85  85  85  85  81 101  55  86 119 121 110 123 117 118 119 121 124 126 127 128 141 136 111  72  51  52  52  45  49  48  47  46  46  46  47  47  48  46  44  45  46  46  44  42  46  46  45  44  44  43  42  42  42  41  39  39  39  40  41  42  41  42  45  48  50  52  53  54  59  62  65  66  63  56  48  43  40  40  41  42  43  43  43  42  45  44  42  40  39  39  40  41  49  46  45  46
  47  50  52  53  53  56  55  55  54  53  53  52  52  51  50  54  61  61  53  49  50  41  34  31  41  60  76  81  78  79  84  84  80  82  89  91  87  98  76  57 116 116 119 129 119 121 124 127 127 127 129 134 139 154 142  95  58  58  58  48  52  50  50  50  49  48  47  46  45  44  44  45  45  45  45  45  46  45  43  42  42  42  42  41  39  39  40  40  40  40  40  40  41  40  40  40  41  42  44  45  46  49  51  55  58  60  61  61  60  51  46  40  39  42  45  45  44  46  43  39  37  38  41  44  46  45  48  45  39
  42  43  44  43  42  45  46  47  48  50  51  52  53  52  50  52  57  56  50  48  50  41  31  30  46  67  78  79  77  81  84  86  85  85  88  90  89  97  72  72 119 123 117 123 123 122 125 127 128 129 132 139 145 163 141  92  58  58  54  45  50  50  50  50  49  48  47  46  45  46  45  45  45  45  45  45  45  45  43  42  42  42  42  41  39  40  40  40  40  40  40  40  40  39  39  39  39  40  41  42  43  45  46  47  50  53  56  58  59  52  49  44  42  42  42  42  42  41  42  41  39  36  38  44  50  48  43  41  45
  39  39  38  37  36  37  38  39  41  43  44  46  46  46  44  44  48  49  48  50  53  44  32  35  58  77  79  77  79  83  84  87  90  89  87  90  95  90  69  97 121 129 117 118 128 124 126 129 130 133 139 148 156 168 133  82  58  59  52  45  52  49  50  50  50  49  48  46  46  47  47  46  46  45  44  44  44  45  43  42  42  42  42  41  39  42  41  41  40  40  39  39  38  39  38  37  37  37  38  38  39  39  39  39  41  44  48  52  55  53  52  49  45  41  39  40  41  36  40  42  40  36  37  45  53  49  40  40  50
  43  43  42  41  40  39  39  38  38  37  37  37  37  36  35  35  38  42  47  52  56  48  40  48  72  82  74  73  83  84  83  86  90  89  87  93 102  76  75 124 118 129 124 120 129 127 129 132 135 139 147 158 167 166 119  71  57  59  53  50  57  49  50  50  50  49  48  47  47  48  48  47  46  45  44  44  43  45  43  42  42  42  42  41  39  43  42  41  41  39  39  38  37  39  39  38  37  36  36  37  37  36  36  36  37  39  42  44  46  50  51  51  48  42  39  40  42  37  39  40  40  40  42  48  54  46  42  45  50
  53  51  49  47  45  46  45  44  42  40  38  37  36  33  33  32  33  36  42  48  50  48  45  57  76  75  62  64  80  84  83  84  87  88  89  96 104  64  90 141 114 125 133 129 129 131 134 138 141 146 155 167 175 160 107  64  56  57  52  52  56  49  50  50  50  50  49  48  48  49  48  48  47  46  45  44  44  45  43  42  42  42  42  41  39  43  42  41  41  39  39  38  37  41  40  39  38  37  37  37  37  35  36  37  39  39  39  38  37  45  48  50  48  43  41  41  43  41  38  36  39  45  50  51  51  41  49  51  46
  57  54  52  49  47  50  49  48  47  46  45  44  44  38  39  37  34  34  38  40  38  41  43  54  63  58  47  52  68  81  84  85  84  87  93  96  94  66 112 144 120 125 138 136 132 136 140 144 148 153 161 173 180 151 100  63  57  53  50  51  48  49  49  50  50  50  50  49  49  48  48  48  47  46  46  45  45  45  43  42  42  42  42  41  39  42  41  41  40  40  39  39  38  41  41  40  39  38  38  38  38  37  38  39  40  40  38  35  34  42  44  46  46  45  43  42  42  42  37  34  38  46  52  52  49  43  52  53  45
  52  52  51  50  48  49  49  48  47  47  46  45  45  43  46  44  38  36  38  36  31  36  37  41  44  41  39  45  54  78  87  88  84  88  97  91  76  82 132 137 134 130 135 137 138 140 144 150 154 159 166 175 182 138  91  63  57  49  51  54  44  49  49  50  51  51  50  50  49  47  47  47  47  47  47  47  46  45  43  42  42  42  42  41  39  40  40  40  40  40  40  40  40  40  40  39  38  38  38  39  39  39  39  39  39  38  38  37  37  42  42  43  45  46  44  41  38  38  36  35  38  44  48  49  48  50  50  49  48
  45  48  50  51  51  47  47  46  44  42  41  40  39  43  48  48  42  40  41  37  31  35  34  32  31  33  38  44  47  75  89  92  85  90 100  87  62  97 144 129 146 136 131 134 144 143 147 153 158 162 169 176 182 125  84  61  56  48  54  59  45  49  49  50  51  51  51  50  50  46  47  47  47  47  47  48  48  45  43  42  42  42  42  41  39  39  40  40  40  40  40  40  41  39  38  38  37  37  38  39  39  40  39  37  36  36  38  40  41  43  42  41  44  46  45  39  34  34  35  36  38  40  42  46  48  57  46  44  53
  46  46  45  44  43  44  46  43  42  44  37  33  41  46  59  74  86  94  94  83  69  47  29  32  36  25  30  45  43  78  89  82  81  99 105  83  60 137 135 133 133 134 137 141 143 146 156 146 157 164 173 188 162 116  76  53  55  55  53  54  52  50  51  52  51  49  48  49  50  48  46  45  46  48  49  48  46  44  44  43  42  42  41  40  40  42  41  39  37  36  37  39  40  40  39  39  38  38  37  37  36  37  36  36  35  35  36  36  37  36  38  40  44  46  45  41  37  43  38  41  47  44  38  44  58  50  51  51  50
  46  45  44  43  42  44  43  41  38  36  42  56  71  94  98 107 117 124 122 116 110  76  50  36  36  31  29  38  44  81  91  77  89  94 107  71  77 139 137 136 135 137 140 144 146 149 157 151 163 170 177 183 152 111  74  53  55  54  52  53  51  50  51  52  51  49  48  49  50  49  47  46  46  48  48  47  45  44  44  43  42  42  41  40  40  42  41  39  37  37  37  39  40  39  38  38  38  38  38  37  37  37  36  36  35  35  36  36  37  38  39  41  45  47  46  43  39  37  41  43  42  41  44  49  52  48  49  49  50
  45  44  43  41  40  42  38  40  39  39  64 101 121 123 110 117 156 194 197 169 143 106  73  40  36  39  29  32  54  87  89  76  95  92 103  59 102 141 139 138 138 140 143 147 150 151 157 156 168 175 180 174 136 101  68  50  52  51  49  51  48  49  51  52  51  49  48  48  50  50  48  47  47  47  47  46  44  44  44  43  42  42  41  40  40  41  40  38  37  37  37  38  39  37  37  37  37  38  38  38  38  37  36  36  35  35  36  36  37  39  40  42  45  48  47  44  41  33  43  45  37  39  50  52  44  47  47  48  48
  44  43  42  41  40  44  38  41  43  52  91 135 151 137 116 123 171 213 212 176 145 117  83  42  37  44  27  31  68  93  83  82  93  97  90  60 126 141 140 139 139 141 145 149 152 153 154 158 168 176 181 164 124  90  62  48  50  48  47  49  46  49  50  51  50  48  47  48  49  51  49  47  47  47  47  45  43  44  44  43  42  42  41  40  40  40  40  38  37  37  37  38  38  36  36  36  37  38  38  39  39  37  36  36  35  35  36  36  37  38  39  41  44  47  47  44  42  37  42  43  40  42  49  48  41  48  48  48  48
  44  43  43  42  41  44  43  42  48  74 118 151 157 161 150 150 165 169 152 135 130 115  82  44  39  42  24  33  78  95  77  92  88 104  74  77 140 140 139 138 138 141 146 150 153 157 154 163 169 176 183 158 119  81  59  50  52  49  49  52  48  49  50  51  50  48  47  48  49  51  49  47  47  47  47  45  43  44  44  43  42  42  41  40  40  39  39  38  37  37  37  37  37  35  35  36  36  37  38  38  38  37  36  36  35  35  36  36  37  37  37  39  42  45  46  44  41  46  40  40  46  47  42  40  44  50  50  49  47
  44  45  44  44  44  37  47  43  54 104 152 170 174 172 163 158 159 152 135 120 115 111  77  45  40  36  24  41  80  93  77  95  88 103  63 104 145 138 138 137 138 141 146 151 154 162 156 170 172 178 184 151 115  74  57  52  54  51  52  54  50  48  50  50  49  47  46  47  49  50  48  47  47  47  47  46  44  44  44  43  42  42  41  40  40  38  38  38  38  37  37  36  36  36  36  36  36  37  37  37  37  37  36  36  35  35  36  36  37  36  37  38  41  44  45  44  42  49  40  40  49  48  39  39  48  52  50  48  46
  45  46  47  47  47  37  61  49  54 119 164 169 179 168 156 145 146 151 147 131 116 110  68  41  38  31  32  57  83  87  84  89  98  92  63 128 144 139 138 138 139 142 147 153 156 161 155 175 174 176 180 139 104  64  51  49  52  48  49  52  47  48  49  50  49  47  46  47  48  49  47  46  46  48  48  47  45  44  44  43  42  42  41  40  40  38  38  38  38  37  37  36  36  37  37  36  36  36  36  36  35  37  36  36  35  35  36  36  37  37  37  38  41  45  46  45  44  44  44  45  46  44  43  46  52  50  49  47  45
  45  47  48  49  49  50  80  56  49 113 148 143 156 170 162 144 126 119 123 128 128 110  60  35  35  29  42  72  88  82  91  82 108  80  67 141 143 139 139 138 140 144 149 154 157 157 152 177 173 172 174 128  93  55  44  44  47  42  44  47  42  48  49  50  49  47  46  47  48  48  46  45  46  48  49  48  46  44  44  43  42  42  41  40  40  37  38  38  38  38  37  36  35  38  37  37  36  36  35  35  34  37  36  36  35  35  36  36  37  39  39  39  42  46  47  47  46  36  48  50  41  39  48  55  54  48  47  45  44
  46  51  56  57  57  70  60  51  55  75 104 131 146 149 129 105  98 112 127 127 117  85  44  40  31  37  40  78  84  91  87  97  99  70  95 145 137 138 139 141 143 147 150 153 155 163 164 169 175 184 147 132  75  44  49  46  48  37  38  61  58  43  39  38  42  47  48  48  48  41  49  44  52  51  43  51  44  47  42  45  45  39  43  46  38  39  39  39  38  38  37  37  37  36  36  36  36  36  36  36  36  33  33  33  34  34  35  35  35  39  41  42  41  44  48  47  43  49  44  38  37  46  55  53  46  46  44  43  45
  59  64  65  62  59  58  56  54  54  64  86 114 133 130 114  98 100 118 131 122 105  59  39  32  35  30  54  82  91  89  93  96 104  60 113 138 141 140 141 143 145 149 152 155 157 164 165 170 175 179 142 123  67  53  54  45  46  43  58  96 102  87  76  62  51  45  43  42  43  45  49  40  49  53  49  54  45  48  43  46  45  38  39  42  35  39  39  39  38  38  37  37  37  36  36  36  36  36  36  36  36  33  33  33  34  34  35  35  35  36  38  40  40  44  49  49  44  47  46  43  42  48  54  51  44  46  44  43  44
  67  71  68  61  55  58  57  50  41  44  70 112 145 143 125 106 100 108 109  88  64  36  40  29  39  28  72  89  95  86  99 100 104  54 135 131 147 143 144 145 148 151 155 158 159 166 167 173 176 172 137 110  59  52  53  41  41  43  68 116 127 127 128 128 122 110  92  71  57  36  47  43  47  40  28  35  30  47  41  44  45  36  37  41  37  39  39  39  38  38  37  37  37  36  36  36  36  36  36  36  36  33  33  34  34  34  34  35  35  33  36  37  38  43  49  49  45  41  43  45  44  47  49  46  41  44  43  43  44
  67  68  64  57  52  57  56  49  38  36  57  95 126 136 119  95  79  75  70  54  36  35  44  35  36  41  84  96  92  88 103 110  94  65 146 132 150 144 145 147 149 152 156 159 161 167 168 175 177 163 133  98  55  48  52  43  42  43  67 112 120 116 119 120 120 122 125 125 122 104  88  51  39  37  39  58  57  46  38  41  44  37  37  44  42  39  39  39  38  38  37  37  37  36  36  36  36  36  36  36  36  34  34  34  34  34  34  34  34  33  36  37  37  41  47  47  43  38  44  47  46  46  48  48  45  45  44  44  45
  65  64  60  56  54  47  51  54  51  45  45  52  60  74  68  56  45  43  45  44  39  42  41  39  29  64  89 102  88  94 104 121  76  90 146 140 149 145 146 147 150 153 157 160 161 167 168 178 177 154 130  89  55  50  56  48  46  47  71 114 119 113 117 117 113 113 118 119 117 128 101  59  61  80  86  86  63  58  44  42  45  38  38  43  43  39  39  39  38  38  37  37  37  36  36  36  36  36  36  36  36  34  34  34  34  34  34  34  34  35  37  38  37  41  45  44  40  42  47  49  47  47  51  54  54  51  51  49  48
  66  64  60  58  56  51  51  51  49  46  41  37  35  32  37  38  33  31  34  36  36  40  32  34  33  86  95 102  92 102 109 124  64 117 141 149 146 146 147 149 151 155 158 161 163 168 168 179 175 143 126  79  54  49  55  46  42  44  74 121 126 140 148 150 139 128 118 104  91  91  86  69  82  98 102 108  95  79  57  47  47  40  37  40  38  39  39  39  38  38  37  37  37  36  36  36  36  36  36  36  36  35  35  34  34  34  34  33  33  36  38  39  38  41  45  44  39  40  44  45  43  43  48  50  50  56  55  53  50
  83  81  76  70  67  65  58  48  43  42  44  46  46  35  40  40  34  30  30  29  27  35  29  28  55 101 104  96 102 109 118 115  63 134 139 154 144 149 149 151 154 157 161 164 165 170 169 179 174 132 121  69  51  44  52  43  39  41  71 116 120 138 142 136 121 116 123 128 126 109  98  69  70  88 115 156 168  98  67  50  48  42  40  40  37  39  39  39  38  38  37  37  37  36  36  36  36  36  36  36  36  35  35  35  34  34  33  33  33  35  37  38  38  42  47  46  42  39  43  44  43  43  46  44  40  49  50  50  48
 106 106  99  89  84  68  63  56  51  48  44  40  37  36  36  33  28  28  33  35  34  33  32  27  79 108 112  89 111 112 126 106  67 141 140 154 142 151 152 153 156 159 163 166 167 172 170 179 171 125 116  62  48  43  54  49  45  44  69 108 106 119 132 138 132 127 128 122 113 115  87  53  74 122 155 168 153 105  71  50  48  45  44  44  39  39  39  39  38  38  37  37  37  36  36  36  36  36  36  36  36  35  35  35  34  34  33  33  33  33  36  38  38  43  48  48  45  46  50  52  51  52  52  46  38  37  40  43  45
 114 105  89  80  79  73  64  54  52  54  53  45  36  39  34  29  26  28  29  29  28  32  22  54  96 106 109 114 109 117 132  80  93 151 143 142 152 155 154 153 156 160 164 166 167 169 170 175 150 126 106  66  47  50  48  46  45  48  53  59  63  73  81  94 104 110 113 113 114 113  82  50  60 120 169 152 104  75  64  59  53  41  41  45  41  37  37  37  36  36  35  35  35  40  39  39  39  38  37  37  37  36  35  34  33  33  33  33  34  37  37  37  41  46  50  52  52  53  53  52  51  51  50  49  49  38  41  45  45
 112 103  88  80  78  71  63  55  53  56  54  46  38  35  32  30  31  33  35  34  32  36  40  75 109 110 110 116 113 119 123  72 101 146 146 146 155 151 151 153 157 164 171 175 176 183 180 177 146 119 100  64  47  49  47  44  42  41  43  46  48  49  52  57  63  70  79  89  95 102  79  50  47  78 106  95  66  74  63  59  52  39  38  42  37  37  37  37  36  36  35  35  35  37  37  37  36  36  35  35  35  36  35  34  33  33  33  33  34  37  36  36  40  45  50  53  54  53  52  51  51  49  49  48  47  43  46  48  49
 110 101  88  80  77  69  62  55  55  57  56  48  40  29  28  27  29  32  34  34  34  46  65 101 121 114 112 118 116 129 118  69 122 146 154 153 159 168 165 163 163 164 165 164 163 148 141 137 107  87  80  56  47  52  50  48  45  44  43  44  44  45  44  42  40  42  47  56  62  64  55  43  38  48  62  68  66  67  57  54  48  37  37  41  36  37  37  37  36  36  35  35  35  35  35  34  34  34  33  33  33  35  35  34  33  33  33  33  33  36  35  35  38  44  50  54  56  53  53  52  50  49  48  47  46  44  46  48  49
 110 100  89  81  77  66  61  56  56  58  56  48  41  30  28  26  26  29  35  41  45  65  91 118 124 116 115 118 115 133 111  66 136 140 150 146 146 145 140 134 129 123 118 112 109  97  91  90  66  56  61  48  46  50  50  49  49  49  48  49  49  49  50  49  47  43  40  39  40  40  39  39  41  43  49  61  74  55  47  47  45  36  38  43  39  37  37  37  36  36  35  35  35  34  34  34  33  33  33  33  33  35  34  33  33  32  32  33  33  35  34  34  37  44  50  55  57  55  54  53  52  50  49  48  47  43  43  43  43
 109  99  90  82  76  63  60  57  56  57  53  45  37  32  30  27  28  34  47  61  70  91 112 124 120 118 119 117 114 123  96  56 128 123 126 121 115 105 103  99  97  95  92  88  85  89  84  83  62  53  60  48  47  43  44  44  45  46  46  46  46  41  44  47  48  47  44  43  43  49  45  44  46  43  39  42  49  49  42  44  43  36  38  43  38  37  37  37  36  36  35  35  35  34  34  34  34  34  35  35  35  35  34  33  32  32  32  32  33  34  33  34  37  44  50  54  56  56  56  55  54  52  51  50  50  46  46  43  43
 107  98  90  81  72  62  59  57  56  54  48  39  31  26  27  30  36  47  64  81  92 112 124 121 114 120 120 112 112 113  89  53 111 110 104 102  95  98  98  97  98 100 100  98  96  93  89  89  67  59  64  52  50  46  45  45  45  44  44  43  43  43  44  44  44  43  44  46  49  49  45  44  47  47  44  41  40  49  43  45  44  36  37  40  34  37  37  37  36  36  35  35  35  34  34  35  35  35  36  36  36  34  34  33  32  31  31  32  32  33  33  35  39  45  50  52  53  56  56  55  55  54  53  53  52  54  53  49  49
 104  96  88  78  68  60  59  57  55  51  43  32  24  26  34  46  59  72  85  98 105 117 124 114 107 117 112 101 105 108  91  56  95 107  93 100  95  95  94  94  95  95  95  92  90  89  85  86  65  57  63  51  50  51  50  48  47  46  46  46  47  49  49  48  45  42  42  44  46  36  39  42  44  46  50  52  50  48  42  45  46  38  38  41  35  37  37  37  36  36  35  35  35  34  34  34  35  35  36  36  36  34  33  32  32  31  31  32  32  32  33  36  41  46  50  50  49  54  54  54  54  54  54  54  54  55  54  51  52
 101  93  86  76  64  60  59  57  54  49  39  28  20  38  51  70  87  99 106 111 114 113 119 107 102 112 102  89  98 104  91  57  81 104  87 101 100  92  92  92  93  94  94  91  89  94  88  88  65  56  61  49  47  49  48  46  45  45  46  48  49  40  43  46  47  46  44  43  43  36  45  47  41  36  40  44  43  44  39  44  46  40  41  45  39  37  37  37  36  36  35  35  35  33  33  33  34  34  35  35  35  34  33  32  31  31  31  31  32  32  33  37  42  47  49  49  47  52  52  53  53  53  54  54  54  50  50  47  50
  93  88  77  65  64  54  61  58  52  46  30  22  31  70  84  98 103 103 104 103 101  99  99  98  97  95  93  91  90  95 106  54  73  97 105  92  93  93  94  94  93  93  91  90  89  87  90  90  75  56  57  59  48  47  47  47  46  46  45  45  45  49  48  47  47  46  45  44  44  44  43  42  41  40  39  39  39  40  40  41  41  41  42  42  42  34  39  41  37  34  36  37  37  36  35  33  31  31  32  33  34  37  37  35  33  31  31  33  36  26  39  44  39  43  55  55  46  41  46  45  47  54  51  47  53  54  48  47  57
  92  87  77  65  64  56  62  57  49  41  27  22  34  79  88  94  94  93  94  94  92  95  95  95  94  93  91  89  88  93 100  57  65  93  98  92  90  92  92  92  92  91  90  88  88  85  87  88  74  55  55  57  46  46  46  46  46  46  46  45  45  48  48  47  46  45  44  44  43  45  44  43  42  41  41  41  41  41  41  40  40  39  39  38  38  43  47  48  42  38  39  40  38  35  34  33  33  32  32  32  33  34  35  35  33  32  32  34  36  33  37  37  35  41  52  55  51  47  52  49  48  54  51  46  52  53  46  48  63
  90  85  75  64  63  58  62  55  44  35  23  23  38  83  86  85  81  80  84  85  83  89  89  90  90  90  89  88  87  93  94  65  57  89  90  93  89  90  90  90  90  89  88  86  86  83  84  86  73  54  53  54  45  45  45  45  46  46  46  46  46  47  47  46  46  45  44  44  43  45  45  44  42  42  41  42  42  41  41  40  39  37  36  35  35  40  44  44  39  36  37  37  35  33  34  34  34  33  33  32  31  30  31  32  32  31  30  32  33  34  35  39  45  50  50  45  40  53  58  54  50  55  53  48  53  52  45  50  70
  87  83  74  63  62  60  61  51  38  30  21  24  42  77  77  75  72  74  81  83  80  84  85  86  87  88  88  88  87  94  91  77  54  84  86  96  89  89  89  89  89  88  87  86  85  82  82  85  74  55  52  54  45  44  45  45  45  45  46  46  46  46  46  45  45  44  44  43  43  44  43  42  41  41  41  41  41  40  40  39  38  37  36  36  35  32  36  36  33  33  36  36  34  32  33  34  35  35  33  31  30  27  29  31  31  29  27  27  28  35  33  37  46  50  48  45  46  49  57  54  50  56  55  50  52  49  44  53  74
  84  80  72  62  61  60  59  45  32  27  21  26  44  69  71  71  70  73  79  80  77  81  82  84  85  87  88  88  88  92  88  84  53  74  83  95  88  89  89  90  89  88  87  86  85  83  82  85  77  58  53  54  47  45  45  45  45  45  45  45  45  44  44  44  44  43  43  43  43  42  41  40  39  39  39  40  40  38  38  38  38  38  38  38  38  35  38  38  35  36  40  40  36  32  33  34  35  35  33  31  30  31  33  34  33  30  28  28  28  38  32  31  37  43  46  52  58  38  49  47  43  50  51  46  46  46  46  57  75
  81  77  70  61  60  59  54  38  27  28  25  28  43  64  69  72  71  73  76  76  73  79  80  82  84  86  87  87  88  86  85  87  56  61  83  90  85  89  89  89  89  88  87  85  85  84  82  85  79  61  54  55  49  46  45  45  45  44  44  43  43  43  43  43  43  43  43  43  43  40  40  39  38  38  39  39  40  37  37  37  38  38  39  39  39  39  40  39  36  36  39  37  33  33  34  34  34  33  33  32  31  36  37  37  36  34  32  33  34  35  36  41  52  62  60  46  33  34  45  40  32  38  42  38  39  43  51  64  74
  79  75  69  60  59  57  49  32  25  30  29  30  40  59  67  72  71  70  73  74  74  78  79  80  82  84  85  86  86  83  86  89  63  51  87  86  85  87  87  87  87  86  85  83  83  84  81  85  80  62  54  54  50  47  47  46  45  44  42  42  41  42  42  42  42  42  42  42  42  41  40  39  39  39  40  40  41  37  37  37  37  36  36  36  36  36  37  35  32  34  37  35  29  35  34  33  33  32  32  32  33  35  36  36  35  34  35  38  40  34  38  47  67  90  92  62  26  47  54  42  26  29  35  34  36  41  57  72  75
  78  74  68  60  59  55  46  28  23  32  32  31  39  54  64  70  69  68  72  76  78  76  77  79  81  82  83  84  84  83  89  92  71  47  93  86  87  85  85  85  85  84  83  82  81  83  79  84  80  62  53  53  50  48  47  46  45  43  42  41  40  42  42  42  42  42  42  42  42  41  41  40  40  40  41  42  42  38  37  36  35  34  33  32  32  33  34  33  32  35  40  39  34  36  35  33  31  31  32  33  34  31  31  32  31  32  35  39  43  40  35  34  54  96 122 102  65  63  66  48  26  26  33  34  37  40  62  78  76
  77  66  61  59  58  54  35  22  27  33  31  30  35  57  63  67  67  68  71  73  71  74  76  78  81  83  83  83  83  86  81  93  78  43  80  78  86  84  84  84  83  83  83  82  82  79  82  83  77  66  56  51  50  46  46  46  45  45  45  44  44  43  43  43  42  41  40  39  38  41  40  39  38  38  38  39  39  39  39  38  37  36  36  36  36  34  34  34  34  34  34  34  34  33  33  33  33  33  33  33  33  35  34  34  33  32  31  30  30  34  40  39  31  47  94 118 104  54  38  31  35  36  32  40  56  70  74  79  79
  75  65  61  59  57  45  29  20  24  28  26  26  31  53  62  68  67  67  70  72  72  74  75  78  80  82  82  83  82  84  81  90  79  52  69  80  86  84  84  83  83  83  82  82  82  79  82  82  76  66  56  51  51  45  45  45  44  44  44  43  43  42  42  42  42  41  40  39  38  41  40  39  38  38  38  38  39  38  38  37  36  36  36  37  37  34  34  34  34  34  34  34  34  33  33  33  33  33  33  33  33  34  33  33  32  31  30  30  29  33  39  46  38  30  56  99 120  53  30  20  34  46  45  47  56  73  75  77  77
  72  64  61  58  54  35  26  21  25  26  23  24  30  48  59  69  68  65  67  71  73  73  74  76  78  80  81  81  82  82  81  85  81  65  53  80  86  83  83  83  82  82  82  81  81  78  81  81  76  66  57  52  50  44  44  43  43  43  42  42  42  40  40  41  41  41  40  40  39  40  39  38  38  37  37  38  38  36  36  36  36  37  37  37  37  34  34  34  34  34  34  34  34  33  33  33  33  33  33  33  33  32  32  32  31  30  29  29  29  34  32  43  43  24  29  71 111  50  28  21  40  54  51  52  62  77  75  74  75
  68  62  60  55  49  30  26  26  29  28  24  26  32  42  56  68  68  64  65  69  73  72  73  75  76  78  79  80  81  80  81  81  82  77  41  78  85  82  82  82  82  81  81  81  80  78  79  79  75  66  58  53  50  42  42  42  41  41  41  40  40  38  39  39  40  40  40  40  39  39  39  38  37  36  36  37  37  34  35  36  36  37  37  37  37  34  34  34  34  34  34  34  34  32  32  32  32  32  32  32  32  31  31  31  30  30  29  29  29  35  24  31  42  33  31  50  69  41  30  32  48  54  49  56  72  79  76  72  72
  64  61  59  51  42  27  27  28  30  28  26  28  32  37  52  65  67  63  64  68  71  71  72  73  74  76  77  79  80  77  80  78  82  83  40  71  83  82  81  81  81  80  80  80  80  77  77  77  73  67  59  53  50  41  41  41  41  40  40  40  39  37  38  39  39  40  39  39  38  38  38  37  36  36  36  36  36  33  34  35  37  37  37  37  36  34  34  34  34  34  34  34  34  32  32  32  32  32  32  32  32  31  30  30  30  30  29  29  29  34  24  26  34  33  37  41  36  30  26  31  48  59  62  69  79  79  75  71  71
  61  60  58  47  33  25  26  27  27  26  25  26  28  34  48  61  65  64  65  68  68  70  71  71  72  74  76  78  79  76  78  76  82  82  50  60  81  81  81  80  80  80  79  79  79  76  76  75  72  67  60  54  50  41  41  41  41  40  40  39  39  37  38  38  39  39  38  37  37  38  37  36  35  35  35  35  36  33  34  36  37  37  36  35  34  34  34  34  34  34  34  34  34  31  31  31  31  31  31  31  31  31  31  31  31  30  30  30  30  32  29  31  28  23  32  40  33  26  29  37  52  73  86  86  79  76  74  72  71
  59  60  57  42  26  27  27  26  25  25  26  26  25  32  45  57  63  65  67  67  65  70  69  70  70  72  74  77  78  75  77  76  80  77  65  49  79  80  80  80  79  79  79  78  78  76  75  74  71  67  61  55  50  42  42  41  41  41  40  40  40  38  38  39  38  38  37  35  35  37  36  36  35  34  34  35  35  34  35  36  37  37  36  34  32  34  34  34  34  34  34  34  34  31  31  31  31  31  31  31  31  31  31  31  31  32  32  32  32  33  28  31  30  23  28  38  37  33  58  77  80  85  95  92  79  71  72  73  72
  58  59  56  40  21  30  29  26  25  26  29  28  25  31  43  55  61  66  69  67  63  69  69  69  69  71  74  76  78  75  76  77  80  73  76  42  77  80  80  79  79  79  78  78  78  75  74  73  71  67  62  55  50  42  42  42  41  41  40  40  40  39  39  39  38  37  36  34  33  37  36  35  34  34  34  34  35  34  35  37  38  37  35  33  31  34  34  34  34  34  34  34  34  31  31  31  31  31  31  31  31  32  32  32  32  32  32  32  33  36  23  26  36  34  32  36  35  43  93 126 113  90  87  88  81  68  71  74  73
  66  62  44  29  25  26  24  22  24  28  29  26  22  32  41  54  62  64  64  66  68  70  70  70  71  72  74  75  76  79  75  75  80  80  72  63  60  74  77  79  77  78  79  75  69  72  74  77  77  72  63  54  48  44  43  41  41  41  41  40  38  39  39  39  38  38  38  37  37  38  38  37  36  35  35  35  35  36  35  35  34  33  32  31  31  34  34  34  34  34  34  34  34  32  32  32  31  31  30  30  30  36  18  32  42  25  29  38  21  26  46  47  32  27  31  36  43  43 140 114  94  84  84  84  73  73  73  72  72
  63  57  40  27  24  26  26  27  27  26  25  25  26  32  41  52  60  63  64  66  67  68  68  68  69  70  72  74  74  75  74  75  77  78  74  64  56  77  80  80  77  78  80  79  75  73  75  76  76  71  62  54  48  44  42  41  40  41  41  39  37  39  39  38  38  38  37  37  37  38  37  36  35  35  35  35  35  36  36  34  33  32  32  32  32  34  34  34  34  34  34  34  34  32  32  31  31  30  30  30  30  26  31  38  25  25  67  76  27  28  49  59  42  25  25  23  14  52 134 103  84  73  74  79  76  83  82  81  81
  60  50  33  24  24  24  28  30  28  24  23  26  31  32  39  49  57  62  64  65  66  67  67  67  68  69  70  72  73  71  75  74  73  76  78  67  51  77  79  79  75  76  79  80  78  73  74  75  73  68  60  53  48  43  42  40  40  41  40  39  37  38  38  38  37  37  37  36  36  37  36  35  35  34  34  35  35  37  35  33  32  31  31  32  33  34  34  34  34  34  34  34  34  31  31  31  31  30  30  30  30  24  36  38  22  43 110 125  70  31  42  59  52  34  42  48  28  79 135  99  83  73  74  79  84  86  85  84  83
  56  43  29  23  26  24  26  27  27  25  26  30  33  33  37  45  53  60  64  65  65  66  66  67  67  69  70  72  73  69  76  75  70  76  82  71  51  69  74  75  73  73  75  76  74  71  71  71  68  64  57  51  47  43  41  39  39  40  40  38  36  37  37  37  37  36  36  36  35  36  35  34  34  34  34  34  35  35  34  32  30  30  30  32  33  32  32  32  32  32  32  32  32  31  31  31  30  30  30  30  30  35  32  31  31  55 107 130 110  59  38  42  41  20  25  37  21  99 128  91  86  81  83  79  83  78  77  76  74
  51  38  27  25  28  24  23  22  25  30  34  34  34  34  35  40  49  59  64  65  63  67  67  67  68  69  71  72  73  69  76  76  71  75  83  74  56  60  68  73  72  71  71  70  67  67  66  64  62  58  53  49  46  42  40  38  38  39  39  37  35  37  36  36  36  35  35  35  35  34  34  33  33  33  33  34  35  34  33  31  30  30  30  31  32  31  31  31  31  31  31  31  31  31  31  31  31  31  31  32  32  35  30  29  31  42  70  97 106  86  41  35  49  36  36  50  46  89 100  71  79  83  89  73  71  70  69  68  66
  45  33  26  26  29  26  24  24  29  36  40  38  35  34  33  36  45  57  64  65  62  67  67  67  68  69  70  72  73  70  75  75  72  75  79  75  65  55  64  71  71  68  67  64  61  60  59  57  54  51  48  46  45  41  39  38  37  38  38  36  35  36  36  35  35  35  34  34  34  33  32  32  32  32  33  34  34  33  33  33  33  33  33  33  33  32  32  32  32  32  32  32  32  32  32  32  33  33  33  33  34  23  38  41  31  35  58  81  92  97  60  58  80  80  77  86  90  71  74  59  74  80  92  71  65  69  69  67  66
  38  29  26  27  28  28  30  33  37  40  41  39  38  35  32  33  42  56  64  64  61  65  65  65  66  67  69  70  71  71  72  73  73  73  73  73  72  51  60  66  64  60  58  57  55  54  52  50  47  45  44  44  44  41  39  37  37  38  37  36  34  35  35  35  34  34  34  33  33  32  32  31  31  32  33  34  34  34  35  37  38  39  37  36  35  36  36  36  36  36  36  36  36  33  33  34  34  34  35  35  35  37  57  62  55  59  71  80  85  88  78  75  81  78  71  70  74  67  71  66  76  75  91  72  68  70  70  69  68
  34  26  25  26  26  30  36  43  45  42  40  39  41  35  31  31  41  55  64  64  61  64  64  64  64  66  67  69  70  70  69  71  73  71  67  70  77  48  56  60  56  51  51  52  51  50  48  45  43  41  41  42  43  40  38  37  37  37  37  35  34  35  35  34  34  34  33  33  33  31  31  31  31  31  32  33  34  36  38  41  43  43  41  38  36  38  38  38  38  38  38  38  38  34  34  34  35  36  36  36  37  72  77  79  84  88  77  68  74  54  70  71  63  65  68  69  75  72  78  76  79  68  85  69  70  69  68  68  68
  33  28  27  30  33  44  44  43  42  41  39  37  36  37  32  29  35  48  59  63  63  62  64  66  68  68  67  64  63  65  64  60  57  63  71  68  58  50  47  48  50  48  42  40  43  40  37  40  47  46  38  34  36  32  36  39  35  28  25  30  36  34  33  32  31  31  31  32  32  31  31  31  32  33  34  36  36  35  35  35  35  35  35  35  35  35  35  35  35  36  34  32  31  30  32  31  27  27  37  56  70 100 103  85  74  78  66  57  73  68  71  76  67  73  78  63  69  55  63  61  76  58  71  76  74  68  68  68  67
  32  27  28  33  40  44  44  44  44  43  41  40  39  37  32  28  31  41  52  60  63  60  60  60  59  59  58  57  57  54  53  50  47  52  60  60  55  52  45  38  41  50  54  50  42  40  47  44  31  27  35  38  33  27  30  32  33  32  31  32  33  31  30  29  28  28  28  28  29  28  28  28  29  29  31  32  33  32  32  31  31  31  31  31  31  26  27  28  27  27  31  39  46  30  32  40  46  42  45  72 105 103 103  85  74  82  78  67  73  69  65  66  55  53  53  49  74  97  79  60  77  59  72  78  67  73  73  73  72
  34  32  34  41  49  46  46  46  45  44  43  41  40  36  32  28  27  31  41  52  59  57  55  53  51  50  50  50  51  47  47  45  41  44  51  57  58  58  55  45  37  39  47  44  34  30  37  41  36  30  28  28  27  32  31  31  32  34  33  28  24  31  30  29  28  28  28  28  28  28  28  28  28  28  30  31  32  31  30  30  29  29  28  28  28  32  34  34  30  27  32  45  56  33  28  37  52  51  44  64  95  99 104  91  80  86  85  71  64  45  33  34  29  25  18  23  65 157 109  66  85  67  78  86  65  71  71  71  70
  40  45  46  49  53  49  49  48  46  44  41  39  37  35  33  30  27  26  31  40  48  48  48  47  46  45  45  45  45  46  47  46  43  43  48  57  63  39  54  58  47  45  60  73  76  34  33  52  78  71  39  27  40  32  31  30  32  33  33  30  27  34  33  32  31  31  31  31  32  31  30  30  30  31  32  33  33  32  32  31  31  30  29  29  28  27  28  28  26  23  24  28  32  35  24  24  39  49  47  49  56  84  99 100  88  84  83  73  61  43  21  22  28  31  22  24  67 195 130  69  91  73  77  90  65  68  68  68  68
  46  56  54  50  49  53  52  50  46  43  39  35  33  34  35  35  31  26  26  30  34  36  37  39  41  42  41  40  39  41  41  41  40  39  42  52  60  46  59  61  47  43  55  66  68  33  30  49  73  66  34  24  37  25  28  30  31  31  32  35  37  35  34  33  32  32  32  32  33  31  31  31  30  31  31  32  33  31  31  31  30  30  29  29  29  26  28  33  41  47  48  44  39  43  38  32  32  42  53  55  49  68  87  98  87  75  81  90  88  66  34  23  26  36  30  26  59 197 137  66  89  72  68  84  64  69  69  70  70
  52  60  53  46  47  54  53  50  47  43  38  35  32  34  36  37  35  30  26  25  26  26  28  32  35  36  35  33  32  29  29  31  35  36  37  44  53  84  79  65  51  48  50  42  30  34  40  41  34  28  29  32  33  39  41  42  40  35  32  31  32  32  31  30  29  29  29  29  30  28  28  27  27  27  28  28  29  27  27  27  27  27  27  27  27  30  33  43  60  77  85  83  78  65  70  62  43  36  47  57  58  62  70  83  79  71  87 112 117  92  61  38  21  25  27  22  46 189 150  69  87  77  66  82  69  69  69  69  70
  61  60  47  45  54  53  52  51  48  45  41  38  36  34  35  37  36  33  29  27  26  26  27  28  30  30  30  30  29  25  25  30  39  44  45  49  56  83  73  63  62  66  66  58  49  50  54  49  35  34  47  56  56  59  59  58  57  52  45  35  28  30  29  28  27  27  27  27  28  26  25  25  24  24  25  25  26  23  23  24  24  25  26  26  26  24  25  31  44  60  74  83  86  83  85  79  64  52  49  52  55  67  59  68  78  79  95 112 107 102  90  72  36  28  35  33  52 186 166  74  85  85  69  81  76  71  71  71  72
  70  59  42  46  64  52  52  51  49  47  44  42  41  35  35  35  35  34  33  31  29  31  31  29  28  28  29  30  31  30  29  36  49  57  58  61  67  54  51  50  50  46  39  36  39  42  38  39  46  50  50  55  63  63  62  64  69  73  67  54  41  30  29  28  27  27  27  27  28  26  26  25  24  24  24  25  25  22  22  23  24  26  27  28  28  34  32  29  31  40  55  71  82  85  76  75  82  81  69  57  53  75  54  62  84  91  99  96  75  76  87  82  39  22  31  31  47 182 174  73  78  86  69  77  74  78  78  79  79
  64  57  54  51  47  46  45  44  42  41  41  41  42  44  41  38  37  37  34  29  25  29  27  25  27  31  33  33  31  30  43  57  65  66  63  59  54  48  49  51  51  50  47  44  41  44  45  46  46  45  43  41  39  46  53  61  66  66  66  68  70  49  37  28  27  27  24  25  29  28  27  26  24  24  25  26  27  20  23  26  29  30  29  27  25  28  27  30  34  31  31  49  70  86  79  75  79  84  83  79  77  70  58  55  67  77  78  79  85  74  79  84  51  24  25  30  50 181 164  78  78  87  58  87  89  81  82  83  80
  57  51  52  53  52  45  44  41  40  41  44  48  50  50  46  42  39  38  35  31  28  28  29  30  29  28  28  33  36  49  54  59  58  54  49  46  44  46  47  47  47  46  45  45  44  50  50  50  49  48  45  43  41  43  44  48  53  60  67  71  72  64  52  39  33  29  25  27  32  27  26  25  25  25  26  27  28  25  27  29  30  30  28  25  23  26  27  30  30  28  29  39  51  67  79  90  91  86  81  81  82  74  60  53  60  67  69  73  81  76  75  83  67  55  51  31  28 195 166  74  72  86  66  93  89  76  71  67  67
  54  52  55  57  56  48  46  42  40  41  45  49  53  53  50  45  42  39  36  33  31  27  31  34  30  25  27  38  47  61  60  57  54  50  49  51  54  48  47  46  45  44  44  44  44  42  43  44  46  47  47  47  47  45  41  38  42  52  61  66  68  76  66  54  43  32  26  27  32  26  25  25  25  26  27  28  29  29  30  30  30  28  26  23  22  22  27  29  27  28  33  37  37  44  64  82  85  83  84  83  80  74  60  49  51  57  62  73  84  78  71  77  69  70  74  55  50 183 160  82  78  84  67  91  87  64  53  44  45
  56  58  60  58  55  52  50  46  43  42  42  44  46  49  48  46  44  41  37  33  31  29  31  31  29  29  36  49  60  62  56  51  49  47  47  52  57  50  50  50  49  48  46  45  44  41  42  43  44  46  46  47  47  49  45  40  40  44  50  54  56  73  70  64  54  41  30  26  26  24  25  25  26  27  28  29  30  29  29  29  27  26  24  23  22  20  26  28  26  32  43  45  38  37  49  58  63  75  89  89  79  92  79  67  65  70  79  94 108  76  71  79  72  73  80  74  80 121 122  83  84  78  60  88  89  49  38  28  29
  53  56  57  55  52  51  50  49  47  45  43  42  41  42  43  45  45  41  36  32  29  33  29  27  29  38  50  60  65  56  48  42  41  37  31  30  34  44  47  51  54  54  52  49  47  51  50  49  47  46  44  44  43  48  49  49  46  43  42  44  47  60  66  70  65  54  41  30  23  24  25  26  27  28  29  29  30  26  25  24  24  23  23  23  23  23  27  28  27  36  49  50  41  43  47  48  48  59  76  86  85  96  86  75  68  67  72  84  95  75  68  78  75  77  82  70  73  65  76  65  75  70  63  90  89  38  33  27  25
  49  49  48  49  51  45  46  48  49  50  49  48  47  41  44  46  45  41  35  31  29  34  29  28  37  51  60  60  56  42  35  34  38  36  27  22  23  33  38  45  51  54  53  51  48  39  39  39  39  40  41  43  44  41  46  51  50  45  42  43  46  48  58  68  69  63  52  37  26  25  26  27  28  29  29  29  28  24  23  22  21  21  22  24  25  29  30  30  33  41  48  46  40  42  47  48  41  35  42  61  79  84  80  72  61  52  50  54  59  75  53  49  48  62  75  66  69  69  68  61  70  69  74  91  77  34  35  34  31
  52  50  46  45  49  44  45  47  50  52  54  56  57  50  51  50  45  39  33  31  32  31  31  37  49  61  62  50  37  31  26  29  41  44  35  29  31  27  31  36  41  44  44  43  41  26  26  27  28  31  34  37  39  38  41  45  48  49  48  47  47  41  50  58  60  60  56  43  31  26  27  28  29  29  29  28  27  26  24  22  20  20  22  24  26  32  30  34  43  49  47  43  41  39  39  41  39  28  21  35  55  73  77  77  70  59  52  51  51  57  33  28  24  35  52  53  65  76  73  72  76  69  76  89  70  31  34  37  36
  61  59  49  44  45  48  48  48  50  53  56  60  63  59  58  53  45  37  32  33  35  29  34  46  60  67  59  38  21  30  24  29  43  46  36  29  30  28  29  31  33  33  33  32  31  35  34  31  29  27  26  26  26  39  39  40  45  51  52  49  45  38  44  48  49  52  54  45  33  27  28  29  30  30  28  27  26  28  26  23  21  20  22  24  26  32  30  37  53  58  51  44  45  44  33  32  41  39  27  26  37  45  55  63  62  55  49  46  45  28  23  35  31  26  27  24  41  49  59  77  81  65  72  89  77  27  31  34  36
  60  59  51  45  44  44  43  44  48  55  60  61  60  67  55  66  57  33  31  34  33  36  44  60  69  56  33  25  32  27  27  28  28  29  30  31  31  29  28  28  30  33  35  36  36  27  32  35  33  28  24  24  27  25  28  32  36  39  42  44  45  45  42  41  43  43  39  33  28  40  34  29  29  31  30  28  28  26  26  24  21  20  23  30  36  31  35  41  48  53  52  47  43  37  37  36  35  33  31  30  30  39  38  40  45  50  51  46  41  35  33  28  25  26  30  31  29  25  41  41  39  46  45  62 101  34  27  32  39
  60  60  55  50  50  48  44  41  42  47  54  59  61  61  63  61  45  35  36  32  32  50  54  63  69  56  35  26  30  28  28  28  29  29  30  30  30  29  29  29  31  32  33  32  31  30  36  41  41  35  30  29  30  26  27  29  31  33  37  41  44  38  32  29  33  35  33  35  39  62  53  40  31  29  31  30  26  29  25  21  21  25  30  33  34  32  38  47  53  55  52  46  42  39  37  36  35  35  34  33  32  41  43  47  52  55  53  47  41  29  25  22  23  28  32  33  30  28  45  51  57  63  54  64 102  53  35  26  28
