P2
72 80
255
  78  76  75  76  75  75  76  78  79  80  80  82  83  85  87  89  89  89  88  89  84  79  78  80  82  82  80  75  75  78  83  83  79  75  74  72  69  65  62  62  65  69  72  63  65  66  67  66  66  68  70  70  72  75  79  82  82  79  76  83  80  77  77  78  78  77  74  76  80  70  55  53
  78  77  76  78  78  79  79  80  82  84  86  82  83  85  86  86  86  84  84  88  85  83  83  85  84  79  75  72  72  76  82  82  76  73  75  71  69  67  65  64  64  65  66  64  66  68  68  67  67  68  70  68  69  72  76  80  80  78  76  80  80  80  81  80  78  74  71  78  81  76  59  47
  77  76  75  78  79  78  77  76  77  79  82  81  82  83  84  84  83  82  81  82  83  83  84  84  81  76  72  71  69  73  81  80  73  72  77  75  74  71  68  65  63  62  61  64  66  69  69  68  67  68  69  67  68  70  74  78  79  77  75  81  82  82  82  80  77  74  71  74  77  79  65  46
  75  74  71  73  74  74  72  71  72  75  79  79  80  82  84  84  84  83  82  79  81  84  84  81  79  77  76  73  69  72  80  78  69  70  78  77  75  71  67  65  65  66  66  64  66  68  69  68  67  67  68  67  68  70  73  77  78  77  75  81  80  78  75  72  71  70  71  66  70  79  68  45
  74  72  68  70  72  73  73  72  75  80  85  73  75  77  79  81  82  81  81  79  82  85  84  81  80  82  84  75  70  72  79  76  66  67  77  75  72  68  65  65  68  73  76  63  65  68  68  67  66  66  66  68  68  70  73  76  78  76  75  79  77  72  67  63  63  66  69  61  65  79  69  42
  73  72  68  70  73  72  69  73  79  77  71  70  70  72  76  81  83  82  81  81  81  81  81  81  81  82  82  74  72  70  69  69  70  72  73  77  74  68  59  54  56  64  71  65  64  63  64  66  68  68  68  70  68  67  67  70  75  81  85  74  76  65  56  62  62  55  55  55  58  59  55  49
  72  72  69  72  73  72  69  72  78  78  72  72  72  74  78  81  83  82  80  82  82  82  83  82  82  81  81  75  74  71  68  67  68  72  75  70  71  72  70  68  66  66  67  60  59  58  59  62  64  66  67  69  69  69  70  72  75  78  80  79  81  68  56  60  61  56  58  54  55  55  52  49
  72  73  71  74  74  72  70  73  77  78  75  76  76  77  80  82  83  81  80  82  82  83  83  83  81  79  78  77  76  73  68  64  66  72  78  69  69  70  71  72  71  68  66  60  60  58  58  59  62  65  67  66  67  69  71  73  74  74  74  76  79  66  53  55  56  54  59  53  52  50  49  48
  73  74  73  75  75  73  72  74  77  79  79  79  79  79  81  83  83  81  79  80  81  82  82  81  79  76  75  76  75  72  67  63  65  73  80  71  65  59  57  59  63  64  64  65  64  63  61  60  61  64  67  65  65  67  69  70  72  73  73  77  82  71  59  61  61  58  63  55  51  47  45  47
  75  75  75  76  75  75  76  76  76  78  81  81  81  81  82  84  84  81  79  78  78  79  78  77  76  74  72  74  73  71  67  64  67  73  78  65  57  47  43  45  49  53  54  60  61  61  59  58  59  62  66  68  67  67  68  70  73  76  78  71  76  67  57  59  56  50  51  56  51  46  44  45
  78  77  77  76  75  77  80  79  76  78  82  81  81  81  83  84  84  81  79  76  76  75  75  74  73  73  73  74  72  69  67  67  67  68  69  50  47  43  41  41  41  42  42  52  55  58  58  56  57  61  65  71  70  69  69  71  73  76  78  77  81  71  63  68  66  57  54  54  50  46  43  43
  81  78  78  75  75  78  83  82  77  77  82  81  80  80  82  84  84  81  79  77  75  74  72  72  73  75  76  76  73  70  69  70  67  61  56  43  44  44  42  41  40  41  43  58  63  66  66  62  60  62  65  69  69  69  69  68  68  68  68  79  80  70  66  79  83  75  72  50  48  45  43  42
  83  79  78  74  74  79  86  84  77  77  82  80  79  80  82  84  83  81  79  78  76  73  71  72  74  77  79  79  75  70  70  71  67  56  46  45  46  45  41  39  41  47  52  73  78  81  78  71  65  64  65  64  65  66  66  65  61  57  55  38  38  28  28  48  59  56  54  45  45  45  44  42
  80  81  83  76  78  80  82  83  82  80  79  79  78  78  79  80  79  76  74  77  78  79  77  74  71  70  71  76  78  79  74  64  55  49  47  45  35  36  45  42  36  52  79  80  78  71  63  61  64  65  63  63  64  63  62  63  61  50  38  34  45  30  29  40  34  35  47  33  37  42  46  47
  82  82  84  79  80  81  82  83  82  81  80  83  81  79  79  80  81  80  79  79  80  81  80  77  75  75  75  77  79  78  72  63  53  46  44  42  41  39  38  42  54  71  83  77  75  69  61  60  65  68  67  63  66  67  67  70  70  64  56  68  66  48  39  38  33  35  41  45  46  48  51  52
  83  84  85  81  80  80  79  79  79  79  80  84  82  79  78  79  81  81  80  78  80  81  81  79  77  77  78  80  79  75  68  58  49  43  40  39  46  42  35  47  74  87  83  72  72  66  60  61  69  75  77  75  79  81  80  81  82  80  75  80  62  50  41  37  45  53  51  64  60  54  50  47
  82  82  83  79  78  76  74  74  75  77  78  80  79  77  78  79  80  79  77  76  78  80  80  78  77  77  78  82  78  69  59  50  44  41  40  38  44  44  44  60  81  84  72  65  66  63  59  62  74  84  89  86  90  91  85  81  81  79  76  72  42  40  37  40  65  70  59  73  65  55  47  44
  81  80  80  80  78  76  74  74  75  78  79  78  78  78  80  82  81  79  76  78  79  81  80  78  76  76  77  82  74  61  49  42  40  41  43  41  38  44  61  74  74  64  55  54  57  56  54  60  73  87  93  84  87  85  78  72  70  67  64  71  40  46  44  52  79  70  53  69  61  51  48  52
  80  79  78  82  81  79  78  79  80  83  84  81  80  80  82  84  84  82  80  83  84  84  83  79  77  76  76  75  66  54  44  40  40  43  44  44  37  48  73  80  62  46  44  44  49  51  50  54  68  81  88  80  82  80  74  71  71  68  63  66  47  63  57  67  90  67  55  66  57  48  47  54
  81  80  79  82  81  81  81  82  84  86  87  84  82  79  79  81  83  84  84  85  86  86  83  78  74  72  72  64  57  49  43  42  43  43  43  46  42  54  74  75  55  42  43  44  49  52  50  52  63  75  81  80  81  80  77  79  81  76  69  48  51  78  65  75  91  60  64  61  52  43  42  49
  82  81  80  79  79  80  81  82  84  86  87  86  81  75  73  75  80  84  86  85  85  84  80  75  70  67  67  55  51  46  45  45  45  43  41  47  49  58  70  67  54  46  47  48  54  56  53  54  62  72  78  80  80  78  78  82  84  78  69  37  55  88  67  72  81  47  65  51  44  37  40  49
  74  71  69  76  75  75  78  83  90  97 100  87  84  79  71  67  69  77  83  87  83  79  78  78  75  67  60  60  42  42  51  47  42  42  41  51  64  67  60  63  72  32  51  51  49  51  54  53  52  60  72  78  74  76  79  80  83  72  49  46  62  64  86  61  71  70  46  42  44  48  35  48
  71  67  64  71  72  76  81  86  91  93  93  90  88  83  74  65  63  68  74  77  74  72  73  75  72  65  58  50  40  42  48  45  44  50  53  55  65 134 149  64  61  45  42  47  47  52  57  55  51  53  60  71  80  80  75  77  78  61  40  57  90  78  67  81  65  53  41  48  35  33  79  96
  67  63  59  63  67  74  83  89  91  89  86  91  92  88  78  66  60  63  68  71  69  69  70  71  67  60  53  46  45  45  44  41  43  49  54  78 114 217 222 116  49  50  38  41  45  52  59  58  51  47  47  55  77  76  68  77  71  49  40  68  85  81  55  74  62  70  43  43  40  32 117 146
  64  60  57  57  61  69  80  89  92  89  86  88  92  91  82  69  61  62  67  71  70  69  69  67  62  54  47  46  52  49  45  48  51  54  61  98 189 248 226 176  41  44  47  39  43  50  57  59  54  47  43  39  61  61  63  79  62  42  55  89  70  83  77  57  79 120  63  21  43  34  94 134
  63  60  57  55  56  63  74  85  92  92  90  87  90  90  83  70  61  59  62  67  67  66  65  62  57  50  45  45  52  47  46  58  61  62  75 117 233 223 207 158  42  44  54  42  44  48  53  57  58  54  48  37  45  44  60  77  51  39  73  84  68  67  75  36  69  96  46  17  42  33  53  92
  62  61  60  56  55  58  68  82  91  94  92  88  89  87  80  70  61  56  55  60  60  60  59  57  53  49  47  46  53  43  41  54  50  53  81 167 243 195 196  86  70  60  47  47  46  45  48  55  62  61  55  48  42  38  54  64  43  42  78  66  84  50  50  35  45  34  25  59  66  58  74  95
  60  62  62  58  56  58  67  80  90  92  90  90  88  84  80  74  67  61  57  60  60  59  57  54  51  49  49  46  53  42  41  50  41  55 104 217 218 178 152  59 132  93  48  51  49  44  44  54  64  64  56  59  48  41  45  44  41  53  75  66  81  49  41  50  48  52  63 108 105  88 116 100
  59  62  63  60  58  59  68  81  89  90  87  90  87  83  81  80  77  71  66  67  66  63  59  54  50  49  49  40  50  44  47  58  52  80 148 230 177 163  86  84 189 124  63  53  50  44  43  53  64  63  55  63  53  46  36  30  44  65  71  55  35  31  27  38  47 101 102 122 124  93 122  68
  62  62  60  60  60  62  69  78  84  85  84  83  81  80  80  80  79  76  74  68  60  60  60  52  53  53  45  44  49  45  45  61  63 107 211 207 153 146  55 117 179 159 140  84  59  40  40  47  48  48  51  53  66  54  53  54  44  53  57  23  27  39  54  61  61  62  65  93  59  69  63  53
  62  60  58  62  61  64  71  79  85  86  85  83  81  79  79  80  79  77  75  76  64  60  56  47  47  48  40  46  47  46  56  62  76 146 230 183 125 115  61 128 173 167 163 154 112  63  38  39  48  53  55  58  66  53  57  59  44  38  27  44  43  42  45  53  68  85  96  73  41  63  82  88
  60  58  56  63  63  65  71  80  85  86  85  82  80  78  78  79  79  78  77  78  64  58  53  46  50  54  48  48  48  47  65  60  96 197 234 147  92  77  65 128 146 159 170 169 155 123  83  52  39  37  38  39  48  42  52  55  48  53  44  38  39  42  55  84 114 123 118  82  54  80 103 105
  56  56  57  63  63  65  71  79  84  84  83  82  79  77  76  77  78  78  77  77  62  54  50  44  49  54  47  47  53  50  65  60 126 229 206 113  76  56  64 110 107 134 152 159 173 171 142 105  77  59  49  46  52  46  49  38  33  50  47  38  35  37  62 112 151 146 119  94  69  86  90  73
  53  56  60  63  62  63  69  77  81  82  80  80  78  76  75  76  76  75  74  73  59  53  50  45  48  49  40  43  57  53  60  73 167 240 156  84  73  55  62  90  85 114 130 169 172 170 165 163 159 141 120 133 128 117 114  90  68  65  41  56  47  37  47  86 125 128 109  84  56  60  53  39
  54  58  63  63  62  63  68  76  80  80  78  78  76  75  75  75  74  71  69  63  53  55  62  63  67  65  53  41  58  55  60 102 204 229 112  65  69  59  61  79  84 104 116 134 138 144 154 168 179 179 175 180 169 167 183 174 152 129  78  49  46  40  38  53  76  89  89  80  53  49  43  47
  59  62  65  64  63  64  69  76  80  80  78  75  75  75  75  75  72  67  63  56  52  62  77  82  85  78  62  47  56  55  64 133 221 199  82  60  58  54  55  72  85  86  98  85  92 106 119 125 129 137 146 129 120 131 161 160 153 145  99  41  39  36  38  44  53  60  64  73  62  63  55  63
  63  64  65  66  65  66  71  77  81  80  78  74  74  74  75  74  70  64  59  60  57  69  83  85  81  67  46  54  55  54  68 151 224 169  67  63  49  46  48  65  79  64  78  85  70  65  76  86  87  85  87  93  86  95 112  95  93 111  87  66  45  28  30  42  49  49  48  48  56  69  56  56
  66  66  65  68  68  69  72  75  78  79  79  75  73  71  72  73  71  66  60  46  60  63  64  76  75  57  44  46  62  49 107 163 222 138  46  62  56  49  46  49  55  60  62  76  69  62  58  60  65  72  75  79  83  85  86  89  90  85  78  44  42  36  29  40  48  40  47  49  53  50  41  42
  69  69  69  73  71  71  74  80  83  84  83  83  80  76  75  73  68  61  54  55  66  68  70  78  71  54  46  58  70  51 125 192 211 113  60  76  67  55  49  51  58  64  67  51  51  51  53  55  56  54  52  60  73  80  80  89 100  90  67  38  27  21  21  29  28  27  42  29  30  34  46  63
  72  73  72  76  73  71  75  83  87  87  85  91  87  82  79  75  69  60  53  58  69  76  83  87  70  50  48  55  63  53 143 205 174  66  56  56  51  46  45  49  51  49  46  45  44  43  44  46  46  46  45  50  68  76  72  82  96  79  45  37  26  24  35  38  31  39  56  62  44  33  42  57
  73  73  73  78  73  71  75  83  88  88  85  87  83  79  76  73  67  58  52  55  66  78  90  90  67  48  50  51  54  71 160 187 130  45  51  51  47  44  46  51  55  53  50  56  52  45  38  36  40  47  53  58  70  72  65  66  69  51  25  24  24  24  33  30  29  46  51  59  36  24  37  49
  73  73  72  81  77  74  77  83  88  89  87  81  77  73  70  68  62  54  48  50  57  62  69  70  53  43  52  58  54  90 152 137  95  58  56  55  50  44  43  46  51  55  56  54  58  59  54  46  42  44  49  66  64  61  55  47  38  29  24  25  35  29  28  23  41  79  69  43  29  28  43  48
  75  75  75  85  83  81  82  84  88  90  91  87  83  79  77  75  70  62  56  47  50  46  45  50  49  52  67  71  61  90 115  85  71  68  52  44  52  61  65  61  51  41  35  39  60  81  85  71  52  41  39  59  52  46  43  35  25  27  35  30  43  31  31  31  70 130 115  64  50  40  38  32
  80  81  81  85  86  85  84  82  84  89  93  92  89  87  87  87  84  78  73  59  69  67  68  83  97 106 117 116 111 113 107  98  95  82  53  50  69  91  99  88  65  44  32  30  59  88  93  74  51  42  42  50  46  40  33  30  31  32  34  23  31  18  28  27  60 124 104  63  53  42  33  26
  84  86  87  83  85  86  83  79  79  85  91  86  84  84  87  91  91  87  83  81 100 110 119 144 164 171 176 179 182 162 143 159 151 110  72  61  74  88  87  72  54  44  41  29  54  78  76  54  37  40  51  47  49  41  29  29  38  36  23  38  38  24  41  29  37  88  62  53  56  56  50  40
  88  90  92  89  87  86  86  87  87  86  84  83  82  83  85  83  82  87  95 116 144 138 135 175 200 199 206 211 215 199 188 182 174 143  78  60  74  76  77  77  52  37  51  18  53  74  61  40  39  49  56  44  35  26  26  32  35  29  22  25  35  37  24  28  66  88  75  48  62  74  71  55
  90  92  93  86  84  82  81  82  82  81  79  79  79  81  84  84  84  91  99 122 148 145 148 191 216 215 220 186 200 187 181 182 174 146  91  57  76  87  85  73  50  37  40  52  78  79  49  37  52  54  37  28  29  36  41  31  20  28  46  83  55  30  21  31  57  68  56  73  71  64  49  35
  91  91  92  86  84  81  79  79  79  77  76  76  76  78  83  84  86  94 104 119 142 144 149 181 194 184 183 160 189 188 194 204 190 154 105  62  66  87  97  70  40  37  46  88  86  66  42  41  55  48  27  32  28  34  40  28  18  43  82 142  90  50  43  43  44  43  37  60  57  51  46  42
  91  91  91  90  87  83  81  81  80  78  77  75  75  78  82  84  86  95 105 126 149 159 165 178 176 161 156 168 190 183 191 208 194 159 116  70  51  71  94  64  33  47  73  95  65  43  45  49  41  33  33  41  32  29  32  29  28  44  66  86  54  40  45  41  37  42  45  39  39  42  49  54
  93  94  94  93  89  85  82  81  81  80  78  77  76  78  81  83  85  94 105 121 143 162 173 180 179 178 182 197 195 172 176 192 185 161 121  65  50  61  69  49  46  72  91  70  47  36  45  46  31  26  35  30  32  31  29  30  32  30  26  47  38  40  44  39  40  46  43  46  41  37  39  45
  96  97  97  92  88  83  80  80  80  79  78  79  77  78  81  82  85  94 104 119 132 154 171 178 185 200 211 207 196 185 202 209 200 174 120  52  62  62  45  43  72  89  78  44  47  46  38  33  33  31  27  21  31  31  22  23  38  47  45  67  57  51  45  40  45  44  28  42  40  38  40  46
  95  95  94  91  88  83  80  79  80  80  80  78  76  77  80  82  85  95 106 130 136 160 184 192 198 208 214 200 184 196 228 224 215 194 127  50  67  62  50  65  84  74  52  41  46  43  33  29  33  33  27  28  28  27  28  37  52  64  68  47  35  33  34  34  41  45  37  34  40  48  53  54
  92  90  89  93  89  84  81  81  82  82  82  76  75  76  80  82  86  97 108 121 124 153 186 197 197 196 191 193 167 182 216 206 206 206 145  59  62  56  70  95  81  46  34  51  37  29  33  34  28  28  35  34  25  30  52  69  65  50  40  45  37  42  48  37  33  41  46  51  55  58  55  48
  91  90  91  89  87  84  82  82  81  80  78  79  89  80  75  76  95  83 114 120 134 172 186 188 188 181 193 196 175 191 202 198 191 209 161  65  44  77  87  69  49  28  48  33  32  32  33  34  34  31  29  32  47  62  62  49  38  36  40  41  40  40  41  44  49  53  56  56  55  57  60  55
  93  91  90  89  86  84  83  83  83  81  80  80  87  80  80  79  90  74 105 123 134 170 186 193 197 190 201 200 178 177 179 190 191 202 150  46  70  96  75  52  60  53  37  31  37  41  38  31  30  39  48  61  61  58  50  40  34  35  38  37  42  48  54  57  56  54  52  57  52  49  51  50
  96  92  89  87  85  83  83  84  85  84  83  83  85  79  85  82  84  62  95 121 128 161 179 192 199 190 197 190 173 152 140 169 186 197 146  65  83  82  59  26  19  31  19  40  31  24  26  38  53  62  65  57  50  41  36  37  41  46  48  52  54  58  59  57  52  46  42  44  44  48  53  53
  97  92  86  86  84  83  83  85  87  87  86  88  85  78  88  85  81  56  91 112 116 146 169 189 200 190 194 198 192 163 135 166 188 197 149  78  80  58  52  33  32  75  80  36  30  28  39  55  64  61  54  37  36  36  42  50  57  59  58  64  61  56  51  47  45  45  45  43  48  53  56  56
  95  91  86  85  83  82  83  86  87  88  87  91  88  79  88  85  82  56  90 103 105 138 167 198 217 211 215 214 223 205 171 186 192 191 137  81  84  52  37  33  57 105  97  28  45  64  68  58  45  39  39  44  49  55  61  63  63  61  59  57  54  49  47  47  51  55  59  61  62  58  51  50
  94  91  88  84  83  81  82  85  87  87  86  91  91  82  88  86  85  57  85 102 102 133 165 203 231 233 241 231 246 249 228 232 227 215 146  93  65  37  34  28  30  50  52  54  58  60  55  47  43  46  51  56  60  64  64  61  59  60  61  55  55  56  57  57  56  56  55  59  63  61  51  47
  94  93  93  84  82  81  82  84  86  86  85  89  95  87  89  86  87  55  74 107 101 123 148 183 217 225 237 240 243 251 246 251 248 237 154  84  36  29  45  46  40  42  63  71  58  44  41  50  61  66  66  58  59  60  60  59  59  61  63  61  62  64  64  61  56  51  47  46  55  61  59  55
  94  95  97  84  82  80  81  83  85  85  84  85  97  91  90  87  89  53  65 112 100 111 126 154 186 196 213 218 200 204 201 207 212 202 109  64  41  49  36  41  71  67  68  50  56  64  69  69  65  61  58  63  62  62  63  65  64  62  59  60  60  61  60  59  57  55  53  49  55  59  61  65
  96  99  97  86  83  80  79  81  84  86  87  90  91  90  88  88  84  72  59 111 110 115 130 151 171 182 186 184 180 175 181 198 194 146  90  48  40  38  53  77  92  84  70  69  66  64  62  63  62  61  59  67  55  59  67  62  60  63  62  62  60  57  56  60  64  62  57  58  59  60  60  58
  95  96  94  88  84  80  79  81  85  88  89  84  86  86  86  88  87  79  68  99 111 128 143 153 156 156 154 155 165 163 149 140 135 119  98  89  61  71 122 141 105  69  63  71  69  68  68  69  70  70  69  67  60  61  64  61  63  67  66  68  66  65  66  66  64  62  61  53  53  54  54  54
  93  92  88  92  88  82  79  80  82  84  85  78  81  82  83  87  90  86  78  84  94 106 112 113 117 127 136 167 154 126 103 103 119 122 113 104  69  85 152 172 122  79  78  70  68  65  65  66  66  65  64  66  67  66  62  59  58  56  51  65  59  59  63  62  56  54  58  51  51  50  50  51
  91  89  84  94  89  81  76  75  77  78  79  79  81  82  83  86  90  88  83  74  77  77  74  73  82 100 115 135 113  86  79 102 128 128 111  69  54  70 119 155 154 146 149 110 107 103 100  98  95  93  90  94 105 106 101 102 100  93  90  70  56  49  54  57  51  50  55  55  54  52  52  52
  90  87  82  88  83  77  73  74  76  77  78  83  86  86  85  86  89  87  83  74  76  78  78  77  77  80  83  70  82  94 102 110 117 111 101  78  67  59  65  75  80  82  82  88  84  80  76  73  70  67  64  58  72  72  71  83  87  88  97  94  73  56  55  59  58  56  58  59  57  55  53  52
  88  85  81  79  76  73  73  76  80  83  83  86  90  91  88  88  89  87  83  77  77  79  81  83  83  82  80 107 122 134 131 122 114 109 105  82  69  64  72  74  68  69  79  62  60  57  55  55  54  52  51  46  56  49  50  67  70  75 100 113  94  71  58  57  60  59  56  58  57  55  54  52
  84  83  79  79  78  77  79  82  85  86  86  85  90  93  91  91  92  91  87  77  75  72  71  73  78  82  85 140 136 127 115 106 102  98  94  80  67  61  66  64  50  43  45  43  41  40  41  43  44  44  44  47  57  52  59  77  66  62  93 108 100  80  57  49  56  58  53  54  55  55  55  54
  81  81  78  86  84  83  84  86  87  86  85  82  88  93  93  93  95  94  91  76  77  76  74  70  68  68  69  72  77  79  73  65  60  58  58  58  55  49  46  51  58  54  44  40  38  37  38  41  43  44  43  46  61  66  85 105  82  68  99  95  98  84  57  44  53  59  55  53  54  56  57  57
  88  87  87  86  85  89  86  78  85  94  91  83  92  95  89  84  86  88  87  80  76  71  67  66  64  62  60  57  62  57  53  59  57  52  55  49  48  48  49  52  58  64  68  69  58  32  42  36  57  53  61  75  77  90  97  80  60  73 104  97 103  98  77  58  52  57  62  55  60  61  57  56
  88  88  88  87  84  88  86  80  87  95  90  82  89  93  87  83  84  86  85  84  81  77  74  73  71  68  66  67  73  62  49  48  46  40  41  40  39  39  39  42  46  50  53  63  64  58  54  46  55  69  85  94  87  86  89  81  73  82 102  86  95 100  95  85  75  64  54  52  56  57  52  49
  88  88  88  88  84  86  85  82  91  97  89  81  86  89  86  82  83  84  84  88  86  84  83  82  79  76  73  75  82  65  41  35  34  29  28  30  30  29  30  31  33  36  37  37  36  41  52  74  90  98  97  81  74  73  78  86  89  92  95  79  77  72  70  73  76  71  63  67  69  67  57  49
  87  87  86  89  84  85  86  85  94  98  89  82  85  87  86  83  83  84  84  89  88  87  87  86  84  80  77  77  83  62  33  26  29  27  24  25  25  25  26  27  28  29  30  36  36  37  66  85  99  79  63  55  64  74  83  90  92  84  75  65  53  39  35  46  63  76  81  94  91  83  68  54
  86  85  85  90  85  86  87  86  94  98  88  84  85  86  87  86  85  85  86  87  86  85  86  86  84  81  78  77  78  55  28  24  28  26  25  23  23  23  24  25  27  29  30  32  45  50  90  79  85  58  58  59  77  93  93  83  72  59  48  43  39  35  39  49  66  84  96 112 103  89  71  54
  86  85  85  90  87  90  90  86  93  97  88  86  84  85  89  89  86  86  88  85  83  82  83  84  83  81  79  77  70  45  26  27  28  24  26  24  23  23  23  24  26  28  30  36  40  51  95  91  83  61  69  71  84  92  83  63  48  42  40  40  40  41  45  53  69  95 118 124 109  90  72  56
  88  87  87  90  89  94  92  85  90  96  89  87  83  84  89  90  86  86  88  84  82  81  81  82  83  82  81  72  57  32  25  33  31  24  29  30  28  26  24  24  25  28  30  58  47  82 110 125  75  65  69  81  80  76  67  52  41  40  45  48  45  42  42  47  65 100 130 136 115  90  72  58
  90  89  89  90  90  97  94  85  89  95  89  87  82  82  88  90  86  85  88  85  83  80  80  82  83  84  83  65  45  22  23  37  34  27  33  37  34  30  26  25  26  29  31  33  39 124 139 161  73  93 112  98  84  71  64  57  47  43  46  46  44  46  49  53  67  96 123 142 117  88  69  55
  89  89  88  94  94  92  89  86  86  89  91  84  84  86  88  89  87  83  79  82  87  87  82  82  86  86  82  45  37  31  31  32  32  34  37  43  44  29  29  34  27  26  27  31  94 153 159 170  45  83  91 102  85  79  75  58  47  47  46  49  48  47  46  48  65 101 135 147 111  76  61  55
  91  91  90  93  92  91  88  86  86  89  92  85  85  85  86  88  87  84  81  83  86  86  82  81  84  84  80  46  38  32  34  35  33  31  31  39  39  32  31  30  28  31  31  35 141 155 178 155  24  52  53  71  59  64  72  65  57  53  48  46  46  48  49  50  59  84 108 101  82  65  61  54
  93  92  92  91  91  90  88  86  87  90  92  87  86  84  85  86  86  84  83  83  85  85  81  80  81  81  77  51  42  36  37  39  36  32  31  31  27  31  29  21  26  32  29  67 198 162 207 129  15  34  37  74  58  59  70  68  63  60  52  50  48  47  46  46  50  64  78  65  58  55  55  49
