P2
100 87
255
 176 172 167 156 154 159 152 154 153 142 160 174 150 141 148 151 143 137 174 187 148 123 119 114 107 101  93  86  82  81  84  84  80  77  77  82  88  97 102 102  98  93  90  76  75  73  76  72  52 114 184 164 131  88  76  89  87  76  77  46  47  49  52  57  63  67  70  73  81  93 104 111 115 117 118  88  57  46  75  97  82  72  87  84  83  83  82  81  80  80  80  82  83  84  83  81  81  83  85  90
 147 142 145 146 142 145 136 136 136 132 158 166 146 135 143 111  88 100 160 186 147 120 114 110 107 105  97  91  86  84  86  85  80  76  76  73  81  91  98  98  93  87  83  87  81  78  81  71  56 109 186 169 129  86  74  80  79  76  80  78  81  88  95 103 112 120 125 140 144 150 153 154 154 153 153 139 103  65  70  94  84  72  89  83  83  82  82  81  80  79  79  81  82  83  81  80  79  81  83  81
 157 141 144 132 126 127 119 119 121 123 154 171 149 130 144  90  62  87 155 187 150 122 115 112 114 114 106  89  84  81  83  83  80  78  80  78  86  95 101 100  95  88  84  87  73  64  66  58  61 110 191 168 129 101 103 111 117 122 127 142 144 146 147 146 147 150 153 152 153 153 152 150 150 151 152 163 140  94  73  87  88  79  85  83  83  82  81  80  80  79  79  81  82  82  81  79  78  80  82  76
 127 109 130 123 114 117 112 115 116 117 150 185 154 122 151  99  77 101 157 193 156 127 117 112 115 115 105 100  93  88  88  87  83  83  85  82  89  97 102 102  97  92  90  82  77  82  95  91 101 122 186 173 140 130 147 156 159 164 163 155 156 155 150 142 136 135 136 138 139 140 141 142 146 151 156 151 147 119  87  83  90  86  78  82  82  82  81  80  79  79  78  80  81  81  80  79  79  81  83  81
 129 125 164 120 112 118 119 124 121 117 146 177 146 109 148  95  76  96 138 194 159 129 117 113 116 115 104 103  94  86  83  81  78  78  81  79  86  95 102 106 107 108 108 125 127 139 156 151 161 149 190 170 136 133 153 154 152 154 149 148 151 152 147 140 135 135 137 153 153 151 147 142 140 140 142 141 147 138 107  81  84  90  78  82  82  81  81  80  79  78  78  79  80  81  80  79  80  82  84  87
 196 135 121 122 115 124 128 134 128 119 144 178 154 120 160  96  74  93 131 190 156 128 117 114 120 120 108 102  94  86  85  86  86  90  95 104 111 122 133 142 149 155 159 168 161 159 162 152 168 149 183 179 141 136 153 149 146 150 145 148 152 154 151 145 141 142 144 136 138 140 141 140 139 140 142 148 151 152 122  79  76  91  84  82  82  81  80  80  79  78  78  78  79  81  81  80  81  83  86  89
 200 154 111 122 120 123 126 125 123 131 143 173 162 119 142 122  61  94 129 193 174 133 117 114 113 121 109 103 104 106 111 119 129 138 143 154 154 155 157 158 156 151 146 156 154 155 156 150 145 154 168 176 149 135 148 159 154 155 165 157 156 154 148 140 133 128 127 135 139 144 149 150 149 145 143 144 151 151 123  87  79  86  83  80  81  81  82  81  80  79  78  83  84  83  82  81  81  84  87  87
 108 111 123 125 124 126 129 127 126 133 143 173 165 126 149 126  62  94 128 185 167 128 122 129 129 138 131 149 150 152 153 152 150 147 145 150 149 148 149 151 154 156 157 147 141 143 154 156 151 165 192 175 149 137 148 154 144 137 142 137 137 137 137 138 141 147 152 136 137 140 143 144 143 142 141 142 151 153 127  91  82  88  85  86  85  84  83  83  84  84  85  75  77  80  82  83  86  90  93 101
 108 122 125 129 128 129 131 130 129 134 142 168 165 128 148 124  61  94 128 191 174 138 141 158 157 164 163 155 156 156 154 150 145 140 137 139 139 140 140 140 143 147 150 166 168 163 158 154 145 148 164 186 146 119 133 157 160 151 146 162 159 153 144 136 130 129 130 142 142 142 143 143 144 144 144 142 150 154 129  92  80  84  83  87  85  82  79  78  78  79  80  81  84  89  93  96  99 102 105 110
 134 133 113 130 131 131 131 130 131 135 139 166 167 129 143 122  72 110 142 186 171 133 138 160 155 156 160 158 156 152 148 146 145 146 146 151 154 157 158 156 154 154 154 126 148 148 140 147 151 153 164 175 154 141 143 142 136 139 150 142 145 147 146 144 142 141 141 143 143 144 144 145 144 144 144 143 150 153 128  89  75  81  82  80  80  80  80  81  82  83  84  94  98 102 105 106 107 108 110 107
 193 156 121 130 131 131 130 130 132 135 136 170 176 133 138 126  96 139 162 183 175 134 135 159 151 148 154 164 161 157 153 149 147 146 146 135 138 140 142 141 141 140 140 162 166 156 156 162 144 142 175 178 152 137 147 161 159 151 148 152 152 150 145 139 133 129 128 137 138 141 143 143 141 139 138 142 148 151 129  91  77  86  92  85  88  92  97 100 101 102 101  97 100 103 104 104 103 103 104 103
 200 147 122 128 131 131 129 130 134 135 134 167 180 132 130 128 118 159 162 180 185 143 136 162 157 152 159 148 150 152 153 151 146 140 136 148 147 146 148 151 153 153 152 149 120  98 118 121  66  58 126 194 155 120 116 130 140 142 142 142 142 141 140 139 141 145 148 136 138 142 144 145 143 141 139 139 145 153 136 100  86  97 106 108 110 112 112 110 105 100  97  95  97  99 100  99  99 100 101 102
 111 100 113 127 131 131 129 131 137 137 133 158 181 133 124 132 134 164 143 163 181 140 124 151 151 147 155 149 152 155 157 156 152 147 143 141 140 140 144 145 139 126 115  80  61  54  95 117  67  62 137 187 171 141  96  54  44  76 115 145 147 148 145 139 132 127 125 140 141 142 143 145 145 145 145 137 145 157 144 108  90  99 107 116 116 114 111 105  98  92  88  96  97  97  96  95  94  96  98  96
 118 133 129 127 131 132 129 132 139 139 134 155 185 139 128 139 147 167 129 165 190 149 127 153 157 155 161 160 158 154 150 146 143 141 139 143 145 149 154 150 131 101  78  83  91  89 109 125  77  53  99 191 161 123  96  80  75  81  91  85 100 121 139 148 148 144 141 138 138 137 137 138 141 144 146 137 147 162 150 111  89  93  99 103 103 103 102 101 101 100  99  96  96  94  91  88  87  88  90  88
 120 120 125 132 128 128 135 136 133 134 139 155 179 153 118 139 150 167 129 152 187 157 128 142 152 154 150 157 159 161 155 158 153 142 151 137 142 134 110  90  82  76  67  58  56  63  74 123  83  57 107 195 162 148  83  68  56  53  61  61  67 116 138 112 138 128 123 138 140 143 145 145 145 144 144 138 154 153 150 121  89  95 100 106 105 103  99  96  93  90  89  87  87  86  85  83  82  81  81  85
 117 118 123 129 128 130 134 135 133 133 135 154 178 156 119 138 150 167 132 153 191 161 132 145 155 158 154 149 150 150 146 147 143 135 141 156 124  85  63  60  65  70  73  93  88  88  88 128  81  45  86 185 159 148  93  82  79  84  93  94  76  99 116  96 131 138 145 143 141 138 138 140 142 144 144 137 152 153 151 123  89  93  97  98  97  95  92  90  87  85  84  87  87  86  86  85  84  84  83  86
 115 121 130 129 132 134 133 134 136 135 132 152 177 161 120 137 151 165 136 147 188 161 130 142 153 156 152 161 161 158 158 158 154 146 140 120  96  80  86  91  81  69  64  46  48  57  68 124  93  63 102 189 170 150  92  70  63  65  68  68  65 100 122  81  90 105 128 127 133 143 151 152 146 136 128 136 151 152 154 126  90  90  92  90  89  88  87  86  84  83  83  86  86  86  86  86  86  86  86  87
 114 123 135 133 138 138 134 134 138 138 134 149 174 167 122 136 151 163 141 141 186 162 130 141 151 156 151 153 151 146 153 152 143 132 106  69  62  59  62  65  66  76  87  91  90  85  80 125  85  40  63 177 172 151 105  83  85  93  94  88  78 100 118  64  60  89 126 144 141 135 128 126 133 146 156 136 148 150 156 131  92  88  88  88  88  88  87  87  86  86  86  84  85  85  85  86  86  87  87  87
 113 121 131 135 137 137 134 134 137 138 136 146 172 174 125 134 152 162 147 140 190 168 135 144 155 160 155 162 161 154 166 161 147 134  90  72  87  95  88  76  69  63  57  44  50  54  59 123 104  66  85 177 182 152 105  68  66  69  63  77  66  92 140 102  77  67  64 103 122 145 155 150 141 137 137 137 146 149 158 135  94  88  86  89  89  89  89  88  88  88  88  82  83  83  84  85  85  86  86  88
 116 122 129 133 132 134 139 139 136 134 136 143 170 181 127 133 152 160 152 134 188 169 135 142 154 160 155 150 152 143 155 138 119 117  68  62  65  58  48  54  74  86  84  97  98  88  75 128 101  50  55 162 182 153 119  82  87  95  86  91  72  76 115  78  60  71  74  94 111 131 139 137 136 143 151 138 144 146 159 139  97  89  88  90  89  89  88  87  86  86  86  82  83  83  83  84  85  85  85  88
 119 125 130 132 128 136 151 152 139 133 138 141 168 186 128 132 153 158 156 128 185 169 133 139 151 158 152 157 165 154 157 124 106 125  84  81  83  85  87  86  78  64  50  54  61  57  54 123 114  70  74 162 190 154 119  70  70  73  57  74  76  94 139  93  66  75  72  62  86 118 142 149 144 136 131 139 143 145 160 142 100  91  90  91  90  89  88  86  84  83  82  84  84  84  85  85  85  85  85  88
 120 125 127 133 128 140 163 165 144 134 141 140 167 188 129 131 153 158 158 129 189 173 137 142 155 162 156 145 157 146 141  96  79 116  86  52  48  53  64  69  70  82  98  88  91  78  63 123 107  56  53 148 185 153 129  86  93 101  86  82  71  70 115  83  66  73  58  68  78  96 116 131 140 142 141 140 143 144 160 143 102  93  92  93  92  91  88  86  84  82  81  86  86  86  86  86  86  86  86  88
 126 131 133 124 135 136 148 167 155 135 140 138 159 184 148 119 150 168 158 129 173 179 132 129 156 153 157 154 154 156 100  58  78 125  77  84  84  83  81  76  69  63  59  59  60  69  64 113 130  82  80 139 196 155 121  82  62  61  67  75  81  75 128 104  75  71  66  60  62  49 102 151 139 140 142 134 135 140 152 146 109  85  92  91  93  93  90  86  83  83  85  87  86  84  83  83  85  88  89  88
 120 123 126 127 135 134 141 155 146 132 140 138 158 183 149 120 149 167 159 124 170 182 138 131 156 153 157 149 158 122  86  76  77 128  91  48  52  58  66  72  77  80  81  90  85  83  66  98 108  53  45 125 189 156 131  99  84  86  93  65  70  62 112  94  65  64  62  77  79  86  95 117 132 130 137 136 136 142 154 149 114  89  95  89  91  91  89  85  83  83  85  88  88  87  87  87  88  89  90  88
 118 123 127 131 137 135 136 142 137 133 143 138 156 182 151 121 147 165 161 122 169 188 146 132 153 151 154 150 151  82  64  78  56 104  82  89  88  84  79  72  66  61  58  67  67  71  68 106 136  91  85 125 192 160 128  88  65  60  63  82  85  73 116 105  71  70  69  61  44  57  48  82 146 141 129 136 137 140 151 147 113  87  90  87  88  89  87  85  84  84  85  84  84  85  86  86  86  86  86  88
 123 132 141 132 137 138 136 136 134 137 145 137 153 181 153 122 145 163 163 126 169 193 152 130 147 150 152 152 124  77  75  91  75 120 115  49  53  59  66  75  83  89  92  76  74  72  63  81 112  60  44 109 186 163 137 101  84  86  91  61  66  57  98 103  68  68  69  71  77  96  69  58 106 136 140 138 138 139 148 145 113  85  84  87  88  88  88  87  86  86  87  82  83  85  87  88  87  85  84  88
 125 137 147 131 135 140 139 132 134 140 142 137 150 180 156 124 143 161 165 126 164 192 154 127 145 153 154 138  74  76  73  65  64  98 103  90  87  81  74  66  59  54  51  70  72  75  76  92 138  90  71 108 188 166 132  87  63  61  63  84  89  75 107 117  69  62  60  63  54  40  52  66  99 139 125 135 135 136 146 147 119  90  86  90  89  89  89  89  89  89  88  87  89  91  94  94  93  91  89  91
 121 131 139 132 133 141 140 129 133 140 135 136 148 178 158 125 140 159 167 123 155 188 156 126 146 157 156 132  64  96  88  65  72 101 111  54  58  64  71  78  84  88  90  69  71  69  68  71 125  75  50  91 181 169 142 101  81  82  86  46  55  48  84 116  71  70  71  66  82  73  82  62  53 109 131 124 125 127 138 144 121  93  86  92  90  89  89  90  91  90  88  87  89  91  93  93  92  91  89  93
 121 124 127 140 137 145 142 128 133 141 129 136 146 178 160 126 138 157 168 124 152 187 160 128 146 154 147  80  49  73  69  63  67 103 119  77  76  74  70  64  58  52  48  74  74  70  71  69 135  90  64  89 184 174 142  90  60  51  49  85  88  70  89 117  59  50  48  48  47  42  53  62  63  89 123 124 125 126 137 144 124  95  86  92  90  88  88  90  90  88  86  85  86  88  89  90  89  88  88  96
 124 123 123 150 143 149 145 129 135 143 128 135 145 177 160 127 137 157 169 128 153 190 164 129 143 148 135  91  93  83  71  74  54  88 102  55  59  66  73  79  82  84  84  71  69  60  59  52 123  81  56  74 176 176 152 106  80  72  69  42  49  37  64 110  64  66  71  68  69  82  64  58  58  63 122 137 137 137 145 152 131 100  89  92  89  87  87  89  89  87  84  88  89  90  91  91  91  91  91  98
 121 123 127 137 137 135 133 131 132 135 138 138 139 164 175 128 120 164 165 134 130 201 168 124 142 147  98  51  61  66  71  79  80  91 113  76  72  69  66  60  53  51  54  65  74  67  78  78 118 105  77  84 169 178 147 105  55  54  66  67  81  73  83  96  73  48  41  45  49  60  74  85 100 130 159 175 179 170 172 167 155  96  92  91  91  90  89  89  88  87  87  92  90  89  90  91  91  90  89  89
 126 125 122 133 135 136 136 135 135 137 138 138 140 163 174 129 119 162 164 132 126 194 165 125 140 142  95  89  85  72  64  62  61  80 112  70  69  72  78  81  79  79  82  64  72  67  77  77 109  90  56  85 177 193 157 113  71  65  65  35  49  46  60  87  91  95 111 144 153 172 189 188 175 168 171 148 160 160 169 168 157  98  93  91  91  90  89  88  88  87  87  91  89  88  88  90  91  89  88  90
 138 133 123 130 133 137 139 139 138 138 139 138 141 160 171 132 119 157 161 136 128 195 171 131 130 115  65  61  64  67  74  75  65  77 109  76  65  55  52  52  52  54  58  56  63  66  79  89 122 111  81  59 153 177 134  87  60  64  68 108 126 135 149 174 177 175 194 188 176 165 156 139 119 110 111 122 138 143 153 155 148  93  89  91  90  90  89  88  87  87  87  89  87  86  87  89  89  88  87  91
 145 139 125 133 136 139 140 140 139 139 139 138 141 157 168 134 118 151 158 139 126 190 175 144 138 119  78  87  77  65  62  58  54  77 121  69  66  68  78  85  82  76  72  72  76  76  75  77  98  94  68  86 143 164 149 145 156 170 178 179 187 189 183 186 166 132 136 101  82  61  47  36  31  40  55 120 135 135 141 141 140  91  90  90  90  89  89  88  87  86  86  87  85  84  85  87  88  87  86  91
 140 135 123 138 139 140 139 137 137 138 140 139 143 153 165 137 117 144 155 147 127 180 163 132 113  89  57  58  63  69  78  77  63  70  98  68  56  45  44  46  47  49  51  76  89 112 122 140 168 184 171 186 183 176 171 183 190 175 163 145 131 116  93  92  74  30  33  39  42  52  65  69  70  79  93 127 142 142 146 147 147  97  94  90  90  89  88  87  87  86  86  85  84  83  84  86  88  87  86  89
 135 132 127 139 140 140 138 136 136 137 139 139 144 149 162 140 117 138 152 128 116 183 184 164 134 101  76  85  79  61  49  46  46  65  95  91  84  83  95 115 137 158 173 178 183 198 187 187 185 188 166 164 161 170 154 127 102  73  69  56  43  49  51  86 102  69  82  76  73  71  68  56  42  41  51 121 140 143 151 156 157 100  90  89  89  89  88  87  86  86  85  85  83  83  84  87  88  87  86  88
 133 128 131 134 136 139 140 138 137 137 138 139 144 147 160 142 116 133 150 144 123 175 165 136  94  59  43  53  72  87 102 123 135 144 158 162 170 185 200 203 193 181 175 166 157 159 133 129 118 117  90  65 103 163 153 110  88  79  96  96  80  87  82 107 110  57  61  64  55  52  56  61  66  81  98 118 135 137 146 155 159 101  86  89  89  88  88  87  86  85  85  85  84  83  84  87  88  88  87  88
 127 121 127 128 133 139 142 141 139 137 136 140 145 145 159 143 116 131 149 143 110 147 139 133 129 139 160 164 182 189 188 195 194 186 184 175 167 154 140 120 101  90  88  85  70  73  59  81  93 113  95  82 123 184 165 118  99  76  74  59  46  62  65 101 118  75  88  79  72  70  75  70  55  41  38 127 139 134 139 151 160 105  91  89  89  88  87  87  86  85  85  85  84  83  85  87  89  88  87  89
 134 127 128 140 140 140 139 138 137 135 134 141 143 148 153 155 155 157 160 168 171 173 177 192 189 184 185 184 165 155 141 130 109  86 103 104  53  47  50  44  55  68  85  90  95 101  93  89 105 149  88  62 102 192 158 143  98  87  92  88  80  71  71  89 112  60  63  53  62  69  70  73  80  83  81 109 147 137 139 153 158 108  89  86  85  84  83  83  84  86  87  82  83  85  87  88  89  90  90  87
 129 123 127 127 130 136 143 149 155 159 161 169 173 179 185 186 182 183 192 183 176 177 175 155 123 101  93  77  62  59  55  61  63  63  93 120  77  81  89  78  72  65  68  69  77  86  86  90 111 160 108  77 105 188 161 148 102  78  71  68  60  57  62  87 120  74  76  69  72  70  62  58  58  56  51 112 147 138 141 153 159 110  88  85  85  84  84  84  84  85  86  85  86  87  89  90  91  91  91  90
 146 148 158 172 173 174 176 176 175 174 174 166 169 170 170 164 145 139 153 139 127 145 167 134  96  73  63  82  78  87  87  87  78  64  86 107  53  43  46  43  58  75  94 100 104 105  97  94 103 146  99  38  85 190 173 144 101  93 105  87  74  65  63  79 110  62  55  65  67  67  67  72  79  82  81 115 147 138 143 153 160 112  85  85  85  86  86  86  85  85  84  88  89  90  91  91  91  91  91  92
 178 181 188 178 177 173 168 161 153 146 142 134 141 144 153 155 133 128 153 156 131 152 196 158 119  92  82  72  63  62  53  56  61  67 100 124  76  75  82  74  73  71  77  76  82  82  80  84  89 135 102  80  95 175 172 153 115  82  67  73  60  58  60  80 124  85  73  69  67  64  62  62  62  60  57 119 144 136 143 151 160 114  82  86  87  88  89  88  87  85  84  89  89  90  91  91  91  90  90  95
 158 153 151 133 135 137 138 138 136 133 132 137 144 147 163 171 142 133 168 170 130 137 191 153 115  77  66  77  83  98  96  93  80  60  75 112  60  54  60  60  72  82  95 105 109 102  96  95  86 126 102  52  83 183 187 142 105  94 104  88  73  71  65  74 117  77  56  60  61  65  71  78  82  84  85 123 141 133 142 147 161 118  81  87  88  89  90  89  88  86  85  87  88  88  89  89  89  88  88  95
 129 123 119 128 132 137 142 145 147 146 146 146 150 148 164 174 135 116 155 179 140 134 195 170 139  91  84  63  59  62  54  59  66  66  91 123  77  78  87  80  75  65  64  72  80  78  83  93  85 128 118  90  86 161 181 152 125  87  67  64  55  64  63  71 124  93  70  69  67  67  67  62  57  57  61 128 138 131 141 144 162 124  83  88  88  88  88  87  86  85  84  84  85  86  87  88  88  88  87  88
 137 138 138 138 140 143 146 146 144 141 139 135 139 137 162 184 144 124 169 173 143 127 187 167 135  72  69  88  87  93  84  83  77  59  70 127  69  56  58  57  71  83  97  96 102  95  96 101  81 118 113  56  65 158 190 149 124  98  93  77  68  78  68  63 111  79  49  61  62  66  71  72  74  86  99 134 138 130 141 143 166 132  88  86  86  84  83  82  82  82  82  83  84  85  87  88  88  88  88  88
 133 135 137 132 135 139 142 144 142 140 138 144 146 139 164 185 139 114 159 165 148 131 193 180 149  80  82  61  56  57  50  60  70  67  86 128  78  73  79  71  67  58  58  72  82  78  87  99  81 121 122  81  75 155 191 152 125  81  59  57  53  71  68  66 121  96  68  67  65  64  61  55  54  67  84 138 139 131 142 144 168 137  92  85  83  81  79  78  79  79  80  82  83  85  87  88  89  90  90 100
 131 125 127 126 132 139 138 145 144 137 149 146 140 141 152 173 149 118 149 164 157 122 189 176 148  96  66  87  93  87  78  78  70  59  59 109  80  62  70  63  84  77  80  96  99  89  96  82  76 115 123  67  56 140 194 157 141  88  78  80  68  65  62  42 102  97  47  61  62  66  75  77  93  74 121 139 142 141 147 148 160 159 108  85  83  80  80  84  91  98 103  89  92  98 104 108 110 111 111 120
 131 127 130 128 134 140 141 145 143 138 145 145 141 144 155 176 153 119 147 166 158 121 185 178 149 100  71  55  59  58  61  72  75  71  72 120  93  66  67  54  67  55  55  60  73  79  99  95  90 121 129  92  72 143 196 156 133  71  52  50  47  57  67  57 117 115  63  71  66  56  55  55  57  62 107 138 140 136 140 141 155 156 108  94  95  95  96  97  98  99  99 102 105 109 113 116 117 116 115 111
 131 129 132 128 135 139 142 143 142 141 140 144 143 146 156 178 156 120 144 168 159 119 179 181 152 106  81  99  92  82  76  71  63  51  44 110  94  68  75  71  86  82  85  86  87  77  80  73  71 103 125  68  46 116 187 167 151  97  76  81  67  59  53  39  93 107  60  61  68  73  85  96  78 103 134 150 151 145 148 148 164 168 122  92  93  94  94  94  93  92  91 107 109 111 113 113 112 111 109 104
 130 129 131 127 134 136 144 143 142 150 140 145 146 147 153 175 158 122 142 169 161 119 172 185 155 115  95  55  52  59  70  75  79  83  81 112 105  68  68  59  63  56  57  56  67  76  90  94  89 105 129 100  70 124 192 163 133  75  47  52  54  66  77  71 109 121  62  65  60  45  42  53  39 102 135 139 141 136 138 138 153 158 113  90  89  89  89  90  92  94  95 100 101 103 104 104 102 100  99 101
 129 128 128 128 135 135 149 146 148 166 147 145 147 146 148 171 159 123 140 169 163 121 165 189 155 123 112  91  79  83  83  65  53  52  45 101 109  69  76  75  81  82  85  88  78  61  47  47  51  77 124  76  48 102 186 170 143 100  77  82  69  58  49  40  74 110  60  64  70  74  83  94  79 130 141 149 153 150 153 152 166 171 126  95  96  99 101 103 103 102 101  93  94  95  96  96  96  95  94  96
 130 129 127 131 138 135 153 148 154 182 155 143 149 148 147 171 161 124 136 167 165 124 160 191 155 131 129  64  50  64  79  72  76  89  86 104 121  71  71  67  61  61  62  70  72  77  76  86  85  90 137  89  55  98 186 170 138  99  73  56  60  71  81  83 101 137  77  55  47  41  38  49  77 134 149 137 142 139 142 140 154 160 116  90  95 101 105 105 100  93  88  83  84  85  87  88  88  88  88  88
 133 132 128 132 138 131 151 145 152 189 155 140 150 152 151 176 166 125 130 165 167 127 156 192 153 137 143 112  78  73  76  56  52  57  44  90 119  69  77  82  81  88  92  80  73  67  51  57  54  55 112  96  55  86 182 174 142 105  75  75  68  60  53  49  62 113  57  73  69  77  76  76 123 141 141 147 151 147 148 145 161 170 129  86  88  90  90  88  85  81  78  77  77  78  79  80  81  82  82  84
 136 134 130 129 135 126 146 139 147 188 150 137 150 155 156 181 170 125 126 164 168 130 154 192 152 140 151 115  73  67  78  72  82  94  80  93 124  67  68  68  58  62  64  57  61  73  72  87  82  72 127 103  54  78 178 177 147 109  75  72  72  75  77  80  88 140  81  53  45  53  51  54 133 147 150 145 147 141 140 137 155 166 127  95  90  83  78  77  80  85  88  78  79  79  80  80  81  81  82  86
 133 144 134 149 137 146 165 186 176 154 177 141 154 140 166 185 174 127 127 164 173 136 141 197 158 139 140 145 111  76  62  59  55  50  49  72 121  74  80  83  86  86  79  71  70  51  36  53  48  49 112 110  66  76 178 181 149 110  82  71  65  47  56  54  58 129  82  67  70  65  75 112 141 145 142 147 154 152 159 157 158 165 143  89  87  87  88  85  80  80  83  84  81  78  76  77  81  86  89  82
 146 171 189 173 156 182 202 199 189 168 162 146 152 142 166 175 170 133 128 161 172 137 139 194 160 138 138 166 120  79  76  89  92  86  82  92 130  71  55  46  45  45  40  57  69  75  77  97  85  71 120 113  62  65 165 179 150 108  75  89  87  75  85  80  74 133  85  47  46  49  77 120 141 141 144 140 145 140 146 145 149 160 140  98  93  90  90  88  84  83  86  84  84  84  85  86  87  88  89  90
 176 195 188 168 148 177 187 169 175 173 159 148 148 151 178 172 172 142 124 157 171 142 135 190 163 138 137 157 142 111  76  54  50  55  58  62 113  82  79  86  88  87  81  70  68  55  42  53  48  46  98 131  73  68 163 192 165 120  82  66  58  42  46  48  55 126 100  66  67  77 110 144 147 138 142 153 156 149 153 153 160 175 158 105  97  90  90  90  87  85  86  86  88  91  93  94  93  91  89  95
 187 181 155 153 156 178 169 157 170 175 181 145 145 163 195 176 178 151 117 154 172 149 133 187 169 140 136 162 159 128  87  79  96  91  65  84 118  76  42  40  44  52  56  64  69  76  76  87  77  65 100 120  63  55 143 186 156 111  72  86  86  84  90  85  70 113  86  42  66  93 122 146 147 144 151 145 147 140 143 143 151 166 149 105  94  85  85  88  87  86  86  87  89  93  95  96  94  92  90  95
 168 151 162 141 181 194 170 172 171 160 189 145 143 164 193 170 179 158 117 151 174 158 131 184 177 143 136 144 170 170 123  68  46  53  64  62 112 107  81  88  81  73  67  55  51  51  46  53  54  54  89 129  77  71 150 202 168 127  90  66  56  46  43  48  53 114 118  41  87 121 129 136 140 144 150 155 159 152 156 155 161 174 155 101  91  82  83  87  87  88  89  88  89  91  92  92  92  91  90  94
 167 149 170 144 192 192 158 169 165 152 199 149 145 154 174 155 175 160 123 148 176 166 129 181 184 145 135 158 146 143 145 123  86  72  81  69 107  94  42  47  47  52  58  71  72  86  87  88  80  66  84 117  67  60 130 192 156 119  86  89  86  89  86  85  68 104 108  84 130 152 141 135 140 143 147 144 148 142 147 146 151 162 143 100  91  85  85  88  88  90  93  89  89  89  89  89  89  89  90  94
 198 167 162 160 186 184 155 160 163 159 197 148 147 146 160 150 175 160 127 144 175 170 125 177 187 145 133 164 160 165 163 133  88  68  72  68 114 122  73  82  77  73  75  63  51  52  45  48  59  67  93 130  78  64 127 200 167 134 102  71  60  56  47  52  50 100 127 106 130 137 130 135 144 147 152 152 156 150 155 155 161 174 155  98  92  88  88  88  86  88  93  89  90  91  91  91  91  90  89  94
 221 173 167 151 159 173 159 149 148 139 149 144 148 145 158 156 180 158 125 141 174 172 123 174 188 144 132 150 153 149 147 151 145 111  72  60  99 103  43  53  53  59  68  78  74  89  87  81  75  62  70 131  74  54 113 194 164 134 102  92  84  85  75  78  67 106 134 153 149 136 131 141 142 138 141 141 145 138 143 144 152 167 150  97  93  90  89  86  82  84  90  89  91  93  95  95  93  90  89  92
 195 160 135 133 136 135 133 141 155 164 165 152 150 150 187 206 166 173 132 135 169 177 130 168 181 156 131 160 158 158 162 166 154 121  90  80 104 121  86  65  76  70  68  52  48  44  45  53  64  73  79 128  98  75 112 194 156 149  93  61  61  54  44  44  69 112 146 136 134 132 130 133 141 151 158 151 154 158 154 148 159 169 161 109  91  88  90  83  81  87  88  86  90  94  95  93  92  93  95  89
 157 146 145 132 141 152 164 179 192 193 187 151 147 145 177 200 168 172 128 134 168 178 133 166 182 157 131 154 151 146 147 156 165 164 157 101 103  97  61  52  73  69  62  82  84  87  88  83  71  56  46 127  85  45  90 205 183 156  89 104  85  73  88 123 151 158 152 155 151 145 138 134 134 137 139 147 142 144 144 142 152 162 158 112  92  87  90  85  83  87  86  88  91  94  94  92  90  91  92  91
 185 184 196 178 175 172 173 181 186 180 170 154 150 147 170 195 175 177 130 131 166 178 138 163 183 159 132 163 166 165 160 157 158 157 153 127 132 129  87  65  74  68  67  53  49  44  46  55  69  82  89 123 114  83 105 189 157 136 106  53  52  64  95 132 153 151 140 135 134 134 136 140 147 153 157 160 149 150 155 155 162 173 174 114  93  86  90  88  87  90  87  89  91  93  93  91  89  89  89  93
 197 185 188 187 180 174 176 185 188 181 171 155 149 151 164 188 177 179 136 128 164 178 145 160 185 161 134 137 149 160 164 164 164 161 157 165 156 137  87  59  66  64  68  96  94  91  87  79  67  53  45 115  96  48  77 192 187 150 115 100 117 139 153 156 153 151 152 154 149 142 136 135 136 138 139 143 132 139 149 145 147 159 166 117  94  86  92  91  91  93  88  88  89  91  92  91  90  89  88  92
 193 180 176 172 173 181 193 200 194 178 165 152 143 149 157 179 174 175 140 125 162 178 153 156 186 163 135 164 166 162 155 151 151 149 145 144 139 145 136 134 122  70  33  47  46  47  53  63  74  83  87 128 119  75  89 179 178 140 121 144 148 154 157 154 149 145 142 142 136 127 124 128 135 142 146 135 133 147 161 155 155 169 179 122  99  89  93  91  90  90  85  86  87  89  91  92  92  91  90  90
 203 192 179 164 166 174 181 180 170 158 152 161 142 150 158 184 180 177 149 122 159 178 160 152 188 165 137 146 149 151 153 159 168 172 170 165 151 147 135 138 147 127 119 111 109 105  96  81  60  39  25 100  81  45  71 168 192 150 121 149 150 150 150 150 153 157 159 157 145 128 115 110 110 111 112 116 119 137 149 146 150 163 168 122 100  91  93  88  84  85  81  87  87  88  91  94  94  93  91  87
 190 177 156 141 147 160 171 173 172 178 188 176 143 149 163 196 194 183 156 120 158 178 165 149 189 167 138 158 164 168 166 163 159 152 145 143 144 156 144 137 142 140 152 159 145 125 107  98  97 100 102 134 148 145 147 173 178 153 151 155 159 160 156 149 147 151 157 138 129 119 116 121 128 134 136 137 139 150 156 156 166 174 169 110  91  85  89  84  82  86  86  90  89  89  92  95  95  92  90  86
 188 191 180 142 159 186 205 207 201 204 214 184 138 142 161 201 200 182 155 119 157 178 168 147 190 167 138 147 155 161 158 155 157 160 160 158 149 153 143 140 147 142 151 146 149 154 161 168 172 172 170 162 160 154 159 182 189 149 125 146 144 146 154 164 168 166 161 163 154 143 138 140 143 143 142 146 143 145 145 147 160 163 148  94  79  78  84  81  83  91  94  93  92  91  93  95  95  91  88  85
 207 182 168 190 190 187 193 199 205 200 168 179 143 147 156 189 212 176 165 123 153 173 174 143 183 179 135 149 167 170 162 162 159 153 153 151 149 145 144 146 150 154 157 156 155 154 152 150 148 147 146 143 144 148 146 171 187 157 140 166 172 174 165 168 169 156 161 151 138 135 135 130 137 149 151 150 165 167 162 172 181 150 104  81  84  69  79  90  82  88  91  95  88  86  91  93  89  88  92  92
 193 166 155 188 180 180 194 197 193 192 181 183 145 148 155 187 211 176 167 123 151 172 172 143 180 179 137 132 153 161 160 166 170 169 171 157 155 151 146 141 139 140 141 155 156 158 161 163 164 165 165 172 171 172 164 181 194 161 138 147 153 151 142 146 149 143 148 154 143 141 145 147 160 173 173 168 169 165 158 151 136 104  73  97  97  77  84  93  82  82  80  85  85  87  90  90  90  93  97  93
 187 160 152 204 189 191 204 202 188 188 202 189 150 149 153 184 208 177 170 124 147 170 171 146 177 179 141 151 169 171 161 159 154 146 146 150 152 153 153 152 153 158 163 167 167 167 167 166 164 163 162 155 154 159 151 167 185 157 130 150 164 165 165 175 179 180 185 173 158 151 149 147 152 155 146 143 134 127 128 129 128 134 143 144 134 100  96 103  94  92  86  82  87  89  85  82  83  85  85  91
 178 154 153 189 181 186 188 188 181 180 205 195 154 150 151 180 205 177 173 125 141 169 172 154 176 180 144 127 150 160 162 172 180 181 184 162 162 160 154 148 147 152 157 161 160 158 156 154 153 153 153 161 158 166 156 169 193 169 136 162 179 174 172 172 161 157 153 151 136 127 122 114 111 101  81  92 108 131 148 150 145 147 155 163 144  95  80  86  81  85  80  79  84  85  80  80  84  84  79  85
 167 154 162 172 178 186 172 181 196 190 210 198 156 151 148 176 202 177 176 129 135 166 172 163 176 182 146 151 169 171 162 161 157 150 149 159 157 151 145 141 142 149 155 165 164 163 163 165 169 172 174 179 173 179 162 166 194 173 132 137 157 145 144 142 128 132 127 130 121 121 121 118 115 100  73  79 115 147 153 146 144 141 135 157 141  94  78  84  84  89  85  82  84  85  88  95 101 100  95  92
 181 182 194 184 194 197 167 185 212 191 201 199 157 150 146 173 200 177 178 135 129 158 166 168 176 184 148 135 155 162 158 163 165 162 163 161 158 153 151 153 160 167 172 172 171 168 166 163 160 159 158 144 138 149 135 142 183 172 128 130 154 137 144 150 145 167 166 150 146 149 148 142 137 117  86  86 125 147 134 126 140 150 144 150 148 116 108 114 112 115 109 108 104 105 110 113 111 108 108 115
 208 207 207 187 190 187 153 179 207 170 175 198 156 149 145 171 198 177 179 144 124 148 155 166 172 186 152 145 166 172 169 174 177 174 176 174 166 157 151 149 148 145 142 136 138 140 141 138 132 126 122 126 120 135 124 134 186 185 140 153 180 158 165 166 153 175 169 156 154 155 149 137 129 107  75  87 129 158 150 140 143 139 124 144 153 132 125 127 121 124 119 132 126 127 131 121 103 100 110 123
 219 202 185 187 183 180 153 189 218 174 182 197 155 149 144 170 197 177 179 149 121 141 146 162 169 187 154 143 161 164 156 155 152 145 145 135 128 122 122 125 125 119 113  98 108 124 139 148 151 149 147 148 138 149 131 132 183 180 131 145 179 164 178 180 160 178 167 146 146 150 146 137 133 117  88  95 125 144 137 132 141 148 145 156 168 148 136 133 125 131 130 133 128 133 138 120  94  95 115 111
 185 195 199 184 183 190 168 176 197 181 189 195 153 143 150 152 195 180 174 150 133 143 144 147 179 179 164 132 137 148 136 136 151 142 138 130 131 136 137 137 146 141 120 106 109 129 157 166 154 146 149 149 147 150 130 128 181 191 127 150 175 185 167 174 162 177 152 127 143 153 147 150 162 136  81  98 121 151 160 154 161 167 158 170 183 158 140 133 125 130 124 128 134 137 128 111  99  96  98 106
 184 186 183 186 179 179 166 163 176 182 191 203 162 140 148 163 206 188 183 152 130 145 140 152 178 182 163 140 149 165 155 154 168 159 157 153 152 153 148 143 148 141 118 111 112 122 138 146 146 145 148 150 162 158 141 150 183 180 142 137 168 185 185 186 178 190 176 178 163 160 169 175 167 130  82  86 116 156 170 163 163 165 154 156 165 137 122 123 124 136 134 114 116 116 113 107 101  98  98  97
 186 184 175 175 176 186 199 189 193 216 210 215 179 139 143 168 205 182 179 157 127 147 135 161 177 187 163 143 157 177 166 162 173 164 164 151 151 153 147 143 151 146 123 100 110 130 154 170 173 170 168 168 183 178 169 183 190 175 160 146 172 175 184 171 168 180 182 178 136 128 161 180 164 128  97  85 115 156 171 163 163 166 159 162 162 125 106 104 101 106 100 101  98  95  95  99  99  96  92  88
 210 206 196 200 205 208 219 197 194 220 190 212 185 133 134 162 194 173 176 162 126 149 132 167 176 190 164 138 154 175 162 154 162 154 155 147 151 156 150 147 159 157 134 102 107 134 173 192 186 178 180 156 151 159 170 174 175 167 149 126 149 148 175 163 169 179 190 187 141 132 166 183 168 144 128 132 143 161 160 145 142 144 137 126 123  89  78  86  86  90  83  96  92  87  87  89  90  88  85  86
 211 206 198 204 206 194 191 172 185 218 181 204 185 131 133 156 183 176 183 167 128 150 133 168 175 191 167 136 152 175 161 153 161 155 157 161 169 175 167 162 172 167 141 117 106 123 165 183 169 167 182 151 118 143 172 159 172 182 144 142 159 156 188 176 174 171 173 192 161 153 164 162 149 139 132 114 112 116 116 110 115 121 115 137 129  90  80  91  93 100  95  93  92  90  86  84  83  84  85  90
 198 194 188 184 188 186 185 182 201 220 195 211 194 140 142 149 171 176 179 172 134 149 138 162 175 188 172 140 158 183 174 168 178 170 172 154 168 179 174 169 179 172 144 108  99 121 169 192 181 178 193 175 129 156 180 154 179 201 149 154 158 142 151 140 133 136 134 120 112 115 117 111 113 121 120 147 141 147 157 161 172 178 170 180 163 112  92  93  89  95  92  88  91  92  89  83  82  86  90  92
 199 197 194 194 191 203 204 201 199 189 191 214 191 139 146 142 164 180 172 176 141 147 144 154 175 185 177 141 161 190 185 182 190 178 175 136 156 175 175 174 186 179 150 109 111 131 164 184 181 173 171 157 129 144 150 132 164 188 147 116 123 118 117 124 121 144 142 151 150 158 163 158 165 176 176 177 169 170 173 167 166 163 153 150 137  94  81  86  83  89  88  85  88  90  89  85  85  88  92  88
 187 185 180 190 174 189 190 192 184 170 207 198 171 125 141 138 166 192 177 178 145 146 148 149 176 182 181 138 159 190 187 185 190 172 164 140 163 185 186 185 197 188 156 140 140 136 131 133 136 128 114 118 116 123 118 119 159 185 163 133 156 178 179 192 176 193 179 188 178 177 174 158 150 147 140 141 133 136 138 130 128 130 125 134 128  97  94 101  94  95  91  86  87  88  88  87  87  88  89  83
 169 178 190 184 186 195 188 174 192 217 215 205 178 142 126 142 170 184 182 176 138 135 146 137 151 180 182 144 154 199 207 185 179 166 155 159 159 154 146 142 140 131 120 115 115 124 124 135 143 141 164 169 171 177 190 185 186 191 159 127 161 186 167 161 166 150 150 144 143 135 137 127 123 138 128 138 139 130 146 156 154 158 147 159 173  99  99  97  88  89  94  91  92  91  87  83  82  86  89  81
