P2
91 103
255
  43  41  57  59  62  64  61  59  64  73  71  74  71  61  51  46  41  36  37  44  50  49  43  37  35  36  33  33  30  30  37  46  48  44  45  42  38  34  34  35  38  40  35  35  35  35  35  35  35  35  40  37  35  37  41  45  45  45  38  36  34  34  35  36  36  35  36  36  37  38  37  37  35  35  37  36  35  40  55  86 125 154 128  94  59  44  44  48  56  64  59
  44  38  47  51  59  65  64  61  64  71  73  74  69  59  50  46  41  36  36  42  49  49  42  37  35  36  33  33  31  30  35  43  45  42  39  39  38  37  36  37  37  37  37  37  37  37  37  37  37  37  39  36  34  37  42  44  43  40  38  36  35  35  37  38  37  36  37  37  37  36  36  35  34  33  37  40  44  49  57  68  76  81  61  44  34  40  48  49  53  61  51
  43  38  41  44  53  61  63  60  62  67  73  72  66  56  49  46  41  36  35  42  48  48  42  36  34  35  33  33  32  30  33  40  42  40  36  37  39  39  39  38  36  35  40  40  40  40  40  40  40  40  37  36  37  40  43  43  39  35  37  36  35  36  38  39  38  36  37  36  35  35  35  36  37  37  50  51  50  48  48  49  44  37  45  41  44  52  54  49  50  55  47
  39  37  40  40  45  53  56  56  58  62  72  70  63  53  47  45  42  36  35  42  48  47  41  34  32  33  32  34  32  29  32  38  40  38  37  38  39  40  39  38  36  35  39  39  39  39  39  39  39  39  36  38  42  45  46  42  37  32  35  34  33  35  37  38  36  35  36  35  34  34  36  40  44  46  57  57  53  45  44  50  53  51  54  53  53  54  53  51  49  49  48
  34  36  43  39  39  45  50  52  54  58  71  69  61  52  46  45  42  37  36  42  48  47  40  34  32  32  32  34  32  29  31  36  39  37  40  39  39  39  38  37  36  36  36  36  36  36  36  36  36  36  36  40  46  49  48  42  36  32  33  32  32  34  36  36  35  33  34  33  33  34  38  44  50  54  45  54  57  51  45  45  45  42  50  48  45  43  46  49  47  42  46
  34  35  38  38  38  40  44  48  53  55  68  73  63  52  52  47  36  34  36  39  43  44  42  38  35  34  30  32  34  36  37  37  37  36  38  36  32  29  31  35  36  34  31  37  42  38  31  29  35  42  46  45  44  43  40  37  35  34  32  33  35  36  36  35  33  32  32  35  41  48  53  56  57  58  53  55  52  46  43  46  48  48  49  42  42  49  51  45  43  48  44
  34  36  38  38  38  40  42  46  50  53  65  69  59  48  49  46  37  36  36  39  43  44  41  38  35  34  34  35  36  38  38  38  37  36  35  36  37  36  36  35  33  30  33  30  29  31  37  43  47  48  45  44  42  40  37  35  33  32  32  32  33  33  34  35  36  37  37  41  48  54  58  58  57  55  53  54  51  45  44  47  48  46  52  47  45  47  47  43  41  42  47
  34  37  38  38  38  39  41  43  46  48  59  63  54  45  48  45  38  38  37  40  43  44  41  38  36  35  38  39  39  39  39  38  36  36  44  40  35  30  28  29  34  39  43  39  35  35  39  42  43  43  45  43  40  37  34  33  33  32  36  34  31  30  31  35  39  42  46  50  56  60  62  59  55  52  50  50  47  45  49  54  54  49  50  49  46  41  41  44  43  39  41
  35  38  37  37  37  38  39  41  43  44  50  57  51  45  50  48  39  38  39  42  45  45  42  39  38  37  40  40  39  38  37  36  34  34  23  28  35  42  42  37  34  35  26  31  37  39  39  40  41  44  43  41  38  35  33  33  34  35  38  35  32  30  32  37  43  48  56  57  60  61  60  57  53  51  45  45  45  48  56  64  63  56  44  47  44  37  38  47  47  41  36
  35  37  37  37  37  37  38  39  40  41  42  51  50  47  53  51  41  38  41  43  45  45  43  40  39  39  39  38  37  35  34  33  32  32  41  33  26  24  22  22  29  38  61  60  60  62  61  54  41  31  39  37  35  32  32  32  34  35  33  32  32  34  38  46  53  57  62  60  59  57  55  53  52  51  47  49  50  54  62  69  66  59  42  46  43  36  38  47  48  42  45
  34  36  36  36  37  37  38  39  39  40  37  47  47  46  53  51  41  39  40  42  44  43  41  39  38  38  35  35  33  32  32  32  32  33  33  27  32  53  79 104 130 151 136 121 109 111 120 114  90  66  40  38  36  34  32  32  32  33  28  30  35  41  49  55  61  64  61  59  56  52  50  50  51  51  55  58  60  61  65  67  62  54  45  45  43  39  41  45  44  41  59
  33  34  35  36  37  38  39  39  40  40  36  45  42  40  48  49  41  41  37  39  40  40  37  35  35  35  33  32  31  31  31  33  34  35  27  32  52  82  97  89  75  69  67  55  47  54  70  78  72  62  50  48  46  43  39  36  34  33  31  36  44  52  57  60  59  59  57  56  53  51  50  50  50  51  58  63  67  66  65  64  58  50  45  41  40  44  46  44  44  45  73
  33  33  34  35  37  38  39  40  40  40  37  44  39  34  43  45  41  43  35  36  38  37  34  32  32  33  31  31  30  31  32  34  36  38  50  41  42  58  66  58  47  43  38  36  31  24  21  26  37  45  61  59  56  52  47  42  38  35  40  46  54  60  62  59  53  49  52  53  53  52  52  51  50  50  56  63  69  68  65  62  57  51  41  35  36  46  50  46  46  52  87
  38  34  37  36  35  34  35  37  40  42  39  39  38  38  39  41  43  44  40  39  37  34  32  30  30  29  27  28  34  41  38  31  35  45  36  46  56  58  49  35  25  21  38  42  38  37  42  35  32  42  42  55  62  55  47  45  43  39  50  52  55  55  54  53  52  52  52  56  59  57  52  50  53  57  62  62  62  64  65  60  50  42  37  45  38  47  44  26  42  63  90
  38  34  35  34  34  34  34  36  38  39  43  42  40  39  38  38  39  39  42  41  39  37  35  34  34  34  39  42  39  35  43  53  45  28  54  46  46  59  58  31  25  47  37  37  38  33  44  36  37  40  34  35  47  61  61  53  57  70  57  59  60  59  56  54  55  56  52  55  58  55  51  49  51  54  63  63  62  59  53  47  42  39  42  53  44  42  38  39  51  40  71
  37  34  32  32  33  33  34  35  36  36  41  41  39  38  37  37  37  37  40  40  38  37  36  36  36  36  39  39  42  44  43  39  40  45  42  39  35  50  58  31  18  43  54  47  52  37  50  38  44  36  43  45  50  51  46  40  42  48  54  58  63  67  68  65  61  58  57  59  59  56  51  48  48  50  72  73  69  61  50  43  42  44  38  50  43  31  28  54  69  26  54
  36  33  31  32  33  34  35  35  34  34  36  36  36  36  37  37  38  38  35  34  34  33  33  34  34  35  31  36  40  40  36  35  41  48  36  53  51  53  65  50  27  30  37  32  45  29  43  39  58  49  81  97  92  63  53  65  66  51  49  53  63  77  86  85  74  63  63  64  64  60  56  52  52  53  69  67  63  54  45  39  37  38  44  49  45  38  36  77 104  57  39
  34  33  33  33  34  35  35  35  35  34  34  35  35  35  36  36  36  35  31  31  31  31  31  32  33  34  35  40  35  27  36  50  44  24  37  43  38  40  55  51  39  41  46  48  64  45  40  44  71  65  41  57  52  28  26  48  56  45  55  53  57  71  87  91  80  68  62  63  64  63  62  62  63  64  58  54  49  46  44  40  35  31  44  39  37  40  39  74 113  88  34
  33  33  34  34  34  34  34  34  34  34  37  36  36  35  34  32  30  29  32  32  32  32  32  33  34  35  44  27  28  46  45  29  42  73 102  72  65  89 107 111 127 147 167 175 175 134  69  56  65  57  41  37  34  34  35  38  47  56  58  50  44  48  59  67  66  61  55  56  59  62  65  68  70  71  67  64  61  62  64  63  57  52  54  47  42  53  51  66 103 101  55
  32  33  34  33  32  31  31  32  33  34  35  35  35  35  33  31  28  27  33  33  32  32  32  33  34  35  40  26  35  54  44  40 105 193 219 177 180 211 219 227 246 250 248 250 249 208  90  66  56  49  59  49  45  49  44  34  33  42  49  45  41  38  38  42  48  51  52  52  53  56  60  63  64  65  69  69  69  71  72  72  71  70  72  73  65  75  75  72  92  99  76
  32  33  34  32  30  28  28  30  32  33  31  32  33  34  33  32  31  30  32  32  31  31  31  32  32  33  32  54  51  23  33 113 214 252 251 229 241 252 246 251 251 228 211 243 242 207  78  66  59  62  52  57  57  49  44  43  37  29  40  47  52  48  40  37  43  51  53  52  51  52  53  54  53  52  47  50  52  51  49  50  54  59  56  66  57  65  68  54  60  65  74
  34  29  33  33  33  33  33  33  33  33  32  32  32  31  31  30  30  30  30  30  30  31  31  32  32  32  35  35  44  34  41 165 230 252 251 246 234 228 223 206 179 158 164 193 202 150  79  52  59  61  53  52  52  51  50  45  37  31  36  41  47  49  47  46  47  50  41  44  49  54  57  57  56  55  50  51  52  53  53  51  49  48  49  49  49  49  49  49  49  49  46
  31  29  33  33  32  32  32  32  32  31  32  32  32  31  31  30  30  30  30  30  30  31  31  31  32  32  25  24  31  35  54 144 165 161 180 163 144 135 135 132 125 117 127 132 132 108  76  66  62  47  57  54  51  52  53  51  46  41  31  35  42  49  52  50  46  42  44  45  47  49  51  54  55  56  51  51  50  50  50  50  50  50  49  49  49  49  49  49  49  49  48
  29  30  33  33  32  32  31  31  30  30  32  32  32  31  31  30  30  30  30  30  30  30  31  31  31  32  35  42  42  36  42  89  94  97  98  91  82  78  80  81  78  74  76  66  66  70  73  80  75  56  62  56  50  50  54  56  54  51  36  35  36  41  48  49  45  40  43  41  39  38  40  44  48  51  52  50  48  47  47  49  51  53  50  50  50  50  50  50  50  50  50
  28  30  34  33  33  32  32  31  30  30  32  32  32  31  31  30  30  30  29  29  30  30  30  31  31  31  24  36  35  29  40  63  71  83  64  64  63  60  60  61  59  55  59  52  55  62  63  69  74  68  66  59  51  49  52  55  55  53  48  43  36  34  36  40  43  43  40  38  35  33  34  37  42  45  50  49  48  48  48  50  52  53  50  50  50  50  50  50  50  50  51
  26  27  34  34  33  33  32  32  31  31  32  32  32  31  31  30  30  30  29  29  29  30  30  30  31  31  28  33  27  29  49  51  45  35  34  35  31  23  22  30  37  39  27  25  34  38  35  45  63  70  69  64  57  53  53  54  54  53  55  52  46  39  34  34  38  42  40  38  36  35  35  36  38  39  45  46  48  50  51  51  51  50  50  50  50  50  50  50  50  50  50
  24  23  31  31  31  31  32  32  32  32  32  32  32  31  31  30  30  30  28  29  29  29  30  30  30  30  36  42  39  31  36  32  54  48  33  42  46  43  45  53  56  52  62  57  55  45  34  41  55  54  65  65  65  62  58  55  55  56  52  56  57  53  45  38  37  39  36  35  34  33  32  32  31  32  40  42  45  48  49  49  48  47  49  49  49  49  49  49  49  49  49
  27  25  27  27  28  29  29  30  31  31  32  32  32  31  31  30  30  30  28  28  29  29  29  30  30  30  17  29  39  28  29  50 132 148 144 158 168 169 171 174 168 157 157 151 134  95  56  45  42  30  51  59  66  67  61  56  57  60  53  55  58  58  55  50  46  43  39  37  35  32  31  30  31  31  37  38  40  41  43  45  45  46  48  48  48  48  48  48  48  48  48
  32  30  24  24  25  26  27  28  29  30  32  32  32  31  31  30  30  30  28  28  28  29  29  30  30  30  32  31  37  30  42  80 174 179 161 167 165 156 156 163 162 154 147 154 144  98  49  37  40  31  36  50  64  67  61  56  58  62  59  55  52  54  57  59  57  54  50  47  43  39  37  37  39  41  36  35  35  35  37  40  44  46  47  47  47  47  47  47  47  47  49
  33  33  31  29  26  23  23  25  27  29  31  31  30  30  29  30  30  31  28  27  26  26  27  29  31  32  35  26  26  42  30 121 122 116 116 113 111 113 114 115 116 118 117 103 134  91  39  50  39  36  32  35  47  61  69  66  60  57  54  60  60  54  53  57  57  52  55  56  55  52  48  45  44  44  46  42  38  34  33  32  30  28  33  36  42  47  49  49  46  45  47
  34  36  33  31  28  26  24  24  25  26  28  28  28  28  28  30  31  31  30  30  30  30  31  32  33  33  34  27  28  41  51 125 123 116 120 119 119 120 120 120 121 123 122 108 135  94  47  56  46  43  37  33  37  51  63  66  64  62  57  57  56  54  55  58  58  55  56  56  56  54  50  47  47  48  45  43  40  38  37  37  35  33  28  30  32  36  39  41  43  44  47
  33  37  34  33  32  30  28  26  24  24  25  25  25  26  27  28  30  31  29  29  30  30  31  30  30  30  32  29  30  38  78 122 115 108 109 111 113 113 112 111 112 113 116 104 122  85  46  53  46  43  41  32  28  39  53  62  66  68  62  56  52  54  57  57  57  58  56  57  57  55  52  51  51  52  46  45  44  44  44  43  41  39  39  37  33  30  29  30  32  33  41
  29  32  33  33  34  33  32  29  27  26  25  25  25  25  25  26  27  28  27  28  30  31  31  30  29  28  29  31  31  37 100 113 101  94  91  98 102 100  97  97  98  99 108  97 103  72  42  48  42  40  41  33  28  33  43  53  62  69  68  58  52  54  57  55  54  57  54  55  56  55  53  52  53  54  50  49  49  49  50  49  45  43  49  45  40  35  32  31  31  32  32
  24  25  29  31  32  34  34  33  32  30  28  27  26  25  25  25  25  25  28  29  31  32  32  32  31  30  27  32  33  46 117 106  95  90  88  99 105 100  95  97 100 101 107  97  90  64  45  47  44  42  39  36  34  35  36  41  53  65  71  63  57  55  55  52  51  52  51  53  54  53  52  51  52  54  54  53  52  53  53  51  47  44  44  43  42  41  41  42  43  44  34
  24  19  24  26  28  31  32  33  33  32  31  30  28  27  26  25  25  25  24  25  26  27  28  29  29  29  29  36  39  65 126 103  96  94  90 104 111 104  98 102 108 110 105  96  77  56  46  45  43  41  38  39  40  38  33  33  44  58  69  69  64  56  52  52  51  48  50  51  53  52  51  50  51  53  56  54  52  52  52  51  48  46  47  46  46  45  45  44  43  43  44
  28  19  21  22  24  26  28  29  30  30  31  31  30  28  28  28  28  28  24  25  25  26  28  30  31  32  38  45  47  86 125  97  93  94  86 102 110 101  95 101 109 113 102  94  66  47  44  41  40  38  41  40  39  37  32  31  40  52  62  73  71  56  48  53  53  46  50  52  53  52  50  50  51  52  54  52  50  49  51  51  50  49  53  52  49  46  43  41  39  39  48
  32  20  19  19  20  22  23  25  26  27  31  30  30  29  30  30  31  31  33  33  33  34  36  39  42  43  48  54  54  99 120  89  85  87  83 100 108  98  91  98 109 113 104  96  63  46  47  42  41  40  45  40  36  35  33  33  40  49  56  74  75  56  46  55  56  46  51  53  54  53  51  50  51  52  51  49  47  47  49  51  52  52  50  48  45  43  42  43  45  47  43
  41  32  17  20  21  21  21  26  37  46  30  31  27  28  44  59  49  26  27  39  44  37  33  39  46  48  53  34  55 101 111  91  80  81  92 126 122  98 100 107 103 104 124  82  52  45  42  44  49  47  48  43  38  36  38  42  47  49  60  71  75  66  54  50  50  48  52  50  49  50  52  52  50  48  47  48  48  48  47  46  43  42  46  45  43  42  41  40  40  40  48
  46  37  20  23  25  24  23  25  31  37  26  30  31  29  34  40  35  25  24  36  38  30  32  44  47  41  45  31  51  91 103  95  94  97  97 119 118 109 120 123 116 118 103  73  56  58  57  58  60  55  64  57  47  41  40  43  47  50  57  65  68  62  57  60  63  63  52  51  50  51  51  49  46  42  47  47  47  46  44  42  41  40  41  40  40  40  40  41  42  42  46
  53  46  24  27  29  28  24  23  25  28  30  34  34  29  25  28  38  48  44  35  29  33  38  39  38  38  30  34  68 109 123 122 120 115 119 115 103 101 113 116 116 127  90  73  71  80  79  77  75  68  67  59  49  42  42  47  53  57  67  66  62  54  51  52  52  51  51  50  51  52  53  51  47  44  45  44  43  42  41  41  41  41  39  39  39  38  39  40  40  41  39
  59  54  28  29  29  27  24  22  24  26  36  33  30  26  24  33  58  82  82  46  27  40  44  28  25  40  31  42  72 100 106 108 107  98  97  95 104 123 128 106  86  84  66  56  60  68  63  59  56  50  54  49  44  43  47  55  62  66  72  65  56  48  45  43  39  34  43  42  43  45  47  49  48  47  42  41  40  40  41  42  44  46  43  42  41  39  38  38  37  37  34
  60  56  29  28  26  24  23  24  26  29  32  27  24  27  36  51  74  95 101  70  43  38  36  29  28  35  24  23  28  28  22  29  37  32  36  32  46  66  65  50  43  45  68  59  61  63  54  52  53  48  54  53  53  56  62  68  72  73  59  51  44  44  48  49  45  41  37  35  33  34  37  41  43  44  45  44  43  42  42  43  44  45  44  43  42  40  39  38  38  38  38
  58  52  27  25  23  22  23  26  29  32  30  27  28  38  56  75  86  90  93  93  70  37  26  39  40  27  43  37  38  34  25  29  36  31  42  29  27  28  29  52  87 105 100  90  88  85  77  78  84  80  73  74  75  78  81  82  80  78  48  39  34  38  44  45  42  40  40  38  36  36  38  41  43  43  50  49  47  45  43  42  41  41  41  40  40  40  40  41  42  42  44
  56  49  23  23  23  24  26  29  30  31  31  30  30  39  63  88  94  87  91 101  91  59  39  40  39  29  25  21  29  36  31  30  30  23  24  23  30  30  34  72 109 112 111 101  98  94  87  90  95  89  89  89  91  93  95  93  89  86  56  44  33  33  34  31  29  29  38  38  39  42  45  46  45  44  46  46  46  46  45  44  43  42  39  39  39  38  39  39  40  41  44
  56  49  20  21  23  27  30  30  29  28  29  28  22  26  52  86  96  87 100  98  98  91  63  32  26  39  41  29  31  36  31  31  34  31  36  34  34  23  27  77 119 114 116 107 104 100  92  95  97  87  89  90  92  96  99  99  97  94  68  53  39  35  32  27  26  29  26  28  33  40  45  46  43  40  38  40  42  45  47  47  47  47  42  41  39  38  37  36  36  36  38
  49  30  19  22  26  30  32  32  31  30  34  28  22  21  27  46  77 103  93  99  95  92  88  64  33  20  27  18  22  28  22  22  30  32  36  32  36  31  34  82 124 119 116 111 105 102  98  94  93  93 102  85 103  97  88  95  87  96  71  56  44  42  39  32  30  34  31  40  22  22  32  33  42  41  41  38  45  47  37  35  42  42  45  44  43  40  38  35  34  33  38
  46  38  22  25  28  31  32  31  30  28  27  23  21  21  25  37  59  80  92  98  94  91  93  77  50  36  54  52  69  89  94  98 104 103  85  47  32  23  23  82 130 110 120 116 111 105  98  92  89  88  83  73  90  87  91 107  94  91  73  57  44  42  40  34  33  37  27  59  63  67  65  53  60  63  70  64  66  62  45  37  38  35  38  38  38  38  38  38  38  38  32
  31  29  27  28  30  31  31  29  27  25  21  21  22  25  25  28  39  52  87  97  93  87  92  89  76  70 131 128 140 155 154 151 146 136  72  38  36  39  44 102 147 122 126 124 118 109  98  89  82  79  77  71  74  62  59  67  59  58  77  59  44  41  40  35  35  40  79 113 121 127 124 111 118 122  93  84  83  78  58  44  41  37  35  36  36  37  38  39  39  40  34
  23  20  31  31  32  31  30  27  24  22  21  22  26  30  28  26  29  37  72  90  93  84  85  91  99 112 100  95 104 115 115 114 108  95  92 102 115 115 111 125 131 115 112 114 112 105  97  91  84  79  84  85  91  92  85  70  66  84  82  61  42  37  39  39  43  50 101 116 104 108 118 116 123 121  85  75  77  77  60  47  44  41  40  40  39  38  37  37  36  36  40
  30  29  33  32  32  30  28  25  22  20  22  23  28  32  30  26  28  32  42  73  92  89  85  88 108 137 116 114 126 136 135 132 122 104 113 151 154 143 152 140 118 122 109 115 117 115 115 114 108  99 101  91  91 117 115  66  48  73  80  58  39  37  44  51  61  71 104 116 103 107 119 117 119 112  70  59  62  68  54  41  39  37  42  42  41  39  38  36  35  35  38
  30  32  31  31  30  28  26  23  21  20  22  22  26  30  30  27  27  31  18  49  79  93  93  89 108 143 140 145 160 167 157 144 124  98 120 146 132 127 168 181 172 190 175 178 178 174 174 172 159 143 157 119  84 114 121  62  46  78  72  52  37  41  54  66  77  87 112 145 154 163 162 144 139 132  74  60  63  70  57  41  36  33  38  38  38  38  37  37  37  37  36
  26  29  29  28  27  26  24  22  21  20  21  21  25  31  31  28  27  30  19  31  52  80  96  94 110 145 124 135 155 164 155 145 128 104 113 109  98 102 132 162 175 177 175 175 171 166 166 164 144 120 135  99  50  74  88  40  45  92  64  46  36  45  60  70  77  83 100 143 163 174 166 141 134 129  80  64  67  75  62  43  36  33  33  34  34  35  35  36  36  37  37
  30  33  27  27  26  24  23  22  21  20  22  22  27  33  34  30  28  30  34  24  28  61  92  97 114 150 139 147 163 165 152 144 131 111 147 129 143 156 154 183 206 185 182 184 181 180 188 190 170 144 126 117  80  95  92  35  42  92  59  44  37  47  61  65  66  68 111 147 159 169 165 145 141 135  72  56  60  71  59  41  34  32  32  32  33  33  33  33  33  33  33
  34  32  31  28  24  20  18  18  19  20  23  21  23  30  33  30  29  30  19  26  26  36  67  99 123 143 169 163 183 174 169 167 136 134 173 139 164 182 195 185 198 180 176 194 179 179 182 198 170 174 145 109 133 133  54  31  69  76  44  43  44  48  49  50  56  64 105 181 207 190 191 183 156 145  75  57  46  52  56  49  41  39  37  36  34  32  32  33  34  35  32
  32  29  22  20  18  16  16  18  20  21  19  16  15  19  21  20  20  24  21  23  17  20  41  64  91 117 115 115 136 150 156 148 125 120 115 148 191 159 173 155 189 164 191 178 171 169 172 198 163 188 137  98 109 105  49  45  81  76  46  42  39  40  40  40  44  50  87 131 135 125 148 158 137 124  72  68  67  66  53  34  27  32  43  42  41  39  37  34  32  31  32
  30  26  21  21  19  19  19  20  22  23  25  23  24  28  28  24  22  24  25  27  22  24  35  46  70 103  87  90  95 119 127 110 100  87  60 159 193 128 148 146 191 167 212 177 187 183 189 206 173 197  82  47  48  47  27  51  80  61  47  41  36  36  37  35  36  39  73  97  95  92 116 123 104  93  71  69  68  63  47  28  25  32  32  33  36  38  39  39  37  36  36
  29  25  25  24  22  21  20  20  20  20  17  19  25  31  30  22  17  17  11  16  18  22  25  25  42  73  89  99  82  94  95  82  86  65  70 183 166 127 136 168 189 187 209 174 184 166 182 175 181 170  44  23  24  29  36  71  85  53  46  40  37  40  41  39  38  39  51  83 101 102 102  86  66  64  61  49  39  36  33  29  29  32  22  24  27  31  34  35  36  37  37
  27  25  22  21  19  18  17  18  20  21  17  19  24  30  30  26  27  31  30  35  32  27  21  13  23  48  77  98  82  80  79  79  91  67 124 210 155 168 144 193 175 207 200 187 180 152 174 148 203 137  31  28  35  46  62  82  74  40  41  38  38  42  43  39  37  38  41  74 100  99  79  53  40  45  39  30  22  20  21  22  25  28  27  26  26  25  25  26  28  29  35
  26  26  20  19  19  20  24  30  35  39  26  23  22  23  24  27  37  49  80  80  62  39  26  19  23  39  52  79  85  81  77  81  89  76 161 204 172 206 164 205 173 222 184 202 194 191 199 170 212  90  18  27  41  62  82  81  58  35  37  36  37  39  38  34  36  41  75  85  92  79  55  37  33  35  28  33  37  33  24  19  23  29  28  27  26  25  26  28  31  33  38
  25  25  22  21  22  26  33  43  53  59  35  31  28  26  22  22  31  41  82  83  59  29  20  19  19  23  36  53  83  87  80  79  81  98 183 175 200 199 184 199 187 213 171 196 186 223 198 193 175  31  25  34  48  78 101  84  55  50  38  37  38  38  35  36  46  58  93  92  86  66  42  35  36  31  34  38  41  37  31  29  30  32  26  27  28  29  31  34  36  37  38
  25  24  22  21  22  26  34  46  58  65  65  64  64  61  52  42  42  46  61  68  50  25  23  30  26  21  27  31  76  89  83  80  83 128 209 158 221 170 191 186 196 185 196 203 175 230 175 208 148  17  35  37  44  75  97  68  36  44  40  40  40  40  38  44  61  79  67  72  76  59  35  32  37  31  40  31  21  21  30  38  36  30  33  34  35  35  34  31  29  27  30
  24  21  26  24  25  26  21  26  54  86  76  72  65  59  56  57  60  64 113 101  77  53  46  47  36  19  36  34  49  78  81  86  82 163 194 179 207 181 216 179 166 181 211 180 215 209 184 211  58  22  41  36  60  91  86  61  44  36  39  30  37  41  38  62  91  93  73  64  53  44  34  28  32  39  38  30  17  22  44  48  33  25  40  28  33  33  55  43  40  28  30
  22  22  25  21  23  30  33  38  56  78  73  70  68  69  74  78  81  81  93  90  79  66  61  56  37  16  28  35  35  55  78  81 103 193 218 209 214 194 215 215 206 224 227 203 216 203 211 169  41  28  39  43  71  94  80  53  41  39  29  40  41  32  52  99 112  85  76  73  65  52  40  33  33  36  36  31  20  24  43  46  34  28  28  28  36  40  71  54  39  25  31
  23  24  32  24  23  31  39  44  55  67  67  71  79  89  97  98  93  87  79  82  81  77  75  68  49  28  19  33  25  36  71  73 134 219 210 214 209 205 211 230 213 221 203 212 222 213 230 103  21  39  39  52  83  97  72  45  40  43  34  46  36  33  74 115 104  69  75  79  73  57  45  41  37  31  34  33  24  26  40  41  31  29  27  33  37  46  88  62  33  25  32
  25  26  33  27  25  33  43  52  63  73  70  80  95 106 106  97  85  77  80  81  79  76  77  76  67  55  22  25  26  33  54  68 169 222 206 210 207 208 209 220 207 205 199 221 219 218 205  58  24  40  42  60  90  94  65  43  42  45  45  38  28  53  98 103  81  75  79  83  74  58  52  56  48  33  23  25  18  18  28  27  19  20  38  36  34  51 101  59  23  30  33
  25  25  24  27  35  46  54  61  70  78  86  95 105 105  96  84  77  74  81  80  76  73  75  78  78  75  40  18  29  32  31  80 205 215 219 216 217 211 215 212 225 222 225 233 216 213 144  40  40  34  49  66  88  85  59  46  47  43  41  32  33  68 103  90  74  92  81  77  63  49  51  59  50  30  25  29  25  25  35  34  28  32  40  29  29  58 108  56  18  34  31
  25  24  23  35  51  60  61  58  57  58 103 104 100  91  81  76  79  84  75  76  75  75  75  76  76  76  63  25  28  24  26 119 226 203 190 206 220 216 212 207 230 215 192 215 233 213  84  25  42  38  58  72  86  75  52  48  50  40  36  41  47  62  74  70  66  75  62  52  37  28  34  42  33  17  24  29  26  27  37  36  32  36  30  20  28  57 101  56  25  34  28
  28  28  37  47  60  68  69  67  63  61 105  99  89  82  78  79  82  85  75  75  76  76  74  72  73  75  76  44  28  17  50 174 221 179 150 202 216 215 182 200 215 184 166 189 233 184  52  23  36  45  65  79  87  68  44  46  49  37  42  45  51  49  44  50  56  49  48  39  31  31  38  42  39  34  29  32  25  24  32  30  22  24  27  23  31  39  72  55  42  33  30
  33  34  47  53  62  71  82  92  98 100  97  89  82  81  85  86  80  74  81  79  78  75  72  70  74  79  79  63  31  16  80 215 204 155 153 225 219 208 148 197 213 179 210 188 205 127  41  41  36  44  70  84  89  65  39  42  48  36  49  37  43  47  38  46  58  51  56  52  52  60  67  69  71  75  71  71  61  56  61  55  44  43  34  33  34  17  41  51  55  34  34
  41  55  62  72  84 100 122 137 126 105  79  80  80  80  81  83  83  81  75  75  75  74  72  70  68  67  76  63  58  26 136 226 209 189 173 248 211 150 165 226 174 231 206 191 219  79  16  47  37  53  69  86  78  53  46  48  46  46  41  52  56  49  48  59  67  66  67  67  68  70  72  73  72  70  71  77  81  82  85  86  77  65  47  47  45  41  36  33  32  33  34
  51  65  85  96 103 107 113 117 106  90  79  79  79  79  80  82  82  81  78  78  77  76  74  72  70  69  68  64  70  58 177 231 206 175 220 213 191 156 188 215 178 201 177 208 166  52  24  36  39  55  73  84  75  55  49  47  44  46  67  75  75  65  60  66  70  68  67  66  65  67  70  72  72  71  77  77  74  68  65  63  53  42  41  41  40  37  33  31  31  32  30
  54  67  89 101 108 106 104 105 101  94  81  79  77  78  80  81  80  80  78  77  76  74  72  69  68  67  63  66  74 103 217 228 196 173 240 177 187 180 230 222 182 143 168 227 104  32  41  34  49  66  80  82  69  57  53  46  43  50  86  92  89  76  69  71  72  69  71  69  68  69  72  74  74  74  74  70  61  52  47  44  36  28  36  37  36  34  32  31  32  34  30
  49  62  81  92  99 100 101 105 107 106  85  80  77  79  81  80  79  79  74  73  71  68  66  64  63  62  64  66  69 149 228 214 182 192 227 160 158 154 218 233 218 177 194 214  59  28  51  39  56  74  89  81  63  55  54  46  45  60  85  88  85  75  69  70  71  69  72  71  70  71  72  72  69  67  60  55  48  43  42  41  36  32  36  37  37  35  33  32  33  35  33
  53  71  88  92  95  97 101 106 107 105  91  82  77  79  81  79  77  78  72  71  68  65  63  62  61  61  64  67  77 194 223 204 172 217 219 183 161 166 211 221 201 198 222 161  36  33  44  43  54  72  95  81  60  51  52  47  53  73  81  82  79  72  69  70  70  70  70  70  70  71  69  65  59  54  49  45  41  41  43  41  38  35  37  38  37  35  33  32  33  34  34
  65  85  92  92  94  98 105 108 107 105  96  83  76  79  81  75  72  74  73  72  69  67  65  65  65  66  64  69 112 225 217 206 180 226 223 215 193 220 233 210 173 202 218 100  34  41  39  50  58  72  92  82  61  50  51  52  63  85  86  84  80  75  72  71  72  71  74  73  72  71  68  62  55  49  47  41  38  40  41  37  33  31  35  36  36  34  32  31  32  34  32
  70  77  84  85  90  98 104 106 106 105  98  83  74  77  78  71  67  68  75  73  70  68  67  68  69  70  69  74 159 225 208 211 201 219 221 218 199 218 221 214 211 240 174  56  39  45  43  56  70  79  85  82  66  52  53  58  71  92  90  86  81  78  75  73  73  73  75  72  68  65  62  58  53  49  45  37  33  37  39  35  32  33  34  35  36  36  34  35  37  39  36
  65  57  80  83  90  97  99  97  97  98  99  82  72  75  76  67  62  64  74  72  70  68  67  68  70  71  76  79 191 209 198 213 221 211 210 220 220 218 211 213 217 200 125  33  39  39  45  55  77  82  77  82  70  55  55  62  76  94  88  83  79  77  75  73  72  73  68  63  57  51  49  47  45  44  40  32  28  33  38  38  39  42  35  37  38  39  39  40  43  45  43
  64  62  73  78  85  90  92  92  91  90  82  83  78  70  67  68  69  67  70  70  71  72  73  73  72  72  57 130 219 216 218 232 204 228 224 223 225 224 222 228 220 196  61  48  44  45  47  63  79  81  80  80  70  58  62  80  90  88  88  86  86  84  78  69  66  68  63  44  45  50  36  35  41  34  35  33  32  34  38  41  41  40  34  37  40  41  40  39  39  39  35
  72  70  66  71  77  83  86  87  86  86  93  93  86  76  69  69  68  66  71  71  72  72  72  71  70  69  77 141 198 199 190 193 195 206 198 196 201 204 205 209 196 168  58  47  47  51  55  70  85  85  83  78  73  69  66  65  69  75  75  78  75  68  64  65  64  60  48  40  41  44  37  32  34  33  34  32  30  32  35  38  39  38  35  39  43  44  42  39  37  37  37
  73  73  64  68  74  80  85  87  88  87  91  92  87  78  73  75  77  77  72  73  73  74  73  73  72  71  60  84 103 128 131 126 130 109 117 113 116 119 120 125 116  91  65  57  59  63  64  76  88  86  82  75  73  72  58  40  39  50  48  53  53  47  49  57  58  50  34  39  39  39  40  32  27  35  38  35  33  33  35  38  40  40  41  42  42  40  36  33  32  32  32
  73  73  64  66  71  78  85  89  91  91  91  93  90  81  76  78  81  82  69  70  71  72  72  72  71  71  65  56  86 132 135 117 102  84  80  72  71  69  66  74  76  63  79  71  73  74  71  78  87  84  80  76  71  59  38  20  19  28  24  28  35  43  51  55  53  49  30  45  41  37  42  34  27  41  44  42  39  38  39  41  43  45  41  40  37  34  32  33  37  40  45
  78  73  62  63  67  74  83  89  91  91 102 104 100  88  78  75  75  74  70  70  70  69  68  66  65  64  45  35 109 146 125  96  72  98  91  85  86  82  74  80  88  84  83  76  79  80  75  80  89  86  80  81  69  43  22  17  19  21  19  20  35  56  63  54  47  49  33  48  43  35  41  35  30  43  46  45  44  42  41  42  44  45  33  35  36  36  35  36  38  41  33
  75  69  68  67  70  77  87  94  97  96 102 107 104  93  81  75  74  73  77  76  74  71  67  63  60  58  52  51 127 146 126 106  77 115  91  88  93  94  84  85  90  85  82  78  84  88  82  85  92  89  78  78  61  33  20  25  29  25  23  28  44  61  62  49  40  40  35  44  42  35  37  37  36  40  43  44  44  42  39  38  39  40  34  37  39  39  35  30  27  26  40
  63  66  74  72  73  80  91  99 102 101  95 102 102  91  79  72  70  68  69  68  66  63  60  56  53  51  48  78 124 127 123 119  99 111 108  99 100 103  98  99 101  93  96  95 104 106  95  90  89  81  66  56  40  27  23  26  28  26  31  49  60  56  50  50  46  37  34  36  41  41  37  42  45  37  40  42  44  42  38  35  35  36  39  38  37  35  36  40  47  52  92
  55  71  73  70  71  77  88  97  99  99  98 104 103  90  73  62  55  52  47  47  47  46  44  43  41  40  39 119 149 138 130 128 133 131 135 116 108 110 111 117 119 110 118 118 126 124 106  91  81  68  51  31  18  22  25  21  19  22  41  71  78  54  45  61  63  47  34  30  42  47  40  49  53  35  39  42  45  44  39  35  34  34  38  34  29  31  45  69  97 116  99
  73  69  66  70  71  71  85 103 105  96 103  90  71  55  46  42  39  37  37  36  35  34  34  39  46  51  58  51  59  58  76 103  97  97  91 112 102 114 109 113  99 121 123 115  99  80  61  45  33  27  17  22  21  22  23  16  24  48  84  64  52  57  63  57  47  43  33  45  47  50  61  61  47  39  39  41  39  34  33  38  42  42  48  28  34  78 114 116 105 100 127
  74  77  82  85  84  81  88  97  93  81  63  54  43  36  35  35  35  34  36  34  33  34  36  40  44  47  43  28  23  26  37  48  40  31  58  76  66  69  67  85  65  54  42  39  34  28  23  20  18  17  24  27  24  20  23  29  48  72  73  65  58  55  53  48  45  44  34  40  41  49  63  59  46  44  52  40  34  39  42  36  31  30  25  69 109 115 103 103 116 128  91
  58  64  61  63  61  56  57  59  49  36  31  29  27  30  36  40  41  40  51  47  44  43  45  44  41  38  36  20  16  39  53  53  55  41  82 103 106 103  97 114  77  22  22  22  21  22  23  24  26  27  23  26  22  18  24  43  65  80  63  68  66  55  43  41  45  48  36  40  40  49  60  55  45  48  48  34  32  43  43  34  36  49  88 106 101  79  80 100  93  64  67
  37  38  44  45  42  39  39  40  32  22  24  25  29  37  46  50  49  47  45  41  37  38  39  38  31  24  36  30  45  93 108 106 119 109 119 132 140 125 104 108  74  12  30  30  29  27  26  24  23  22  21  20  22  22  33  57  73  70  58  69  70  53  39  40  47  50  39  53  53  47  51  50  45  46  37  38  42  41  34  36  60  88 108  95  62  29  30  58  73  68  64
  31  27  36  35  32  29  31  34  33  29  24  26  31  39  48  51  50  46  43  40  38  40  45  45  40  35  32  33  75 127 129 122 134 130 135 131 126  91  55  48  45  15  23  23  24  24  24  22  21  20  25  17  22  31  44  71  81  65  55  64  63  49  40  43  47  46  46  71  69  45  40  46  44  40  39  47  46  35  36  60  92 111 114  77  40  22  15  23  58  96  60
  32  29  26  23  18  16  18  22  24  25  26  27  29  36  43  47  46  44  52  48  45  44  44  43  40  36  30  31 100 138 123 119 119 122 138 135 130  86  50  28  37  34  24  26  28  31  31  30  29  27  26  13  22  39  49  72  84  66  51  53  52  45  42  42  43  42  58  79  71  44  38  44  41  36  38  40  36  37  64 102 118 111 111  53  18  30  36  27  44  81  54
  31  29  30  26  22  20  22  24  28  31  31  28  27  29  35  39  39  38  37  34  29  24  22  21  21  21  33  28 119 142 118 127 114 123 121 134 133  84  61  30  31  31  25  27  29  30  29  27  23  21  25  14  37  61  59  68  78  63  48  46  45  47  46  41  41  43  73  72  56  44  46  44  37  37  34  34  42  65 101 122 110  86  59  31  21  35  34  24  49  91  52
  31  28  28  24  22  22  24  25  29  32  33  28  23  22  25  28  29  28  26  25  23  22  22  26  33  38  34  23 125 137 111 132 109 122 113 131 121  61  50  24  24  24  27  29  32  33  32  29  25  22  27  22  60  90  76  70  74  59  47  43  45  52  50  41  41  48  83  61  40  44  55  44  33  41  38  43  64  99 121 111  79  52  75  48  27  25  28  30  45  65  53
  29  28  26  23  21  22  26  31  35  37  36  35  32  29  27  25  24  24  21  24  26  24  20  19  23  26  23  56 107 120 120 121 107 109 112 106  91  65  39  24  24  29  20  27  29  25  26  31  30  22  27  44  87  91  56  63  84  67  53  32  42  55  45  53  64  46  47  50  51  49  45  41  40  43  49  67 101 126 111  72  48  47  73  46  30  32  28  21  38  66  41
  30  29  29  27  27  29  33  36  37  37  34  33  32  30  28  26  25  24  26  27  27  25  22  21  23  25  24  43  77  82  83  88  76  78  69  66  58  43  27  20  22  27  19  24  26  23  25  30  29  22  24  56  83  78  64  67  72  69  49  40  47  50  42  55  72  69  44  53  49  43  45  42  35  36  55  98 132 119  71  32  25  34  81  40  20  32  33  20  40  80  42
  31  31  31  30  31  34  37  37  36  34  30  31  31  31  29  27  25  24  34  33  31  29  27  24  23  23  13  15  30  26  26  34  25  29  30  29  27  23  20  19  22  24  21  22  23  22  24  26  25  21  36  76  84  67  69  70  62  65  46  45  42  42  53  70  78  74  44  57  49  39  45  41  36  48 116 129 114  67  37  45  67  77  89  55  30  30  30  30  51  82  40
  32  32  31  31  31  32  34  34  32  30  28  29  30  31  30  28  26  24  38  38  37  35  32  27  23  19  25  19  26  16  14  21  14  21  21  20  20  21  23  23  23  22  24  23  22  23  23  22  23  24  65  89  89  69  62  67  64  56  47  45  33  37  68  86  74  56  49  59  48  39  43  38  51  90 130 124  98  69  68  84  82  62  65  65  48  20  13  31  45  45  37
  33  33  34  32  29  29  30  30  30  29  27  28  30  31  30  28  26  24  34  35  36  35  31  26  21  19  34  28  35  26  22  26  19  28  26  25  24  25  27  26  23  20  23  20  21  25  24  23  30  41  90  84  89  74  48  60  72  49  49  46  35  39  65  77  62  46  52  52  44  39  39  40  76 135 121 113  96  75  61  50  34  18  44  69  73  49  37  47  45  29  36
  32  32  36  34  31  29  30  31  31  30  28  28  29  29  29  27  25  24  25  28  30  28  24  23  26  30  28  20  28  22  19  21  12  21  25  24  24  24  25  24  22  20  20  18  21  28  27  26  43  66  96  73  81  75  42  52  71  49  49  49  51  51  49  51  55  56  49  42  40  39  39  60 106 146 120  94  61  35  19  13  17  25  30  52  73  78  72  64  54  46  42
  31  31  34  32  32  32  33  32  30  27  30  29  29  28  27  26  25  24  20  23  24  21  19  26  41  54  43  27  28  24  27  29  17  23  21  21  21  20  20  21  23  24  24  21  27  33  28  27  52  84  92  76  75  73  54  48  55  53  51  46  63  70  49  42  56  62  45  37  40  39  48  98 135 121  69  51  31  23  25  27  26  24  12  24  37  45  54  63  65  62  54
  31  30  29  29  31  33  34  32  27  23  31  30  28  27  25  25  25  25  20  23  23  19  18  31  55  75  53  29  23  19  26  31  17  20  21  21  21  19  18  20  24  28  31  28  33  38  29  25  53  90  90  87  75  71  69  48  38  57  55  39  64  85  63  51  60  55  42  36  44  41  59 132 153  92  25  28  26  19  19  23  24  21  19  30  24  10  30  75  96  87  63
  34  33  35  33  30  27  26  27  29  31  26  26  27  27  27  26  25  24  24  23  21  21  24  29  35  39  27  25  22  21  22  22  21  20  19  21  21  19  20  24  28  30  28  36  20  33  34  29  76 108  92  77  74  89  87  50  33  50  63  55  69  77  65  63  63  46  41  50  35  44 113 133 119  34  31  28  24  22  23  23  22  21  18  26  24  18  34  69  93  98  84
  29  28  26  26  26  26  26  27  27  27  28  27  27  26  26  26  26  25  23  22  21  22  25  28  30  31  25  24  25  26  28  28  25  23  22  24  23  21  20  23  26  29  29  27  29  32  25  53  98  96  79  89  87  80  76  62  48  47  58  56  71  77  60  54  52  39  32  47  42  83 138 134  80  36  37  32  26  22  22  24  25  26  20  25  24  23  37  64  84  90  89
