P2
104 36
255
  89  92  91  93  96  92  94  89  99  91  92  93  91  95  95  95  96  97 102 104 104 101  96  97  99 103 106  99 107 108 109 112 107 113 122 110 110 150 189 202 195 167 107 109 127 143 186 208 210 199 157 163 189 207 201 188 117  99  97 126 162 183 169 132 110 110 185 207 200 207 145  87 102 114 143 182 211 216 217 214 208 209 212 199 202 207 182 115  86  87  89  91  89  88  87  92  97 101 100  98 104 102 100  98
  88  92  91  92 100  98  94  93  99  98  98  93  91  88  95  98  96  95 100 103 102 103 102 104 102 103 104 103 106 106 104 106  98 107 103 105 137 196 204 209 205 161 103 108 111 121 187 209 205 182 113 109 155 210 216 197 108  94 103 105 123 134 136 123 118 134 197 209 206 196 107  93 106 117 131 146 206 212 208 168 133 171 208 208 214 215 152  78  74  99  99  97  97 100  95  88  93  93  95 101 101 102  96 101
  87  88  95  94 101  99  94  99  98  94  97 102  97  94  95  94  92 101 104 101  94 100 103 109 103  99  98 101  99 106 104 102  98  98  99 120 182 206 206 205 190 140 109 103 103 112 178 212 213 203 124 104 150 216 206 195 120 103 108  99 106 101 105  98 106 150 206 210 208 182  95  96 102 129 162 143 198 209 211 146  93 188 207 207 214 174  97  69  87  97 101 101 102  97  88  79  87  94  97 100 103 101 101 105
  99  91  90  95 103  90 100 108 100  96  92  93  97  93  93  97  96 102 100 107  93 108 104  99  98 102 101 105  97 104 106  96  98  99 105 162 208 209 206 208 160 118 104  98 100 100 154 211 209 210 152 107 139 206 215 194 117 100 101  99 104  98 102  95 104 149 208 210 211 152  84  93 117 169 200 182 196 202 205 147 115 201 210 211 213 142  79  71  87  90 112 123 123 109  89  75  79  94  91  91  92  98  97  94
  93  92  96  95  95  95  96  95  87  81  74  76  79  82  85  81  84  90  85  90  84  93  89  91  93  98  98  96  95 101 100 102  95 105 130 192 208 206 197 173 123 109 103  99  97 103 148 207 208 212 164 104 128 190 194 176 121 101 113 108  94 100  97 105 109 159 211 209 216 149  93 125 175 202 208 196 199 211 210 141 129 202 208 211 192 108  61  82 102 102 130 169 159 117  90  73  66  93  95  90  94  93  98  92
  90  92  98  93  93 100  95  97  76  68  69  75  74  75  66  73  77  73  80  72  71  70  76  80  84  95 105 105 100  96  94  98  98 106 154 200 201 198 183 149 111 103 101  97 101 105 134 208 211 211 180 116 125 159 165 150 115 101  99  99  85  96 105 107 106 150 211 214 215 194 188 207 209 213 214 198 206 209 214 133 140 220 212 209 189  91  68  82 114 151 193 214 200 129  83  76  81  96 101  99 100  91  95  97
  95  94  98 100  99 100 102  92  75  73  77  81  90  91  75  78  78  80  87  80  73  69  67  72  73  78  89  97 109 106 102 101 112 115 131 164 179 193 160 113  88  88  99 106 101 101 119 170 188 198 172 117 123 132 131 124 112 105 105 108 105  99 102  99  97 127 202 209 212 208 211 211 210 206 211 189 208 211 217 148 141 207 207 206 189 114 113 132 165 197 212 207 201 134  77  80  96  99 105 102  95  92 100 102
  97  95  95 100 100  99  97  97  84  78  77  79  78  74  74  72  77  69  62  59  69  78  76  69  65  78  90  91  96 100 101 104 110 116 101 125 136 136 113  88  80  73  74  88  94 105 104 117 142 149 137 106  94 104 114 114 107 100 106 101  88  96  94 107 118 104 155 208 211 214 209 207 204 205 184 154 199 211 205 128 128 205 215 209 213 202 207 210 205 199 191 207 185 116  88  95  94  89  94  93  88  90  93  92
 103  98  98  97  96  96  97  99  90  89  94  96  86  85  82  73  65  73  73  71  73  70  72  69  67  91  95 102  98 101 105  90  75  74  83  97 105 109  87  72  79  81  77  87  99  96 102  95 115 124 113  88  85  85  88  92  98  96  96  97  98  97  93 101 106 101 118 152 208 216 219 208 193 158 131 139 207 202 187 120  87 170 209 208 209 216 208 204 205 201 205 167 128  84  85  90  95  96  93  91  95 101 101  95
  97  96  97  92 101  98  95  99  98 103  97  91  95 100  89  80  70  68  73  71  70  69  68  70  70  93  97  99 100  93  92  81  78  78  78  82  83  86  79  71  77  80  75  78  96  96  98  91  88  87  84  83  77  74  70  75  75  81  86  83  80  91 106  99 102  98  94 107 127 149 162 150 133 107 113 148 193 181 170 109  84 123 188 214 214 206 209 226 200 177 136 112  99  98  95  92  98 103 100  93  92  97 103 102
  97  97  99  92  97 100 102  98  92  96  95  90  93  93  78  73  69  71  70  71  70  67  62  73  78  94  98  98  94  95  88  73  68  67  75  75  71  79  76  77  80  75  72  73  82  91  99  87  75  75  80  80  80  80  76  77  79  79  75  69  71  80  72  83  84  86  94  96  97 100 108 113 110 103 105 120 142 147 138 103  88  97 130 182 195 190 187 168 159 129 100  93  93  97 101  99  95  99  99  97 101 105 102 108
  92  92  99  93  91  91  88  98 100  98 100  94  87  80  71  74  69  71  69  70  70  62  68  75  80  88  95 100  98  91  76  76  68  63  73  70  71  72  70  70  71  68  66  69  74  89  96  87  79  73  77  73  75  75  70  73  79  75  78  70  73  76  68  67  69  73  79  85  86  99  98  96 100  96  91 100 115 124 120 107  99 102 105 106 124 130 122 108 113  98  91  95  94  94 101 103  96  99 102  98 102 106  97  99
  89  88  92  99 101  93  92  94  95  90  97  94  84  69  66  78  72  72  70  73  64  70  80  80  88  90  87  96  92  94  71  70  64  67  70  72  75  75  68  65  71  65  67  78  70  87 103  90  83  75  80  74  74  76  74  75  77  70  74  79  79  77  68  65  71  69  75  79  80  88  93  95  94  90  95  98  87 108 114 103  95 112 108  96  99 103  98  89 101  95  96  94  97  92  98  96  94  95 100 102 102 106  98 104
  93  92  91  93  89  94  90  93  92  92  96  86  72  67  69  69  69  71  69  73  69  64  73  91  97  96  92 107  91  83  69  71  66  63  67  71  74  77  79  81  90  72  66  68  67  77  93 103  76  73  69  71  69  69  75  70  73  69  69  71  80  82  76  70  70  69  76  73  71  89  93  92  95  90  79  68  80  92  85  84  88  81  92  88  87  80  88  95 100 100 103 100  92  87  95  93  97  95 106 101  96 103 101  96
 100  99  94  98  85  97  94  99  92  98  92  78  66  70  66  70  67  66  66  76  76  79  83  90  96  98  93  88  75  68  61  66  63  61  63  64  63  69  71  75 102  97  80  84  80  73  80  96  92  82  70  69  78  81  71  71  70  71  69  68  78  83  85  87  88  82  74  69  69  87  89  98  97  86  78  77  91  95  81  80  88  86  83  88  90  87  89  91  97 101  97  92  99  99 103 101 102 105 100  98  97 102 101 103
  97  92  98  95  96  94  95  94  96  98  86  76  70  68  63  73  67  64  73  75  76  79  91  93  96  97  92  85  76  67  62  67  57  68  66  64  70  66  68  94  86 101  92  70  69  78  79  94  95  87  77  72  74  74  70  64  69  70  70  79  64  88  88  91  96  82  68  69  74  90 105 102  90  84  84  92  80  82  74  79  78  74  78  81  78  80  90  91  94  96  88  85  93  96 103 100  95  99  98 102 101  95  91 101
  96  90  90  89  93 102  92  91  88  88  71  71  72  69  71  74  69  70  74  72  61  76  96  86  80  88  91  82  67  67  64  63  68  70  66  67  67  66  79  93  94  88  86  82  75  78  71  86  96  97  79  67  71  70  71  68  71  75  86  74  70  72  85  96  92  74  68  70  72  94  95  91  96  97  92  82  79  86  84  80  81  75  81  71  70  76  82  93  96  97  90  89  94  95  98  97  93  96 104 101  97  95  97  96
  89  81  92  87  78  66  80  83  85  88  73  71  77  74  68  61  67  79  72  74  68  69  76  69  71  75  74  74  67  65  66  68  62  72  73  69  69  64  74  69  75  70  69  73  76  81  67  89  95  96  90  72  66  76  76  68  68  73  63  69  69  66  82  92  78  69  74  64  86  98  95  93  95  95  93  79  68  74  72  77  80  75  70  72  71  77  87  96  99 101  94  89  94  98 101  97  99  99  99 100  96  93  99  95
  93  90  86  72  64  70  66  82  88  87  74  67  86  77  67  62  69  86  73  67  71  66  64  68  76  73  73  68  74  73  63  69  57  66  66  61  77  67  80  77  75  66  72  70  67  80  82  73  89  98  99  81  71  70  72  68  75  68  69  71  67  74  86  85  74  66  70  78  92  98 100 101  92  88  82  71  76  69  75  74  75  73  65  68  76  78  91  96 101  97  93  95  97  98 104 101  97 100 102 101  99  93  94  94
  92  92  84  62  59  74  75 101  94  85  78  81  71  71  67  65  68  67  65  63  63  63  68  71  74  74  88  90  85  68  71  74  62  70  75  68  83  73  73  73  77  76  71  72  80  78  82  82  90  99  94  86  74  72  73  66  78  73  66  66  65  67  78  73  68  67  67  79  88  90  93  94  90  83  76  78  76  68  74  71  72  72  71  79  72  76  92  87  94  96  98  95 101  96 100  99 100  99  98  99  98 100 100  93
  97  90  87  73  80  72  79  86  90  97  90  76  74  73  69  70  78  80  76  74  73  78  77  75  87  87 100  93  79  74  72  69  63  72  69  64  78  70  70  77  76  70  83  83  85  90  95 101  90  95  94  99  87  69  68  60  69  70  70  78  70  64  68  68  68  69  75  88  88  94  92  90  91  79  66  70  81  70  71  77  75  74  75  76  74  90  93  95 100  96  98  97  98  96  91  93  97 101  94  95  92  98  97  95
  91  90  92  84  87  77  87  93  96  89  86  88  83  79  87  95  96  89  87  80  83  93  87  88  92  86  88  82  85  74  74  75  64  72  74  71  77  74  79  74  83  86  85  91  91  96  93  90  97  94  86  88  95  76  72  64  67  69  68  72  66  72  93  80  63  72  74  86  90  97  93  91  78  67  70  65  73  73  77  77  80  75  77  74  85  98 102  97  89  94 101  96  90  90 101 103  94  92  90  91  96  92  98  92
  88  89  81  95  90  90  99 102  92  88  97  88  89  91  88  92  89  96  97  84  84  91  94  93  89  87  95  89  86  90  82  82  88  92  99  93  88  85  89  93  97  91  87  89  92  96  96  91  92  94  87  95  93  88  83  71  70  71  67  73  70  68  71  64  70  78  87  94 102  92  91  86  78  81  84  75  68  74  80  74  85  77  83  87  98  98  98  97  96  87  97 101  95  91  95  96  93  98  96  93  93  98  89  91
  90  91  93  99  97  87  91  98  90  88  83  84  86  87  88  89  84  90  94  83  92  96  94  90  77  88  92  87  80  85  89  89  90  89  93  85  89  88  93  95  90  88  88  96  96  97  90  86  95  97  88  92  93  96  94  84  81  79  77  68  66  70  72  68  75  81  87  90  91  90  97  92  73  77  73  61  60  67  73  76  73  77  83  94 104 103  92  91  89  90  86  96  99  95  92  93  93  95  98  98  95  94  80  68
  87  89  97  84  77  79  85  79  74  84  71  69  74  74  67  69  73  68  68  71  80  81  91  89  81  86  82  80  94  95  81  86  97  92  88  85  90  88  84  87  98  99  89  90  88  82  88  84  85  85  86  87  93  88  92  82  86  95  96  89  89  82  87  94  88  88  91  85  95  97  97  91  79  72  75  72  68  68  69  72  77  77  92 113 114  99  77  74  81  74  80  92  91  89  92  92  92  97  98  85  87  72  58  46
  90  81  70  70  71  71  73  72  62  69  70  74  72  67  70  73  70  66  66  69  70  67  63  66  71  66  65  67  73  67  66  71  77  79  84  86  81  82  81  79  85  81  90  76  85  81  99  84  80  83  84  87  94  90  87  95  94  97 103  94  89  83  86  93  87  85  92  89  93  94  92  92  96  87  74  70  72  68  69  78  88  98 108 119 108  86  72  74  77  73  77  92  98  94  92  92  93  97 105  92  67  42  44  41
  76  70  73  67  69  68  72  67  71  76  71  71  63  66  65  67  65  66  67  72  68  64  64  60  62  70  66  68  66  60  68  70  67  69  70  65  69  73  75  74  78  69  73  82  77  69  82  78  79  76  78  82  82  81  88  86  94  96  90  87  98  92  92  92  87  92  82  84  86  95  92  91  84  84  91  93  85  77  81  82  90  98 104 101  96  70  73  82  73  70  77  89  95 100  97  97  96  92  73  51  47  45  45  60
  65  64  73  70  71  66  69  71  64  73  72  76  71  78  76  66  65  74  70  70  67  65  67  73  69  70  66  67  68  65  69  68  68  70  62  67  73  72  64  67  65  65  71  62  62  68  71  66  69  68  65  73  73  72  77  72  73  68  74  90  83  73  77  85  81  80  90  85  83  84  90  92  79  90  91  88 101  87  91  93  87  89  91  95  98  82  81  80  71  71  76  88  90  95  92  98  94  72  53  48  57  53  52  56
  62  64  62  71  78  66  66  68  59  66  64  62  66  64  69  68  66  71  62  61  65  69  78  69  62  65  69  65  62  68  63  63  63  69  65  68  65  66  67  73  65  66  60  57  68  75  70  63  60  65  73  69  64  73  64  68  79  64  68  66  71  69  72  71  68  71  77  76  70  74  69  76  83  83  84  86  94  86  90  89  97  98  89  93  97  90  79  74  75  76  80  89  91  97  95  90  60  43  41  47  54  56  72 115
  59  64  66  74  76  68  71  74  74  79  73  65  70  75  68  66  64  66  61  65  73  63  64  66  69  74  68  65  62  62  62  66  68  63  67  67  62  63  70  70  71  62  63  66  69  65  62  60  62  62  68  70  74  74  62  59  67  70  65  63  63  69  60  68  67  68  69  67  71  67  64  67  75  72  69  79  70  70  71  78  70  70  65  72  80  72  74  81  87  81  86  94  99  92  68  52  44  48  38  41  52  88 129 138
  66  64  69  78  66  72  75  73  70  77  76  78  75  76  70  72  65  63  64  66  65  63  61  70  61  61  59  65  66  59  66  64  63  61  61  64  57  63  63  57  64  66  61  63  60  60  63  55  67  62  65  66  69  64  63  54  73  72  63  66  69  67  66  66  67  67  68  65  68  70  67  64  73  68  66  64  64  68  62  63  61  60  67  65  64  71  78  77  80  79  94  93  91  75  54  53  53  49  38  59 102 132 142 142
  64  68  72  69  61  66  70  73  63  67  68  72  72  68  65  64  65  64  64  64  66  61  62  63  60  63  64  65  66  60  66  66  66  68  72  67  60  69  61  59  59  69  70  64  67  69  57  62  62  64  61  66  67  59  64  65  69  67  71  69  68  69  61  61  62  63  63  61  64  70  69  73  73  73  71  68  64  67  72  72  73  65  61  62  69  79  81  74  84  91  81  78  56  55  52  48  45  48  65 111 138 144 148 152
  58  58  63  71  77  79  80  73  70  72  71  63  62  63  62  64  67  62  64  60  64  61  63  62  62  64  68  59  61  63  65  63  67  71  71  60  65  70  68  66  65  55  62  72  70  58  59  65  61  72  65  65  66  61  65  66  60  66  71  72  71  63  70  67  70  73  64  64  67  66  65  65  65  67  64  62  67  65  73  74  69  67  61  61  69  73  70  74  78  81  71  58  54  48  40  49  58  71 121 140 147 147 154 152
  59  64  70  65  70  77  70  75  69  64  63  65  66  66  65  61  68  64  63  67  55  62  59  62  63  60  66  61  62  67  67  62  62  67  67  70  66  70  73  70  68  65  67  64  66  64  66  63  59  61  65  63  65  66  66  68  66  73  67  62  68  75  70  72  64  67  67  65  67  61  68  68  64  66  69  68  72  59  65  68  67  59  59  71  74  84  83  81  73  67  59  54  49  50  46  59  91 132 141 146 143 147 152 154
  68  66  70  64  68  60  73  74  66  63  65  61  64  60  60  60  64  66  63  68  59  64  62  60  65  64  63  64  69  64  67  62  57  66  69  72  62  70  68  71  71  72  64  65  66  67  66  67  69  66  67  62  68  75  71  68  66  71  72  68  66  70  65  69  70  69  68  60  67  67  70  68  63  63  61  61  64  68  66  61  67  68  60  77  60  66  72  75  59  58  50  49  49  45  63 108 143 152 148 148 147 149 150 152
  64  68  75  67  75  62  68  67  63  64  70  66  73  74  71  71  63  64  66  66  61  60  58  67  68  74  72  73  73  65  72  72  72  76  79  77  80  76  75  77  67  66  64  72  71  69  70  67  66  72  70  72  72  69  74  71  73  75  60  74  78  73  67  68  68  66  68  70  71  78  64  61  59  60  62  71  64  68  65  68  63  73  73  74  71  72  67  60  51  56  48  44  53  75 110 137 146 150 152 155 153 155 156 150
