P2
152 62
255
 116 115 120 122 123 128 128 126 129 132 134 136 135 140 136 138 142 146 147 146 147 143 145 145 143 144 141 139 141 139 142 139 138 133 134 132 132 131 129 129 125 127 123 121 126 130 128 126 126 125 124 127 125 125 125 127 126 126 126 124 125 127 127 127 131 134 134 133 131 131 130 130 130 130 129 132 130 130 132 132 133 129 128 127 126 128 130 129 131 130 130 130 133 132 129 126 122 122 121 119 121 123 121 122 121 118 115 110 116 115 112 115 117 112 113 112 110 111 113 107 108 109 106 114 112 111 116 116 109 116 115 121 118 115 114 113 113 105 105 104  46  31  53  87 102 114 116 107  97  46  30  78
 116 115 117 120 121 124 123 124 129 131 132 132 133 137 143 147 149 147 152 149 146 144 147 147 145 144 141 139 144 143 143 141 137 132 134 134 135 134 133 133 129 130 129 128 127 127 127 125 127 125 126 129 128 128 130 132 129 127 127 128 129 129 130 131 131 133 133 132 129 131 132 131 132 134 131 132 133 134 134 138 138 136 132 129 127 131 131 128 129 131 134 133 133 133 129 126 123 122 120 118 120 122 121 122 121 115 119 119 113 116 115 113 114 113 113 114 113 115 111 105 106 111 112 111 115 115 116 118 115 116 118 120 116 116 117 114 116 114 110 106  58  31  44  86 102 110 110 112 101  52  24  65
 119 118 115 114 123 128 129 130 132 133 134 135 136 135 141 141 139 146 148 143 149 152 147 148 149 149 149 144 142 139 139 138 134 132 135 134 136 135 133 135 132 136 130 125 129 132 131 129 130 127 129 131 129 132 133 132 129 127 128 131 130 130 134 133 133 133 134 134 132 134 137 137 136 135 133 133 134 137 139 137 136 136 132 131 130 133 133 132 131 135 134 134 133 132 129 128 127 124 123 121 121 120 121 124 121 115 114 118 114 116 113 114 115 113 112 113 112 115 114 110 113 107 110 114 117 112 114 112 117 117 118 115 115 117 120 118 111 110 109 102  56  26  31  83 104  99 105 112 112  68  29  48
 119 125 123 120 124 129 130 128 131 132 132 136 135 136 139 146 145 142 147 145 150 152 147 148 148 145 146 143 143 142 144 142 138 142 139 137 140 142 139 138 134 133 130 127 124 130 131 131 134 133 134 134 128 129 133 132 128 127 129 132 131 133 139 135 135 135 135 136 134 135 136 138 137 136 139 140 136 136 138 137 135 136 132 135 135 134 132 134 132 133 133 138 137 134 133 131 128 126 125 123 123 121 122 125 122 119 118 119 117 118 117 110 112 112 110 110 114 114 116 109 111 112 112 115 120 110 115 115 118 115 118 122 122 118 115 112 111 109 108 109  76  36  30  69  97 103 104  99  96  78  41  46
 120 123 125 124 126 124 124 124 130 131 131 136 134 136 139 143 147 145 145 147 146 147 148 150 150 148 148 146 146 148 144 144 145 147 141 143 143 142 140 138 138 135 132 130 127 133 132 129 134 132 133 133 130 134 136 135 137 139 135 133 131 128 133 132 136 135 135 136 139 139 138 140 139 139 139 139 133 136 136 136 141 139 134 138 134 134 134 133 132 133 133 137 138 137 132 132 132 130 125 123 125 123 126 126 120 120 119 118 117 116 115 111 109 111 110 114 114 113 111 110 112 110 109 111 112 113 111 114 114 112 121 117 117 112 113 115 115 109 107 109  96  46  30  61  98 112 107  99 100  99  50  34
 125 123 128 129 131 127 125 127 130 130 129 131 132 136 141 144 150 152 147 147 145 148 152 153 152 152 148 144 145 148 148 146 145 145 143 143 142 141 141 141 142 140 137 134 134 132 134 137 138 135 134 135 135 136 136 138 139 139 134 132 131 131 133 131 134 136 137 139 140 139 139 138 138 138 135 136 137 136 135 134 138 136 133 135 135 135 135 134 133 135 138 137 137 135 134 133 132 129 129 129 128 124 127 128 125 125 123 119 114 115 113 112 115 114 106 104 108 106 106 109 109 110 107 108 112 113 110 109 112 114 112 110 114 117 113 113 115 113 110 116 106  59  28  53  95 115 116 110 102 101  64  26
 125 121 129 127 128 126 126 127 125 127 130 132 139 143 143 144 143 148 150 149 150 148 146 151 152 148 147 144 145 147 148 147 147 147 146 144 140 140 145 146 143 141 140 138 137 137 137 140 138 139 138 136 139 137 137 140 140 140 136 133 132 133 133 133 132 137 138 142 140 137 136 137 136 135 134 132 134 133 135 137 138 139 139 134 138 139 139 136 136 139 137 134 136 135 137 135 134 133 133 132 131 133 133 131 131 129 128 124 119 120 119 115 117 115 109 108 109 107 108 112 113 113 112 114 115 112 111 115 113 117 116 113 115 114 112 109 112 112 108 113 105  68  30  40  85 114 129 132 122 107  80  35
 125 126 127 129 122 124 125 125 124 128 131 132 138 141 145 148 146 150 151 146 150 147 150 151 150 149 152 148 145 147 149 149 147 148 144 144 143 143 147 147 138 135 141 140 141 139 139 142 143 141 141 140 143 140 141 143 140 140 140 138 136 135 132 133 134 138 136 136 135 128 131 132 132 132 135 131 124 131 128 128 133 137 139 132 135 133 133 133 132 134 131 133 138 139 137 139 138 131 133 132 133 130 134 135 136 131 130 130 126 126 120 118 119 116 112 113 117 114 114 114 115 112 112 111 111 114 113 112 114 122 116 116 118 113 117 117 118 119 113 115 113  85  37  36  78 115 129 137 138 121  96  45
 124 126 125 125 122 122 123 124 127 133 138 138 141 144 147 150 147 148 133 118 115 115 114 124 140 143 152 147 146 137 131 125 128 133 129 128 123 131 132 129 119 117 113 113 110 105 108 126 137 138 142 142 142 145 141 144 145 142 140 138 140 138 137 137 135 134 135 130 102  93  88  92  93  93  80  87  84  81  78  76  81  73  67  66  69  69  65  74  86  83  85  87  93  85  86  81  80  79  82  93 109 124 136 136 134 133 130 129 127 127 124 122 120 118 119 118 113 109 115 114 109 107 112 111 108 112 112 114 114 113 109 110 114 114 118 115 116 120 121 115 114  96  43  36  70 112 126 128 134 125 111  69
 126 127 121 123 124 122 123 125 128 131 135 137 141 145 146 147 148 138 102  41  34  39  40  48  49  51  55  53  50  49  40  46  45  42  44  43  47  43  47  51  51  51  42  44  47  36  43  70 105 133 143 145 143 149 147 145 149 147 144 142 141 138 138 139 138 138 136  96  59  55  53  64  65  67  60  58  57  56  57  58  50  51  50  51  49  47  48  50  46  50  49  43  39  50  50  43  52  58  49  51  74 112 132 137 143 139 135 134 133 128 126 122 118 122 122 122 119 116 115 115 111 108 114 113 111 114 118 119 114 108 104 104 103  99  99 102 104 103 111 112 109 103  56  38  60 107 127 125 127 123 116  80
 120 120 121 120 126 124 126 130 133 134 134 133 134 139 147 150 151 136  54  30  37  40  33  37  37  35  29  36  36  35  34  39  33  35  32  39  37  43  41  41  43  43  45  38  49  44  43  43  63 114 141 144 144 147 149 149 150 148 146 145 144 142 141 140 140 140 105  52  43  48  52  62  69  78  67  71  65  66  67  63  54  52  53  59  57  54  44  50  42  41  49  49  60  52  49  47  47  40  47  53  64 114 136 140 147 141 140 140 136 132 128 125 124 126 121 124 124 124 119 115 114 112 113 111 112 109 114 112 111 105  99  94  92  88  86  84  88  88  86  81  85  96  68  42  58 104 114 115 115 111 109 100
 116 117 124 124 124 124 131 132 136 136 140 142 138 142 145 150 148  85  37  32  62  89  87  82  70  64  74  73  70  74  74  73  79  80  75  70  82  86  90  92  94  95  99 111 121 116  68  40  45 101 139 144 143 144 143 150 147 149 149 146 145 143 143 142 145 129  67  41  44  90 134 145 141 150 149 142 151 163 164 160 157 169 174 169 165 167 167 163 158 152 151 148 147 140 129 128 143 104  44  42  49 107 138 140 146 142 141 140 135 132 130 128 126 126 126 125 126 129 123 118 117 116 116 115 110 107 110 107 101  97  96  90  89  88  94  91  87  83  83  83  88  93  69  36  52  98 112 118 116 117 111 112
 123 121 123 128 126 120 119 114 119 128 136 138 147 147 148 151 126  52  39  59 171 222 221 216 213 212 217 216 215 216 218 214 217 215 214 213 216 218 225 221 219 221 220 226 231 227  92  35  59 128 144 148 150 149 147 149 147 149 148 148 146 144 147 145 138  86  50  50  56 160 213 205 209 208 205 203 211 217 215 215 214 216 216 214 215 219 222 221 223 223 222 221 224 222 221 216 227 131  49  43  63 123 139 142 147 148 148 147 143 137 132 130 129 127 129 129 129 125 123 125 121 121 121 120 115 109 109 105 101  99  94 101 113 116 117 113 104  98  89  87  91  90  79  40  39  89 121 126 130 130 128 122
 120 124 126 123 119  87  82  75  83  93  91  91 112 128 136 141  75  40  54 141 226 226 224 225 228 228 229 230 230 229 229 229 228 226 229 228 227 229 228 226 227 229 227 225 229 216  71  42  77 137 139 146 146 148 146 150 145 139 140 143 145 147 145 150 118  55  50  40 134 220 217 216 212 207 209 211 215 214 213 211 211 211 215 214 213 218 220 219 222 221 219 216 218 219 222 222 195  81  47  55 111 136 138 141 146 146 143 144 144 141 140 138 133 129 126 126 129 128 123 127 116 113 113 109 109 108 103  97  96  94 102 121 139 148 151 153 149 141 136 125 120 112 108  62  34  74 122 132 134 138 139 131
 122 126 128 115  90  66  62  57  50  46  52  54  48  52  56  71  48  54 112 204 226 227 228 229 229 228 225 225 226 226 228 228 226 226 227 226 227 228 227 228 226 227 228 231 230 209  79  46  52  79  89  99 115 128 142 145 135  96  77  78  84  83  97 106  71  46  45  79 213 224 219 216 215 212 213 214 211 211 209 209 211 206 210 212 215 218 219 218 219 218 218 219 220 223 221 226 146  61  52  57  91 106 112 113 117 118 124 131 132 128 130 129 126 126 124 122 124 122 121 107  86  76  74  70  77  85  87  90  91  88 107 136 150 154 154 154 157 156 154 142 136 129 125  82  41  64 120 135 140 139 136 133
 123 121 117  90  65  69  62  60  71  64  62  55  55  51  47  60  52  84 180 226 225 227 228 223 223 228 224 225 227 226 226 227 226 226 225 226 227 226 225 225 228 230 230 230 228 221 146  53  43  43  45  43  39  51  64  83  82  45  41  42  40  34  40  43  44  42  41 147 228 221 224 219 218 217 215 213 215 213 208 211 214 213 212 214 218 219 219 221 218 212 217 218 221 224 222 220 118  55  51  43  50  57  53  57  52  51  48  51  57  61  60  52  62  65  70  71  76  83  95  78  65  60  60  62  66  78  77  80  84  92 119 149 162 162 158 162 163 162 154 144 137 133 129 102  48  65 113 123 126 127 131 126
 122 115  87  65  55  64 100 134 142 146 150 149 141 124 117 101 111 167 221 223 227 231 232 233 233 230 229 229 229 228 228 228 228 228 224 227 229 228 228 231 231 232 233 232 230 230 218 157 113  97 103 108  85  63  47  38  50  37  38  44  54  63  47  46  51  52  97 202 226 224 224 223 223 223 221 223 222 220 220 222 220 219 219 219 222 222 222 223 222 219 222 225 227 226 225 225 166 126 110 101 103 104  94  86  66  71  68  59  59  51  52  52  53  50  50  48  52  49  53  50  50  48  79  98 109 107 111 103 101 123 145 165 166 170 168 168 168 167 162 152 144 138 133 117  52  60 108 114 112 118 117 123
 122 107  86  72  69 104 174 201 210 218 224 229 228 225 230 227 231 232 227 233 234 231 227 230 232 229 231 230 230 231 231 231 231 231 231 232 231 230 231 233 234 234 234 233 231 231 231 236 232 228 225 216 187 150  94  51  43  38  42 113 156 173 166 148 136 144 187 223 229 230 225 226 225 225 224 225 224 223 224 225 224 223 224 224 224 224 224 225 225 224 226 228 229 229 229 230 227 229 221 218 218 217 213 205 200 197 190 172 156 138 113  92  82  67  54  53  50  50  48  44  53  93 169 200 207 200 190 182 177 172 166 174 171 173 172 168 167 165 162 155 145 135 129 117  68  59  95 118 120 119 124 125
 120 103  72  62  57  76 161 206 214 215 221 224 224 227 224 224 230 231 235 232 234 233 232 232 232 231 231 230 230 232 233 232 233 232 232 232 231 230 232 232 235 234 233 233 231 231 231 230 229 231 228 230 228 232 144  60  44  40  54 189 233 234 236 234 232 229 224 226 230 228 230 227 227 228 227 225 225 225 224 225 227 228 227 225 224 224 225 225 226 226 227 226 228 229 230 227 226 224 222 225 225 224 225 224 221 224 223 225 224 225 225 211 204 184 148 122  95  49  49  48  68 149 205 209 209 209 202 203 198 190 175 174 175 172 170 166 169 168 164 154 146 139 129 115  73  45  89 127 132 134 138 137
 125  98  61  59  54  53 112 208 220 221 226 225 227 226 223 229 230 230 231 229 233 234 234 233 232 233 234 232 232 232 233 231 234 234 234 233 232 232 235 233 233 232 235 236 239 239 236 237 238 238 236 236 238 224 129  53  36  36  57 205 227 226 229 225 227 227 229 230 230 230 231 229 228 227 226 227 227 227 227 227 227 227 227 226 224 223 223 224 226 229 227 228 230 231 229 230 227 223 225 225 223 225 221 220 218 217 221 221 222 221 225 226 225 230 229 222 155  57  45  44  54 122 170 196 209 208 207 204 203 194 182 178 176 175 167 167 164 163 165 156 148 142 133 113  76  42  74 128 134 140 142 144
 127 115  75  50  50  44  65 148 196 202 215 224 226 228 225 229 230 230 232 232 230 232 232 232 232 231 229 231 229 228 230 230 232 232 233 232 232 232 232 233 233 239 218 168 148 135 129 146 164 159 171 197 183 133  77  46  36  31  63 211 234 234 231 229 228 229 230 230 231 231 231 231 230 229 228 226 227 227 228 228 228 228 227 226 223 221 222 224 223 226 229 229 229 229 228 226 198 198 213 209 210 217 218 226 223 223 219 223 222 221 221 224 226 225 227 197 104  38  40  46  42  44  61  88 132 185 202 204 203 198 191 178 180 176 168 168 165 167 164 158 153 146 138 113  72  42  63 124 140 135 128 131
 127 123  89  46  49  43  43  63 104 137 152 166 182 206 226 225 227 229 232 230 228 231 230 230 229 229 226 227 229 229 229 231 230 228 227 228 228 229 231 234 233 227 122  48  56  52  47  54  52  46  56  72  58  53  48  36  35  31  39 105 138 179 199 208 228 231 228 232 230 231 231 231 231 230 229 228 228 228 228 228 228 229 228 226 224 222 222 226 220 219 227 229 229 227 226 224 114  55  68  72  78  91  96 116 146 171 181 202 203 217 226 225 223 229 208 128  64  47  70  68  35  40  50  46  44 123 191 201 202 198 195 188 187 176 169 169 168 166 168 165 160 151 139 105  57  36  64 116 134 124 119 124
 136 129  87  51  42  36  33  38  43  48  61  63  71 106 194 220 226 232 229 228 229 231 230 231 227 224 219 219 224 224 221 227 226 223 222 226 229 231 231 237 243 180  53  44  48  44  31  32  38  41  47  47  54  56  58  45  33  31  33  38  33  42  60  92 137 207 226 229 229 229 230 231 229 228 228 230 229 228 228 229 229 227 226 227 225 224 223 225 217 221 228 230 230 227 235 188  66  43  58  81  80  79  87  89  97  81  65  68  75 128 195 220 227 214 128  67  44  71 125 123  97  75  49  41  62 145 194 203 202 195 192 194 195 184 177 179 175 168 172 169 162 156 145 110  61  41  50 105 123 123 120 122
 141 130 101  65  48  39  39  44  43  50  46  40  36  55 152 225 231 233 228 228 231 230 230 228 227 221 218 224 224 222 222 227 226 223 224 228 231 231 232 233 222  92  38  38  34  29  34  29  31  33  29  36  49  48  59  53  45  39  38  33  35  43  42  40  89 191 223 227 228 228 230 227 226 227 226 228 228 228 228 228 227 227 225 226 225 224 225 223 220 225 229 230 229 226 225 121  41  38 102 134 140 141 147 140 117  62  46  56 117 191 212 222 223 150  73  49  63 123 144 143 129  84  41  44 115 178 200 201 197 197 202 200 200 194 190 183 175 173 174 169 162 153 145 110  49  37  41  96 128 129 133 139
 141 141 140 128 124 115 104 100  86  77  44  33  44  51 145 224 230 231 227 223 227 227 228 230 222 210 213 222 222 222 223 225 224 224 224 225 228 231 231 241 169  47  42  35  35  28  30  34  33  24  31  34  32  30  29  30  38  44  54  50  51  45  34  46 122 213 226 227 227 229 229 228 226 227 227 225 226 227 228 227 226 226 227 227 227 226 225 219 223 228 230 230 226 229 211  76  43  45 129 147 147 151 150 112  62  50  57 130 212 228 228 219 142  72  46  59 113 142 144 144 114  56  47  71 174 204 208 207 200 197 197 198 194 192 192 188 180 177 175 164 155 153 136  74  35  34  37  86 139 147 147 150
 144 144 144 147 142 145 140 142 143 109  41  41  41  65 196 231 227 229 226 224 228 229 229 228 217 214 220 221 221 221 223 226 224 224 225 229 232 233 235 237 102  40  46  68 123 126 123 105  79  63  45  30  34  28  26  25  31  78 118 127 123  75  43  55 159 222 225 224 227 229 228 228 225 224 225 224 226 228 229 226 224 226 228 228 229 228 224 221 224 228 229 227 223 234 173  53  49  76 143 147 153 143 111  54  46  57 151 227 229 229 229 145  71  47  50 115 142 143 146 131  85  54  43 122 203 207 210 209 203 201 196 189 193 199 197 189 186 176 171 164 148 117  72  34  31  36  40  78 136 151 154 151
 144 142 141 143 143 146 144 146 157  82  35  46  40 111 224 233 230 228 226 227 228 231 231 224 216 219 221 219 219 222 222 223 223 224 225 231 232 231 238 187  50  40  63 159 218 228 225 215 202 196 174 142 125  68  31  30  41 108 139 144 121  43  33  76 189 225 228 225 228 227 226 226 228 227 226 227 230 230 229 227 227 229 230 229 225 226 223 223 224 225 226 222 224 227 122  43  42  98 146 148 140  94  52  53  74 173 230 227 229 223 160  76  42  51  98 137 143 142 139 106  58  42  49 157 210 209 210 204 203 200 199 200 200 201 200 196 189 166 156 139  76  34  29  32  34  40  35  64 134 153 157 153
 141 144 145 147 145 145 148 151 125  47  35  34  48 167 228 229 225 221 222 226 229 230 229 223 220 222 222 224 224 223 223 224 226 229 230 232 231 232 244 122  42  45 130 220 226 225 224 223 216 220 218 214 207 100  20  28  69 128 143 138  78  35  32 140 225 223 223 225 226 225 225 223 224 224 226 228 230 228 226 227 227 228 228 228 223 222 220 223 225 225 225 222 230 210  77  38  51 122 147 124  70  44  40  80 184 235 228 229 234 165  77  40  47  97 134 143 144 145 127  64  42  41  90 184 209 213 212 207 207 206 202 199 198 195 192 186 174 152 127  56  30  24  49  59  35  31  33  58 127 155 156 150
 140 145 145 146 148 148 148 139  72  43  36  32 102 219 231 227 227 224 226 228 230 230 225 219 221 225 225 223 221 223 223 223 224 227 230 232 234 241 213  66  40  77 202 227 228 230 230 226 222 224 223 228 191  57  25  40 106 140 147 115  41  40  77 210 226 223 219 225 226 225 224 224 224 223 226 229 229 227 227 227 226 226 225 227 223 220 220 226 230 229 228 227 231 162  51  45  71 139 114  60  45  41  85 192 233 228 230 232 171  83  48  49  92 135 145 149 145 148  94  43  44  47 145 214 211 213 214 212 213 209 205 205 202 197 188 177 159 130  66  28  27  63 101  78  37  36  33  56 125 147 151 152
 147 146 143 144 146 146 150 109  48  30  35  42 183 230 228 228 231 225 225 228 227 226 224 218 218 222 223 223 223 224 224 224 224 225 232 234 236 235 149  42  39 140 231 229 228 231 231 225 225 227 228 236 151  40  27  63 132 142 140  74  36  30 138 225 222 223 227 228 229 226 224 226 226 224 227 229 229 229 230 229 227 225 225 226 222 221 222 228 231 229 228 228 218 105  41  38  82  88  51  39  45 105 207 236 229 231 235 182  78  43  42  88 130 145 149 149 146 131  50  32  40  99 202 216 213 218 215 219 213 211 210 209 201 197 185 170 153  78  31  30  79 127 125  92  38  39  40  63 124 150 150 151
 149 146 147 147 149 150 138  63  39  34  37 105 223 228 229 230 226 227 228 229 231 226 225 222 222 224 225 225 222 223 223 223 228 230 232 236 233 229  86  39  70 210 233 230 230 232 231 226 226 230 229 232  91  34  28 101 139 142 117  42  36  60 214 231 225 223 226 229 228 227 229 229 229 230 233 231 232 232 231 229 229 230 227 225 224 224 227 233 228 227 225 230 184  61  42  43  51  43  36  44 121 206 234 226 232 235 187  85  53  40  77 134 148 149 151 149 145 101  36  38  40 155 220 214 212 215 212 217 213 214 212 206 200 192 187 160  94  34  28  79 126 131 130  96  35  32  36  40 106 135 146 148
 146 146 151 150 149 145 122  40  30  30  45 177 227 228 225 226 223 224 228 227 227 223 222 223 221 223 225 221 222 224 224 222 223 230 230 233 240 178  54  45 121 237 233 232 234 232 230 228 230 232 237 177  48  35  44 112 139 141  74  38  75 120 227 220 224 226 229 229 227 227 229 230 230 231 231 231 228 233 231 228 227 228 225 222 223 227 231 234 230 228 227 224 129  41  48  48  50  38  53 129 221 234 226 229 236 186  79  48  51  74 132 145 150 149 150 148 138  60  35  31  68 195 216 216 213 213 215 218 214 213 209 204 205 198 188 136  43  19  60 116 105  88  82  70  36  39  37  42 106 128 131 129
 152 149 151 152 151 141  92  37  33  36 101 225 225 225 225 227 226 228 230 226 225 222 217 219 223 224 226 223 225 227 225 230 229 232 233 238 221  95  47  65 189 235 229 231 233 233 228 225 230 229 232 117  36  38  50 115 142 122  45  34  78 190 228 219 221 226 228 226 224 226 227 230 233 232 230 229 230 230 229 227 225 225 223 223 225 230 232 232 229 228 229 204  85  45  49  43  38  66 150 225 232 230 231 239 185  92  52  48  68 125 143 148 151 150 149 147 103  41  34  34 124 219 217 213 212 217 216 216 216 215 212 208 209 200 174  88  29  31  51  50  31  27  28  28  31  33  31  35  91 119 124 120
 151 149 152 155 156 143  68  37  31  43 164 228 225 222 225 222 224 227 227 226 224 221 218 220 219 221 225 224 220 221 224 230 230 234 235 240 190  51  42  98 230 229 230 230 227 229 225 226 232 230 202  58  38  32  51 120 142  94  43  31  92 223 222 222 224 227 228 228 226 229 231 232 233 233 230 229 233 227 227 228 226 226 225 226 229 232 233 232 231 230 223 154  59  50  49  44  73 172 230 231 229 233 235 187  91  48  41  54 115 146 151 150 151 150 150 142  71  36  42  67 182 219 218 214 212 217 215 213 213 213 211 209 203 196 129  37  24  27  24  28  23  32  23  27  29  29  28  39  83 115 121 116
 150 153 156 156 157 121  51  37  34  89 211 225 222 221 229 225 227 227 228 226 223 217 221 222 223 222 220 219 220 223 226 230 230 233 235 234 123  50  46 129 236 230 231 232 227 225 226 231 231 233 173  38  32  30  80 129 133  60  39  46 147 229 223 225 227 228 227 227 226 231 234 233 233 233 233 232 231 229 228 226 226 227 228 227 231 234 234 233 231 233 210 106  48  45  42  90 180 228 227 229 231 235 172  84  45  41  48 104 142 153 153 158 156 152 153 121  50  34  34 112 213 219 218 208 215 216 214 213 212 213 211 208 211 180  72  27  26  33  37  62  94 110  86  45  30  30  34  38  61 112 127 123
 152 155 157 154 146  84  42  46  68 163 226 222 210 221 222 225 225 222 223 223 222 218 219 222 226 224 218 220 223 225 225 229 231 231 238 182  63  45  57 190 240 230 231 230 226 225 227 231 230 230 132  34  33  34 106 142 112  46  40  65 207 226 222 224 226 228 227 226 230 232 232 235 234 235 235 231 230 230 229 227 227 226 227 229 232 233 233 231 231 238 177  73  47  54 121 209 230 227 233 232 226 170  87  48  35  57 105 139 146 150 152 157 153 155 151  80  32  34  45 164 223 217 215 212 218 221 217 216 216 216 214 211 207 137  39  28  36  59  92 135 159 168 160 109  47  33  31  38  40  94 132 133
 154 154 153 152 123  57  52  39  98 201 219 219 211 218 217 225 225 222 224 222 220 219 220 219 223 224 221 222 225 228 229 230 234 234 239 125  42  46  91 217 231 231 232 232 231 230 229 230 229 227 103  39  33  62 134 136  66  34  38 105 225 220 223 226 227 226 228 229 230 230 234 235 234 234 234 230 230 229 228 227 227 226 226 231 233 233 233 232 231 236 146  65 100 163 215 223 230 229 236 225 146  64  46  49  54 100 140 151 148 153 152 150 151 155 125  37  34  26  77 209 223 217 215 219 220 221 219 219 218 217 215 212 204 104  27  30  78 116 142 167 181 176 170 135  75  41  36  34  42  88 134 138
 151 148 151 149  66  29  38  58 161 222 224 215 217 217 221 224 225 226 226 223 218 220 220 220 221 221 221 223 225 229 231 231 233 240 203  60  40  37 106 210 233 236 235 234 231 233 229 228 229 220  79  38  30  87 147 117  59  43  49 160 229 222 225 230 230 228 227 227 228 232 235 232 232 228 227 231 228 228 223 224 227 228 228 231 233 233 235 235 233 228 144 154 207 222 227 229 228 235 215 132  59  63  49  42 101 148 153 155 158 157 153 154 156 152  79  31  34  40 147 223 220 215 218 221 221 220 220 223 220 219 217 219 206 117  43  72 125 151 165 176 184 184 176 145  88  45  36  38  39  87 128 137
 153 154 151  97  39  37  37  99 203 227 214 209 216 218 225 222 222 225 225 227 224 222 221 224 222 223 225 227 229 230 230 231 236 234 133  41  43  51 109 167 225 237 236 234 232 230 228 234 228 191  52  32  43 115 138  65  33  41  84 211 226 224 226 229 227 226 225 224 229 232 235 236 235 231 228 229 227 226 223 225 227 228 232 233 235 235 234 233 226 221 213 224 225 223 229 232 239 209 126  61  60  48  56 102 146 154 152 152 156 158 155 157 153 115  47  33  25  57 186 223 216 217 221 223 220 222 223 223 222 217 215 219 213 176 147 157 175 181 176 188 190 189 179 143  80  40  34  36  49 110 127 134
 156 151 136  57  32  32  52 157 221 223 208 214 212 218 224 223 222 226 228 225 225 223 221 221 224 225 228 229 230 231 231 235 239 209  72  40  38  52  75 108 169 198 209 214 222 217 217 217 195 132  43  33  54 127  96  48  45  46 135 225 222 225 226 227 227 226 228 226 227 229 231 231 229 230 229 226 227 223 226 229 231 232 235 237 238 236 235 236 230 234 230 225 223 230 231 232 200 102  53  48  49  55 119 145 152 153 155 157 159 155 148 154 132  59  35  28  38 125 216 221 215 219 222 221 221 223 225 224 222 217 216 221 208 202 199 194 194 196 195 200 194 196 187 136  51  39  28  34  57 118 133 138
 154 155  98  35  37  39  85 191 220 219 214 221 219 225 223 222 223 228 227 227 226 223 224 223 225 226 227 228 230 232 233 231 236 150  52  38  35  43  52  50  53  58  58  70  76  75  90  98  88  53  32  31  83 108  58  49  43  64 192 230 225 227 226 226 229 230 226 227 228 229 230 232 233 230 230 228 228 227 230 232 233 235 237 237 237 237 235 232 232 236 231 229 230 235 235 180  96  63  57  56  52 105 140 157 155 152 156 154 153 154 154 139  67  26  33  34  54 177 219 218 217 222 225 225 225 224 224 219 212 217 217 216 204 204 206 205 205 204 204 202 201 196 184 114  40  34  29  29  50 109 135 140
 152 135  48  35  38  40 114 210 217 211 216 218 219 224 226 226 227 229 226 223 226 225 228 226 226 229 231 230 229 231 230 241 225  80  41  39  37  48  44  37  41  37  33  37  37  33  33  34  37  37  39  47 101  66  49  43  44 105 221 221 227 228 223 225 229 230 228 227 227 229 230 233 235 233 233 233 233 231 231 231 233 235 237 237 236 234 233 231 230 232 230 231 234 225 170  82  57  65  48  62 112 149 161 162 159 157 160 158 157 153 149  83  36  40  34  33 111 213 221 213 217 221 224 225 226 225 225 219 213 217 216 212 203 208 213 209 212 212 209 202 198 198 181  84  32  31  29  34  66 113 136 138
 143  84  32  26  38  40 107 211 218 209 215 218 223 227 227 225 224 221 228 228 227 227 228 229 228 228 228 229 232 236 236 245 174  48  33  40  47  51  38  31  33  36  34  34  32  33  34  37  32  30  37  71  85  59  49  45  63 162 230 225 225 222 223 223 222 225 223 221 226 229 228 230 233 233 231 232 235 235 236 235 234 233 234 236 235 234 234 235 234 235 234 235 226 153  86  47  39  47  64 117 151 154 155 156 160 158 158 159 157 155 109  44  29  38  33  56 164 219 211 214 218 222 221 220 223 222 220 217 216 214 215 213 215 212 215 215 214 210 209 205 203 201 139  40  31  28  32  37  57 108 131 139
  94  34  29  33  31  35 118 197 207 210 212 210 217 228 226 224 229 227 231 232 230 231 231 231 231 230 230 231 234 237 243 228 100  45  40  32  85 106  81  68  59  56  57  50  44  49  56  43  40  44  76 113  67  56  58  54 112 215 226 224 225 222 226 224 226 226 225 224 223 225 230 233 231 231 236 236 232 234 236 237 238 238 238 236 236 236 239 238 234 235 241 219 146  78  55  61  58  60 116 157 162 158 160 160 163 159 158 160 157 149  82  49  44  35  37 105 206 222 211 215 219 222 221 220 224 221 221 217 217 215 215 216 214 213 212 213 211 204 204 200 200 165  84  41  40  34  49  60  71 102 105  97
  40  39  32  31  30  51 158 203 200 213 222 223 223 224 228 230 231 230 225 227 229 234 232 232 230 230 231 232 234 236 241 161  51  37  44  47 111 144 140 133 127 132 135 125 126 131 137 122 118 118 137 122  63  51  46  68 166 230 228 224 224 226 226 223 226 227 224 222 225 228 231 232 231 232 236 234 234 236 233 236 237 238 238 239 240 237 231 228 229 236 217 127  65  44  47  43  45 112 148 153 155 157 157 155 158 156 156 151 150 122  54  35  31  32  45 161 225 218 210 215 216 219 221 221 220 214 220 220 219 222 217 215 219 212 213 214 214 205 205 198 181 110  54  63  76  71  96  95  98 136 170 165
  38  38  33  37  35  83 194 205 203 216 223 224 226 220 225 227 229 232 226 229 229 227 231 229 227 231 231 234 234 242 216  89  39  45  37  65 135 151 149 151 155 153 150 146 142 145 150 151 152 155 148  74  40  53  53  92 210 225 228 230 225 224 224 223 225 227 230 231 228 229 224 229 234 232 232 229 234 236 234 233 229 231 227 228 225 224 219 216 216 205 110  43  34  30  34  44 108 152 159 163 164 164 158 157 155 152 157 157 152 105  53  52  61  66  80 174 196 202 208 217 215 217 223 230 232 238 235 234 235 230 235 238 244 239 233 234 236 227 223 225 205 147 134 129 130 146 162 158 160 186 196 183
  40  32  39  33  61 140 203 207 215 219 227 230 227 224 230 232 233 234 231 231 232 229 228 230 232 232 236 235 238 241 151  47  42  45  50  96 148 158 156 160 161 158 158 159 158 158 159 158 158 167 124  59  39  42  54 132 222 230 233 231 232 230 226 226 228 229 231 234 234 232 234 231 232 232 231 233 230 231 230 228 223 221 222 221 216 218 220 225 219 141  93  96 104  92  99 131 170 190 191 187 191 207 203 195 202 205 204 205 201 171 155 158 159 157 146 161 169 175 191 206 204 204 205 207 194 198 189 191 191 181 183 179 177 184 177 176 179 170 165 166 164 141 137 138 136 148 171 178 171 187 196 173
  58  59  51  55 109 177 208 215 217 218 222 228 230 227 229 236 230 225 231 228 231 232 229 232 235 230 229 233 238 193  67  44  44  41  61 131 156 160 160 159 161 161 158 157 161 161 161 166 167 165  99  57  63  65  65 154 200 222 217 219 229 232 228 228 227 231 236 234 235 236 239 245 247 248 242 242 242 238 238 239 240 240 241 243 244 243 243 234 217 169 166 160 165 178 202 206 216 209 213 210 213 216 216 213 215 212 212 212 211 187 163 162 165 165 159 160 158 151 156 155 153 154 155 158 149 150 146 151 149 147 151 157 163 162 155 155 155 155 159 158 160 150 142 142 143 144 153 183 188 196 205 173
  73  61  51  71 145 186 209 211 222 224 223 228 226 228 227 231 234 230 230 231 226 228 231 234 233 236 231 233 232 164  86  73  82 103 124 165 175 177 178 178 179 173 168 172 178 177 176 181 180 170 138 138 140 148 160 176 187 171 175 162 172 178 183 196 189 185 201 208 200 212 212 216 213 212 205 199 205 195 194 188 182 182 181 175 173 166 160 155 157 154 153 159 183 212 219 219 216 215 219 214 217 211 207 216 216 216 216 218 219 213 191 169 162 165 160 160 150 147 148 152 150 152 150 153 150 147 150 159 159 164 160 165 152 156 164 166 175 171 178 178 178 173 161 149 136 141 159 187 202 207 218 206
 111 119 122 128 156 172 177 186 203 215 227 233 238 229 224 218 222 224 229 226 228 225 217 219 221 222 215 224 230 200 151 141 144 174 204 211 213 209 210 211 211 209 205 203 206 208 209 209 202 184 149 150 155 158 163 161 170 164 164 162 164 168 165 168 165 156 160 161 162 162 157 158 153 155 154 151 155 152 150 157 156 154 158 158 158 153 148 148 147 152 165 189 213 216 218 216 216 218 219 218 217 214 207 218 216 217 217 218 220 222 217 213 210 212 213 208 200 193 197 197 208 206 194 198 202 200 201 210 212 214 210 212 197 205 208 206 218 209 216 215 214 211 194 163 138 145 156 178 213 216 218 220
 136 136 148 144 149 145 143 146 149 146 148 154 159 157 152 151 148 146 149 151 150 150 151 152 151 143 149 148 148 152 147 150 167 204 218 218 219 216 215 218 213 210 215 214 213 216 213 216 216 213 178 152 161 164 157 158 168 168 166 169 167 175 175 173 171 163 171 169 171 172 167 163 159 165 165 163 166 172 175 184 179 178 187 191 194 198 196 200 194 191 203 213 219 219 218 205 219 215 218 220 216 208 212 218 219 217 221 221 221 224 221 221 219 219 221 221 219 217 206 206 223 219 219 217 216 218 221 221 218 219 219 217 215 218 216 217 218 218 210 219 212 218 214 198 158 150 156 167 214 224 223 225
 182 149 138 141 147 144 146 143 144 142 144 146 141 144 146 144 144 145 144 144 149 151 150 146 144 147 147 146 140 144 142 153 180 204 219 221 220 218 217 218 216 216 214 218 218 219 217 220 218 223 214 196 197 214 212 198 216 221 223 222 219 223 223 228 226 220 220 218 225 223 221 218 214 217 214 214 212 222 225 222 220 224 228 229 224 224 222 223 217 206 206 210 218 214 207 203 212 214 214 222 213 194 209 214 215 213 218 221 222 225 222 222 216 218 217 219 220 220 218 213 224 222 222 221 221 219 223 223 222 224 225 226 225 222 226 222 225 223 211 211 213 213 213 219 195 150 146 151 197 212 214 208
 234 211 185 184 186 188 189 183 182 181 176 177 175 179 182 182 184 186 186 184 183 188 193 194 193 197 193 196 200 201 204 209 215 217 220 219 219 214 214 217 217 217 215 221 221 219 219 223 218 217 223 220 213 216 221 216 215 217 222 222 224 225 227 225 224 223 221 220 218 219 220 220 218 219 221 220 219 225 224 224 222 226 222 223 223 224 224 220 222 221 219 216 219 211 205 205 206 221 216 226 217 192 217 224 218 211 219 225 224 227 219 218 219 225 219 225 223 219 226 214 215 221 220 212 209 206 210 215 208 205 207 204 205 201 204 197 194 188 181 170 184 180 166 168 156  82  55  56 129 146 136 129
 236 234 227 223 226 227 226 225 224 224 222 223 217 219 224 222 223 226 229 225 223 224 221 224 226 221 220 223 224 224 224 224 217 219 220 220 223 221 221 221 220 223 222 224 223 222 223 223 222 219 221 217 220 220 221 221 219 218 218 226 224 223 224 225 223 225 226 228 220 218 220 224 222 219 221 224 224 228 228 222 205 228 226 225 227 224 222 220 224 222 221 213 217 207 207 204 198 200 202 203 199 187 189 201 194 195 195 193 189 196 189 181 178 177 176 176 175 169 171 160 162 165 156 153 158 165 157 159 157 153 151 150 145 144 141 141 140 141 142 142 142 135 134 130  95  35  30  42 105 122 102  94
 233 231 226 223 226 225 224 223 222 221 222 220 220 221 222 219 221 224 225 225 222 224 224 225 222 221 218 221 227 225 223 220 218 220 222 222 224 222 221 221 224 223 222 224 226 225 227 224 227 228 224 220 216 220 219 222 222 198 200 208 213 219 223 224 223 226 226 225 219 221 213 213 216 210 210 206 201 198 198 194 198 196 183 180 180 181 176 174 173 168 163 165 167 162 162 159 159 158 157 153 151 147 148 152 161 167 154 145 144 149 143 146 145 146 144 140 142 139 143 139 143 137 132 132 133 143 138 138 138 137 132 133 135 134 133 136 141 135 133 135 137 135 130 118  47  17  25  55  98 106 109 106
 236 232 226 225 228 225 225 225 226 224 222 219 222 225 226 223 223 224 227 224 223 223 220 218 220 222 221 222 226 223 223 223 224 223 221 221 222 220 217 213 214 214 215 212 207 209 209 209 205 209 206 199 186 194 196 196 198 174 169 179 192 190 188 185 175 179 174 171 166 176 173 172 173 173 172 171 166 156 157 168 165 150 145 142 140 141 144 145 145 144 143 155 150 146 148 145 142 140 143 144 144 145 151 145 148 143 139 138 136 135 136 144 141 138 134 134 134 133 137 138 143 132 128 128 130 135 138 143 137 131 132 132 134 134 134 133 130 131 131 126 128 129 124  87  34  25  28  72 101 103 103  97
 232 229 231 230 228 227 225 222 220 218 220 224 226 224 223 213 217 212 212 209 213 210 214 217 223 220 215 205 194 189 187 194 196 187 184 185 183 171 172 167 170 174 173 167 164 166 164 165 158 151 158 160 163 168 161 158 159 166 175 172 178 175 155 150 143 146 144 145 143 148 141 143 140 138 142 143 141 144 145 158 142 137 137 136 140 139 141 138 139 143 140 141 139 144 141 140 145 144 145 141 138 143 152 144 142 141 143 136 135 134 136 137 136 135 132 134 134 132 136 138 139 131 130 128 126 132 134 133 141 140 137 132 127 129 131 135 131 126 127 133 127 122 105  53  28  25  29  77  97 107 106  91
 215 213 212 206 203 200 197 192 186 182 185 190 187 175 181 177 166 165 174 173 171 168 176 173 167 158 152 151 157 158 150 152 154 150 145 144 145 147 149 145 146 139 141 147 147 145 144 152 165 145 134 138 142 142 136 137 137 147 154 150 148 144 133 130 133 136 133 131 135 142 139 140 138 134 135 139 144 145 137 135 135 139 140 136 138 141 138 134 131 131 131 128 132 141 144 150 148 147 143 136 131 136 132 127 134 134 137 137 133 131 132 136 134 134 132 128 131 130 132 132 127 130 127 124 126 126 125 125 123 126 121 116 116 121 125 130 129 131 140 141 132 121  78  41  28  24  35  75  95 102  91  88
 184 183 181 178 169 167 166 164 157 157 158 151 148 149 154 157 161 167 161 153 151 142 138 128 129 136 138 142 152 151 144 142 143 142 134 134 132 132 141 137 135 129 127 133 135 133 133 128 136 146 136 141 150 148 136 130 124 124 137 133 130 126 127 130 129 127 125 125 124 131 133 128 129 131 135 129 130 129 129 125 130 135 135 137 138 140 144 141 135 131 130 127 128 133 135 133 128 135 130 134 135 140 139 136 135 135 135 129 129 126 126 130 133 133 130 129 133 133 134 133 135 133 130 131 137 136 130 131 128 122 117 113 116 122 124 125 123 127 135 131 121 123  75  32  26  22  46  85 103 107 102 101
 162 163 160 162 156 159 160 157 154 151 148 142 140 146 144 144 150 154 153 148 140 135 138 141 139 143 147 146 140 141 138 141 141 139 141 141 142 163 175 146 136 141 133 130 127 130 133 128 124 139 143 142 143 148 141 141 140 144 142 132 127 127 128 134 132 132 130 129 133 129 128 125 122 121 123 125 126 125 129 131 133 134 134 135 129 127 128 134 143 153 149 149 147 143 136 137 137 138 138 143 146 144 150 151 150 143 136 138 139 139 137 134 131 133 134 137 136 137 139 137 133 134 129 133 134 128 126 129 129 132 131 129 130 128 122 124 129 128 125 118 118 109  62  30  22  23  64 105 118 129 121 111
 154 152 151 156 153 157 160 160 160 157 156 155 147 151 149 148 154 154 147 146 149 146 144 146 140 140 138 135 136 142 140 142 142 138 143 145 142 146 147 136 137 134 139 139 139 139 132 135 130 127 136 138 140 138 146 147 148 149 145 142 141 144 140 141 138 139 139 132 136 133 137 141 141 145 136 133 137 139 147 152 152 155 152 151 145 142 143 146 147 143 145 150 149 146 147 148 147 143 136 135 133 134 136 142 138 129 131 133 131 134 136 133 132 137 137 135 133 134 133 133 132 132 134 133 134 132 133 137 136 134 134 129 134 131 128 129 129 130 129 129 128 112  44  27  26  29  67  92 110 126 120 115
 145 149 151 153 153 158 162 162 163 170 175 173 171 159 157 156 153 153 152 153 158 148 144 145 141 143 144 141 140 145 144 143 144 140 142 146 145 145 134 137 146 137 144 146 145 148 140 141 149 140 141 149 150 151 155 162 164 162 164 169 166 166 165 162 161 161 161 154 156 154 156 152 151 158 156 150 145 146 142 145 139 144 143 146 141 144 148 144 140 141 140 140 138 137 140 141 140 137 133 135 137 144 141 139 140 138 142 135 135 139 136 131 136 138 137 138 137 136 133 131 135 129 128 129 136 138 137 137 131 134 137 138 140 140 134 130 129 129 131 131 127 104  45  24  23  29  68  92 109 125 123 115
