P2
74 78
255
  42  42  50  59  81  80  80  90 103 115 136 155 167 183 195 198 196 194 195 189 183 182 179 180 185 186 183 182 179 156 136 123 127 127 121 122 124 122 117 117 124 132 133 140 149 147 149 142 143 145 150 152 154 155 131  57  41  57 114 134 156 161 163 160 157 153 151 151 152 156 158 163 163 160
  64  67  81  84  86  80  79  96 108 119 138 154 167 177 188 187 187 181 172 168 170 174 173 180 188 184 173 150 123  96  82  84 100 107 107 106 101 106 115 107 106 120 116 121 136 142 146 143 141 143 148 149 150 154 150  93  38  39  77 120 148 163 164 153 152 148 141 140 140 151 157 162 160 159
 112 100  76  70  78  79  80  87 107 125 136 146 151 159 170 164 162 164 161 164 170 181 178 173 162 140 112  82  65  51  49  50  69  70  53  47  44  49  49  50  45  57  62  75  85 112 129 134 143 149 152 150 152 152 146 122  53  49  53 105 134 155 160 155 151 146 147 145 138 136 150 160 164 166
 115  91  85  86  79  66  64  83 106 127 135 139 146 149 150 149 149 158 160 167 164 161 155 129 102  69  51  42  46  42  38  43  59  49  33  36  37  33  41  41  37  41  42  50  45  50  67  94 118 144 151 146 148 151 150 135  80  42  38  69 123 146 156 154 153 148 148 147 138 131 138 150 160 162
 101  86  83  79  65  59  62  88  98 114 122 127 133 137 141 142 140 149 153 149 139 122  91  55  44  36  38  39  39  44  39  39  49  41  39  37  43  46  49  49  51  50  54  54  58  56  52  56  64  87 110 133 144 145 151 147 117  48  43  46 108 140 152 157 152 146 144 144 137 133 131 139 152 158
 100  89  82  75  56  57  57  85  94 114 122 124 125 126 126 127 124 136 139 130  99  67  42  39  35  39  36  38  35  35  38  52  58  72  87  97 101 105 105 102 107 105  99  96  88  80  67  64  65  59  65  79 115 142 155 149 137  88  44  43  76 127 152 158 153 151 145 143 139 140 135 134 141 157
  99  85  85  69  54  53  65  90  97 108 114 119 117 112 116 114 115 121 101  78  47  51  35  34  35  41  41  41  45  54  80 103 111 120 124 131 133 134 138 137 136 132 134 139 134 122 109  92  79  69  65  57  68  99 134 150 148 128  65  55  62 100 140 153 153 151 148 145 137 139 137 133 134 149
  90  76  71  55  49  63  77  96 107 109 113 101  97  85  91  89  84  72  52  58  58  49  38  38  43  42  45  67  92 114 129 137 144 149 148 152 158 158 160 160 157 151 150 155 154 151 151 137 124 103  85  73  68  67  85 126 149 156  79  56  48  76 138 152 153 150 149 144 139 136 137 131 129 134
  90  72  60  55  61  77  88  87  95  99  88  78  77  86  79  64  45  50  74  88  62  48  44  44  47  58  97 131 140 152 162 162 161 163 161 164 166 166 168 167 165 164 166 164 163 166 167 158 149 139 127 104  85  75  74  71 121 150 121  68  48  56 112 150 157 151 150 146 143 140 138 132 131 133
  87  64  48  53  77  83  90  85  79  67  60  62  63  57  55  42  64  95  93  61  38  45  46  55  72 106 141 157 165 169 172 177 173 171 172 174 172 173 175 174 172 169 169 169 169 170 172 173 166 156 150 140 122  95  82  71  78 115 144  85  50  55  78 135 155 153 153 149 146 145 139 137 136 135
  65  54  52  64  81  80  73  65  53  45  51  49  48  45  58  90 110  97  65  50  47  50  51  67 112 145 160 170 174 178 178 184 181 180 183 187 187 185 187 180 180 176 177 171 174 173 175 177 175 177 163 156 150 140 111  85  82  80 109 113  62  57  58 114 154 153 156 149 144 137 138 139 139 134
  58  47  53  64  64  54  46  43  38  42  40  38  45  72  99 114 105  73  47  49  53  49  53  88 132 153 163 172 173 174 173 177 177 181 185 187 191 187 186 186 183 183 183 178 180 173 173 178 180 181 176 173 156 156 141 113  91  84  74 112  89  61  51  88 145 156 161 154 150 144 142 141 141 140
  43  47  44  48  34  39  38  39  32  35  34  50  87 116 121 112  81  57  52  51  50  52  86 129 146 156 163 168 169 171 171 173 174 178 176 181 183 183 182 185 186 188 189 181 184 181 180 176 176 172 177 181 172 166 157 149 120  88  81  85  89  70  64  66 129 161 160 157 154 151 146 141 138 140
  46  37  37  36  33  32  34  35  35  41  58 102 122 122 116  90  62  52  47  47  44  76 126 148 152 158 162 162 164 171 175 175 175 177 176 174 178 179 181 184 188 186 187 189 190 189 188 184 181 178 183 181 181 179 168 161 144 114  88  78  78  71  67  55  89 154 157 159 158 155 148 144 144 139
  41  36  34  33  39  34  37  44  38  73 116 132 128 125 104  72  58  50  44  36  61 114 140 151 158 160 166 166 168 173 178 175 177 177 179 179 177 178 183 185 183 182 184 186 189 195 191 187 188 186 183 185 182 182 181 171 161 143 111  86  80  74  71  58  70 139 158 158 160 156 147 141 143 139
  40  37  33  37  35  34  37  43  78 125 134 135 125 108  79  53  51  53  41  50 110 139 147 155 159 161 164 167 170 173 178 174 176 177 179 182 184 182 181 184 179 182 184 183 189 187 187 192 193 189 184 189 187 183 185 183 172 158 134 105  86  78  70  62  67 114 156 161 159 157 153 146 143 143
  38  39  37  36  35  38  44  92 121 136 138 132 119  86  68  60  45  39  43  85 125 139 149 159 165 167 167 166 167 167 175 174 176 179 180 179 181 180 181 187 187 181 184 180 187 184 186 189 192 192 193 191 187 187 185 186 181 166 150 121  89  81  68  65  61  79 147 160 158 158 155 147 144 143
  36  42  47  44  33  46  94 124 136 141 137 121 102  72  50  39  38  34  63 113 133 145 156 161 166 162 162 165 166 167 175 174 174 171 174 171 174 178 179 177 180 183 188 185 181 183 185 186 190 193 197 192 190 190 187 184 179 172 160 140 106  91  79  67  66  67 115 152 156 155 152 147 143 142
  51  49  43  42  56  98 122 131 131 131 126 120 101  64  40  35  41  44  95 130 142 151 158 162 163 163 163 164 165 169 173 174 174 174 173 169 173 175 171 172 175 180 182 180 183 184 181 184 187 191 194 193 198 190 183 184 183 184 175 158 133 105  83  64  63  67  90 146 156 155 147 143 141 138
  50  47  42  48  89 126 132 135 133 131 123 110  84  51  39  36  37  60 119 137 145 154 158 161 164 164 162 163 164 164 166 168 170 170 167 168 167 169 164 165 168 170 165 168 174 177 176 182 190 194 195 194 199 197 190 188 189 193 185 170 150 120  81  77  75  68  66 128 152 149 137 136 137 137
  52  42  45  83 122 130 137 132 130 128 120  97  63  41  35  34  38  95 133 140 154 159 163 162 163 164 164 162 160 163 163 165 164 167 167 164 157 154 151 151 148 149 148 154 159 163 167 173 181 187 190 190 194 198 193 189 191 196 193 179 161 140 103  80  69  68  69 107 150 142 133 128 131 136
  50  51  82 115 128 132 137 134 131 124 114  92  53  39  41  37  48 117 140 147 154 159 164 161 160 162 160 154 159 159 159 159 159 159 150 138 138 141 140 141 141 142 145 145 148 153 156 163 168 178 186 189 198 199 197 192 189 191 193 187 170 151 117  84  71  69  67  92 143 138 130 127 127 132
  48  80 117 131 138 139 132 134 135 124 106  81  44  37  42  41  86 133 144 151 155 153 159 158 159 162 161 155 155 152 154 156 155 147 128 122 125 126 129 131 133 138 144 143 139 144 148 151 153 163 169 186 195 197 199 196 191 190 193 191 180 161 136  95  75  62  65  76 138 140 132 129 126 130
  70 113 130 139 141 141 139 140 133 123 103  67  42  46  42  52 112 138 145 152 156 155 155 159 160 157 154 155 155 155 156 156 140 123 121 118 122 122 118 120 125 128 133 136 137 140 141 148 154 156 163 174 186 194 199 197 196 193 195 195 187 169 148 114  79  71  66  60 118 137 132 129 125 130
 103 130 139 148 147 149 147 143 135 126 101  65  49  44  38  70 126 139 143 149 156 161 159 156 157 160 159 158 155 154 157 145 124 121 122 124 121 117 116 119 122 123 119 123 132 135 139 145 146 155 159 169 175 191 199 194 196 192 191 196 190 175 152 126  89  76  64  69 104 133 128 126 127 132
 117 136 148 147 144 150 145 143 138 124  99  62  57  51  37 102 137 140 147 151 152 155 156 155 158 161 158 156 158 154 145 130 118 115 118 121 118 116 120 120 118 118 116 117 122 128 136 143 148 152 156 163 169 187 204 201 204 188 190 193 195 185 161 139 100  76  62  74 111 133 128 124 128 129
 129 144 149 148 147 150 151 147 139 124  94  59  60  57  48 124 141 147 151 153 155 154 154 156 160 159 157 155 156 156 138 120 119 120 116 117 119 116 116 115 116 116 120 118 120 121 127 137 143 148 157 157 167 178 196 207 208 197 195 192 195 187 172 149 120  78  66  68 100 129 130 127 125 127
 140 153 154 156 152 149 154 155 149 129  86  61  49  36  76 139 144 148 151 156 157 155 155 154 157 157 158 158 156 149 127 118 120 120 116 117 119 117 116 113 119 115 120 115 116 117 122 131 144 145 153 161 168 173 186 202 209 204 197 193 193 190 179 156 138  87  75  67  92 131 137 127 122 128
 144 152 153 156 156 153 156 170 157 128  83  55  43  39 102 140 147 150 151 158 158 158 154 153 158 159 162 158 155 134 121 119 117 117 117 118 117 116 117 114 120 112 118 117 118 117 120 128 139 148 153 156 161 167 175 195 206 206 199 196 194 189 187 165 144  92  73  59  78 119 131 126 119 127
 145 146 148 157 160 162 166 174 161 126  81  49  44  42 114 139 154 159 156 161 161 158 155 157 160 159 158 159 152 124 118 116 116 118 116 114 112 119 118 116 114 112 118 119 118 115 115 119 133 145 153 158 166 171 179 197 209 208 200 195 196 194 191 175 149 104  79  68  71 109 125 126 121 132
 143 144 148 156 164 170 169 174 167 123  73  52  51  56 128 143 153 157 159 162 161 160 161 162 160 165 162 157 132 117 116 114 113 117 118 117 116 119 116 114 114 114 110 110 114 116 117 118 122 135 148 153 155 162 170 184 201 206 205 198 195 193 184 172 147 109  83  74  60  87 124 127 125 135
 144 147 150 152 160 170 175 183 171 115  67  53  44  77 133 151 156 158 161 160 158 163 162 163 162 159 161 148 125 115 118 119 117 115 115 114 113 114 113 110 109 108 104 105 106 104 107 113 123 135 145 151 155 165 172 178 199 202 205 196 190 194 186 178 157 124  85  68  61  71 115 122 125 130
 142 148 146 157 159 168 174 182 168 112  65  48  39  91 138 150 155 157 160 160 162 161 160 163 163 159 159 142 123 115 118 120 119 116 117 115 111 112 107 101  95  90  87  65  66  71  81 101 114 128 139 150 156 165 171 175 192 201 205 201 194 193 186 181 166 135  83  72  63  64 101 122 124 124
 146 148 150 158 163 174 178 187 156 101  66  45  42  98 144 147 150 156 161 159 162 159 161 161 160 161 161 138 120 120 117 117 119 116 117 112 108  95  75  60  51  55  46  38  35  39  41  62  91 115 131 149 158 165 168 171 184 199 205 200 199 192 185 182 172 139  91  72  58  60  82 118 124 116
 149 149 148 153 161 174 185 184 149  95  64  48  50 118 141 151 156 158 160 159 162 161 161 160 160 163 157 129 116 118 116 115 117 117 114 108  96  66  41  37  33  35  29  36  33  36  38  43  69 109 130 146 156 161 170 179 184 191 200 201 199 196 191 185 175 146  89  74  60  57  66 111 119 107
 145 144 149 151 164 174 188 181 142  88  62  53  61 131 148 152 156 157 159 161 159 159 157 160 160 160 156 130 116 118 118 117 117 118 111  99  67  36  33  33  35  34  35  32  30  29  39  39  60 105 122 143 153 160 168 175 185 196 202 201 197 194 193 186 173 144  94  74  62  59  54 102 112  97
 150 144 150 155 166 177 187 179 141  85  55  47  75 135 152 153 157 159 162 164 160 158 161 163 161 159 153 136 117 120 117 118 116 112  97  70  42  35  38  38  33  34  32  35  34  36  40  41  63 103 121 137 151 162 168 171 187 195 198 202 202 194 193 186 178 149 101  73  60  50  55  91 107  92
 151 150 152 155 164 178 197 181 131  76  57  50  85 146 154 158 156 156 162 160 163 164 166 161 158 159 153 134 114 116 117 116 117 104  69  45  40  34  30  38  35  41  34  34  30  37  39  40  56  96 128 148 159 164 169 174 187 190 194 199 197 196 195 181 174 157 101  68  64  59  52  73  92  89
 147 151 151 155 157 168 188 187 132  82  57  51  91 140 151 157 156 157 163 160 161 162 163 162 159 158 157 133 119 119 115 111 111  94  47  30  34  35  34  34  45  46  30  33  23  32  36  40  54  85 123 142 149 158 164 174 189 194 199 198 196 192 193 183 176 159  99  69  60  54  54  76  96  95
 149 150 146 149 159 169 177 186 147  85  55  48  96 143 153 156 157 158 158 161 160 162 161 160 158 158 159 138 120 114 113 117 110  78  38  37  38  35  33  41 100 106  62  34  35  38  33  46  58  79 117 133 144 159 163 173 190 195 197 195 190 193 194 186 174 165 100  72  62  58  54  64  92  93
 149 150 146 148 152 166 180 194 149  89  59  49  96 144 149 154 158 156 161 163 163 160 159 158 158 158 159 141 121 115 113 116 107  78  49  45  35  35  35  62 130 139 130 104  71  48  26  46  64  95 123 137 140 155 165 181 192 194 196 197 197 195 187 180 176 164 102  70  66  71  58  67  95  96
 151 146 142 150 155 166 179 193 157  97  62  51 101 147 152 152 157 157 162 165 158 156 156 159 159 157 158 144 123 118 118 119 113  90  66  45  34  34  30  53 134 146 147 145 100  46  39  45  55  97 127 137 142 158 164 182 191 196 197 197 192 188 188 185 179 163 107  74  66  59  55  58  81  86
 145 142 144 148 152 162 179 189 165 110  61  51 109 143 149 150 155 156 159 160 157 157 153 158 159 159 158 147 125 119 116 112 114 105  87  52  32  32  33  34 102 152 146 140  89  36  34  44  54 102 130 135 144 152 166 186 192 196 195 194 194 191 187 184 176 161 111  72  63  52  48  57  82  88
 139 144 145 146 150 161 180 191 170 113  66  55 111 142 154 151 153 156 160 157 156 157 154 157 158 160 159 154 131 119 117 114 114 112 104  74  32  33  29  30  51 108 138  98  49  34  40  45  60 117 130 141 151 156 173 186 187 193 193 191 193 192 187 180 174 159 120  78  58  50  48  67  84  86
 128 142 143 147 152 164 178 186 167 122  80  57 101 133 148 152 153 155 157 157 158 156 153 156 157 160 159 154 143 123 115 115 114 110 108  99  53  31  31  36  33  46  58  32  29  35  42  45  78 125 133 139 150 156 174 184 186 190 191 193 190 186 187 181 177 160 122  75  57  51  51  68  80  83
 120 129 142 148 151 165 185 194 163 130  92  57  92 131 143 149 153 151 153 156 158 155 154 156 160 158 156 156 151 133 120 117 117 113 117 108  91  48  33  36  33  33  34  33  33  30  32  55  99 125 138 139 148 157 176 183 185 187 189 190 189 188 186 181 171 153 110  65  54  45  48  56  79  77
 113 121 141 150 152 162 177 188 169 138  92  50  78 129 142 149 155 153 156 160 161 160 159 160 159 159 158 159 155 144 125 112 111 112 112 110 110  81  34  31  27  32  30  34  31  34  41  90 122 127 141 143 140 160 172 179 185 189 190 192 192 188 182 176 168 148 108  60  53  45  59  73  74  72
 116 119 132 144 149 158 171 190 169 131  96  58  64 125 139 146 150 153 154 158 160 158 159 160 160 161 158 159 158 157 137 118 115 114 110 115 112 113  56  37  35  32  30  34  34  43  84 119 127 127 133 139 145 167 174 179 184 185 190 189 188 188 185 177 170 145 103  52  49  45  67  82  81  88
 116 113 117 139 145 151 163 189 172 128  94  68  55 107 134 145 146 150 155 156 159 161 156 154 157 159 157 157 157 158 148 127 116 115 115 116 115 112  99  70  47  37  33  41  59  90 110 118 125 128 133 138 158 173 178 183 182 181 189 185 182 181 179 174 163 138  97  52  50  50  77  83  86 100
 116 117 107 125 140 151 163 186 179 133  98  73  50  82 129 135 142 148 150 154 157 157 155 158 158 157 155 156 159 159 155 138 121 117 116 112 110 114 115 104  83  71  62  74  96 111 113 117 126 128 136 147 161 173 178 182 180 182 187 188 187 187 179 170 162 130  87  47  46  51  82  87  90 109
 119 122 104 112 138 153 162 179 176 139  99  70  50  56 114 128 136 143 146 150 156 160 160 159 155 153 157 158 159 160 159 153 139 127 117 114 111 115 116 116 105 102  97  98 101 112 116 120 128 130 141 155 165 175 180 181 180 185 183 183 184 183 176 165 153 126  72  48  45  60  86  91  96 111
 112 121 114 111 135 148 156 176 187 151 110  78  57  44  88 127 126 139 143 148 154 157 158 158 157 157 161 162 161 160 155 157 150 139 126 119 117 118 117 115 114 113 112 116 117 119 119 123 131 139 147 159 168 173 174 178 182 186 190 181 178 175 173 162 148 120  56  43  42  67  89  91  94 101
 101 117 113  99 123 136 148 168 181 160 132  95  57  41  51 117 127 132 138 146 155 156 157 158 159 159 158 161 159 158 157 158 154 152 145 134 124 121 116 114 115 114 116 118 117 119 126 135 143 152 157 165 173 176 176 178 177 178 180 177 178 172 167 159 136  97  58  47  44  70  91  89  91 101
  96 121 127 105 104 133 146 161 179 167 141 106  63  47  31  83 128 130 132 142 144 151 158 153 154 160 158 156 159 161 159 156 154 158 155 151 144 138 130 122 118 118 121 124 129 135 141 149 151 157 162 172 174 175 175 179 178 181 178 179 175 167 162 149 124  81  43  45  45  69  82  92  93  93
  88 118 121 109  97 124 143 158 175 173 154 127  80  49  37  42 112 127 127 131 135 142 147 149 155 158 158 159 165 162 159 157 160 159 155 156 157 154 150 147 146 145 147 150 150 150 150 153 157 160 163 174 174 173 174 176 174 181 177 178 173 169 156 140 113  63  39  42  48  50  66  78  80  86
  78 112 118 112  96 105 132 154 163 170 162 138  89  55  41  36  66 121 126 128 130 138 141 147 153 156 158 154 162 161 159 156 157 154 156 156 157 158 156 156 157 157 156 152 154 154 153 156 158 162 168 172 173 172 171 171 171 178 174 173 168 165 145 124  83  49  32  41  35  44  44  61  66  75
  54 112 117 110 102  90 117 143 157 166 159 150 105  69  45  35  38  88 124 124 129 128 133 142 147 150 155 157 157 155 157 158 155 156 157 157 160 159 160 160 160 159 157 160 159 156 156 159 163 167 169 169 170 174 172 168 168 175 173 176 169 156 131 110  56  47  38  47  33  39  39  37  51  58
  53 104 111 117 113  95 101 133 146 160 157 152 124  74  54  37  34  47 109 129 130 128 129 134 136 141 147 154 149 151 152 158 157 156 158 158 160 159 159 159 159 156 157 159 162 162 165 162 163 167 167 164 168 171 172 172 171 170 169 170 152 137 126  81  44  39  44  63  49  34  36  35  39  44
  42  82 107 118 112  97  86  99 134 145 153 152 133  94  61  42  38  33  60 116 127 125 126 128 130 136 138 143 143 149 147 151 150 152 154 156 157 157 155 157 158 158 160 160 161 160 165 166 160 163 168 166 170 170 169 170 168 168 166 156 141 128  96  47  52  46  64  92  79  51  39  43  35  35
  36  69  99 106 109 101  89  85 133 153 151 148 143 121  83  49  38  29  35  70 117 134 128 131 133 132 131 136 138 141 145 149 152 154 154 155 156 154 154 158 161 160 158 159 158 159 161 159 162 163 169 167 172 165 166 168 167 162 152 133 124 109  50  41  49  59  80  93  98  86  56  41  39  41
  34  59 101 105 109 105  92  88 101 134 150 145 137 125 104  64  38  36  34  27  73 126 139 135 136 133 133 135 136 136 142 143 144 149 151 151 150 152 154 156 157 157 156 158 160 163 163 166 164 160 163 165 164 163 165 161 167 155 135 128  94  61  46  46  57  81  89  92 100 104  93  62  47  42
  37  41  88 105 107 109 103  99  95 113 135 139 134 126 116  86  52  40  30  31  31  76 123 142 139 140 139 138 138 138 138 134 137 143 144 144 146 147 151 150 149 154 153 154 155 154 157 163 158 158 159 162 160 163 161 162 156 133 117  89  56  40  44  51  83  87  79  81  92 104 101  87  72  64
  39  32  76  98 101 109 110 103  90  88 116 136 135 128 116 108  78  50  38  31  32  30  73 126 136 139 136 137 137 136 139 139 140 142 144 143 144 143 147 149 151 154 153 153 156 157 154 155 157 160 159 162 155 159 153 145 130 113  77  52  46  48  42  68  98  76  58  60  90 110 112 109 114 108
  33  40  46  76  97 109 111 101  92  79  95 120 129 128 120 117 106  77  49  38  35  35  30  64 107 136 136 139 137 139 140 144 143 143 146 144 145 144 141 146 148 151 153 152 150 151 154 159 160 157 156 150 148 144 131 116  83  64  53  43  42  43  60  93  96  72  46  53 100 116 121 123 125 125
  36  35  43  62  85  95  99  96  93  74  71  93 126 125 122 120 112 101  74  44  39  38  36  37  43  83 121 135 140 136 139 142 142 143 147 147 148 144 145 148 145 150 152 151 149 156 154 156 154 146 147 133 119 116  90  77  52  45  50  46  45  63  95 100  93  51  34  70 110 116 119 124 125 126
  38  39  42  43  53  68  85  85  89  78  72  76 106 122 122 121 116 111  99  74  49  35  34  31  27  34  48  93 125 133 143 142 142 140 143 144 147 145 149 148 150 149 148 146 146 143 141 136 131 122 108  68  57  65  55  53  52  46  41  45  72  89 107 101  81  49  40  81 112 116 120 127 129 133
  39  40  38  36  47  51  63  77  85  78  82  71  75 110 118 120 116 116 111 104  80  52  36  35  36  30  28  37  48  86 118 134 139 138 143 141 140 143 142 148 147 146 143 145 134 116  95  85  80  67  52  50  51  54  62  52  46  43  55  86  99 102 102  95  78  47  42  91 118 124 130 137 136 137
  33  43  34  42  51  57  45  43  73  78  79  78  76  83 104 115 113 109 111 110 105  85  48  36  32  30  32  36  27  28  40  50  77 102 114 118 122 126 124 117 107  98  74  59  50  50  53  45  41  37  45  47  48  44  46  40  47  70  85  95  99 100 107 103  63  33  48 100 110 121 135 140 136 133
  36  30  40  40  56  67  51  42  46  54  70  73  77  64  86 108 112 111 109 111 109  98  78  55  42  34  33  35  30  33  34  30  28  32  40  41  41  33  41  39  34  33  39  40  47  43  40  40  46  42  43  44  46  42  56  64  84  97  90  90  84  78  90  84  53  33  65 114 119 132 144 141 139 133
  35  35  42  51  44  55  63  62  52  49  55  64  78  66  58  92 107 109 111 107 110 100  83  61  45  36  34  35  29  37  34  38  33  32  37  37  35  33  37  36  39  38  48  59  58  57  54  50  48  40  48  43  37  56  85  82  89  87  86  84  68  69  85  60  38  43  75 113 124 136 142 138 138 134
  37  38  39  41  41  54  70  70  68  63  50  58  60  73  66  70  92 109 108 104 108 104  96  72  49  38  34  33  34  33  33  39  36  35  34  38  34  38  40  43  52  65  87 107 111 103  90  82  78  52  50  48  40  63  85  83  89  78  69  64  49  51  56  41  41  39  80 114 126 133 141 140 137 137
  32  38  42  36  43  47  66  63  67  71  69  60  57  63  73  71  72  97 111 107 109 101  93  79  65  43  37  33  36  34  33  39  38  37  35  39  41  51  68  80 112 141 157 160 165 148 125 103  89  65  57  49  47  64  71  80  70  67  55  53  40  37  39  38  31  38  95 119 130 135 135 134 132 132
  56  36  34  37  42  44  64  73  70  74  80  68  63  57  70  86  78  88 107 113 111 108  89  80  68  55  47  36  39  41  37  37  41  50  62  87 111 134 159 171 192 200 196 194 200 189 160 115  87  73  63  49  47  64  77  69  56  53  50  49  44  36  35  40  41  37  85 112 131 133 132 136 133 133
  87  40  36  34  32  33  57  88  85  81  82  82  72  71  78  86  86  90 101 116 109 113 115  92  79  70  57  57  54  60  74  92 104 126 145 169 187 193 203 198 206 209 206 209 203 194 160 123  95  71  56  49  50  64  74  54  51  54  69  67  60  39  34  36  36  33  58  88 112 121 127 133 133 134
  85  68  44  38  37  31  44  82  95  94  87  85  77  77  77  81  81  92  96 119 128 129 132 125 125 121 106 103 107 122 139 154 159 176 179 187 194 198 204 205 203 207 209 202 181 150 117  91  77  62  48  43  58  64  58  55  57  76  91  96  89  58  39  37  35  35  37  66 100 115 120 127 130 133
  96  86  58  38  36  43  32  55 101 103  95  90  84  86  89  84  82  89  98 110 123 137 146 150 152 158 153 158 156 159 167 174 183 189 193 196 201 202 205 210 207 195 176 136 107  78  62  55  49  48  39  64  86  70  55  47  74  97 103 109 112  99  61  31  24  34  32  47  84 111 118 123 125 127
 137  98  83  57  35  42  38  36  72 102 107 109 105 103 103  98  92  91  97 102 109 127 142 152 151 161 165 170 172 177 182 187 194 201 200 203 202 209 194 182 161 129  94  69  53  47  45  41  41  45  60  82  77  55  51  57  93 109 109 118 115 108  94  74  43  32  34  34  48  86 108 113 118 126
 193 141  99  80  53  36  39  39  38  94 115 111 119 114 110 103 102 100  99  97  94 108 121 141 147 154 165 170 173 174 182 191 194 200 196 193 180 158 139 115  84  56  42  49  40  39  38  33  39  64  84  90  73  55  72  89 108 111 110 118 117 115 108 110  73  36  34  35  36  51  75  89 103 122
