P2
77 126
255
 145 144 140 140 139 138 137 136 133 131 132 138 146 151 154 173 204 232 163  67  36  36  37  38  39  35  37  33  32  31  30  29  26  29  33  30  29  29  28  31  31  28  28  29  31  30  32  38  34  33  33  36  45  38  48  61  95 148 170 168 174 169 168 166 168 160 161 163 167 169 166 166 164 161 157 152 149
 136 132 133 132 133 133 132 135 134 132 128 134 147 152 151 166 198 224 145  58  37  32  36  39  40  34  36  30  27  37  32  31  34  32  32  28  30  28  26  30  27  33  29  29  30  27  29  29  27  35  33  34  41  43  50  58  98 146 166 167 170 166 167 165 165 160 162 163 168 169 175 169 167 161 154 153 152
 133 132 131 132 133 132 130 133 135 134 131 134 146 152 156 172 202 226 147  72  36  36  34  30  32  31  38  40  38  36  31  33  32  28  32  31  27  27  27  36  31  29  28  33  31  25  28  27  33  38  33  36  39  40  43  48  98 150 167 172 167 169 165 163 167 170 171 169 170 166 166 162 162 156 153 150 149
 126 128 134 132 133 132 131 136 139 133 128 134 148 154 153 167 199 225 150  74  33  40  37  34  35  35  36  33  30  35  31  32  31  33  28  30  29  32  31  29  30  27  31  22  33  31  32  29  34  33  33  39  35  39  46  53 106 155 164 163 163 167 170 168 170 170 168 167 165 162 158 159 158 157 153 150 145
 133 136 130 129 131 131 130 130 131 132 130 133 145 153 154 170 201 226 152  71  45  43  35  39  40  45  35  36  33  31  25  27  30  27  27  29  34  30  28  27  29  31  31  29  34  32  34  33  41  38  34  35  32  40  39  55 112 156 165 172 168 168 171 174 177 177 174 170 163 161 154 158 161 155 148 148 146
 135 133 128 128 129 128 130 131 131 128 129 129 141 152 149 169 204 224 156  64  43  36  30  40  34  36  46  34  32  28  25  26  29  28  28  26  31  20  31  30  29  32  35  26  31  28  28  26  26  28  35  36  32  34  38  54 113 156 163 167 168 170 170 177 178 178 175 172 165 164 160 159 153 145 142 147 145
 133 136 133 125 132 132 130 130 131 128 131 130 139 148 153 173 208 228 162  63  37  37  38  40  39  37  34  31  33  32  34  28  28  31  32  27  30  25  32  30  30  30  30  30  32  31  25  27  29  28  31  33  34  34  43  66 122 154 163 166 171 172 174 179 181 178 173 172 170 163 158 151 143 143 142 142 141
 131 134 131 131 133 130 129 126 126 129 131 130 135 146 150 174 205 223 163  74  42  42  37  39  44  38  29  29  29  27  37  35  36  29  33  23  29  26  28  28  29  37  32  30  28  31  35  30  30  29  29  30  32  36  42  65 128 157 167 169 168 175 171 174 178 176 174 172 165 158 154 147 141 146 147 141 140
 138 141 136 136 138 134 133 131 132 134 132 129 133 146 152 169 208 218 165  65  36  52  41  35  36  32  33  32  34  26  32  36  33  28  28  27  33  31  27  30  33  29  34  34  33  31  29  32  37  28  37  41  35  35  44  72 128 156 167 166 172 171 173 178 177 173 177 172 168 164 152 147 141 139 137 136 138
 136 144 143 139 137 134 132 135 134 131 129 129 135 147 149 169 217 225 187  79  48  57  42  48  36  27  36  33  30  23  26  29  29  24  23  33  32  35  32  31  30  28  29  29  25  32  33  29  28  31  37  34  32  31  43  75 131 157 165 161 170 168 174 179 179 177 173 174 168 162 154 143 140 136 127 127 122
 141 144 144 142 138 136 133 135 134 133 133 130 135 140 149 162 209 219 191  72  48  52  43  39  31  34  34  30  29  29  29  29  28  25  29  20  30  31  39  30  29  31  31  29  27  31  30  32  27  28  33  32  30  33  47  82 137 157 165 160 164 171 174 176 178 177 175 172 169 164 156 145 134 135 125 117 117
 138 142 141 139 134 133 133 133 133 132 131 129 131 138 149 154 209 219 179  71  57  56  46  43  38  30  32  35  29  27  27  30  33  31  27  28  29  23  27  24  26  32  29  28  29  29  31  36  34  32  32  37  28  39  57  87 133 160 167 157 159 168 173 174 177 179 174 169 167 161 153 146 138 133 122 116 116
 137 140 140 135 131 132 130 131 132 130 130 129 136 139 148 155 215 224 195  85  70  60  44  43  40  39  24  24  30  31  28  27  30  28  28  26  27  32  33  35  34  40  31  27  30  30  34  26  30  31  25  33  30  38  56  88 136 155 163 159 159 166 176 175 181 179 170 164 160 156 154 142 138 130 117 118 118
 135 135 135 134 132 132 131 131 132 130 132 130 134 139 148 147 205 218 208  85  63  46  43  36  28  31  31  33  40  36  28  25  31  31  23  25  30  34  29  32  31  30  30  33  22  27  30  28  33  36  29  24  32  33  51  85 137 162 166 162 161 166 174 176 177 172 166 157 159 155 151 143 138 128 113 113 107
 136 134 132 134 136 134 138 141 137 131 133 130 132 139 149 149 205 221 216  97  54  37  50  36  34  31  30  34  31  39  35  30  33  32  36  35  30  29  31  33  32  29  31  31  32  33  30  33  34  35  28  29  29  35  52  82 131 158 169 161 163 162 168 173 174 173 171 162 163 154 149 146 140 124 116 110 100
 136 133 131 130 133 134 132 131 134 132 132 130 132 136 144 146 202 222 201  88  39  37  42  33  38  33  32  32  33  33  30  28  28  32  31  30  32  28  25  28  37  28  34  39  41  28  33  36  24  32  27  29  30  33  37  77 131 155 166 161 161 165 172 178 172 174 167 159 158 151 147 140 132 114 109 109 105
 135 132 136 130 130 133 130 129 132 130 129 131 129 133 143 148 201 220 223 105  43  41  44  39  40  50  46  49  70  66  66  82  95 108 111 119 120 118 124 119 128 136 137 137 144 131 131 123  81  59  55  51  46  33  38  70 130 165 167 160 159 166 172 176 172 171 165 164 158 154 148 141 127 119 114 106 103
 134 131 133 130 134 133 130 131 130 127 131 134 130 134 140 150 200 222 220 106  50  41  46  55  61  78  84 103 124 132 144 156 173 166 166 162 160 156 155 155 162 167 165 171 172 171 161 151 108  79  77  75  62  40  38  64 126 162 175 163 157 158 166 168 171 162 161 159 154 151 145 131 119 118 109 111 107
 130 131 131 131 134 134 131 131 130 130 132 131 130 130 137 146 189 214 222 109  48  37  36  51  69  81  94 118 140 149 162 170 180 169 170 171 167 163 163 161 163 167 166 166 171 170 163 155 117  87  85  86  82  42  38  62 125 158 163 159 158 156 169 173 167 164 160 151 146 145 138 125 118 110 108 108 103
 131 134 134 136 134 132 132 132 132 132 130 131 132 128 137 143 192 220 224 111  44  38  38  49  74  92 100 122 145 155 169 173 173 176 172 171 168 161 157 150 148 154 154 154 157 150 158 149 110  89  91  98  92  43  36  60 127 157 161 159 158 160 166 166 159 158 154 148 147 144 132 122 117 110 109 101  93
 131 130 134 137 133 133 131 131 132 125 130 132 130 130 138 146 195 216 219 107  44  42  41  35  49  60  64  65  79  99 107 108  94  91  95  94  83  68  74  62  66  67  52  59  61  58  60  61  52  50  45  48  47  31  30  55 130 157 160 151 147 149 154 157 153 149 153 146 146 142 127 126 116 105 102 100  93
 129 133 135 131 132 136 134 132 131 130 136 136 132 132 135 147 196 221 222 111  46  41  45  35  36  38  31  30  28  29  37  35  29  28  33  35  39  31  27  26  44  42  29  33  28  29  28  29  26  33  34  29  32  29  34  66 142 166 161 151 148 153 154 154 148 143 147 144 143 135 122 120 109 102  99  98  90
 132 133 130 125 133 134 132 132 128 131 133 136 137 132 134 147 196 214 217 110  55  42  38  33  31  32  36  40  35  30  30  27  32  29  26  34  40  31  30  28  28  28  30  32  28  33  29  26  29  31  28  34  28  26  35  65 129 159 166 163 154 154 157 153 151 148 148 145 134 129 121 116 108 105 107 100 100
 135 130 131 135 133 130 133 134 133 134 132 135 132 129 128 135 194 217 228 122  50  43  39  34  35  37  37  34  36  43  31  32  34  25  31  29  35  42  39  29  27  28  29  26  35  30  25  30  29  25  23  26  26  29  35  57 128 152 161 156 158 152 155 150 144 146 146 137 131 126 119 114 106  97  87  94  94
 134 134 133 135 131 130 133 132 131 129 132 133 136 134 128 145 189 214 219 116  46  38  35  37  47  47  54  74  82  91  89 106 117 112 116  91  89  90  88  88  99 107 104 113 120 120 113 110 107 102 106 100  89  47  36  55 127 154 158 155 150 154 158 152 145 143 145 138 130 122 119 108 101  93  92  95  92
 127 132 131 131 133 131 129 131 131 128 128 130 132 131 130 141 188 220 220 115  40  35  35  55 101 108 129 158 170 175 181 185 185 182 181 175 176 172 167 168 176 180 185 187 180 186 180 170 159 156 158 160 146  84  40  59 126 155 155 153 151 154 155 145 137 136 144 141 129 118 113 111 101  98  97 102  96
 127 128 129 134 133 131 131 131 131 130 131 134 134 131 130 137 190 217 216 117  52  35  34  64 100 120 137 164 178 177 183 186 186 182 178 182 182 178 177 181 182 181 185 186 183 186 182 178 171 167 164 164 155 103  40  63 127 154 153 148 149 153 154 143 137 133 138 139 129 120 110 106  97  97  97  94  92
 136 135 132 133 136 138 135 131 130 131 133 139 135 129 128 137 183 219 227 128  62  44  41  61 112 124 140 165 178 182 183 185 186 187 186 187 183 178 178 181 180 183 187 186 181 185 184 184 183 175 173 169 158 104  32  63 124 152 155 155 152 147 145 137 136 137 143 145 131 117 110 106 101 101 102  97  95
 134 134 132 132 132 132 130 132 132 131 131 133 133 129 127 137 177 216 220 132  53  37  38  50 107 128 145 166 175 183 185 188 182 186 187 185 185 182 176 178 182 188 184 185 189 187 185 183 177 171 175 175 163 108  39  68 129 154 158 155 155 154 157 142 135 140 150 151 143 127 111  99 104  99  98  99  98
 130 133 133 130 131 132 133 135 132 132 130 127 131 131 131 139 169 219 223 131  46  37  33  53 121 129 146 170 179 184 188 189 188 185 181 183 183 185 181 184 179 187 193 185 194 182 190 189 186 178 174 173 168 119  35  61 123 150 159 151 155 156 154 148 139 141 147 143 134 122 110 101  97  91 103 103  95
 128 129 131 129 130 129 133 133 131 130 132 132 131 130 130 131 162 222 219 141  51  29  34  58 111 134 148 168 176 177 178 171 176 184 186 188 183 183 183 187 183 180 187 188 183 179 183 183 184 180 179 181 167 126  43  60 120 143 151 155 153 155 154 148 141 142 148 151 131 118 108 110 106 105 105 104  98
 133 129 131 130 131 133 137 133 131 130 133 132 131 131 131 133 164 219 220 160  54  36  43  55 107 136 148 170 175 177 174 182 185 178 188 185 183 186 188 181 180 185 187 184 184 190 186 184 185 181 180 176 172 134  48  55 115 143 153 160 158 155 146 141 134 138 145 144 131 118 109 104 101  97 110 104  99
 129 126 130 129 127 128 131 132 134 132 132 132 130 130 132 133 158 223 229 175  52  38  40  45  89 116 121 127 147 152 149 161 146 128 120 121 121 124 129 123 122 129 138 129 118 126 130 123 119 112 108 116 117  92  40  55 116 142 151 156 156 155 151 143 135 138 143 137 127 113 106 101 102 102 106  97 108
 130 126 129 131 129 130 131 130 129 127 130 132 133 135 130 128 143 221 217 157  56  41  37  32  32  43  39  41  42  49  50  46  39  27  30  34  29  36  33  35  40  35  33  33  28  34  37  34  33  31  34  35  42  41  36  56 111 138 155 158 158 150 148 145 139 137 137 129 124 117 113 109 106 112 115 110 110
 133 132 131 131 133 134 132 131 130 129 130 132 133 132 127 128 146 225 217 156  56  38  36  31  29  31  31  29  29  31  35  30  31  30  30  32  30  32  26  30  28  27  28  25  20  28  28  35  28  26  31  34  22  26  26  55 112 140 157 158 151 148 146 141 140 137 138 130 122 121 116 114 109 103  98 107 102
 132 133 133 131 133 132 134 137 135 129 129 132 134 134 130 131 145 216 224 189  69  37  30  34  33  27  32  33  33  27  35  31  28  27  35  33  32  30  30  34  31  25  29  31  27  27  27  31  28  27  28  30  28  27  31  51 102 138 155 156 148 151 150 144 141 135 133 127 127 121 112 103 104  94  94  95  95
 134 135 132 131 131 134 133 130 130 130 131 131 130 131 130 133 146 205 215 185  69  38  33  37  37  35  30  35  36  27  29  30  27  27  27  31  30  31  28  30  31  25  27  32  32  35  27  28  30  29  25  25  27  31  35  51 103 136 154 157 149 148 150 145 141 137 134 131 125 118 110 103 103  96 107 105  98
 129 129 127 127 126 129 129 131 132 133 130 129 129 132 131 129 131 199 221 199  77  39  35  35  34  31  30  35  30  33  38  30  29  29  25  29  24  36  31  25  35  34  28  29  29  30  32  30  32  29  25  26  28  30  32  49 103 135 148 159 154 145 149 146 144 140 132 124 111 113 114 114 111 114 116 104  93
 130 129 130 131 133 132 134 132 133 136 131 131 131 131 131 129 138 199 228 217 106  45  39  36  34  39  34  35  26  29  34  38  34  26  29  32  28  32  26  29  30  34  26  23  26  28  26  29  29  24  28  29  27  34  36  52 101 148 152 156 155 144 149 157 154 149 140 129 117 116 112 120 110 106 101  93  95
 131 129 127 127 135 129 131 135 131 130 130 127 126 129 130 133 131 179 221 214 110  47  38  35  34  30  27  32  28  28  30  38  31  28  30  29  29  35  26  25  33  38  32  26  28  29  34  34  27  24  27  33  28  29  34  37  94 132 152 157 151 141 148 158 157 149 135 130 127 119 115 112 106  99  98  91  88
 128 130 132 130 128 129 131 133 130 129 126 129 127 127 131 131 129 162 224 223 130  53  33  36  31  32  34  41  47  50  47  66  70  71  76  80  83  92  99 111 124 119 111 112 117 123 128 130 129 128 124 117 106  81  34  39  93 132 156 159 149 137 141 149 156 156 144 134 128 123 120 109  98  97  93  90  88
 131 131 132 133 130 133 132 127 128 134 132 130 128 126 128 129 132 155 220 222 170  63  41  36  44  74 102 127 146 149 155 160 165 170 172 172 175 181 179 182 183 179 176 179 186 180 179 174 183 182 178 177 168 131  49  39  85 133 151 160 153 142 141 152 157 157 147 135 127 123 110 113 112  93  95  89  86
 134 133 134 131 133 133 132 130 129 132 132 130 133 136 129 123 128 144 223 220 197  81  41  34  49 106 136 155 162 175 183 180 178 182 178 185 180 183 183 181 183 180 182 179 181 182 179 178 183 182 184 178 172 134  60  36  79 122 146 160 156 145 138 146 151 158 149 138 123 113 111 111 107  95  92  93  88
 135 130 130 128 132 130 128 129 129 126 128 134 134 137 135 124 128 141 210 220 198  77  37  31  43  95 136 159 166 179 181 184 182 184 180 181 183 182 185 184 184 182 184 187 184 182 181 185 184 184 178 179 173 130  59  34  67 120 147 161 158 142 133 142 151 164 153 141 123 115 112 103  91  99  96  95  92
 129 132 135 131 137 130 130 129 130 134 134 132 130 133 132 127 128 134 208 225 209  94  38  30  30  81 132 162 171 183 185 183 177 186 185 183 183 182 186 187 182 185 188 184 182 183 184 186 185 182 179 179 172 134  79  32  52 114 144 159 157 142 135 144 152 157 153 143 128 120 114 111 106 104  94  92  89
 129 131 131 128 129 129 135 138 138 137 136 131 133 133 134 133 130 133 189 221 210  94  39  32  26  86 133 157 178 177 181 187 184 184 185 184 184 184 185 188 185 182 183 185 183 184 184 185 183 182 184 182 174 136  70  32  50 106 140 158 156 150 141 144 148 151 152 141 129 121 110 101 101 105  96  93  94
 128 128 127 131 127 131 137 138 137 138 135 136 135 134 138 131 126 131 182 228 213 118  50  38  35  58 126 158 174 180 180 190 189 187 182 181 183 187 185 191 192 187 187 185 184 190 184 180 182 185 184 182 172 142  64  31  35  98 138 162 159 156 145 139 143 149 151 143 129 120 111 105  95  95  94  94  94
 130 132 133 132 128 128 132 134 130 133 136 137 131 130 133 129 128 124 146 216 220 146  61  37  36  42 113 155 167 188 183 183 185 185 186 187 185 186 183 181 181 188 187 186 187 189 182 185 186 185 185 183 176 142  69  29  34  88 133 160 164 152 142 136 143 148 150 143 128 121 109 105  98  97  95  95  96
 130 133 133 131 131 130 130 128 127 131 130 132 134 134 129 125 126 124 136 218 221 173  79  39  32  37 110 148 172 176 183 185 181 183 181 183 183 185 188 189 186 183 176 185 184 182 179 181 184 187 187 183 178 143  82  29  31  82 132 158 159 155 145 137 140 143 146 146 133 119 104 104  96  88  95  90  89
 131 131 131 130 133 135 134 134 133 135 130 129 135 136 133 133 127 126 141 201 223 199  88  35  38  35  87 151 168 176 182 183 185 182 179 181 183 182 178 184 186 187 186 184 182 184 185 185 185 187 186 184 177 150  94  36  33  80 129 154 162 160 146 136 138 141 145 143 130 118 106 101  92  91  92  93  92
 129 129 134 130 130 130 131 133 135 138 136 134 129 129 131 132 127 123 130 190 221 208  98  49  39  32  69 143 167 181 181 183 180 177 179 178 181 179 187 185 185 190 185 189 181 182 180 185 189 184 185 178 180 158  94  45  34  67 117 152 162 159 151 142 139 138 142 141 133 125 111 108 106  99  95  95  97
 130 131 131 136 137 133 130 128 130 131 128 131 130 127 129 131 130 127 128 172 223 214 121  50  35  33  48 125 161 173 177 182 183 180 182 177 177 184 190 189 184 178 178 175 176 168 155 143 129 122 114 112 122 117  78  34  27  59 112 150 163 157 155 143 139 136 140 141 134 123 106 105  98  98 103 100  97
 130 130 125 129 132 131 130 130 131 132 129 130 130 132 132 128 128 132 138 171 220 220 151  53  35  33  41  96 142 154 157 147 134 134 135 138 136 129 128 128 119 101  81  79  67  51  38  34  31  29  26  19  31  32  34  30  33  45 108 147 164 154 152 147 142 140 138 136 131 122 109 105  93  96 102 104 102
 126 131 130 130 129 129 131 130 131 131 131 132 132 129 128 129 129 128 130 153 207 219 166  59  35  41  43  32  34  39  40  35  30  32  28  39  35  20  34  28  23  27  24  31  28  28  24  30  25  25  25  28  31  28  26  27  29  39 100 134 160 160 159 156 147 142 137 137 129 121 116 109 101 103 104 110 106
 126 127 131 131 131 130 131 131 131 131 132 133 134 130 132 132 129 128 127 145 200 223 197  79  45  50  36  35  33  36  27  30  27  28  26  28  27  27  30  29  32  28  29  26  28  28  29  31  31  26  24  29  26  29  29  28  32  49  85 125 157 159 157 151 144 145 143 136 130 121 117 112 108 105 105 112 107
 127 129 129 132 132 131 133 132 131 130 132 132 133 129 132 131 129 127 124 137 187 223 211 103  42  34  33  36  35  34  36  30  27  28  26  23  23  26  24  35  32  26  30  31  29  22  29  28  30  30  24  23  31  30  27  36  42  59  69 115 146 160 157 152 144 148 146 139 128 110 108 106 110 106 102 107 107
 128 128 127 132 132 130 132 131 129 130 132 132 130 127 132 133 130 128 129 134 163 217 215 111  42  43  35  33  33  33  35  25  28  28  27  27  25  26  29  30  29  30  35  28  26  25  32  32  28  25  23  27  26  29  24  25  28  41  56 112 144 158 154 149 138 135 134 130 127 119 116 112 115 112 112 115 115
 129 129 130 130 130 129 131 128 128 129 129 130 131 132 134 132 131 130 131 129 162 219 224 141  49  34  34  33  28  25  29  24  28  28  26  28  27  28  28  25  29  23  24  28  30  28  23  26  23  29  28  28  21  28  33  32  33  37  52 107 144 159 155 149 136 122 129 132 134 125 118 117 116 117 115 110 112
 124 122 126 130 129 129 131 129 132 132 130 129 129 129 129 130 130 128 129 131 150 205 219 179  52  38  34  33  28  25  28  28  29  27  30  30  28  26  26  24  33  29  24  26  26  33  27  28  23  28  29  26  28  34  35  34  31  33  57  90 138 164 160 152 134 120 128 126 131 133 128 124 122 116 118 118 124
 125 128 128 129 129 130 131 136 137 136 132 131 127 125 128 130 130 124 128 135 142 195 220 192  73  39  35  42  32  33  29  27  27  23  24  29  26  30  28  30  30  26  30  33  30  31  22  29  25  25  28  29  29  23  28  37  34  30  46  77 120 147 155 149 135 124 125 128 126 124 123 123 116 113 118 123 121
 126 129 130 130 128 130 133 135 133 130 131 130 126 128 131 132 129 125 121 127 135 182 226 210  91  36  33  28  32  31  26  34  33  35  32  28  24  30  27  33  31  35  30  35  36  32  28  32  26  27  31  30  29  29  28  30  28  34  40  75 118 140 147 138 133 117 116 128 127 123 124 124 114 108 122 124 125
 128 127 129 130 130 133 134 132 132 130 132 131 129 131 131 131 129 125 127 130 136 171 220 221 114  42  36  32  33  34  36  40  26  31  31  30  26  23  24  31  24  23  21  31  31  30  28  22  28  25  28  29  28  27  30  24  24  34  31  46 110 145 150 139 131 118 114 120 129 127 126 122 120 115 116 113 116
 127 128 126 128 130 129 127 129 131 130 130 129 130 130 128 128 129 127 128 133 140 162 218 227 135  54  35  30  33  26  31  34  42  46  42  50  52  49  51  58  53  57  59  60  65  69  67  63  67  70  68  68  70  66  53  48  39  35  28  30  95 160 166 147 132 122 104 110 126 126 124 121 121 123 120 115 112
 124 127 126 126 130 131 128 129 129 127 129 129 127 128 133 130 127 128 128 133 138 158 213 220 139  50  39  34  38  73 113 129 139 142 149 157 159 156 157 160 154 159 159 163 160 167 167 166 169 175 172 173 170 169 146 114  58  27  25  31  81 167 174 154 131 120 101 106 108 112 115 120 115 124 118 116 111
 127 130 128 128 132 130 127 130 130 129 131 132 128 127 130 131 133 136 137 134 134 153 209 221 162  74  59  38  51 113 146 167 168 177 173 170 167 169 160 165 172 167 146 138 132 127 118 120 114 116 119 129 120 124 119 103  59  27  29  32  57 173 180 158 130 127 112 102 105 114 111 117 118 122 124 112 109
 126 128 128 126 130 130 128 129 129 133 130 130 130 130 132 137 141 139 139 139 135 158 212 218 185  83  61  51  44  62  65  81  72  77  80  63  62  59  58  64  49  54  46  33  29  30  26  28  22  24  30  26  25  27  32  31  28  30  36  36  39 137 170 166 140 131 115 111 117 114 112 119 116 119 128 113 106
 124 127 129 125 125 127 129 130 129 129 128 127 134 138 140 148 154 149 148 150 152 159 208 221 190 100  83  72  65  60  49  47  43  44  41  41  35  38  37  34  29  28  27  23  25  28  28  32  30  27  32  26  30  24  31  28  30  29  26  29  23 109 175 176 144 124 125 108 104 107 108 116 121 110 120 116 110
 128 125 129 129 128 130 133 130 128 126 130 128 133 139 145 151 159 162 165 166 163 172 207 222 202 119 103  94  90  74  67  61  55  52  44  38  33  46  38  34  33  28  33  29  32  29  33  35  34  38  34  28  39  36  32  28  27  29  26  32  26  72 166 173 146 126 124 110  98  93 105 123 125 120 118 110 111
 123 129 128 128 126 128 131 129 129 126 134 131 133 141 145 152 163 167 165 161 166 185 210 220 215 139 124 113 105  85  89  89  77  74  68  75  75  78  83  91  85  88 105 115 123 129 129 140 147 148 151 148 150 146 139 112  72  39  23  24  31  46 150 182 166 142 135 104  98  96 103 115 116 120 112 113 106
 118 130 129 126 126 128 131 130 133 132 133 131 135 145 151 152 163 171 170 172 175 202 224 223 218 152 127 116 109 111 134 155 163 162 170 175 181 178 184 179 178 174 180 183 177 182 182 181 182 184 182 182 178 183 174 162 121  58  31  27  31  37 127 169 168 149 137 110  92  95  97 101 119 120 113 108 107
 110 120 128 127 127 128 127 127 133 130 131 137 144 151 158 163 172 181 181 190 185 208 228 228 222 172 138 127 115 110 143 174 190 190 190 187 190 189 185 185 186 186 185 186 182 184 182 183 187 184 182 183 180 182 176 169 133  70  36  31  26  29  87 162 169 151 136 108  94  97  91 102 107 110 112 105 102
 108 120 125 125 125 126 127 128 131 130 138 146 153 160 163 167 177 192 198 201 196 210 227 231 229 197 166 159 142 128 142 178 187 187 194 189 189 187 187 191 187 183 178 182 184 181 184 184 182 183 184 184 184 183 180 173 139  87  43  31  29  32  63 157 174 159 141 115 101  92  87 103 104 115 111 104  95
  96 120 123 127 125 126 128 130 134 133 141 150 158 163 170 174 185 204 214 210 213 219 229 234 230 217 194 186 170 156 160 185 196 192 191 190 191 188 186 190 188 187 182 183 181 185 185 183 187 187 185 185 186 186 184 176 152 103  40  30  42  32  50 146 173 166 145 115  96  89  93  95 103 114 110 109  98
  72 111 122 128 127 128 128 131 134 135 143 154 166 174 183 183 191 212 218 221 220 223 231 235 231 222 208 204 191 178 175 187 193 195 196 191 183 188 189 189 192 190 184 183 184 185 186 183 185 186 187 189 190 186 182 179 162 108  47  30  35  31  33 113 162 174 150 120  95  92  92  89  95 108 108  95 101
  59  97 114 124 126 129 128 128 132 135 141 151 170 183 192 194 199 210 220 223 216 221 228 230 230 228 218 211 208 206 192 196 201 202 195 193 190 199 195 188 189 188 190 189 189 187 186 183 186 186 189 184 182 187 184 181 173 111  55  36  31  30  37  84 162 173 152 124  94  88  84  90  94 107 105 100  94
  46  83 117 120 125 129 130 135 141 144 146 155 177 190 197 202 204 207 218 224 224 227 228 233 234 230 223 216 215 212 203 203 209 202 202 197 195 195 191 191 192 189 190 187 186 185 188 188 190 188 181 181 184 187 192 187 178 128  70  35  35  31  32  56 145 169 166 132 107  89  89  95  97 101 107  99  96
  40  58  98 119 127 130 132 135 141 147 153 165 183 198 204 207 211 217 222 225 226 225 230 236 237 234 229 218 216 217 216 215 212 210 206 203 197 199 189 197 192 190 188 188 185 184 195 189 186 189 189 189 187 190 189 187 179 139  79  32  39  39  35  52 119 160 163 138 112  95  92  90  91  95 108 103  91
  43  47  82 112 130 132 133 136 143 150 157 164 177 195 210 212 213 215 218 220 223 225 229 233 235 234 231 225 222 219 216 217 215 211 207 203 196 195 189 202 188 186 190 199 188 186 186 187 189 189 187 183 186 187 184 184 176 151  92  43  42  44  37  40  85 152 169 151 121  97  88  90  93  95  94  90  93
  40  45  65 106 126 132 137 143 148 154 161 168 177 192 203 208 212 216 221 222 223 225 228 233 237 237 235 230 225 224 220 217 219 216 215 207 202 201 198 204 192 194 190 185 183 185 183 192 193 188 186 185 196 183 190 181 183 163 110  53  49  36  30  38  72 150 174 169 135 102  93  92  95  91  88  91  93
  43  46  58  92 122 135 141 148 152 159 165 175 185 194 202 207 211 213 214 218 222 224 228 235 236 236 236 232 229 227 225 219 221 220 215 208 204 200 199 204 194 189 190 191 192 183 188 188 189 181 193 190 190 187 188 184 184 169 125  59  40  33  29  44  48 122 161 169 143 108  96  93  93  84  89  88  84
  43  43  49  72 118 134 145 151 157 163 175 180 188 199 207 213 215 215 217 220 221 224 227 232 237 236 233 232 231 229 229 223 222 220 216 213 209 209 198 200 185 200 195 196 188 188 184 189 181 184 189 184 190 187 184 189 188 175 138  63  44  37  39  55  40 101 161 171 154 120  87  85  89  89  90  89  84
  49  47  44  62 116 133 147 154 159 167 177 185 194 204 211 211 211 216 221 226 227 225 225 232 235 235 234 232 227 225 227 227 226 222 218 213 207 197 193 199 207 196 189 188 194 187 191 203 188 195 186 193 196 192 186 190 188 184 148  93  50  39  39  40  38  74 136 168 163 133  99  91  89  89  96  85  91
  41  42  46  55 105 133 146 152 157 168 178 189 196 201 206 211 213 212 218 217 222 222 226 233 236 237 235 230 222 216 220 226 227 224 220 212 203 208 212 201 200 188 195 190 194 183 198 185 185 192 195 192 181 176 180 189 190 184 159 113  61  30  35  39  41  54 121 166 169 151 110  89  95  91  91  84  87
  46  47  47  55  94 131 145 149 156 172 184 198 201 199 202 209 213 214 217 220 224 221 222 229 235 236 233 232 230 224 225 229 226 221 220 215 209 205 190 189 183 194 184 179 175 182 166 164 166 169 173 166 166 183 169 167 155 154 152 101  59  33  37  36  41  35  95 164 169 153 112  89  92  84  85  90  95
  44  42  51  57  83 118 143 148 162 177 191 197 199 197 197 205 210 213 215 220 221 218 218 227 234 234 234 235 234 229 225 221 224 222 221 209 197 166 144 148 133 122 101 107  90  90  58  81  72  79  77  68  64  66  60  54  49  56  45  46  41  32  34  29  42  33  65 137 164 161 126 104  99  83  88  92  88
  44  38  45  61  95 117 136 147 161 179 191 195 198 197 195 203 211 215 217 222 223 220 217 224 232 235 236 234 232 227 216 213 220 220 214 207 201 171 172 148 130 119 110 104  93  73  53  69  72  70  50  58  42  44  64  44  49  46  50  45  43  34  35  30  33  35  47 111 161 160 139 107  85  83  89  83  82
  43  40  58  78  92 115 135 144 157 181 194 201 198 196 195 197 206 213 218 224 225 222 218 220 232 238 237 234 231 225 211 210 214 219 218 211 199 176 158 131 123 122 112  93  86  65  69  87  78  69  44  60  39  52  64  41  47  34  50  39  34  32  41  38  35  37  37  78 152 164 150 109  93  86  87  86  82
  42  57  86  92  96 116 131 141 157 180 193 195 192 187 187 187 200 210 217 220 222 222 220 223 234 238 237 232 231 228 217 214 211 217 217 212 204 190 172 139 127 120 120  82  67  88  90  66  64  52  45  57  48  52  45  47  42  40  34  38  39  39  46  35  34  39  34  55 148 169 162 121  91  80  83  87  84
  56  98 120 118 120 125 135 145 152 175 193 198 196 186 183 189 198 201 215 220 222 221 223 222 231 233 235 232 232 227 217 212 204 214 222 213 201 184 155 154 149 126 110  81  83  86  67  53  49  65  56  51  42  51  59  39  42  51  45  46  45  38  32  33  35  40  33  43 112 153 156 134 105  89  93  84  85
  99 134 136 135 129 128 134 142 154 177 197 200 196 190 188 184 185 202 210 214 219 223 221 221 226 232 238 238 232 227 221 215 209 216 215 209 203 191 169 155 137 127 114 101  88  81  57  65  66  64  57  43  64  78  48  42  35  38  43  41  37  40  36  42  39  40  43  41  77 155 165 150 102  84  78  81  83
 136 146 149 152 142 135 138 140 145 168 193 201 196 186 181 181 190 198 215 215 218 222 222 221 218 230 237 235 229 224 215 206 203 203 212 212 200 188 168 143 146 142 135 110 106 104  92 106  94  79  77  72  76  69  42  51  40  46  37  46  45  44  36  42  40  35  34  44  44 124 160 157 112  87  88  84  88
 146 150 150 151 150 146 145 144 151 163 179 193 196 189 185 184 183 191 205 215 218 219 222 220 224 229 234 236 231 221 216 211 212 208 212 209 207 195 195 187 198 192 194 178 172 177 174 172 166 157 154 155 163 151 153 147 146 150 141 137 127  91  48  36  37  33  32  34  31 100 160 164 126  98  86  89  83
 145 153 155 157 157 152 149 147 150 158 182 196 198 191 186 183 183 188 194 198 207 216 213 216 220 227 231 235 231 219 206 201 200 200 201 208 206 206 200 205 200 190 185 189 191 194 188 185 180 183 183 182 184 177 182 184 182 186 179 182 175 135  63  30  32  30  32  38  32  73 138 169 150 102  85  83  89
 141 142 148 153 155 152 150 147 149 154 171 190 200 192 184 180 186 189 194 204 209 206 209 217 210 226 233 232 228 215 197 199 197 204 206 199 209 206 208 205 200 202 192 186 189 187 183 184 179 178 181 181 179 187 183 184 190 181 180 180 178 156  84  37  35  37  39  36  40  53 135 163 156 109  87  85  90
 135 137 146 151 155 151 148 146 150 155 163 182 193 190 188 184 183 182 186 192 201 204 210 209 212 216 227 228 229 222 204 205 175 186 197 204 204 204 208 202 201 187 195 193 193 194 194 190 185 183 188 180 183 184 183 186 179 181 178 176 178 168 106  44  37  34  34  40  32  35 116 164 169 123  99  87  86
 128 133 141 149 155 159 152 153 157 155 155 171 187 193 193 192 187 181 189 189 197 206 203 197 198 215 227 228 232 221 190 174 175 186 190 181 190 199 193 195 194 198 202 186 187 189 183 191 185 187 181 179 182 183 182 185 179 175 176 173 182 172 135  65  37  32  35  38  38  29  85 150 165 135 101  88  98
 130 127 136 150 158 161 156 152 146 149 157 161 172 185 190 188 182 177 179 184 184 193 192 196 201 210 222 230 231 231 207 182 190 192 194 181 179 188 195 194 193 194 185 189 197 196 196 185 173 177 176 182 189 186 185 184 180 185 179 183 184 175 158  69  28  28  34  40  39  39  58 132 166 158 106  91  90
 134 130 138 149 156 159 155 152 152 154 156 159 166 177 188 190 187 181 180 181 181 187 190 193 200 200 215 231 229 227 212 182 185 180 172 165 157 171 193 194 194 198 204 199 197 196 182 195 193 181 189 186 174 162 169 180 181 172 164 170 162 165 157  87  45  37  37  40  36  26  42 119 159 165 112  91  85
 141 136 138 151 157 156 155 153 154 153 151 153 151 166 179 186 187 184 175 171 183 183 183 182 191 193 211 230 230 230 215 187 188 176 168 168 152 160 152 158 153 162 166 160 153 146 142 125 121 125 127 117 106 101  99  98  70  71  79  70  59  56  62  46  38  35  29  34  28  33  32  80 150 168 137  99  83
 150 139 138 148 159 157 157 152 147 150 151 152 150 161 170 180 184 195 183 183 187 182 181 181 187 194 207 223 231 229 223 193 181 168 170 159 144 144 120 134  97  87  79  67  75  75  73  49  50  56  59  46  46  33  40  43  29  34  41  33  35  32  36  28  35  29  29  32  27  28  30  60 127 158 150 101  83
 157 143 139 150 152 154 158 152 143 146 147 149 150 157 159 166 180 190 184 187 178 175 184 187 190 192 195 213 228 229 227 200 177 176 158 149 142 122 102 103 102  81  58  69  81  73  59  62  55  45  50  45  49  42  39  38  44  47  35  34  31  32  36  36  30  35  27  32  28  31  32  39  98 153 160 122  84
 167 148 144 150 157 161 161 156 149 146 146 147 150 152 148 157 171 185 183 183 178 178 184 186 185 182 188 204 226 226 223 202 162 163 139 127 125 117 111 109  97  80  70  82  82  64  62  61  44  40  41  44  56  30  35  40  45  38  36  35  34  36  31  30  28  36  30  31  30  31  26  33  78 141 168 147  88
 180 156 151 146 153 159 162 162 153 144 143 149 151 150 148 153 158 175 184 188 179 183 181 176 175 178 186 204 228 232 229 220 172 154 123 125 120 100  87  97  80  58  52  65  75  74  52  47  55  65  42  59  78  34  36  44  40  43  42  29  41  34  31  27  31  31  28  30  26  31  35  31  50 132 165 155 104
 195 166 145 144 157 159 160 163 153 146 143 149 155 160 152 150 160 159 164 178 184 180 179 178 174 170 182 198 215 227 223 216 166 131 116 110 104  91  92  93  78  61  72  78  86  89  43  51  44  37  47  67  48  18  38  47  41  38  34  32  34  30  34  34  32  30  28  26  30  32  39  31  30  90 149 168 129
 204 169 147 147 159 159 158 161 158 147 140 141 144 149 150 151 158 154 157 168 175 175 182 177 170 177 186 183 211 221 223 221 182 125 106  91  96  88 115  94  71  62  64  63  58  51  31  40  38  51  72  67  46  30  43  35  34  31  37  33  25  29  31  32  31  25  29  33  36  35  37  32  34  66 135 159 145
 201 171 155 146 153 157 161 161 161 149 139 138 144 147 148 152 153 155 153 149 153 169 179 173 175 172 171 174 194 220 224 219 194 119  97  88  89  91  92  67  51  65  59  59  60  50  38  38  44  45  36  29  25  24  32  32  36  35  37  32  30  35  31  30  29  32  32  29  33  29  30  28  32  43 117 153 160
 208 189 160 149 148 155 162 159 158 154 141 140 148 145 144 146 152 154 150 156 163 166 172 177 178 171 170 172 190 223 221 210 192 123  88  82  77  62  53  45  50  63  51  49  48  48  44  40  37  37  26  38  34  32  33  35  34  31  30  36  34  32  30  34  30  35  26  25  28  26  29  29  34  36  85 133 159
 207 193 159 152 145 150 157 156 161 156 142 145 141 138 141 146 149 149 150 153 156 156 163 168 167 163 163 169 177 208 219 221 201 143  98  77  62  49  64  48  45  46  36  52  56  52  41  40  38  39  38  41  35  29  31  36  34  40  29  30  32  30  34  25  28  33  27  29  27  24  29  28  31  37  64 107 139
 208 209 182 159 144 147 159 161 160 156 149 140 133 136 140 147 145 145 147 142 146 150 150 154 159 164 163 164 165 188 222 220 205 167 102  64  60  50  56  46  47  38  42  48  47  44  41  32  36  36  34  29  31  31  33  34  35  35  29  28  31  39  52  33  31  32  35  30  24  24  28  34  35  36  44  62 119
 206 213 190 166 153 153 157 158 158 157 153 136 133 132 138 143 141 144 141 139 143 145 144 150 157 158 154 156 161 173 215 220 209 187 127  72  65  62  47  42  47  52  39  41  52  49  37  31  40  38  36  31  36  31  33  30  30  29  33  39  33  32  29  27  29  26  28  23  35  31  26  28  29  39  41  42  94
 213 217 208 174 156 146 152 157 161 157 154 140 132 134 139 139 143 141 136 140 142 143 146 144 147 144 147 153 163 167 198 217 206 204 147  92  65  62  46  52  50  37  36  36  34  29  34  29  41  32  32  40  41  29  31  31  31  33  31  33  28  33  32  30  29  30  34  26  29  28  28  30  29  33  32  36  68
 212 208 208 175 159 144 145 154 160 158 154 142 138 139 134 134 139 134 134 140 141 141 149 147 144 139 146 149 155 161 189 226 219 201 163 105  72  66  51  48  46  39  37  39  36  34  38  36  42  36  34  29  33  29  34  36  41  33  30  32  33  33  26  28  34  28  39  35  30  27  27  28  32  31  32  37  61
 210 207 210 182 154 144 138 145 157 156 153 148 141 137 140 135 131 132 134 140 143 141 141 142 143 134 135 140 146 151 172 215 210 198 173 115  85  61  52  49  42  37  38  42  37  38  39  40  38  32  32  33  31  40  34  41  32  33  35  31  31  30  30  29  29  26  28  30  27  28  29  30  29  24  26  37  47
 209 208 217 192 163 143 136 144 155 155 153 156 144 137 135 131 129 134 135 136 137 133 135 137 135 136 132 137 143 148 155 196 216 202 168 127  80  58  48  43  39  38  39  37  31  41  39  38  35  31  35  36  32  28  29  30  27  30  28  30  33  31  28  30  29  28  25  32  31  34  35  31  28  29  27  28  31
 210 210 211 194 164 146 140 140 148 152 153 150 143 136 135 134 134 134 131 128 132 129 130 132 134 133 135 136 141 149 146 177 206 193 161 119  86  56  46  42  39  42  35  39  34  36  34  32  32  32  36  32  32  30  30  29  28  34  29  24  27  29  29  29  28  28  25  28  26  28  35  24  27  29  34  31  28
 209 209 214 208 168 157 147 138 144 154 153 153 149 138 132 133 133 132 131 133 128 127 130 129 132 137 135 135 136 147 144 162 185 188 162 119  82  59  47  45  48  36  32  31  27  35  38  32  29  29  32  30  28  34  32  29  29  30  27  23  27  27  27  27  29  24  24  28  25  22  24  23  29  31  29  24  27
 211 209 208 215 179 162 141 137 142 152 157 154 153 140 128 129 132 132 133 136 132 130 127 127 130 132 134 129 129 134 131 136 151 160 144 104  67  56  49  35  37  33  30  34  30  28  28  31  34  32  30  29  29  39  26  27  27  25  26  26  27  30  26  30  27  21  23  26  23  24  22  25  29  30  30  26  29
 207 216 207 213 187 156 144 139 138 149 160 157 157 145 132 130 132 131 133 134 133 129 130 130 130 133 128 126 130 115  90  76  85 106 111  93  65  50  48  45  38  32  33  34  33  28  33  29  34  33  27  24  28  34  31  30  31  31  29  27  26  27  29  27  24  22  25  28  26  29  26  27  25  27  22  26  26
 209 204 209 210 202 159 141 135 135 144 154 157 157 149 137 132 133 131 132 128 125 124 128 129 126 125 128 128 145 174 151  82  55  69  76  70  59  47  45  37  32  34  33  36  34  28  35  26  25  31  25  29  31  28  25  26  25  25  26  30  29  28  28  27  29  24  28  27  19  24  25  27  28  29  22  28  40
 209 212 208 209 205 168 144 137 137 143 153 155 152 152 146 135 132 133 131 127 127 128 127 126 125 128 126 130 182 229 235 191  95  59  48  57  55  39  37  28  34  33  29  31  31  29  35  27  29  28  29  26  29  28  26  26  23  26  28  26  26  23  28  26  24  24  25  27  29  26  27  29  31  26  24  27  43
 202 207 210 212 210 183 148 138 139 136 148 156 155 152 147 136 132 132 133 132 128 127 126 125 129 129 127 132 172 229 222 228 175  93  55  53  46  42  36  36  37  30  24  29  36  33  26  25  26  31  24  25  28  27  24  28  24  24  26  28  28  28  29  27  28  31  30  27  27  24  30  31  25  24  26  33  34
 206 206 208 208 212 190 151 142 140 134 145 152 156 156 152 142 133 132 127 129 127 130 125 124 126 125 126 121 144 211 221 225 225 192  88  52  48  41  34  47  38  35  30  29  30  30  29  29  28  30  30  28  28  31  26  26  25  26  25  27  27  30  28  26  28  29  25  25  29  31  30  31  25  26  30  34  36
 204 208 206 208 209 206 163 146 137 131 141 144 148 151 151 143 136 135 125 129 128 129 130 130 129 128 127 127 127 174 229 224 226 228 165  68  42  40  37  35  29  30  35  29  28  34  42  33  32  24  24  26  27  31  25  24  27  26  27  25  27  26  26  22  22  25  26  25  33  26  32  31  28  23  28  38  30
 200 208 208 211 201 211 169 147 144 137 141 146 150 152 153 147 134 129 132 135 129 124 129 130 130 130 128 123 127 124 177 226 231 227 226 138  51  33  38  32  32  31  35  26  30  34  29  25  27  24  28  27  25  27  26  27  26  25  26  25  26  27  25  26  23  23  27  23  29  27  29  28  24  26  31  31  26
 194 204 206 210 209 205 179 149 135 127 136 147 152 152 152 152 139 133 134 136 132 130 131 127 129 126 127 125 130 126 127 169 225 230 223 211 122  39  36  31  30  31  32  31  30  30  28  29  32  27  30  25  25  28  25  27  21  25  24  27  29  26  22  25  22  21  25  29  23  27  24  26  27  25  36  36  29
 189 204 210 204 209 211 200 157 135 132 133 140 146 152 156 149 136 133 132 134 132 130 131 129 126 126 128 125 125 128 125 124 172 220 216 231 208 109  48  34  29  32  29  29  36  32  27  26  28  28  30  25  24  27  26  26  26  25  27  27  26  26  29  22  23  25  21  26  22  25  24  25  30  23  32  20  25
