P2
66 79
255
  82  92  82  93  80  87  86  89  82  85  79 112 191 224 228 225 227 230 232 234 230 230 227 226 223 224 188 154 127 107 102 128 177 212 227 222 223 181 191 188 164 139 115  85  51  40  31  24  29  31  34  31  25  26  48  75  85  90  90  86  86  94  89  84  86  82
  90  89  81  87  90  83  83  82  73  71 103 196 230 226 226 228 232 236 234 232 230 224 221 221 220 223 198 143  92  56  56  76 130 185 223 225 232 221 226 227 218 207 202 190 161 131 100  62  37  32  32  33  33  28  32  37  64  87  89  89  89  97  84  83  78  68
  93  87  82  82  84  75  80  77  68 103 191 229 226 227 230 231 233 230 230 230 224 216 206 205 209 197 178 126  69  40  47  33  45  66 122 161 202 229 229 226 219 223 219 216 210 200 192 169 145  99  57  37  30  30  31  27  32  68  89  89  90  86  80  83  74  76
  83  84  80  91  80  77  70  65  79 170 224 229 229 229 232 232 234 229 233 229 212 195 179 158 141 128 120  89  55  40  36  35  36  30  39  82 156 220 232 224 219 227 223 221 220 218 218 213 211 197 169 135  84  45  37  33  27  41  71  91  88  89  92  87  83  84
  85  87  82  75  64  58  51  59 141 225 231 231 231 236 233 233 234 232 214 175 135  97  79  55  52  67  70  61  47  49  45  35  31  28  39  33  70 154 204 222 221 228 226 225 224 222 221 218 219 221 218 220 200 154 110  69  34  32  44  78  92  94  86  78  84  81
  79  77  72  63  52  43  43 100 210 229 229 233 233 231 234 233 219 168 107  77  57  45  61  61  84  99 101 104 106 103 104  86  68  45  37  28  27  56  97 183 215 220 223 224 223 223 225 222 221 224 223 221 221 220 195 150  85  37  35  55  76  88  88  90  90  83
  72  66  51  43  36  34  66 171 229 227 229 231 233 231 241 206 134  80  58  54  66  86 111 113 116 119 119 116 119 117 117 113 110  97  71  41  32  37  42 124 205 217 221 222 220 221 223 224 221 225 227 225 223 223 221 199 154  75  29  36  57  82  92  92  91  83
  44  43  37  45  41  39 116 220 229 230 233 230 227 229 202 127  64  47  63  92 119 126 128 124 126 124 124 128 125 116 116 114 118 115 108  87  67  40  31  53 151 211 221 224 221 221 224 226 222 222 224 227 224 222 217 217 200 141  63  29  35  66  90  96  90  89
  46  56  52  48  45  66 172 227 225 230 232 225 224 202 125  65  46  70 107 124 131 136 131 128 129 128 126 125 124 127 128 119 119 121 118 110 110  78  46  27  51 141 207 212 213 216 221 226 228 227 226 225 224 221 218 217 220 194 127  49  35  44  74  92  80  80
  54  70  78  63  60 124 216 226 230 233 224 231 198 144 100  84  90 115 139 146 141 139 137 142 142 144 145 142 139 137 130 127 127 124 123 119 123 111  85  45  25  48 135 215 222 218 223 225 226 226 226 224 222 221 221 218 214 205 172 112  42  33  52  78  87  85
  72  83  88  68  79 178 225 229 234 230 227 186 116  78  65  95 121 138 141 145 147 153 153 154 153 153 156 157 158 153 146 137 139 131 121 114 123 129 125  97  52  34  54 140 214 225 219 222 223 224 224 224 222 219 215 214 215 215 208 163 101  39  35  52  85  91
  89  86  76  60 111 214 228 229 231 233 201 114  69  64 103 124 136 143 146 148 154 158 153 154 156 158 157 156 155 152 150 156 155 149 140 125 117 130 135 124  98  51  30  60 152 222 222 222 223 225 223 224 223 213 212 210 214 214 214 195 152  71  30  35  63  83
  85  86  77  80 164 225 227 233 233 214 128  73  76 114 130 138 140 148 155 155 154 156 162 157 156 154 156 155 155 156 159 153 154 155 158 151 144 145 147 137 119  90  53  37  58 176 223 225 221 222 223 224 225 216 214 213 211 212 212 210 183 139  56  34  46  72
  84  82  71 106 201 225 228 229 221 150  73  74 109 130 141 149 148 156 156 153 156 158 157 156 160 154 155 158 161 156 155 157 156 152 160 163 159 157 156 150 134 120  89  54  27  87 180 225 215 219 220 221 221 220 214 206 208 211 212 217 199 174 116  39  27  53
  83  79  68 147 225 229 230 231 183  99  51  92 126 134 150 154 156 157 156 153 155 156 158 154 159 151 158 159 158 160 161 160 165 161 164 163 161 158 158 152 146 134 115  86  46  33 102 201 221 218 220 222 219 220 213 207 206 209 211 210 211 190 150  74  33  37
  81  72  77 183 225 224 229 213 120  72  74 112 130 145 149 151 157 156 155 159 159 158 154 151 152 157 159 162 156 155 156 154 155 157 161 149 155 159 162 161 162 153 137 116  85  39  36 123 203 212 217 221 219 217 214 210 208 207 210 209 213 203 175 137  64  34
  80  56  88 203 221 229 234 180  83  65 105 124 138 154 153 153 155 157 155 158 160 157 156 156 160 160 155 146 154 159 152 155 156 152 154 156 159 163 160 158 159 158 154 139 114  71  33  60 168 221 211 205 215 214 215 207 205 199 209 213 211 207 193 163 115  47
  69  58 121 212 228 229 221 126  77  93 119 128 152 154 153 157 156 155 156 154 154 154 159 158 155 153 127 109 133 147 151 153 153 155 155 158 158 152 155 159 159 160 162 155 138 105  55  39  91 185 214 212 213 212 212 209 204 204 208 211 209 209 207 182 150  90
  60  69 159 223 234 230 189  81  70 115 118 137 157 160 159 162 157 154 160 159 158 159 157 155 152 137  61  47  98 143 153 158 159 161 161 158 160 159 160 155 157 157 159 156 151 128  79  41  47 139 203 208 213 216 213 210 187 196 199 203 207 207 211 202 177 132
  62 102 194 229 231 231 152  67 104 134 129 148 154 155 165 162 160 159 159 156 153 155 153 150 148 134  63  38  50 125 152 154 158 159 157 157 159 160 162 165 166 163 157 154 158 145 115  60  34  89 178 210 212 209 207 201 191 183 187 201 203 206 212 218 198 165
  67 146 217 228 232 210 102  69 125 130 136 150 152 156 160 159 157 159 156 157 154 153 155 157 155 145  85  35  30  96 141 152 154 160 160 158 152 154 156 158 159 159 159 156 156 154 132  83  46  47 130 203 208 210 210 199 180 179 184 193 199 203 210 215 211 185
 117 192 226 234 234 173  78  89 136 129 143 150 154 153 159 159 161 161 157 161 159 157 162 162 161 154 127  53  29  67 131 152 155 163 163 159 158 162 162 160 158 156 157 157 158 156 145 116  73  35  69 171 209 207 207 196 173 169 169 182 197 199 211 212 214 199
 175 213 229 233 221 135  65 116 132 132 148 159 165 163 167 158 157 163 161 152 155 156 156 158 160 151 147  78  33  39 118 146 150 155 157 159 158 160 162 163 158 155 156 156 156 152 149 133  97  49  35 118 195 204 210 191 162 159 162 178 187 195 206 212 217 216
 208 220 228 230 184  94  65 125 128 135 148 152 152 158 157 157 158 159 156 155 156 159 156 160 163 156 146 102  37  36 102 145 150 156 159 163 156 158 159 155 161 157 151 135 140 147 152 144 115  73  38  61 170 208 209 197 149 149 165 166 179 179 198 216 219 220
 223 223 228 219 138  76  74 133 125 139 147 149 150 151 152 158 156 154 156 159 157 152 152 156 158 157 142 113  54  42  75 130 147 156 153 155 155 156 160 161 155 148  96  70  91 142 157 152 135 102  51  37 106 195 207 187 143 144 159 155 164 177 195 217 219 223
 221 223 229 179  91  52  79 128 128 144 147 149 153 151 155 158 155 160 164 155 155 150 153 154 154 157 146 117  75  37  49 117 144 153 152 159 157 156 155 158 150 106  52  45  54 120 150 157 139 112  80  38  56 165 206 202 151 133 145 153 157 173 196 214 222 224
 223 226 230 137  60  44  96 126 129 144 148 153 155 159 161 159 157 161 160 154 154 154 152 154 155 155 146 124  88  34  30 102 142 151 151 159 159 156 153 152 124  59  39  45  67 130 154 160 150 125  98  61  46 111 183 188 144 124 143 144 150 167 197 212 220 223
 225 227 218  96  44  42 105 127 134 146 149 150 156 157 154 154 154 157 159 159 158 154 155 157 159 159 153 134  94  48  32  85 138 152 151 152 155 154 152 107  50  41  42  67 115 149 156 156 150 137 116  79  45  56 146 180 138 119 128 131 135 150 195 210 219 221
 226 231 214  90  45  43 106 126 138 144 145 149 153 157 157 158 157 158 156 154 155 159 162 159 158 160 159 141 110  62  34  75 135 153 156 156 158 144  96  48  42  45  56 119 152 157 163 160 159 148 122 101  57  48 123 179 139 110 113 125 133 145 191 209 218 220
 222 225 209  83  40  48 110 123 137 146 148 151 154 155 157 159 157 159 158 155 154 157 158 157 156 159 155 144 126  82  35  60 125 152 157 152 138  81  46  44  39  70 126 157 164 161 165 164 157 151 130 113  83  51  76 159 144 107 102 109 131 148 191 211 220 221
 218 224 202  73  40  45 106 126 148 149 144 146 151 151 153 155 156 158 159 158 153 153 158 157 156 153 152 148 135  94  45  58 131 155 153 133  76  39  37  50  75 132 154 162 164 169 167 164 161 153 136 117  99  57  50 132 144 100 103 105 129 156 189 208 218 219
 222 224 191  67  44  62 114 128 143 143 143 143 148 149 150 151 154 156 155 153 153 154 158 158 153 155 151 153 141 106  52  38 101 134 122  59  42  45  50 101 144 159 160 163 169 172 171 165 165 159 142 119 106  77  50  90 137  92  89  99 116 148 189 209 218 222
 223 227 188  68  34  61 116 131 146 148 146 144 146 151 151 152 154 152 156 151 147 147 147 155 156 156 155 153 149 124  62  33  85 113  67  39  40  64 119 147 158 158 164 164 171 175 177 172 172 166 153 134 109  89  57  65 117  91  82  93 106 139 186 209 215 221
 223 224 174  64  48  66 117 131 145 147 146 142 143 148 146 145 147 150 151 145 146 149 152 156 156 153 160 154 153 129  78  39  46  41  28  44  98 141 160 163 165 165 165 169 176 177 178 176 172 166 156 141 116 100  67  55  88  90  82  89  96 126 171 202 214 219
 222 226 160  65  42  66 118 136 147 145 144 143 143 147 141 139 144 144 148 150 150 154 155 152 154 157 154 158 154 137  91  38  29  32  51 108 149 158 163 165 166 167 167 168 172 169 177 180 178 170 162 148 122 107  69  59  64  80  74  79  91 128 171 199 211 216
 221 229 148  62  44  74 118 136 146 143 139 139 142 144 142 143 147 146 148 152 154 155 155 154 154 152 152 154 155 144  95  35  34  45 108 150 164 163 168 166 169 172 171 170 173 178 183 178 177 173 165 151 130 115  96  61  56  72  64  73  91 127 156 201 211 217
 225 220 149  59  34  85 121 136 146 145 140 137 141 140 140 143 145 146 147 149 153 157 152 154 153 151 156 151 153 114  52  29  32  75 138 159 165 165 165 167 172 172 171 171 175 178 178 182 179 176 167 158 138 112 100  67  59  60  61  76  81 101 148 200 213 218
 224 224 163  75  47  72 118 138 146 145 140 134 135 135 136 142 144 145 149 147 149 153 152 152 150 153 155 154 108  48  31  35  30  86 154 163 163 163 166 169 172 174 176 179 180 180 187 187 184 181 171 158 144 122 103  72  60  61  65  65  73  98 155 200 211 217
 220 218 157  75  43  65 116 141 148 146 140 138 138 136 136 140 139 142 148 146 148 150 152 151 149 152 151 108  45  30  32  57  40  64 143 163 172 166 167 173 171 175 177 177 179 186 193 193 189 182 172 162 153 132 104  79  74  64  58  65  64  91 150 204 211 215
 220 223 185  68  42  57 111 141 149 147 142 141 136 131 130 134 137 138 142 146 148 153 154 155 155 153 114  50  32  34  82  99  49  45 131 162 167 171 172 172 171 175 178 179 184 188 190 188 187 181 172 162 153 134 107  89  67  55  60  57  56  85 136 193 206 213
 224 226 195  90  43  52 110 142 148 146 142 141 133 127 126 128 134 135 140 138 143 151 152 153 151 126  63  35  44  94 132 114  59  46 123 163 170 169 169 173 175 179 183 183 184 187 192 194 192 186 177 171 157 139 112  88  71  69  60  58  59  74 125 187 207 212
 214 224 209 101  47  43 101 137 147 149 145 142 137 133 127 129 136 139 142 138 147 154 153 151 132  63  31  32  85 141 149 125  79  40 113 158 169 175 175 174 176 178 181 181 184 192 193 199 197 190 180 172 156 141 117  99  74  73  69  59  52  69 126 188 212 214
 174 236 220 119  51  41  96 142 148 145 149 143 137 137 130 124 127 131 137 139 146 152 157 127  62  31  32  74 139 156 160 138 108  51  97 166 178 177 177 176 176 177 181 181 186 192 193 195 196 194 187 178 165 149 123  96  80  75  72  58  60  61 112 175 203 209
  78 192 230 161  58  45  84 137 144 146 147 142 137 133 127 119 123 127 134 140 143 141 109  62  32  33  65 132 152 154 154 141 114  67  83 153 175 178 178 177 181 178 179 185 191 194 196 199 198 194 184 175 167 149 124  97  83  67  64  57  56  54 106 170 200 210
  34 123 228 181  61  48  68 134 148 151 144 141 137 133 132 128 121 123 128 139 146  99  45  34  32  62 131 151 156 158 156 148 125  88  90 143 174 178 179 177 184 184 189 192 198 201 203 204 203 197 187 182 170 151 128 104  81  65  62  51  47  55 107 168 196 208
  40  52 184 213  82  52  51 122 150 150 145 136 136 131 124 121 118 119 122 129  83  32  29  28  69 127 153 155 155 160 160 159 137 102  87 134 170 178 186 180 184 189 191 193 202 200 202 204 202 200 194 185 176 157 132 117  81  69  64  54  54  57  98 160 192 207
  48  26  79 197 113  55  60 109 146 151 149 142 138 130 126 120 115 113 113  84  42  34  33  63 122 150 155 157 156 156 157 160 148 128 101 133 173 181 184 186 187 191 193 193 197 201 202 202 204 204 198 193 182 164 136 109  73  61  63  57  53  52  87 151 184 208
  87  33  33 120 125  67  46  68 134 144 140 142 136 131 127 121 115 108  86  36  34  33  75 132 146 146 154 155 159 159 160 162 155 133 105 130 171 187 183 186 185 186 193 197 201 201 205 207 202 200 195 189 179 162 137 108  74  54  51  54  53  43  80 149 184 205
 165  57  35  53 101  72  44  44 114 143 144 144 135 132 128 128 124 112  90  46  42  71 127 148 147 147 156 155 157 158 163 166 165 138 112 126 164 182 181 187 190 191 199 203 202 205 208 204 205 205 200 191 177 158 133 104  73  53  54  57  54  46  76 139 177 197
 202 119  44  33  51  55  44  41  85 133 138 132 133 129 127 124 121 114 101  78  80 112 132 143 145 152 155 154 158 161 163 164 165 146 119 124 166 180 189 189 191 189 198 202 205 207 207 210 207 204 198 189 176 154 131 103  81  62  63  52  52  48  75 136 173 191
 221 188  78  38  33  37  43  43  66 124 136 131 131 132 132 130 127 117 110 105 101 115 125 145 146 149 151 153 155 157 160 165 168 159 113 117 155 175 182 187 190 197 197 200 208 209 205 209 203 207 200 186 172 153 131 103  76  66  63  56  57  58  75 126 166 190
 221 228 155  55  31  34  37  38  52 104 143 140 136 134 129 125 125 120 111 109  92 101 117 129 141 148 151 155 158 158 162 167 173 163 110 116 151 175 184 189 189 202 200 207 209 209 211 213 204 198 189 183 169 154 125 105  75  68  63  54  56  45  69 115 154 179
 224 227 208 103  38  31  34  37  41  68 131 139 137 132 128 121 118 115 116 112 102 100 103 113 132 142 149 150 158 162 167 174 173 163 129 125 148 171 179 183 187 197 199 208 204 208 209 206 202 193 185 176 164 150 116 102  70  69  67  64  55  55  76 115 148 170
 224 224 226 150  55  32  29  33  44  48 109 134 131 131 129 122 118 115 112 108 111 109 101 106 119 132 142 149 156 159 162 166 167 165 143 134 147 164 179 184 191 195 201 204 208 214 202 204 198 188 180 173 163 153 121  97  77  72  56  53  46  46  64 110 141 174
 223 223 222 181  86  37  33  34  41  38  79 130 129 128 121 117 114  97  95 104 107 109 113 105 105 123 134 150 155 160 162 165 166 169 158 146 149 162 182 185 190 192 202 202 206 205 202 200 191 183 175 163 155 153 124  91  67  54  50  47  45  48  51  95 129 159
 224 224 227 220 159  54  33  36  40  47  52 111 136 128 121 118 115 109 100  97  88 105 108 108 114 108 123 132 146 155 161 165 171 167 159 146 150 161 178 186 190 194 200 203 208 209 205 192 181 176 169 161 157 144 117  86  59  56  44  45  41  44  51  83 124 146
 227 229 226 223 199  99  30  33  37  55  46  66 129 128 123 121 116 108  99  98  81  85  97 107 118 112 114 126 137 146 158 162 164 163 160 154 158 163 177 190 194 195 202 204 202 203 193 184 174 165 159 150 143 133 108  65  53  46  40  42  39  41  53  80 112 138
 229 230 225 223 225 174  75  35  37  50  66  42  94 133 130 121 116 106 102 101  81  80  79 100 114 115 112 121 130 142 152 164 163 165 169 166 166 170 176 189 193 198 195 202 198 193 180 172 165 156 147 135 132 128  98  50  54  44  48  41  38  35  49  84 104 126
 228 231 230 231 223 223 145  62  44  49  72  46  54  94 121 119 111 107  99  98  94  82  82  80  99 112 112 113 114 130 140 153 159 164 169 168 174 177 180 190 194 196 191 191 179 171 168 161 147 136 129 125 120 121  85  51  49  40  41  37  38  37  50  73  86 107
 228 231 231 226 225 224 203 121  60  62  62  49  41  52  98 110 108 107 102  98 100  96  84  67  79 101 114 118 117 123 129 138 150 161 161 165 168 170 178 180 188 189 187 176 171 164 158 150 132 129 128 125 115 103  55  35  37  46  36  37  31  34  41  60  72 105
 218 221 222 226 224 219 228 175 105 113  90  72  39  46  60 105 116 113 102 100  99  93  84  80  71  78  91 108 116 119 120 128 134 149 159 161 162 163 168 174 163 158 152 155 151 144 134 125 121 116 119 121 111  83  46  39  39  40  37  38  32  36  32  53  75 108
 210 213 215 216 223 221 219 214 158 141 153 124  60  42  35  59  95 104 105 102  98  93  85  85  74  73  76  77 102 110 113 117 118 121 134 137 139 138 137 135 132 138 141 138 134 130 122 121 120 116 113 116 113  64  43  38  41  37  34  32  32  35  37  54  68  94
 153 191 212 201 211 224 224 220 202 148 175 168 114  57  32  34  51  84 102  94  96  93  87  89  79  73  76  62  67  73  81  85  87  83  87  89  96 103 108 110 119 128 130 128 119 114 116 122 120 118 113 108  80  38  36  38  53  40  34  31  31  35  36  46  64  98
  86 130 159 168 169 186 216 213 215 174 155 189 159 121  60  40  29  47  75  91  91  90  91  84  77  74  66  58  51  49  54  59  65  68  75  75  76  82  90  97 108 111 108 107 106 109 109 111 112 112 112 104  52  41  38  67  78  41  37  36  30  31  40  43  59  95
  35  68 109 138 154 164 185 210 213 206 169 178 202 182 132  74  41  36  42  74  86  89  85  77  72  63  66  57  58  53  53  55  58  54  85  70  67  76  74  76  85  82  87  93  94  96  99 103 113 117 113  89  36  38  43 106 105  55  34  27  33  30  36  39  53  75
  41  40  44  82 111 128 151 194 219 216 201 165 177 202 179 132  77  38  34  39  68  92  93  79  79  65  63  62  66  57  59  53  51  51  55  50  53  63  75  80  86  83  90  86  94  96 102 103 108 114 112  58  39  40  75 139 128  83  36  30  27  28  33  37  55  76
  50  39  30  40  54  90 125 154 191 216 213 206 162 179 196 185 149  96  46  31  37  60  79  82  85  72  64  62  61  56  52  52  52  47  53  55  56  60  70  70  75  74  78  91  95 104 111 119 133 121  89  44  30  45 105 147 140 103  43  25  33  31  33  36  48  75
  99  67  45  45  31  45  82 115 150 193 211 218 192 149 179 207 206 183 128  57  31  32  46  59  61  64  72  73  61  63  54  53  51  46  53  56  57  66  76  66  70  72  70  87 104 116 109 125 119  93  38  29  38  92 137 145 141 111  46  35  24  27  35  39  39  61
 132 124 102  80  60  52  40  54 102 144 186 203 210 178 133 167 197 206 180 140  77  34  36  38  31  34  46  55  56  62  61  58  59  59  62  56  65  75  73  65  73  81  82  87 105 113 116 107  80  40  39  41  88 132 140 139 138  96  40  37  33  35  29  37  37  51
 133 136 132 121 104  75  55  42  51  91 137 176 188 203 174 141 149 188 205 201 160 107  55  37  30  27  32  30  35  38  48  50  59  60  77  77  78  74  65  65  70  78  85  85  97  97  91  66  44  41  41  63  84  93 106 125 126  83  36  32  29  28  35  38  42  46
 136 134 132 135 130 110  80  50  43  41  74 135 159 185 195 182 148 159 183 199 203 182 132  77  55  35  30  33  34  33  33  29  36  43  53  59  70  68  64  68  69  68  72  70  71  65  51  40  40  41  41  35  32  59 102 126 115  59  30  28  30  33  33  35  46  45
 136 134 135 134 136 133 120  89  55  36  37  52  91 145 172 192 186 168 146 162 183 200 188 166 133 100  86  78  59  38  34  29  26  33  34  39  46  45  45  33  35  36  41  37  42  40  29  32  35  39  34  48  81 117 144 139  98  55  33  33  32  37  35  33  40  35
 135 137 133 133 136 135 134 127 100  70  46  37  38  65 117 157 175 187 176 151 159 187 209 207 180 165 152 143 144 138 120 101  77  64  55  45  43  35  32  31  32  36  42  33  35  43  44  43  59  90 132 167 168 161 154 126  58  39  33  35  33  31  31  27  31  44
 132 132 129 131 133 135 131 130 122 113 100  76  50  31  41  80 123 155 171 173 170 175 187 202 207 195 167 150 147 156 166 177 177 177 157 149 135 126 114  99  95 111 126 129 140 167 174 176 188 206 214 203 179 152 137  86  38  31  26  28  34  32  33  29  29  33
 133 134 132 131 130 137 136 131 130 129 123 120 110  82  52  33  45  70 115 151 183 199 202 200 213 209 192 175 149 127 118 122 145 159 173 185 188 197 204 203 197 192 189 193 208 214 207 209 205 207 202 191 167 132  92  50  39  30  36  30  32  29  33  44  48  51
 107 116 116 117 114 125 126 121 128 132 129 122 116 112 105  94  65  45  37  39  97 172 187 203 212 216 213 213 202 182 165 129 120 128 148 167 185 187 180 184 191 193 194 195 205 198 206 211 214 209 204 189 165 121  70  44  34  40  30  36  44  44  38  39  52  67
  93  88  90  94  96  99 105 104 111 118 119 120 121 115 111 116 105  85  66  38  28  68 124 160 197 211 218 220 224 225 220 212 212 221 214 214 211 206 201 204 202 202 206 211 217 217 221 221 216 216 206 187 155  98  49  33  35  39  36  40  43  37  43  43  56  77
  80  87  81  71  72  75  71  72  74  92 103 109 116 112 115 114 109 107 102  77  57  36  50  89 130 174 188 209 215 216 220 223 223 224 225 225 228 226 227 226 229 226 229 231 227 226 228 230 221 215 200 185 135  66  31  34  29  37  44  40  38  37  46  51  65  75
 109 110  99  83  78  70  61  55  54  51  61  80  98 107 109 110 108 102 103 101  97  82  71  49  47  74 118 164 197 206 215 221 225 227 227 230 233 230 234 232 232 231 233 230 233 235 233 232 219 214 195 146  72  34  31  33  32  45  37  35  40  40  48  53  71  76
