P2
106 110
255
 211 229 230 212 194 191 187 209 233 236 211 212 188 193 210 223 236 227 205 188 195 228 217 186 215 185 210 183 200 202 201 189 165  85  56  59  57  62  62  53  46  50  49 103 171 211 213 158  85  71  60  64  63  61  59  60  65  64  64  67  66  64  64  64  58  68  68  65  71 131 196 207 217 204 227 194 169 203 199 177 212 173 180 196 172 206 201 178 220 229 213 233 228 215 193 181 176 176 220 222 234 239 233 235 209 185
 231 225 200 185 200 224 235 231 214 187 178 213 215 233 242 227 202 186 186 195 227 221 224 197 217 198 188 201 191 210 190 170  69  62  64  61  60  66  53  41  53  74 137 199 221 172  91  56  63  64  63  74  74  66  63  66  68  68  71  75  65  60  58  52  59  58  64  59  56  55  75 124 190 213 219 205 189 213 173 202 197 171 202 176 189 221 180 196 216 230 234 200 185 174 172 190 206 214 232 235 224 202 184 205 198 183
 195 213 207 222 237 233 215 191 182 184 204 231 237 228 220 194 189 208 234 237 229 194 215 212 214 213 174 214 183 213 163  83  63  65  66  63  63  54  42  52  81 177 216 209 137  75  57  60  57  58  63  69  69  70  72  71  67  63  61  60  60  71  74  67  66  59  63  52  57  49  43  39  85 154 208 213 219 196 187 212 182 202 194 175 220 193 180 209 191 203 230 187 178 182 200 231 234 223 217 194 183 177 188 210 220 228
 180 212 233 236 226 207 181 181 199 221 239 224 203 184 211 213 231 242 242 237 220 198 197 222 196 215 177 213 185 194  83  63  61  59  57  60  56  40  57  88 185 219 214 135  58  58  67  68  71  69  66  69  67  63  70  78  70  66  66  62  58  64  68  63  63  63  56  44  40  41  41  41  39  53 140 214 218 202 210 204 185 205 173 196 212 179 202 205 163 199 241 213 209 220 226 222 198 186 188 175 176 200 231 232 231 213
 221 233 221 205 209 203 196 225 239 225 204 181 178 191 230 243 243 230 216 218 205 212 190 218 196 210 187 194 185 103  55  64  59  61  60  51  43  52 104 187 228 196 107  57  66  63  62  66  72  65  63  60  59  62  66  72  72  77  71  70  62  55  58  59  54  48  39  27  23  24  26  27  29  28  34 125 214 215 204 192 202 180 182 214 185 186 212 172 167 213 217 246 220 206 196 213 174 176 199 217 229 237 223 206 186 175
 221 199 188 185 203 225 233 221 208 196 185 196 219 240 235 220 197 192 215 212 185 221 196 205 210 190 205 182 142  62  59  53  52  62  57  46  50 103 208 212 198  86  65  59  57  55  59  63  59  61  60  69  70  67  66  67  62  59  70  69  64  61  62  54  44  40  39  38  36  32  29  29  28  27  30  51 127 188 201 195 198 165 210 191 176 206 175 163 209 188 180 234 203 169 185 210 200 228 241 243 223 198 189 174 172 180
 189 195 200 222 227 218 203 203 214 204 221 239 237 223 194 180 187 200 218 218 182 210 211 191 217 188 209 134  66  53  60  64  59  59  47  50  95 192 219 179  77  56  64  67  76  72  69  74  71  68  63  75  66  57  57  62  62  61  66  64  65  62  51  34  29  30  33  35  35  33  34  37  43  41  40  37  41 123 192 210 179 191 214 182 197 197 164 192 199 170 191 238 222 185 199 226 235 231 220 225 190 179 186 194 214 231
 212 233 233 225 201 188 190 208 235 239 231 226 204 187 184 207 229 225 204 213 202 190 221 186 211 188 195  69  62  56  50  54  67  52  56  74 189 216 165  70  52  62  65  69  74  65  56  56  57  60  67  68  73  76  72  73  70  66  54  56  53  51  37  26  24  25  25  25  23  24  28  31  33  33  38  36  38  55 104 205 183 218 180 179 213 169 170 210 173 179 215 211 237 232 234 221 205 193 197 216 184 202 227 244 243 218
 234 232 205 191 199 220 233 234 227 205 191 214 197 214 235 241 226 223 199 188 224 182 211 207 196 197  88  53  59  60  62  67  54  56  79 170 220 182  68  52  49  49  54  55  61  65  73  78  75  65  67  70  63  59  71  69  54  56  61  55  46  41  37  37  35  34  34  32  28  28  30  32  27  26  28  29  29  36  32 165 208 190 178 212 202 167 207 181 174 216 207 173 220 240 197 180 177 177 205 237 235 234 224 221 216 175
 198 206 207 209 229 237 226 206 185 183 196 226 237 237 224 223 215 208 215 182 216 196 190 218 188 144  55  67  60  54  68  62  55  63 164 212 178  75  61  66  63  65  66  66  64  60  63  71  71  56  51  58  60  64  63  62  64  61  49  38  34  25  29  32  31  31  32  34  37  37  37  39  37  36  34  32  32  32  30  65 160 181 192 210 174 209 189 167 208 216 178 172 222 234 192 196 212 225 239 234 217 193 180 197 213 183
 179 202 227 238 237 216 185 186 192 218 241 238 219 187 187 216 219 188 221 200 182 221 179 224 155  65  53  58  58  64  64  52  58 126 221 200  77  49  54  52  66  68  60  60  65  69  74  74  71  69  65  63  59  57  52  51  52  53  38  33  32  25  24  25  25  25  25  25  30  31  28  30  31  32  34  35  35  41  37  43  75 188 203 185 191 211 171 189 227 195 170 191 228 233 238 235 233 225 206 185 178 168 170 192 213 223
 218 231 227 207 201 208 188 220 241 239 213 189 177 185 211 223 231 191 199 219 174 206 193 195  95  62  59  52  56  63  59  54  97 206 198  95  56  63  62  68  73  73  67  64  62  55  54  56  56  53  61  74  64  61  59  59  54  38  39  41  35  40  34  34  35  34  31  30  35  33  24  24  25  26  26  27  28  35  31  37  38  94 199 182 220 179 178 221 199 176 188 219 184 213 244 235 188 180 173 174 176 196 210 227 237 223
 226 209 187 189 210 232 234 229 229 198 177 192 213 233 235 223 216 224 184 213 199 184 214 130  59  56  55  58  69  61  55  79 169 222 125  53  55  59  56  52  53  55  59  65  74  76  67  72  73  71  71  69  59  55  55  47  34  26  26  28  27  28  30  33  34  36  38  35  41  42  37  34  34  31  30  30  31  39  41  42  44  49 183 202 198 169 204 207 177 187 207 183 167 215 243 227 179 168 181 208 223 231 224 223 206 192
 193 188 197 225 238 226 205 187 207 197 202 233 242 229 227 217 195 225 197 186 220 180 190  66  57  54  51  61  68  60  62 156 207 182  61  60  64  68  72  67  64  64  64  65  75  68  58  59  56  55  54  57  57  55  58  47  29  26  25  24  25  25  24  30  32  27  27  29  32  34  38  41  46  45  43  44  45  44  43  38  43  38 107 189 173 193 211 172 186 204 187 166 193 225 243 233 207 207 225 232 222 208 194 188 182 189
 202 221 232 226 199 185 189 197 223 231 233 233 210 201 217 228 198 201 224 177 214 190 120  55  55  58  56  64  60  69 130 217 207  96  52  52  52  62  62  55  54  57  64  71  74  76  74  73  73  69  66  63  58  53  46  39  37  39  37  35  36  33  30  35  37  28  27  26  25  29  38  39  40  40  38  39  40  33  38  32  35  37  34 146 176 212 183 176 209 191 170 180 225 210 231 238 234 214 200 210 201 181 184 188 204 228
 237 226 226 187 195 221 237 241 229 215 196 198 208 219 197 208 226 182 213 205 183 193  75  54  55  48  59  66  53 102 215 205 110  52  72  72  68  76  76  67  62  59  58  59  51  50  49  57  68  56  58  61  59  54  36  26  29  26  30  37  40  39  42  45  45  40  40  39  40  41  42  41  34  35  32  32  35  26  35  33  33  39  29  78 190 189 176 203 205 166 185 219 205 175 213 236 195 173 163 200 206 198 217 232 237 213
 195 187 219 215 232 245 234 211 195 191 194 214 226 236 207 181 225 202 198 225 173 131  62  70  61  64  68  61  66 162 231 150  55  48  54  57  54  52  58  62  68  78  76  72  76  75  78  75  75  67  60  55  51  41  31  27  27  25  24  33  31  27  29  29  34  41  45  42  43  38  33  38  30  31  30  29  35  28  31  32  30  37  31  35 128 175 200 200 174 177 214 204 174 186 216 244 184 172 192 218 233 229 227 231 219 174
 190 206 230 243 232 237 197 191 193 216 234 232 233 220 228 182 197 227 187 207 176  61  56  48  48  60  68  63 118 202 205  78  67  67  65  64  61  59  58  58  59  78  61  51  52  50  52  54  56  56  55  57  49  40  37  37  35  33  33  37  34  34  27  32  40  44  42  34  36  34  29  35  31  28  36  31  37  31  28  34  31  38  30  33  79 203 199 171 171 209 201 169 185 218 214 224 210 208 235 236 222 204 188 203 211 182
 236 240 227 207 189 209 213 225 236 240 212 195 224 190 222 220 176 214 212 176 129  58  68  66  57  64  64  92 209 222 123  44  58  62  65  72  69  66  65  65  68  70  69  74  70  65  62  62  56  50  47  44  36  30  33  36  35  31  32  34  35  38  39  43  43  36  35  34  27  34  29  31  31  28  33  29  33  33  28  32  29  34  26  34  32 147 169 167 210 196 169 179 226 207 176 210 233 228 216 197 188 177 178 197 221 229
 220 202 189 191 205 223 231 228 214 214 190 203 233 204 190 225 203 183 220 165  61  54  53  65  66  63  66 149 226 191  61  59  55  57  69  67  60  52  47  47  51  46  48  52  53  66  62  61  62  61  55  46  37  32  34  34  31  25  23  26  33  38  40  33  34  29  31  39  28  35  31  27  31  27  31  29  30  34  28  31  28  32  28  27  35  47 159 211 201 170 181 213 205 179 178 213 238 200 184 182 179 190 216 224 230 216
 189 196 210 226 235 223 205 190 188 222 233 237 222 233 190 202 229 179 194 139  58  62  55  63  68  58  76 209 211 110  51  62  66  74  80  78  75  73  73  70  62  59  55  50  56  69  55  53  52  50  47  42  38  38  39  40  39  37  35  36  41  36  35  25  29  30  28  37  31  31  33  28  31  28  30  33  29  32  28  30  30  27  32  27  39  32 162 205 180 172 213 204 168 167 198 231 241 202 198 203 216 228 227 206 190 176
 221 236 239 227 208 191 188 206 223 239 230 230 191 225 221 189 214 208 157  71  60  56  61  65  70  61 129 229 168  53  51  50  48  48  52  52  53  56  73  77  62  67  76  77  72  72  63  60  57  54  44  35  26  24  29  30  33  39  45  42  44  29  29  31  29  32  28  31  32  27  33  30  29  30  29  32  28  29  26  28  31  28  29  26  30  31  84 177 181 205 200 168 164 204 225 201 228 235 236 237 223 199 183 173 172 182
 233 217 209 208 190 203 226 238 225 201 211 233 204 194 234 216 188 223 132  54  54  48  52  67  66  92 192 218  99  59  65  68  72  71  70  68  67  60  73  67  55  51  51  52  51  50  51  51  51  51  46  38  30  29  31  28  33  39  41  34  34  30  26  33  29  30  31  28  31  28  30  30  28  34  29  31  30  28  26  25  28  27  29  25  27  31  40 152 204 200 175 176 213 215 187 186 223 237 207 226 211 176 176 191 209 222
 195 184 193 225 227 231 221 202 185 185 215 227 228 188 207 235 198 178  89  64  62  65  61  72  58 144 222 172  59  53  57  64  73  64  68  66  69  72  75  74  75  70  67  67  61  57  54  52  48  42  40  36  34  37  37  35  41  39  38  34  27  35  30  30  31  29  32  29  30  29  28  31  24  29  27  28  32  27  27  28  31  29  32  33  37  39  38 127 206 175 183 216 206 178 188 209 238 237 191 209 205 197 221 235 239 227
 195 219 232 242 220 214 209 193 213 234 217 190 228 225 183 210 231 129  56  55  56  62  65  65  82 194 236 102  52  55  53  60  66  49  49  47  47  52  51  52  52  56  72  69  61  60  61  56  46  29  21  27  26  29  35  36  38  29  32  39  28  31  36  29  31  29  31  32  29  31  29  31  28  28  27  26  32  33  37  42  43  44  48  51  53  49  48  83 179 188 221 200 172 182 202 232 216 232 219 213 231 232 232 232 228 191
 241 236 211 191 178 196 237 240 242 234 236 199 192 237 218 188 211 100  68  65  61  62  73  60 146 208 186  58  62  72  74  77  76  72  69  68  71  70  63  59  60  61  70  55  50  46  45  43  40  37  35  33  28  33  41  37  34  33  30  36  37  27  34  30  30  31  30  33  26  30  30  26  30  27  38  45  51  51  52  51  45  47  49  47  47  47  47  56 178 216 194 174 180 208 225 190 181 218 244 234 222 202 182 200 224 183
 221 195 179 190 213 231 238 224 203 219 231 235 198 192 233 206 159  64  66  67  65  70  70  69 201 213 113  47  54  54  56  55  54  54  60  63  67  70  66  68  72  71  70  64  62  57  57  45  37  39  43  45  41  37  34  34  26  36  33  32  39  30  33  35  29  32  30  31  29  25  27  31  41  48  48  49  43  37  38  34  34  30  33  31  32  34  31  34 158 185 172 183 212 212 188 177 187 223 233 185 179 177 172 197 226 216
 196 196 213 235 237 213 194 188 192 221 201 225 232 187 199 230 124  63  56  55  59  75  65 124 213 197  70  60  58  61  60  58  58  53  55  63  67  54  51  52  55  57  56  54  54  52  54  39  29  27  27  38  40  37  31  36  33  32  33  28  32  36  29  33  30  30  29  27  27  30  38  46  45  44  35  33  30  31  34  30  30  26  30  29  29  30  29  33  91 170 182 216 206 178 176 199 222 238 230 176 182 199 217 231 239 233
 229 236 231 224 192 183 202 222 230 243 203 193 223 227 184 190  92  69  67  64  65  76  69 177 218 142  53  61  58  72  77  71  72  71  73  76  78  68  65  63  62  61  57  53  52  48  47  37  34  32  31  40  38  35  26  30  34  28  31  31  27  37  31  29  31  27  29  31  36  43  40  35  32  32  30  30  32  27  31  29  27  26  27  28  27  28  29  28  52 182 222 200 168 185 220 229 213 200 231 225 238 241 238 220 203 186
 224 198 188 215 209 219 241 241 235 229 240 203 182 223 218 149  63  59  63  60  72  65  97 218 211  81  58  56  57  71  65  52  49  48  52  57  57  63  65  73  73  69  67  67  63  52  44  35  37  40  42  40  31  32  32  31  33  35  31  34  29  31  33  28  30  29  32  36  37  31  26  31  26  27  30  25  27  27  28  28  27  29  26  29  27  28  26  25  37 181 181 171 194 225 220 190 178 186 239 241 242 211 194 179 176 185
 186 188 204 233 239 236 240 216 224 192 223 231 192 184 220 125  64  67  61  59  72  65 145 219 174  62  60  72  72  77  72  62  62  59  60  61  54  53  53  64  62  52  49  50  47  42  35  27  30  38  42  36  32  30  35  33  30  36  33  29  32  28  29  29  30  31  34  31  31  30  25  28  27  27  29  24  29  29  28  28  29  32  29  33  31  31  30  31  33 140 177 200 219 202 183 179 196 220 246 221 226 187 182 191 206 220
 183 214 243 229 217 198 225 214 232 206 183 212 230 191 181  86  69  69  69  64  71  79 181 221 105  44  54  54  58  59  64  68  69  73  76  71  73  74  70  73  68  61  59  59  48  49  42  34  36  43  37  33  37  31  35  34  29  32  36  32  29  33  27  31  34  28  29  30  27  33  29  26  28  27  27  30  33  38  40  43  45  46  48  51  50  45  47  51  42 120 200 212 185 174 192 208 226 228 231 225 228 215 224 233 236 231
 233 213 204 187 192 207 239 235 235 238 203 181 211 231 148  56  56  57  52  68  70 114 224 213  63  55  59  59  57  50  46  47  47  62  71  49  49  53  54  59  59  61  64  62  43  39  42  47  48  43  39  36  33  36  32  33  35  30  31  32  30  31  29  30  32  27  28  31  29  29  26  26  31  36  42  47  48  48  50  50  49  48  50  52  52  49  50  54  55  95 190 181 187 203 226 224 203 185 213 244 248 238 226 209 206 217
 218 189 182 202 230 239 232 228 203 219 234 202 180 204 115  70  67  68  64  79  76 150 218 169  58  64  65  73  75  72  72  71  71  76  76  61  54  53  53  52  52  54  53  47  42  30  32  43  44  35  37  39  31  36  35  31  31  35  30  31  32  29  31  31  27  32  30  27  28  28  32  37  43  43  44  45  46  45  47  46  45  45  46  46  45  44  48  50  55  67 174 187 211 231 206 186 178 181 219 243 216 197 187 186 191 216
 214 196 219 241 231 209 186 227 210 187 214 234 214 172  81  66  69  64  74  81  85 200 221 100  49  53  56  70  66  56  58  64  69  72  75  75  70  72  73  71  68  64  57  46  46  40  41  44  40  34  31  36  36  32  33  30  29  37  32  29  34  28  28  31  27  31  29  26  30  30  35  38  34  34  35  37  37  36  36  37  39  42  42  40  41  44  44  49  53  57 152 212 221 191 175 180 195 215 240 239 195 189 184 193 218 238
 229 234 219 224 192 191 207 237 238 215 187 200 228 179  72  67  65  56  76  74 119 227 208  64  63  60  63  77  69  55  49  50  47  48  46  46  46  61  64  52  51  49  48  42  41  45  50  39  35  39  31  30  37  34  30  31  33  32  33  30  32  29  24  29  30  24  25  28  28  25  25  26  32  34  34  32  29  26  28  32  34  35  31  34  42  44  42  44  42  44 131 206 178 175 188 212 225 215 200 236 204 202 220 238 242 234
 216 200 185 218 227 239 243 208 207 240 224 193 198 166  69  77  75  66  77  70 158 225 171  55  61  61  63  71  74  73  70  67  70  73  71  65  59  68  62  51  55  49  47  47  37  45  49  38  32  36  39  32  32  39  37  31  34  32  31  33  28  30  27  25  30  27  25  24  24  27  30  31  29  29  29  30  31  33  33  33  32  32  33  36  45  50  48  48  48  41 104 178 182 203 220 216 189 176 182 234 232 235 226 216 206 193
 183 187 208 235 243 229 232 205 182 202 234 227 202 109  66  69  66  68  78  87 211 223 113  49  50  52  53  51  50  50  52  62  68  55  63  63  64  68  66  64  69  59  51  49  39  48  40  40  35  32  37  39  33  34  42  33  33  33  28  32  28  29  31  26  23  25  28  29  31  31  30  27  25  28  31  33  33  32  30  30  31  36  41  38  44  54  52  47  53  53  90 194 203 209 191 171 180 194 214 244 231 223 199 188 187 189
 208 232 232 211 204 190 231 240 214 181 188 217 218  79  65  65  61  73  72 100 228 205  82  65  65  63  71  63  60  57  56  67  66  45  48  46  47  49  47  46  53  52  49  44  47  45  33  35  37  33  30  39  37  29  36  36  33  31  27  30  33  28  28  27  26  27  29  29  27  25  26  28  31  32  32  31  30  32  34  35  35  34  32  28  45  51  42  37  39  44  59 193 188 172 172 194 222 233 236 242 231 213 188 195 209 222
 235 220 193 181 193 212 217 216 238 230 194 178 158  63  67  66  64  80  81 155 216 157  56  62  61  70  78  66  70  73  74  74  69  64  64  62  57  61  59  52  49  46  52  47  42  39  39  32  33  35  36  29  35  38  29  35  29  31  34  25  30  27  26  26  30  26  24  29  32  34  36  37  30  29  29  31  34  37  33  32  32  31  35  35  46  50  34  37  44  61  67 159 170 189 216 237 236 217 198 219 231 224 222 239 244 241
 216 194 189 215 239 243 222 186 193 223 234 206 119  55  60  54  56  83  82 198 221 109  50  50  53  69  68  48  49  52  53  51  52  59  60  70  68  66  65  58  51  43  43  44  41  34  39  39  32  34  38  34  33  38  34  33  29  29  32  29  26  24  26  24  24  25  29  34  31  30  26  25  32  34  33  31  31  29  27  32  39  39  41  35  47  58  59  58  52  47  43 151 196 224 226 213 197 184 180 215 242 244 234 220 220 221
 211 217 234 243 229 231 241 212 180 183 208 225 126  63  65  64  69  81  86 203 216  85  61  66  72  75  73  62  60  58  56  54  47  46  43  62  70  53  48  48  52  49  42  41  43  37  35  37  39  35  32  37  33  31  33  32  30  27  30  29  24  20  22  26  30  32  31  27  21  26  28  32  35  30  30  32  28  31  39  42  38  34  34  33  44  54  49  43  37  45  41 141 210 202 187 178 177 197 216 235 244 225 199 183 201 215
 227 223 210 211 205 212 217 233 231 204 180 170  86  62  63  62  76  79 123 211 185  59  60  60  60  67  70  71  72  73  74  76  71  71  68  74  70  55  59  55  49  49  46  38  37  41  37  31  38  37  31  32  33  32  31  30  30  31  26  24  23  24  26  28  23  23  29  33  29  30  27  26  25  27  35  40  39  38  36  31  32  36  34  36  37  35  36  41  41  45  33 141 190 179 195 215 232 236 225 216 228 187 181 184 206 235
 195 184 181 201 224 225 204 200 215 236 223 165  67  57  55  55  79  88 179 236 148  46  52  49  49  50  48  51  52  56  72  64  60  65  64  66  60  60  58  57  49  45  45  40  34  37  43  33  34  35  34  31  32  32  31  30  30  30  27  24  24  24  22  21  27  31  31  27  24  29  29  30  35  37  36  32  31  31  37  36  38  39  37  37  38  34  39  35  35  39  36 115 196 213 230 232 219 204 180 185 223 200 215 228 234 234
 187 192 207 235 240 237 225 208 197 205 225 171  72  70  63  61  87  86 197 232 116  65  67  65  67  65  61  63  57  57  75  55  51  58  56  55  49  49  50  52  53  46  39  44  39  34  45  40  35  31  33  37  32  27  30  33  30  23  22  19  21  24  25  30  31  28  24  23  25  33  36  38  37  29  27  31  32  36  40  36  35  37  41  36  37  32  38  33  40  37  38 100 221 230 202 196 180 176 175 193 234 236 237 221 206 199
 232 237 234 225 221 223 231 240 227 213 188 117  63  64  69  68  91 103 204 217  84  55  59  63  74  76  72  76  81  80  81  81  80  77  74  71  66  60  61  56  47  50  34  33  42  42  43  36  37  37  33  31  32  32  31  28  30  22  21  22  24  27  27  24  27  27  28  33  34  32  29  26  35  30  32  40  39  36  31  32  35  40  31  39  35  37  35  32  38  38  35 111 201 193 172 175 183 206 224 233 238 213 197 177 174 178
 229 221 193 195 216 209 185 198 220 234 218 101  68  64  65  68  84 136 223 197  54  55  53  53  73  59  48  47  50  51  59  61  59  61  69  70  65  65  60  49  41  40  40  31  34  38  42  35  35  36  35  32  31  33  34  28  25  24  25  24  23  21  23  29  33  33  34  32  27  26  28  33  38  34  34  35  32  32  34  37  36  38  34  37  36  34  36  36  41  41  38  86 179 193 208 229 229 229 211 199 228 192 174 179 185 208
 196 212 198 220 240 225 195 183 180 189 201  92  75  72  74  79  77 149 226 180  58  65  67  70  75  69  66  64  61  58  56  54  47  53  66  60  48  54  56  51  52  40  41  40  31  32  37  37  39  36  35  33  31  31  32  31  25  22  21  23  25  27  29  30  28  25  28  31  32  34  37  39  33  29  30  37  41  42  39  37  36  36  36  35  35  34  34  35  40  39  39  73 191 219 224 213 199 193 179 181 221 205 201 215 226 226
 206 233 241 235 239 233 235 223 199 177 155  74  66  64  62  77  81 179 208 154  46  53  51  59  65  64  66  68  71  77  72  76  76  73  72  65  61  63  56  47  52  40  34  38  39  36  37  34  38  37  34  32  31  29  25  28  25  20  25  26  26  26  25  20  23  27  33  37  35  33  29  26  33  38  40  38  36  38  35  34  38  33  38  35  32  37  34  35  39  38  37  49 194 192 180 177 175 178 188 202 224 232 233 226 226 226
 232 223 206 201 214 190 197 215 225 227 161  72  72  70  60  83  89 215 220 118  48  54  56  58  57  52  51  50  59  72  52  50  54  55  56  58  55  57  54  45  41  41  37  33  35  37  42  39  37  37  35  30  30  33  24  28  30  25  23  23  22  25  26  29  33  30  28  27  27  31  34  37  38  36  31  34  37  36  35  34  38  29  39  35  33  37  34  36  41  39  42  52 180 176 182 182 194 212 229 232 219 210 199 192 198 224
 202 194 196 210 222 192 183 181 185 203 146  71  73  74  69  84  92 211 217 102  65  69  72  80  77  73  74  71  72  77  65  56  55  57  56  52  53  52  49  47  38  37  43  44  34  32  37  41  39  35  34  33  30  26  20  26  27  21  20  22  21  28  27  26  27  24  27  33  34  34  32  30  35  33  30  37  35  39  32  33  38  31  37  34  38  34  36  39  42  41  44  49 167 178 205 216 230 223 212 201 191 186 184 185 194 226
 210 217 235 241 239 233 216 201 191 180 107  65  65  62  68  88 101 202 184  70  59  57  59  74  68  61  66  72  74  75  76  75  75  76  72  68  66  65  52  45  42  34  33  42  42  37  33  34  39  35  29  36  32  22  20  26  25  23  23  25  23  23  18  22  33  35  36  35  31  28  29  31  40  40  41  41  33  42  28  35  33  36  34  32  35  38  40  38  40  38  44  36 145 219 214 212 230 193 186 180 181 189 203 219 232 233
 242 241 211 216 203 198 208 228 230 226 103  67  70  59  61  84 126 223 184  57  61  55  57  76  61  51  51  50  51  51  51  53  55  68  70  63  58  57  50  40  43  44  35  31  34  39  40  36  34  34  33  32  29  25  22  28  25  22  22  23  22  28  29  32  33  29  32  31  29  33  36  36  33  41  42  34  34  37  27  34  29  38  32  35  33  40  43  38  40  33  41  41 155 196 182 186 217 191 195 197 210 226 230 219 201 191
 211 213 190 219 198 174 168 178 183 194  88  69  68  67  74  85 157 227 194  64  65  68  69  77  76  77  73  70  68  64  68  68  62  73  68  58  55  51  47  45  36  36  42  42  36  33  37  40  35  32  34  30  23  21  17  24  27  21  23  27  27  31  27  26  26  24  32  38  37  37  34  30  33  35  36  29  33  32  34  34  31  39  33  41  34  40  43  38  42  31  39  36 162 187 178 179 216 227 227 227 234 218 184 185 182 178
 194 222 227 241 232 217 199 185 175 161  57  56  49  55  77  86 184 214 167  52  53  55  56  58  59  60  62  69  78  69  68  71  72  75  70  68  68  58  47  44  38  32  33  39  43  37  34  36  36  32  32  30  24  22  23  24  28  25  26  24  20  26  26  27  33  34  32  31  31  34  37  34  38  34  36  30  33  28  35  34  31  41  35  42  34  40  39  36  37  34  36  35 141 184 194 218 229 219 197 188 215 213 176 181 189 200
 230 243 240 237 214 222 229 233 233 197  64  63  63  61  77  91 199 215 134  56  56  56  56  57  53  49  47  60  69  49  48  48  51  56  62  57  56  55  43  42  44  44  39  33  37  38  38  37  36  34  31  26  22  19  23  24  27  21  20  23  24  31  31  31  31  31  30  30  31  34  41  43  37  36  35  34  33  33  32  32  34  43  36  41  34  38  36  37  37  38  40  40 111 209 212 190 188 184 175 177 201 217 211 225 235 238
 222 207 199 230 187 180 179 186 198 174  64  70  72  69  83  98 206 225 120  65  66  67  72  77  75  74  73  79  81  64  64  60  54  55  58  53  53  51  46  41  36  41  46  43  38  39  38  36  36  35  30  25  23  19  20  21  26  20  25  28  26  28  24  25  29  33  35  38  36  33  35  37  32  35  30  34  30  35  31  33  36  40  38  39  35  36  37  39  42  42  42  37 138 199 183 181 177 177 191 205 224 234 229 217 204 225
 190 187 196 236 213 206 201 194 185 144  59  67  63  61  84 105 200 210 101  55  58  60  72  74  64  67  69  73  74  73  71  70  71  70  66  65  63  47  41  42  36  35  39  44  41  39  37  35  35  33  27  24  25  25  23  22  30  26  25  24  21  25  25  30  33  34  33  32  31  33  36  36  31  31  28  31  30  33  36  36  35  35  38  36  38  35  40  41  42  43  43  35 126 183 184 187 195 216 230 220 211 202 186 181 179 213
 208 224 240 240 232 233 241 241 233 165  65  70  70  62  88 124 220 195  79  62  59  57  74  72  51  48  44  49  51  48  52  54  66  65  57  60  58  49  40  41  45  44  38  37  36  40  40  37  34  33  23  18  20  20  19  23  31  22  25  27  27  31  29  29  27  26  27  33  38  41  39  29  34  29  31  29  35  36  41  36  37  35  37  34  40  36  43  42  40  41  43  38  90 185 209 224 233 223 196 184 181 178 173 184 194 222
 239 236 229 219 183 187 188 203 204 145  61  65  72  70  93 141 226 213  91  65  69  71  77  78  75  68  75  69  67  61  58  60  70  66  53  54  50  48  48  40  42  46  45  40  39  38  36  34  32  32  27  26  24  23  22  24  34  28  33  27  21  22  26  30  33  35  34  33  37  36  38  31  36  30  33  32  36  37  36  38  37  37  35  39  42  42  42  41  42  41  36  31  66 207 212 199 229 203 175 171 182 192 211 226 232 232
 205 217 202 216 193 190 188 185 184 120  59  66  60  64  96 144 207 203  85  62  64  64  70  72  70  76  73  80  82  81  81  85  80  73  70  69  58  45  43  39  38  40  40  41  45  43  39  34  31  26  23  24  24  24  24  25  32  27  24  23  23  27  30  33  32  29  26  28  34  33  32  33  34  35  31  34  37  38  34  33  34  38  36  34  36  42  41  40  42  36  24  20  93 185 176 180 216 203 189 201 218 231 220 210 200 185
 190 215 227 236 227 228 227 223 223 130  63  71  69  73  98 156 208 186  72  51  49  50  53  54  51  54  47  69  64  55  56  59  58  57  59  63  58  44  40  41  44  43  39  36  42  41  38  35  32  27  22  23  23  21  21  23  29  27  25  26  27  27  26  25  27  30  32  35  38  35  30  34  32  38  31  36  36  36  33  33  36  37  36  34  35  38  38  38  31  23  22  19  92 173 175 189 213 223 229 220 215 227 182 171 174 175
 226 233 228 214 187 196 202 207 204 110  70  70  73  77  97 172 227 191  83  70  67  65  66  66  64  61  57  72  64  52  52  51  51  49  47  51  52  49  47  39  39  43  43  43  39  39  37  34  32  28  24  25  24  24  26  25  28  25  26  25  24  23  25  32  32  34  37  36  30  32  32  34  33  34  35  36  36  33  34  34  36  37  40  41  41  41  37  30  21  19  23  21  51 177 210 225 224 209 187 181 185 225 186 186 198 204
 208 191 198 210 180 181 177 183 181  93  68  65  63  72  99 179 216 183  71  61  66  72  74  75  75  77  76  77  76  73  71  72  67  62  62  63  55  48  46  38  36  37  39  43  43  41  37  34  27  21  19  20  21  19  21  21  26  25  24  25  27  28  30  32  29  31  34  35  32  30  34  30  33  32  38  37  35  36  38  38  39  36  37  37  37  37  31  20  18  21  18  20  42 180 199 192 179 173 171 168 169 227 220 226 232 235
 187 195 214 231 220 219 221 224 217 114  69  71  70  80  99 177 201 162  61  56  57  63  69  62  57  60  65  67  68  71  69  69  73  67  66  63  54  42  43  44  47  47  42  41  40  39  36  36  28  25  24  23  22  22  24  22  27  26  25  27  26  26  28  29  31  36  35  30  34  28  32  31  33  37  35  36  32  37  35  34  33  33  33  38  40  31  22  20  18  17  17  20  59 167 174 175 172 173 177 197 211 235 235 228 217 217
 225 237 238 231 215 211 214 219 208 105  63  66  72  84 109 193 204 159  65  59  62  68  72  60  53  51  54  57  51  51  52  57  67  53  53  52  53  51  45  41  45  48  46  44  43  40  35  32  24  22  22  22  22  24  26  24  28  26  24  23  21  26  32  32  36  37  34  33  34  34  27  32  37  36  32  32  32  37  38  39  40  39  38  39  36  19  18  19  18  17  17  24  53 160 174 187 190 211 220 222 216 209 203 188 174 188
 225 211 225 201 182 182 180 183 179  88  61  58  63  73 110 202 221 176  74  70  77  73  74  78  77  75  72  74  66  67  67  69  73  57  53  52  49  47  44  40  39  39  40  44  46  42  36  33  24  21  21  21  21  20  21  21  26  26  24  26  25  26  30  29  33  34  29  34  32  33  34  35  36  34  34  35  37  36  34  32  31  31  34  30  21  21  19  18  17  17  16  18  24 149 202 211 220 222 197 188 176 169 172 175 183 198
 187 195 225 214 205 209 214 225 221 119  73  73  75  79 111 188 203 155  55  62  61  60  64  68  70  71  72  82  76  79  79  79  78  76  68  65  53  41  41  45  46  45  43  46  43  40  36  34  28  29  28  27  26  24  25  24  28  27  26  27  25  23  24  29  34  37  32  29  36  30  38  42  37  33  36  33  35  32  33  34  35  36  37  27  18  19  17  17  16  17  16  21  23 152 193 183 198 211 175 176 177 188 199 216 222 230
 200 226 239 234 233 227 225 223 217 112  69  69  69  85 116 190 203 147  56  62  56  58  62  63  60  60  64  77  60  54  59  61  56  60  57  60  56  51  44  41  46  46  49  50  47  42  35  28  22  26  26  24  22  22  23  23  28  26  22  25  27  28  30  36  33  31  35  28  37  32  39  41  37  33  33  36  41  38  33  34  33  33  25  18  19  15  14  15  17  18  17  24  27 155 165 160 184 201 185 202 215 229 232 225 211 196
 234 221 222 210 187 185 182 182 182  88  59  62  59  85 118 208 220 156  68  69  70  74  75  77  76  76  75  77  63  64  61  63  55  53  51  55  52  48  43  36  39  39  43  44  44  39  35  28  23  24  25  24  22  22  23  23  29  27  27  24  24  29  31  34  34  27  32  33  34  36  44  38  32  33  32  29  26  29  30  31  33  33  21  18  19  15  15  16  17  18  17  16  31 144 154 174 192 217 226 229 224 236 215 181 174 167
 190 184 205 210 194 202 207 214 214 115  73  74  76  93 134 207 206 147  63  67  65  73  78  67  66  70  71  74  71  77  78  80  76  70  69  73  58  42  45  46  48  43  44  41  42  37  33  28  23  23  24  25  26  25  25  25  31  29  24  21  21  27  32  34  32  32  33  34  33  39  40  39  31  33  39  40  40  39  37  35  31  25  20  19  16  15  18  17  17  17  18  23  31 126 209 213 213 206 200 197 199 222 204 174 178 189
 189 208 227 233 227 222 222 211 201 100  61  65  70  91 143 199 205 146  62  63  61  73  76  55  51  54  58  57  53  55  57  64  72  69  66  67  63  47  42  44  48  45  47  46  45  38  32  27  23  22  21  22  24  23  21  21  28  26  23  24  27  31  34  36  29  35  35  30  35  41  34  37  39  34  29  30  33  31  29  33  27  19  21  17  15  16  18  18  16  18  21  27  24 140 216 198 191 182 177 185 190 206 207 211 223 224
 233 237 234 216 190 186 186 177 180  93  57  60  53  91 141 220 224 155  65  68  70  71  73  74  75  76  77  69  64  65  59  64  72  64  61  65  62  52  47  41  42  40  43  43  46  39  34  30  28  29  27  27  29  27  25  25  31  29  28  27  26  27  29  35  31  28  33  33  37  40  37  34  30  30  32  34  35  38  38  33  23  20  23  15  16  17  17  17  16  19  23  23  29 164 191 188 184 186 195 203 215 223 226 220 205 192
 208 195 208 203 185 194 203 213 219 123  72  72  76  86 137 210 214 141  58  65  59  61  62  68  71  74  70  76  79  81  77  76  73  69  65  66  58  47  47  46  46  46  45  44  39  34  30  24  20  23  23  21  19  20  21  24  29  30  23  29  26  28  28  27  32  30  30  35  41  35  31  34  31  30  30  29  29  28  29  28  20  22  17  14  16  14  16  15  21  25  20  16  28 138 191 198 203 218 229 228 215 199 192 184 180 172
 185 191 214 229 229 229 228 218 200 105  69  72  74  80 141 191 201 139  56  57  58  56  54  54  56  61  59  75  61  61  62  62  62  63  63  64  58  48  43  41  43  46  48  48  44  35  29  25  24  27  26  24  22  23  22  25  29  32  26  27  27  32  28  27  32  37  34  36  41  37  33  27  35  36  35  35  35  36  32  22  20  18  15  14  16  16  16  19  23  22  20  19  22  82 205 221 216 236 208 196 186 181 184 178 182 184
 225 227 237 228 215 204 200 188 180 112  68  69  70  82 141 209 223 177  87  72  72  74  72  69  70  67  72  74  63  59  58  56  55  55  53  54  52  47  41  38  39  41  43  43  43  37  33  30  28  27  27  27  28  29  26  27  32  35  27  24  27  33  26  31  32  33  38  45  40  37  35  31  27  27  27  26  26  31  25  16  22  19  16  15  14  15  18  25  25  19  19  22  26 109 214 207 189 220 180 178 184 184 200 213 226 228
 232 212 218 203 190 193 199 205 206 145  74  72  74  93 149 222 213 164  66  63  58  62  69  68  69  70  76  73  80  78  77  78  78  75  69  69  65  49  44  46  49  49  48  48  41  35  31  27  23  19  18  19  22  25  23  22  27  30  23  24  29  38  29  23  33  33  34  43  40  37  31  32  36  37  39  40  40  33  22  18  20  19  18  17  13  14  23  27  24  19  20  22  20 136 188 181 180 206 195 204 215 225 232 215 208 191
 196 187 201 211 209 222 224 217 197 121  58  64  69  82 142 188 188 148  58  61  53  60  66  60  55  56  52  60  59  58  61  67  73  72  67  70  65  46  40  42  45  46  46  46  49  39  31  26  26  27  24  22  24  27  25  23  27  31  30  30  31  35  31  30  28  33  41  42  38  39  30  29  29  28  28  27  28  29  18  22  18  18  16  16  14  19  26  24  21  20  19  22  22 106 186 195 206 220 222 217 205 218 215 184 185 185
 202 210 229 228 218 210 197 182 184 125  56  61  68  73 129 191 201 184  82  65  63  60  66  66  64  62  57  63  62  62  61  64  71  67  59  61  59  54  43  40  42  42  40  39  43  38  33  23  24  27  24  20  24  25  25  23  28  32  25  24  29  32  27  34  34  32  40  38  32  30  32  36  37  35  35  35  33  23  19  22  17  18  14  16  18  24  20  18  19  19  20  24  20  64 201 217 219 210 202 187 178 198 216 184 190 198
 234 223 213 213 193 184 185 197 209 166  75  78  79  82 147 227 223 193  75  63  59  60  63  66  69  71  69  76  74  73  71  69  71  68  62  63  63  49  43  48  52  51  48  47  43  36  30  24  26  28  26  21  22  21  20  19  26  31  22  29  33  32  29  28  37  37  36  36  34  27  23  20  24  23  25  27  23  16  21  18  15  16  14  13  25  28  17  18  20  20  18  14  26  80 200 191 184 180 188 185 187 202 216 212 224 226
 188 186 200 221 199 211 223 225 218 179  69  81  77  81 136 204 200 177  56  58  54  56  54  56  59  58  61  74  69  61  62  62  65  68  68  70  67  48  43  46  49  50  50  51  46  38  33  26  26  25  27  25  24  26  28  25  30  34  28  32  30  28  32  34  29  37  40  32  31  30  31  31  33  29  31  29  21  17  24  17  16  16  15  17  30  26  16  18  21  20  19  26  18  85 186 190 188 193 207 220 225 230 227 214 205 197
 187 198 212 233 232 227 230 204 190 167  59  63  66  70 122 196 195 172  79  62  57  61  58  59  60  56  57  69  64  58  60  61  60  61  64  65  62  47  42  43  46  47  46  48  47  40  34  24  22  24  27  24  21  22  24  22  29  34  26  29  28  27  28  33  31  35  37  37  34  26  23  24  29  25  28  27  18  20  22  16  17  16  16  26  31  20  17  18  19  19  19  23  21  66 182 201 211 229 235 223 210 200 191 192 193 185
 231 237 226 221 207 192 222 191 191 187  82  76  77  75 112 199 216 212 106  66  68  67  66  64  65  66  66  69  68  68  66  68  65  63  65  64  60  46  44  51  54  54  53  51  49  37  32  23  21  25  26  27  25  23  23  22  27  33  31  28  28  32  32  28  34  37  31  29  32  33  32  31  34  32  32  23  16  23  18  16  17  16  18  31  29  13  16  18  18  19  20  18  27  42 188 216 212 228 217 183 175 177 188 186 188 195
 225 200 191 184 189 202 229 224 225 214  93  88  86  80 112 193 208 191  77  53  62  63  69  70  65  63  64  67  69  71  79  77  75  74  73  71  68  52  41  47  54  54  50  50  47  38  34  27  24  21  24  27  24  22  22  23  27  34  27  29  25  23  29  34  32  33  36  32  28  28  26  24  25  26  30  21  18  22  16  16  16  16  21  30  24  11  15  18  19  20  20  17  23  63 191 176 177 208 202 181 185 195 206 217 224 221
 209 185 195 216 227 233 221 205 185 175  69  65  67  68 106 178 188 187  93  59  63  60  66  71  63  60  62  67  69  67  67  67  71  71  67  66  65  55  41  43  52  51  45  49  48  43  37  24  24  25  25  27  25  20  19  20  23  30  26  31  30  26  27  30  37  36  31  31  33  35  35  35  35  33  32  20  19  19  15  15  15  15  24  28  17  12  15  18  19  20  19  17  22  64 177 177 178 202 211 214 225 226 229 216 208 196
 222 225 232 237 211 200 185 180 186 188  75  67  69  71  97 171 209 218 132  74  70  68  69  72  69  70  69  72  74  69  68  71  74  67  62  62  60  52  47  46  52  52  47  51  46  42  37  25  25  25  21  23  25  25  24  22  23  28  30  28  29  32  30  27  32  37  33  27  27  27  27  25  27  27  25  17  20  17  15  16  15  16  27  24  12  13  15  18  19  20  20  20  19  47 148 199 218 225 227 221 208 195 222 195 189 194
 229 210 199 225 198 194 197 215 218 222 116  79  74  82 104 197 228 214 122  61  61  59  62  63  65  69  66  69  75  72  68  72  71  70  70  69  67  49  44  49  53  56  54  54  51  41  39  30  24  23  22  25  26  24  22  22  23  30  30  29  24  25  32  35  37  30  29  33  34  35  35  34  29  28  24  17  22  17  16  18  16  19  29  20  12  13  15  18  19  20  19  23  22  31 162 229 212 204 194 178 179 174 205 194 193 204
 191 184 192 221 227 233 240 234 227 218  96  64  65  71 101 193 201 200 112  55  52  54  55  61  57  61  55  63  74  59  56  66  59  58  63  63  64  56  45  44  46  50  52  50  51  47  37  23  23  24  26  26  24  23  21  23  24  33  30  27  26  28  29  33  37  34  28  25  26  25  26  27  27  28  20  17  17  15  16  16  16  23  27  15  12  12  13  16  18  20  20  20  23  52 180 200 184 182 177 174 190 204 218 223 231 230
 193 211 228 236 233 222 226 219 191 193  90  62  58  64  95 179 206 211 143  75  73  72  67  73  71  70  65  66  72  62  62  66  59  56  55  57  59  56  50  47  47  48  48  47  53  45  38  26  24  24  21  20  22  25  23  24  24  31  28  23  24  32  35  32  34  33  33  29  28  27  26  26  26  26  18  18  17  15  15  16  17  23  23  12  11  11  13  16  18  19  19  25  17  45 182 193 180 188 198 212 225 229 229 219 212 200
 233 227 210 198 186 182 204 224 206 215 118  81  79  83 101 180 229 215 149  67  71  71  68  77  72  70  69  65  69  68  72  70  69  70  64  65  65  55  41  43  49  51  50  52  51  41  36  27  22  22  23  26  27  25  21  21  22  29  28  23  23  26  29  38  36  31  25  22  24  24  26  28  26  23  17  19  18  16  14  16  19  23  18  10   9  10  13  16  18  19  19  18  23  33 157 202 204 218 240 224 216 206 197 191 185 180
 215 189 185 185 189 204 220 233 223 220 112  70  73  79  97 173 204 192 130  51  59  60  63  74  61  61  63  61  66  65  65  63  68  74  68  69  73  61  45  39  45  49  47  48  44  41  37  26  22  24  25  24  21  24  24  25  26  34  28  26  28  31  30  32  35  35  33  30  30  28  27  27  28  22  15  19  17  16  14  16  20  23  15  11   9  11  14  16  18  19  20  19  25  23 147 202 194 198 237 197 184 186 186 180 176 186
 215 203 205 219 228 223 209 197 186 188  94  63  58  65  88 159 194 200 140  55  60  61  63  73  61  61  63  62  65  62  59  58  61  67  65  64  65  58  47  42  49  52  47  45  43  44  39  26  23  24  22  22  24  28  26  24  22  30  31  25  25  29  31  34  32  27  26  25  25  25  25  27  28  21  14  18  15  16  14  16  21  24  15  11  10  12  14  16  18  19  20  21  26  30 160 172 162 177 228 192 187 198 205 211 218 218
 229 237 224 229 216 189 180 175 183 193 121  73  72  73  87 153 214 227 176  76  74  65  65  72  71  67  67  68  67  67  64  62  62  64  63  59  60  55  48  50  53  53  51  52  50  40  35  28  20  23  22  23  25  24  24  23  20  33  34  26  27  26  31  38  40  33  27  26  24  24  23  23  25  19  17  18  14  15  16  16  22  19  13  10  10  13  15  17  19  20  22  23  22  29 148 172 169 187 219 217 216 221 222 213 189 181
 206 193 184 203 207 184 196 214 225 225 136  74  76  78  89 153 214 200 157  56  62  60  56  59  61  57  59  62  67  67  68  68  69  70  72  71  69  59  48  45  49  51  52  54  53  44  37  29  23  24  25  23  21  21  25  29  25  31  27  22  26  30  36  34  33  33  28  27  28  29  30  31  25  18  16  17  14  16  16  17  21  16  14  15  16  16  18  19  19  20  21  23  20  24 111 194 209 218 223 217 198 187 206 215 173 175
 175 176 189 213 224 222 220 226 197 188 104  55  59  64  78 142 193 187 151  53  59  56  56  57  57  56  53  59  73  65  60  60  61  62  61  60  66  61  48  45  48  48  47  48  47  45  41  32  22  20  22  23  22  22  21  23  21  27  28  22  24  25  30  36  36  27  23  25  22  22  21  20  23  17  16  16  14  16  16  18  21  16  17  18  17  14  15  16  16  16  17  20  20  24 120 217 206 187 183 186 177 176 199 216 190 199
 205 220 228 227 215 202 182 222 190 169 113  66  67  67  73 133 203 213 175  68  60  64  64  62  62  60  60  62  75  68  63  64  63  61  61  62  65  58  46  45  48  49  47  48  48  46  41  34  28  25  23  22  21  19  18  24  24  27  31  25  27  27  32  35  35  30  28  31  29  29  28  28  24  17  15  16  13  14  14  20  23  14  13  13  13  11  14  16  17  19  19  23  21  23 125 174 175 173 176 179 185 198 225 235 232 234
 231 215 196 186 177 179 175 213 209 218 185  96  85  82  85 132 222 217 184  77  67  68  65  70  66  61  63  65  69  68  64  64  64  62  63  63  62  55  43  42  49  52  50  51  50  48  40  37  33  22  20  21  21  23  22  26  25  21  25  22  26  29  36  34  28  25  21  22  23  23  23  24  23  15  16  13  14  14  14  21  22  14  11  11  12  12  13  16  16  20  21  19  25  23 103 175 180 192 209 228 235 232 225 215 207 188
 201 205 173 186 200 218 224 232 223 214 168  78  70  67  77 124 191 188 167  59  60  62  62  74  66  58  55  57  56  57  59  59  62  68  69  64  65  59  47  42  47  49  45  48  48  47  40  36  30  25  22  23  23  20  18  22  26  26  27  24  25  29  38  34  30  28  28  30  30  28  27  27  22  13  17  12  14  15  16  21  20  13  11  11  10  10  13  17  16  20  20  22  18  23  92 223 228 230 233 213 189 182 182 183 181 176
 203 228 216 226 232 220 213 206 190 185 150  66  65  63  70 120 185 202 186  70  62  62  62  69  63  62  64  62  59  62  63  59  60  65  66  58  59  57  49  46  48  48  46  48  50  46  41  40  31  28  22  21  20  23  25  26  28  29  30  25  25  30  39  29  26  23  24  25  25  25  26  28  22  14  16  14  14  14  16  22  18  12  12  11  11  11  13  16  15  19  18  22  21  26  92 222 206 198 212 207 179 177 184 192 200 200
 230 234 220 206 209 187 190 186 184 194 179  88  80  79  82 120 223 231 210  88  73  69  69  69  65  64  68  65  67  70  68  63  61  64  66  59  59  54  45  44  49  53  53  51  50  46  39  35  28  29  24  25  27  25  24  22  23  26  27  22  22  26  36  35  31  28  28  27  25  23  21  21  19  14  14  15  14  14  16  21  17  11  11  12  12  12  14  16  15  18  17  16  22  16  93 194 198 201 208 205 185 201 219 234 234 230
 196 192 180 183 211 194 214 225 227 226 208  91  76  78  84 124 212 203 188  76  60  57  60  58  59  61  62  61  67  65  60  59  59  60  63  66  67  62  49  48  46  46  46  46  49  49  39  35  34  35  26  22  21  20  21  20  21  27  31  28  29  30  37  32  29  27  27  28  28  27  27  27  19  15  13  17  15  15  14  18  16  11  12  12  13  13  14  16  14  17  16  18  18  22  70 192 206 214 222 225 228 227 221 237 197 185
 186 188 192 211 229 223 219 231 207 188 177  72  65  64  68 114 194 194 191  79  59  56  57  57  56  58  59  58  72  69  56  57  55  54  57  61  57  54  49  47  49  48  46  47  46  43  37  36  30  31  26  22  26  22  22  23  23  24  34  27  22  27  33  30  26  22  22  23  21  21  22  25  19  14  13  13  13  15  15  16  15  14  13  13  14  15  16  17  17  18  18  21  20  22  43 216 222 223 210 209 195 185 186 229 187 182
 216 229 228 215 204 196 188 210 195 175 177  80  66  71  75 110 195 226 219 100  75  70  69  63  64  63  62  57  67  64  63  59  55  59  63  63  59  55  48  44  49  50  48  47  52  47  38  36  33  35  31  23  21  19  20  20  21  21  33  29  25  29  32  33  32  27  26  26  24  24  25  27  18  18  16  13  14  14  14  14  14  14  14  14  15  16  17  17  17  18  18  18  22  22  47 189 181 174 173 178 179 176 175 210 205 213
 214 222 188 186 185 181 177 202 214 215 227 120  89  87  88 113 206 229 210  95  72  72  67  67  63  62  63  59  63  61  61  63  61  60  61  64  63  58  47  41  48  52  50  49  47  50  42  37  31  27  28  23  20  22  25  26  28  28  34  30  27  32  34  25  26  21  18  19  20  20  20  20  13  19  16  11  14  14  14  14  14  15  15  15  15  17  17  17  17  18  18  18  20  22  54 166 170 167 172 182 192 200 214 225 233 220
 183 214 182 187 202 219 227 228 220 201 184  88  67  66  72 104 173 193 187  92  57  57  54  70  67  56  56  57  57  58  56  53  53  62  68  68  67  63  53  41  43  47  47  48  44  46  41  39  34  33  34  28  24  26  26  24  21  20  29  25  22  30  35  33  31  26  25  25  26  26  25  24  14  15  14  12  14  15  15  15  15  16  15  15  16  18  17  17  18  18  19  19  18  22  38 159 176 192 208 223 224 215 206 190 184 176
 187 218 217 222 227 213 200 189 185 178 176  80  72  69  68 103 162 208 213 115  63  64  60  70  68  60  59  61  59  60  59  59  57  60  63  63  61  58  51  42  45  48  50  53  52  45  38  39  34  28  28  23  20  23  24  24  24  25  28  27  27  32  34  30  27  22  23  24  25  26  25  22  17  14  14  15  15  14  14  14  14  15  16  16  16  18  17  17  18  19  18  18  18  22  19 176 209 216 222 216 180 173 174 172 175 179
 224 212 197 180 213 197 188 192 199 220 214 108  86  86  79 105 186 230 217 132  76  73  71  65  65  66  63  62  64  65  65  62  60  59  58  58  58  56  47  42  44  48  51  52  55  50  41  36  36  33  31  30  27  25  24  24  24  24  29  25  21  30  30  28  25  21  22  21  21  21  22  19  16  13  14  14  12  13  14  15  16  15  15  14  15  17  16  17  18  18  18  17  19  20  40 191 201 200 209 203 170 173 187 185 204 224
 183 184 179 183 217 223 228 238 230 220 194  88  68  66  71 101 181 200 196 123  53  57  54  53  57  57  57  53  58  70  58  56  54  52  52  55  57  58  52  44  42  40  42  45  44  45  41  37  36  31  27  25  20  21  21  21  21  21  30  28  23  30  32  34  30  26  27  26  26  26  27  23  16  13  14  14  13  13  14  15  16  16  14  14  15  17  17  18  19  19  19  20  24  22  46 189 186 196 202 216 214 233 228 236 228 206
 192 202 212 224 233 230 218 225 216 201 179  79  60  60  64  94 166 205 204 135  54  62  58  59  62  63  62  55  59  72  60  57  56  54  55  57  57  56  51  45  46  47  47  46  47  45  38  34  33  28  27  27  24  23  22  22  22  22  30  30  24  29  30  26  23  19  19  20  21  21  21  17  14  12  14  15  13  13  14  15  15  15  15  15  15  17  17  18  19  20  19  22  21  22  34 173 198 221 217 226 213 208 194 224 194 180
 229 236 227 207 192 191 189 208 216 208 194 115  72  75  73  95 166 230 222 154  63  67  67  71  72  69  66  61  63  68  63  61  59  58  59  61  59  57  52  44  45  48  50  50  53  50  41  34  33  31  28  27  23  22  22  22  22  22  28  31  24  26  30  32  29  25  26  26  27  26  26  22  14  12  14  15  14  13  14  15  15  15  15  15  15  17  18  19  20  20  19  19  22  26  33 175 209 209 199 211 194 184 185 215 193 191
