P2
97 119
255
  51  57  60  61  63  69  65  51  71  88 104 190 191 199 199 197 195 197 197 111  82  87  76  82  82  85  81  76  79  82  92  85  90  87  90  90  85  85  84  93  83  84  79  85  84  88  85  84  87  80  76  70  80  85  80  84  85  86  85  89  87  88  90  92  88  84  89  93  89  85  84  84  82  90  86  89  81  82  81  83  84  85  80  77  75  72  84  67  67  70  71  61  53  51  68  67  57
  53  54  58  63  64  69  67  53  69  89 108 165 190 196 193 193 193 189 210 119  75  78  80  85  81  81  84  84  88  83  83  82  86  81  85  84  84  85  81  83  82  85  76  82  79  93  88  77  85  88  79  73  76  84  86  83  86  84  82  86  83  86  85  85  90  89  88  87  90  86  83  82  79  87  87  86  79  76  82  84  86  85  81  76  83  77  83  78  77  71  70  63  55  56  68  65  57
  54  54  58  62  63  68  66  54  69  88 118 146 183 194 197 200 206 200 211 125  79  87  77  82  80  83  87  84  84  80  87  81  85  84  85  87  82  84  86  88  81  79  76  84  80  84  79  88  87  76  76  74  82  90  86  85  86  84  82  87  88  91  88  86  89  89  88  89  92  87  85  84  82  87  85  86  81  79  81  82  85  83  78  79  83  73  84  68  69  66  66  69  62  57  67  66  60
  53  54  57  61  63  66  63  54  64  78 114 128 186 199 200 203 205 200 206 132  72  80  75  83  82  77  74  79  88  85  83  80  92  88  83  82  84  88  84  82  80  85  78  82  78  79  86  85  86  87  76  69  79  89  84  88  88  85  85  88  92  95  90  88  91  93  92  96  98  92  92  91  89  92  87  90  87  88  88  87  91  87  83  82  80  66  88  71  72  70  68  74  71  59  65  66  59
  54  56  57  61  64  65  59  52  60  84 109 112 175 199 194 205 199 199 198 145  82  85  80  78  75  79  81  82  85  86  95  88  88  86  88  89  83  85  84  87  84  88  83  89  90  83  90  87  91  89  85  68  70  85  83  85  82  82  85  87  89  89  84  88  87  88  86  92  91  87  90  87  86  87  84  88  86  88  86  82  84  81  79  84  82  71  89  81  75  73  69  63  60  53  63  69  62
  51  54  57  62  66  65  59  51  58  80  89 105 172 198 196 201 196 201 199 155  84  87  80  82  81  77  77  79  80  77  86  87  94  86  84  84  84  83  88  93  80  84  83  88  89  86  86  84  84  83  76  59  66  84  83  84  81  82  85  88  88  89  83  92  88  88  87  91  89  88  91  88  87  87  80  87  85  86  86  83  83  80  79  80  82  75  83  79  77  77  76  68  62  53  63  69  59
  47  51  57  64  72  66  63  51  58  83  85 112 163 190 194 192 198 198 201 164  75  79  80  84  89  77  80  78  84  78  84  81  96  86  78  83  86  88  79  84  82  84  77  77  83  89  90  84  85  90  76  63  70  80  87  83  81  82  80  88  92  91  88  90  89  88  93  90  89  83  90  87  88  87  77  90  87  89  86  84  83  82  77  80  82  75  81  74  74  70  64  63  63  56  62  71  62
  47  49  53  63  68  62  61  50  59  87  85 112 167 187 194 192 197 198 200 168  83  88  82  72  78  82  88  75  74  72  87  82  80  79  85  86  79  80  79  90  87  87  78  82  85  77  79  84  88  85  86  73  62  68  79  81  81  83  82  83  90  79  83  78  80  78  81  79  81  78  83  76  76  73  69  78  73  78  77  75  68  70  54  46  63  70  79  76  73  73  70  71  64  56  60  73  66
  51  51  52  58  62  60  65  55  51  85  81 104 155 173 193 193 194 194 197 174  85  80  74  81  91  77  77  76  84  79  79  78  87  87  83  80  82  91  83  82  76  79  79  76  78  82  88  84  79  84  78  70  69 108 138 138 137 139 139 138 141 136 136 136 137 133 135 136 140 138 140 139 135 129 127 127 128 127 123 123 111  98  72  39  54  63  70  69  69  70  68  69  65  60  60  73  66
  51  51  52  58  62  62  67  54  51  85  79  90 131 159 190 195 195 198 202 182  90  81  82  75  80  81  90  84  83  77  82  81  78  77  76  83  76  82  79  85  81  78  79  80  82  81  80  80  88  89  80  73  62  93 108 108 105 106 107 105 105 104 114 126 107 105 106 103 106 107 104  99 128  98  96  95  96  92  92  90  89  86  89  63  62  70  79  78  77  77  74  72  64  59  58  74  67
  48  52  50  56  59  63  70  59  50  81  80  87 106 146 189 193 197 202 204 194 100  87  84  82  92  90  86  81  90  87  84  85  87  82  74  78  85  88  81  83  78  79  87  82  83  84  88  85  91  90  85  80  70  78  61  60  60  61  62  60  60  58  77 107  59  58  61  56  59  61  62  62 113  71  55  55  56  57  59  57  61  75 111  87  67  70  79  71  70  74  72  69  63  56  57  73  67
  49  52  54  64  66  66  66  57  49  83  85  92 102 112 189 202 197 200 205 197 101  82  83  84  90  85  84  88  87  85  86  88  85  83  83  90  89  92  84  84  84  76  82  77  83  76  82  86  88  83  78  75  67  75  64  64  63  63  62  61  61  60  75 116  60  60  62  58  64  67  64  65 111  83  55  58  59  58  56  53  60  72 119 106  67  68  74  70  67  68  70  69  68  59  60  76  69
  50  49  57  75  81  77  69  60  48  75  92  84  62  53 170 198 202 199 209 197 108  83  81  75  79  83  87  85  85  85  84  88  85  83  81  82  78  81  80  81  84  80  82  78  85  83  81  78  89  87  82  77  65  74  66  66  64  63  63  64  64  64  76 123  62  63  65  64  69  66  62  64 108  93  54  62  57  59  56  53  60  61 118 126  73  72  74  80  72  72  71  70  67  59  58  76  71
  51  51  54  76  90  81  65  57  50  69  67  38  27  40 163 191 205 202 212 202 120  81  78  80  88  81  79  83  91  94  84  84  87  90  79  77  82  83  81  76  81  86  90  79  83  82  95  90  78  89  90  79  65  78  69  64  66  67  68  68  66  65  73 125  65  67  64  62  63  63  64  67 103 105  57  61  58  59  55  44  40  50 121 134  77  73  74  80  69  71  70  67  63  58  54  74  70
  56  59  53  62  81  77  61  61  47  68  59  28  30  33 150 198 209 209 210 206 128  74  94  84  82  85  91  86  79  83  85  92  81  81  82  88  86  80  78  79  90  78  76  78  91  83  77  75  85  84  84  79  63  77  77  68  72  72  68  66  65  66  74 132  63  65  64  64  64  65  64  66  97 114  57  60  56  45  31  26  50  88 132 144  80  66  73  78  70  69  69  70  64  57  51  74  69
  55  58  50  57  67  91  68  68  53  66  66  48  39  48 147 203 205 203 208 204 133  72  78  79  90  82  86  82  86  92  81  85  75  81  83  84  87  85  91  84  85  80  90  79  81  77  90  81  81  84  89  78  68  77  74  66  64  66  62  71  69  65  68 137  68  69  67  70  65  64  67  64  88 128  55  60  59  41  37  78  89  85 123 155  85  71  69  81  65  71  70  69  61  59  52  68  62
  53  56  51  58  63  98  66  67  50  61  71  45  54  52 131 196 201 201 203 207 148  77  85  76  81  75  81  88  83  89  82  91  81  82  82  86  83  79  85  81  84  78  84  75  84  83  87  81  86  84  81  76  69  77  79  61  62  65  61  68  67  65  68 139  72  71  67  65  64  67  64  66  81 135  57  62  60  45  35  50  47  93 133 158  92  69  76  81  65  68  65  67  65  60  52  72  70
  52  52  50  56  63  88  72  68  44  60  71  46  54  54 128 207 203 205 209 205 154  76  85  75  80  78  77  81  77  86  79  84  79  86  85  84  83  76  81  83  90  80  87  83  89  86  88  88  87  88  84  75  70  73  75  59  64  67  64  65  70  70  65 134  77  71  69  68  69  69  61  59  68 140  62  61  63  46  41  37  81 103 118 165  96  73  67  80  70  75  72  71  62  53  48  62  52
  52  44  30  47  63  71  74  82  57  61  78  53  52  56 112 200 202 200 201 196 152  70  85  82  85  84  82  82  78  88  81  81  79  87  87  83  84  81  85  77  78  76  82  79  81  82  83  84  77  83  89  81  68  65  76  62  65  68  67  66  68  65  67 134  85  67  67  63  61  56  51  53  81 145  77  73  75  61  54  51  73  97 124 167 100  81  69  85  66  70  68  67  61  56  53  58  48
  33  20  20  44  58  66  66  98  89  66  94  51  51  56 108 194 196 195 197 194 161  69  85  82  79  79  80  84  71  81  82  86  79  79  78  81  89  78  77  77  85  78  74  70  75  80  73  79  81  88  78  76  64  69 109 124 126 128 129 128 129 133 135 157 136 119 124 126 126 127 132 130 130 168 133 132 128 122 119 114 123 124 132 168 105  76  73  83  69  70  65  66  64  55  47  52  58
  30  21  22  39  55  58  69  98  93  68 111  51  50  60 103 191 197 194 192 197 176  76  73  70  78  87  75  74  72  89  87  84  88  89  86  78  78  75  83  77  78  79  83  82  77  83  81  81  70  72  84  81  68  65  92  81  80  80  80  80  87  84  86 129 103  57  79  98 116 110  94  80  69 148  73  64  65  58  43  42  64  90 122 169 108  76  70  81  69  70  66  66  67  57  54  56  65
  37  36  29  42  55  57  72 102  85  72 118  59  56  59  92 192 196 197 196 198 189  87  89  91  83  78  77  87  86  89  83  85  86  82  82  81  96  82  80  81  91  84  79  83  82  86  81  81  77  91  81  76  75  70  82  62  62  63  63  64  65  69  65 117 103  59  83  74  56  61  72  92  94 148  76  64  69  63  44  42  62  92 123 166 115  75  68  81  70  63  65  70  67  56  53  54  65
  38  39  35  44  54  58  72  97  85  67 110  57  56  60  83 192 193 192 195 194 183  90  81  84  78  78  81  88  82  92  90  86  86  85  83  76  78  77  88  85  85  79  85  85  82  89  85  87  78  82  87  85  73  66  86  58  59  59  56  55  63  64  65 111 109  42  58  82  96 100  98  98  98 147  82  62  67  57  42  41  59  93 122 164 129  79  74  84  68  66  66  62  62  59  55  53  64
  43  39  38  43  52  59  67  80  75  61 113  63  56  62  74 185 193 192 191 203 189  88  83  82  85  85  75  85  82  89  84  78  80  85  86  79  91  81  82  79  85  85  89  85  76  82  80  83  76  84  83  80  72  68  90  54  50  50  55  60  66  69  66 102 121  44  56  84  99 101 101  96  99 145  88  62  67  55  40  38  54  92 121 164 138  76  67  79  74  75  70  68  68  64  57  52  64
  48  41  40  44  54  60  64  72  70  62 117  70  51  61  75 185 191 195 201 204 189 103  82  86  79  80  80  78  68  76  84  89  87  82  84  80  85  81  85  81  89  91  80  83  84  90  83  81  78  89  81  78  73  66  81  58  84 104 110 103  73  65  67  94 126  42  51  76  95  97  99  98  99 138  93  63  69  60  43  37  50  93 121 161 142  76  69  77  74  69  68  67  68  65  59  53  64
  48  41  40  43  53  55  59  69  67  55  96  69  54  61  63 165 193 195 199 198 195 120  77  82  79  84  76  76  81  90  90  80  83  86  87  82  82  80  86  80  78  75  79  86  78  76  77  84  82  80  85  84  75  67  91 104  86  72  70  77  73  67  72  89 133  47  55  74  99  98  99  98  97 135 100  63  67  61  45  36  46  90 119 158 148  82  74  78  80  63  66  66  66  64  60  54  65
  50  40  39  43  53  55  63  67  58  47  77  67  55  60  65 155 191 197 194 194 202 122  75  80  75  78  74  83  85  82  81  78  84  82  82  80  90  79  77  79  79  83  71  75  79  84  75  71  73  88  85  81  73  67  87  79  78  88  99 103  87  68  74  85 139  50  55  70  98  97  98  97  97 130 108  63  64  61  45  37  44  86 115 158 156  86  76  78  81  69  73  68  66  63  59  55  63
  51  39  39  44  53  56  73  65  67  53  73  67  57  64  68 149 196 196 196 192 194 123  74  83  79  85  80  74  78  83  86  78  75  75  83  78  75  77  83  80  69  68  75  86  81  78  79  86  83  79  87  86  79  71  89 106 103 104 104 100  95  73  71  78 141  52  56  66  96  96  97  96  98 123 115  62  63  65  48  40  46  84 113 153 156  80  71  75  82  74  78  72  68  61  58  54  62
  51  39  40  45  52  64  95  75  72  49  69  69  61  61  60 138 194 194 198 196 199 134  72  81  76  80  76  79  87  79  79  79  82  83  85  81  88  82  72  82  90  94  80  81  82  91  89  84  81  89  84  81  79  68  81 100 104 103 102 100  96  71  71  79 140  48  56  62  92  95  96  95  98 118 120  61  62  68  51  42  46  82 113 150 163  85  71  75  84  72  72  66  65  60  57  55  62
  50  36  40  41  51  66 105  93  92  51  67  68  58  65  65 128 192 196 194 199 197 142  74  84  79  84  82  85  86  81  82  79  79  78  82  78  81  79  77  86  87  88  80  86  83  91  86  88  88  83  82  91  86  67  76 114 114 117 123 119 119 107 102 114 155 102 105 110 128 127 128 132 133 144 156 119 126 127 126 128 130 143 148 157 160  92  70  70  83  71  71  64  60  59  56  55  60
  51  38  41  40  51  60 102 118 106  51  59  74  52  57  57 116 191 199 195 205 201 160  72  80  75  81  80  77  82  81  84  74  77  76  75  77  80  83  77  79  82  83  82  89  80  82  82  85  82  81  85  88  86  74  84 151 162 171 166 176 175 176 178 184 183 186 187 187 187 186 188 188 188 188 191 187 188 187 187 190 184 183 178 164 156 101  74  70  84  73  74  70  69  63  49  48  62
  51  38  39  41  53  61  97 144 131  61  59  71  56  58  59 109 192 200 202 199 201 170  77  84  82  78  77  84  84  78  82  80  85  81  78  76  84  84  78  77  76  83  75  80  80  86  80  78  80  85  85  84  80  66  72 145 149 161 162 167 170 170 172 170 176 173 170 176 174 173 176 175 177 178 170 171 170 167 168 170 169 163 159 146 140  97  79  74  82  70  73  72  63  61  57  56  63
  51  39  38  39  47  57  78 119 134  66  59  80  59  52  58 103 192 195 204 199 205 182  82  81  78  80  86  84  85  77  83  79  80  77  78  76  78  77  76  80  73  73  74  82  82  82  78  83  88  81  81  82  80  67  71 143 162 165 168 167 169 168 166 164 172 168 163 157 161 162 160 160 155 150 171 149 149 140 136 134 134 134 146 137 153  98  76  71  83  71  73  72  65  62  54  51  58
  53  41  39  41  46  55  61  83 133  68  51  94  50  53  61  99 189 195 203 201 203 180  80  86  87  80  81  84  90  80  79  75  84  80  74  78  81  83  76  72  70  79  73  75  74  79  79  74  74  82  86  79  77  69  69 110  95 114 114 109 112 106  86  75 123 116  72  95  96  98  94  97  90  80 140  73  63  63  51  47  54  80 119 119 167 106  80  71  82  69  70  69  65  66  60  54  56
  50  46  41  43  50  52  57  63 114  65  56 100  49  58  60  95 191 198 199 198 206 185  88  87  81  75  78  76  82  82  87  85  79  77  78  79  77  79  80  80  71  70  73  78  77  71  75  81  88  81  84  88  88  73  65 101  68 102  97 100 103  99  76  65 110 109  63  89  92  90  91  92  89  70 134  68  67  62  45  43  45  83 115 128 163 109  76  68  82  78  72  67  63  58  54  52  53
  52  48  43  48  48  53  64  76  89  67  52  91  75  93 113 151 190 201 197 197 206 200  86  77  79  83  85  80  84  82  84  81  73  75  80  78  79  81  80  79  72  76  82  78  79  75  77  83  89  80  87  80  77  73  69  98  67 102 100  99 102  98  77  66 104 113  62  93  90  92  91  91  94  73 128  80  66  60  44  43  42  79 120 159 167 122  78  75  84  75  68  66  64  59  54  51  51
  52  49  45  46  47  53  67 117 143 143 147 166 190 209 215 223 200 201 197 199 207 197  82  79  83  76  77  82  85  84  81  77  70  74  76  74  81  84  79  76  71  77  80  78  81  81  83  80  84  79  83  86  83  71  64  98  69 103 102  99 101  97  77  68  98 123  63  97  92  90  93  93  96  76 124  88  61  59  48  40  40  81 114 136 162 123  76  72  87  76  68  67  65  62  58  54  53
  52  50  46  43  46  52  66 145 188 141 129 120 116 113 108 155 189 198 201 205 204 200  90  72  74  84  93  79  79  82  85  78  68  73  70  75  76  80  74  73  72  76  66  81  86  72  79  78  86  81  79  88  93  80  69 102  73 106 105  98 100  95  76  70  90 131  58  95  95  91  93  91  96  76 117  94  63  58  44  39  42  76  98 131 165 133  72  69  79  69  63  62  67  66  61  54  49
  49  48  44  46  45  56  65 146 170  66  47  69  52  51  49 113 174 197 204 202 196 201 105  80  83  78  76  76  84  85  78  71  66  72  67  72  77  80  73  61  62  70  72  66  68  75  82  75  77  75  88  85  72  68  62 106  73 103 109  98  97  95  77  72  80 138  54  94  92  94  91  88  94  78 107 101  66  61  44  40  37  72 105 121 153 140  81  76  80  79  73  73  66  61  58  54  50
  44  52  48  52  49  78  70 128 173  60  49  71  51  47  46  89 145 188 200 205 204 205 122  82  86  84  87  82  83  82  78  78  68  66  67  79  82  73  74  68  63  64  65  73  74  71  68  65  79  74  74  80  78  68  57 100  70  99 110 102  96  91  70  70  79 139  55  95  91  94  93  91  95  82 101 114  66  60  43  43  39  74 104 121 152 143  82  67  74  78  67  67  64  62  59  53  49
  41  51  39  48  48  89  64  98 170  56  48  69  50  45  46  76 134 180 203 208 199 201 126  78  87  82  84  84  79  84  66  53  51  56  62  72  70  74  78  72  69  63  65  72  75  71  68  61  69  73  77  71  74  63  56  95  77 100 104 105  96  91  66  71  78 143  56  92  93  94  94  91  95  83  92 121  60  67  47  43  39  71 102 127 147 153  81  73  77  80  69  68  66  64  59  54  49
  46  62  43  43  43  89  62  79 174  60  46  66  53  41  43  72 138 184 201 199 197 202 129  75  79  80  82  77  74  53  33  23  18  23  31  47  68  76  71  67  67  72  66  70  70  69  74  74  82  75  75  74  81  68  58  94  94 100 104 107  94  94  72  69  72 145  66  94  91  90  89  87  91  81  88 129  58  61  44  39  42  65  91 134 141 158  78  75  81  81  68  68  63  61  59  55  51
  45  56  38  43  42  75  62  78 183  69  45  60  55  41  46  66 146 186 193 197 203 204 146  89  71  69  73  66  31  25  37  38  31  29  22  22  41  63  63  60  63  67  63  64  65  67  68  64  74  67  73  83  79  70  61  86 116 111 119 122 116 120 111 108 113 153 115 124 122 126 125 124 127 125 131 163 120 125 119 115 115 120 132 143 144 163  85  77  83  82  69  70  67  64  61  55  51
  42  59  39  44  42  63  58  70 190  74  44  54  57  38  48  58 149 189 200 200 197 204 152 106  83  79  70  63  46  75 104  85  35  20  16  17  29  64  67  63  60  66  66  58  65  69  73  64  68  63  72  87  84  75  57  83 131 123 126 133 128 122 110 107 105 149 123 116 115 111 109 109 108 110 107 153  83  86  75  65  64  85  89 139 135 161  91  74  73  86  63  65  64  64  60  55  54
  45  56  39  45  40  56  57  67 179  77  45  54  59  39  42  57 149 185 197 201 199 202 165 154  83  80  85  93 123 118 111  92  42  25  18  23  27  50  63  61  62  62  62  56  57  63  66  64  67  65  71  77  80  74  48  73 118  92  85  92  93  76  63  67  68 123  94  94  94  90  88  89  86  90  88 144  60  61  50  43  43  69  79 141 127 167  89  75  69  79  58  59  55  57  59  56  53
  41  52  43  49  43  52  57  57 165  81  36  48  61  45  46  55 142 187 194 202 199 197 168 123  70  80  75  85 132 119  99  91  82  51  43  71  61  45  61  57  62  71  70  64  58  65  68  66  56  53  66  70  69  68  47  68 117  85  85  86  93  73  63  69  69 120  88  85  87  90  88  90  88  91  89 148  63  62  50  44  45  67  84 141 131 166  96  74  69  74  67  69  69  69  66  58  53
  38  50  43  45  45  48  56  52 153  97  53  63  82  76  94 125 170 195 198 204 202 200 164  94  76  79  79  80  85  80  59  67  97  73  65  86  75  43  55  57  58  62  61  61  64  61  61  58  53  54  60  65  67  71  55  58 108  83  85  83  88  75  65  68  72 109  96  78  92  86  85  87  85  90  87 146  66  62  50  43  44  65  83 147 137 167 106  71  70  67  69  64  67  66  62  56  54
  38  48  45  46  46  43  53  54 146 148 132 122 120 110 116 123 163 198 193 200 204 201 158  88  63  75  78  92  70 102  93  97  92  73  68  87  70  48  57  57  61  65  60  59  67  63  72  60  58  52  53  55  63  75  57  56 104  85  83  82  82  73  63  68  70  93 101  64  92  87  86  88  87  92  88 147  72  66  53  40  43  63  80 132 113 166 109  68  63  60  67  59  63  64  63  58  54
  36  52  45  45  42  43  52  50 138 110  49  41  57  40  40  44 133 191 202 198 205 203 177  97  70  74  69  68  76 108  83  95  91  81  77  80  78  66  52  58  60  63  71  62  68  85 123 110 106  57  53  56  64  70  68  48 113  81  87  93 102  89  62  67  67  79 115  54  92  88  85  84  85  87  87 137  89  64  56  40  47  57  82 132 108 164 117  72  60  58  64  62  62  59  60  53  50
  36  52  45  45  46  46  52  49 130 118  46  41  62  41  43  45 120 183 203 200 215 199 183 121  80  71  74  80  64  72  66  75  79  74  69  80  80  76  60  59  62  65  55  57  52  49  64  81 124  95  57  57  69  69  69  55 108 103 105  93  66  69  67  71  64  64 123  52  91  88  86  86  86  87  82 130  95  65  62  44  46  58  71 132 108 160 125  72  57  59  70  67  64  59  65  60  45
  41  53  41  38  42  43  50  51 120 126  44  36  61  41  38  39 103 182 199 201 207 214 178 121  80  75  70  81  71  75  74  74  74  58  52  74  79  80  96  96  66  61  63  57  54  53  57  59  56  63  71  62  56  68  60  50  98  80  57  49  61  85  67  64  67  55 128  49  91  86  86  86  85  85  75 118 103  67  65  47  47  64  71 127 110 154 131  74  57  56  71  74  71  61  61  56  49
  40  53  43  39  45  44  52  58 109 132  44  36  58  40  38  43  96 187 197 198 196 197 165 136  82  67  64  71  81  68  76  73  54  40  48  70  71  98 135 154 140 107  60  53  54  55  60  48  49  47  47  47  71  63  56  58  92  59  74  60  64  87  57  64  66  50 129  51  88  86  88  89  88  87  73 110 108  62  61  46  45  62  74 118 114 147 133  77  63  59  69  62  56  66  60  49  86
  37  50  48  42  46  42  50  59 102 137  48  40  60  48  43  43  83 182 204 207 208 181 161 141  68  73  78  75  73  53  62  56  56  59  54  67 104 145 143 127 126 139 119  69  54  52  56  59  54  55  42  50  55  64  67  60  93  63  75  52  76  84  64  61  67  61 134  75  98  95  98 102 106 109 102 127 133  99 102  92  87  98 106 129 130 147 141  78  60  54  69  71  70  61  98 155 189
  39  47  48  39  43  43  52  63  93 143  49  43  60  49  35  39  74 180 196 195 201 181 162 122  75  71  69  75  69  61  60  83 130 130  69  85 137 149 135 126 111 112 123  99  56  52  61  58  55  53  45  45  51  57  61  58  96 108 116 114 137 128 125 125 123 118 161 122 130 130 127 125 124 121 116 125 145 103  93  81  78  79  82 103 118 138 150  81  61  57  68  70  94 144 175 177 176
  38  45  48  39  43  43  53  63  85 149  49  44  53  44  35  42  65 172 199 198 198 185 178 122  83  67  68  71  68  65  71 140 145 128 113 131 146 147 139 126 110 102 108 119  79  52  59  52  58  56  48  50  47  45  44  56  84  95  63  72  70  61  65  62  53  40 136  57  74  81  77  79  77  75  74  77 128  50  47  35  35  31  52  82 114 133 152  84  68  61  93 131 158 157 152 151 125
  39  40  44  38  44  43  52  59  70 150  52  43  55  56  41  40  63 171 188 181 196 197 167 145 102  58  64  65  83  57 103 136 141 149 136 132 137 154 140 119 105 105  98 110 102  46  64  61  53  58  46  52  49  51  48  53  79  88  30  59  44  40  40  45  28  27 125  49  43  80  71  74  71  69  69  69 131  34  44  36  33  32  63  80 139 133 157  82  87 119 141 139 139 129 120  80  60
  39  38  45  39  44  43  49  54  70 154  60  44  59  61  55  65  81 166 174 176 199 188 165 139  68  68  59  63  64  57  89 136 147 150 147 116 139 158 134 122 104 101 100 100 113  63  61  55  55  55  52  64  58  56  52  54  71  91  36  63  39  37  43  51  38  25 119  58  41  85  71  79  82  89  91  77 137  37  45  42  28  29  55  69 139 126 154 120 123 125 124 117  97  66  61  59  56
  37  38  50  42  48  42  45  56  68 162 124 116 124 124 117 116 113 169 171 171 196 185 162 118  84  69  64  62  59  59  92 136 154 145 145 108 140 161 132 135 108 105  94  96 110  84  62  61  55  57  49  56  60  58  57  60  54  71  38  54  40  35  43  51  31  35 105  67  40 102  98 100  83  75  80  64 132  36  42  44  28  31  44  75 124 114 115 118 117 111  90  74  65  65  61  59  56
  38  39  50  41  47  42  46  56  61 152  87  49  53  58  32  33  51 152 178 156 170 179 159 130  75  63  56  54  61  57 108 139 152 142 139 101 134 158 132 137 108 107  90  80  88  97  58  59  58  67  59  59  62  58  60  54  41  59  60  33  39  37  42  44  34  31 104  65  38  79  43  30  27  27  85  79 132  40  41  46  28  32  59 103 111 117 120 107  85  67  61  63  65  67  64  64  57
  40  38  49  37  43  42  46  52  52 151  80  37  44  57  39  40  47 134 166 167 180 179 145 103  82  60  51  66  66  66 138 136 144 139 137 104 136 158 133 132 106 102  78  69  77 105  62  55  51  60  58  54  50  49  58  51  52  91  71  31  36  38  44  46  43  53 113  93  66  70  80  48  22  29  86  76 125  39  43  52  68  98 108 117 117 103  79  67  66  62  60  60  65  70  65  60  51
  40  36  50  40  42  42  46  51  51 140  91  32  38  53  33  35  42 122 154 170 164 160 139 125  96  53  61  63  56  86 149 128 142 134 130 104 141 154 126 124 105 102  68  68  78  99  72  55  52  60  63  52  47  48  57  57  53  85  57  35  42  81 118 114 114 123 133 136 123  88  82  55  26  29  80  70 119  59  65 104 113 112 111  92  78  68  60  61  66  68  63  64  64  64  56  54  53
  39  33  50  44  44  41  46  50  48 132 106  32  40  52  37  39  37 113 140 166 146 156 151 145  99  65  74  56  71 130 143 116 138 125 125 109 145 150 119 124 108 100  65  68  80  98  90  53  48  56  52  44  51  56  57  55  45  66  56  48  43  86 136 128 131 129 139 142 127  98  73  58  26  28  69  75 106 110 113 117 103  89  67  61  63  64  57  62  61  60  62  61  62  61  49  47  55
  41  42  52  45  44  46  46  51  49 120 113  41  44  64  43  45  42 101 136 135 140 143 168 144 134 104 100  89  99 148 134  88 138 111 124 119 146 142 118 126 109  94  62  72  81  96  76  58  72  68  59  57  45  59  62  62  46  67  49  37  38  85 127 131 124 128 133 139 123  95  44  46  34  35  77 114 116 110 101  80  59  55  58  53  60  62  63  64  60  62  64  63  59  51  49  61  74
  39  38  47  44  43  43  45  52  49 114 122  45  48  63  43  46  44 102 150 139 137 122 155 132 116  80  81  66  97 141 128  78 134 116 117 136 160 150 120 119 106  86  61  71  78  95  78  59  52  79  97  44  55  48  70 105  45  66  47  57  82 106 131 143 144 144 151 152 152 139 121 117  99 102 114 112  97  77  62  59  58  58  58  60  60  61  61  60  61  60  56  52  48  52  60  70  86
  43  38  45  44  46  48  45  45  49 103 131  47  47  60  46  48  46  79 131 125  93  99 137 113  68  65  70  88 120 137 119  67 133 133 121 140 137 126 109 112 108  78  62  70  75  86  93  56 112  72  93 110  69  66  67  77  30  39  51  92 126 130 136 143 126 123 124 106 105 139 145 133 116 112  99  79  55  50  56  58  64  65  58  60  56  60  64  60  53  50  51  58  64  67  69  67  84
  47  36  45  47  44  40  40  47  51  94 142  48  46  63  51  45  55  82 115 111  77  97  76  58 105 103  97  93 145 126 104  74 119 136 134 144 137 124 116 105 101  73  64  70  73  84  95  87 128  87  76  78  78  96 109 108  98  64  69  37  45  46  81 104  51  50  52  65  86 103 120 112  97  78  56  44  52  54  56  59  58  57  59  55  60  62  56  50  53  60  63  71  77  73  73  72  89
  42  33  45  44  43  47  47  49  55  89 148  51  48  63  56  57  73  93  76  57  82  73  76  67  58  63  79  97 141 112  93  68  97 117 138 140 126 115 117  96  89  71  70  72  72  80  97  98  52  82  61  93 104  69  72 100  94  56  59  41  66  54  94 116  45  71  89 101 111 106  93  74  59  43  44  51  56  61  66  59  60  63  57  53  51  52  54  62  70  68  67  80  83  74  77  78  95
  41  36  45  45  39  42  42  44  49  81 158 113 125 140 138 123 107  60  89  65  64  84  82  71  84  63  81 126 113  95  81  60  78 122 149 118 107  99 107  92  84  67  74  79  80  86  89  53  43  64  66 106  63  38  42  63  73  45  45  40  55  43  42  48  71 105 116 109  98  75  54  46  50  54  55  59  65  63  65  65  61  57  51  50  56  63  62  70  74  68  76  84  82  74  76 104 162
  40  38  43  48  44  46  45  47  50  98 163 152 147 138 148 109 106  88  95  65  65  69  49  41  69  69 120 125  76  55  53  50  85 149 135 111 103  84  79  89  89  71  69  80  81  78  89  52  40  85  89 130  50  30  24  34  36  36  40  49  42  40  74 104 110 109  98  76  50  45  43  49  58  61  62  62  67  70  69  66  54  46  54  66  83  77  63  71  72  67  71  81  72  84 141 192 203
  40  38  45  50  47  50  49  52  47  51  55  51  36  74 122 117  99  90  99  58  60  62  55  66  75 125 130  97  97  86  65  63 126 143 113  96  85  80  83  77  63  61  69  68  78  85  86  58  64  63  45  51  34  33  34  31  35  36  53  60  99 117 105 101  86  68  47  44  56  56  58  60  60  61  63  62  71  66  53  44  40  47  57  77  81  79  70  73  70  72  74  85 135 188 207 200 203
  43  39  41  46  45  49  50  53  49  53  53  61  57  99 141 102  79 111  90  49  54  47  40  52  90 140 115  89  72  67  55  99 135 118 100  84  78  68  75  68  70  69  74  79  80  79  91  79  79  37  37  37  40  35  36  43  30  42  77  95  98  92  83  67  49  44  51  50  55  54  57  59  60  62  64  63  52  44  40  39  45  55  60  78  75  80  76  73  71  80 119 171 206 207 195 197 203
  54  42  35  47  43  41  45  57  46  52  53  55  56 105 152  82  75  94  58  42  48  50  35  56 141 117  96  85  64  54  74 139 126 102  83  80  72  67  86  76  71  88  94  84  90  90  77  69  75  63  70  25  35  32  32  38  62  83  93  91  81  64  51  43  46  53  60  56  57  58  57  58  61  61  54  44  38  43  46  47  52  63  75  83  80  85  82  77  95 150 203 207 200 197 200 206 205
  60  57  39  45  45  50  51  49  51  49  52  58  62  85 149  64  70  76  52  48  61  60  67 134 120  95  81  61  48  79 139 129  99  88  74  69  67  96 111  81  69  52  48  56  70  81  56  28  20  38  31  21  32  47  67  81  84  79  71  55  47  41  43  50  55  54  56  57  54  55  57  57  49  40  39  39  45  50  52  54  61  71  78  83  89  94  98 149 196 208 205 207 203 204 206 203 195
  56  67  56  52  49  56  55  47  47  49  55  46  31  34 108  82 105  77  64  52  50  67 117 114  91  77  58  45  56 116 127 110  74  75  63  50  49  39  54  74  84  84  69  62  57  81  62  33  27  27  32  42  52  73  79  74  67  57  49  41  43  46  50  55  57  55  57  59  58  52  44  40  41  43  48  51  53  53  63  68  70  76  82  79  91 132 192 203 205 204 210 217 209 203 199 188 171
  48  45  38  42  37  34  31  33  46  48  52  46  38  50  90  91  83  61  45  52  61 112 107  82  76  56  40  44  91 103  83  79  57  58  48  36  27  25  20  22  36  50  67  75  67  68  68  28  36  34  48  62  74  69  64  58  47  39  45  50  54  56  58  57  59  58  57  54  48  41  38  41  48  51  53  55  56  59  64  69  66  65  73 117 171 199 200 203 202 202 205 201 201 194 184 156 112
  45  41  28  21  22  25  27  42  46  47  49  51  58  57 101  80  63  87  99  54 104 109  96  86  95  72  70  97 113  89  59  53  44  39  30  28  21  17  16  17  16  19  35  48  59  56  41  36  41  55  66  67  59  54  43  36  38  47  58  54  57  59  60  59  56  49  43  40  38  45  44  48  51  51  54  61  62  65  70  67  61  94 157 197 198 200 205 204 212 206 200 195 183 158 120  82  52
  46  67  36  37  40  45  47  53  52  46  51  51  54  72  83  81  67  64  69  94  75  47  51  59  80 110 123 114  98  64  39  31  23  21  24  23  22  19  17  17  17  17  20  57 107  92  66  52  51  60  58  51  44  45  46  49  55  56  56  56  59  62  58  53  46  42  44  52  58  68  69  70  62  69  65  62  58  63  71  92 151 192 199 203 203 199 208 203 199 196 193 166 135  88  50  41  33
  44  72  54  46  45  47  52  59  64  50  51  52  52  73  64 124  77  92 113  84  46  41  56  80 110 123 111 104  80  42  23  23  25  24  18  19  18  18  20  20  16  20  38  88 105  73  56  40  50  50  47  49  52  53  53  53  54  53  55  57  57  56  51  44  40  47  58  62  62  67  63  62  60  74  72  61  64  89 131 181 194 193 208 214 208 199 201 197 198 183 144 101  66  44  38  39  34
  40  55  53  50  49  47  50  57  66  51  53  57  58  55  61 102 119 127  95  57  56  64  74 105 116 106 105  76  43  23  23  26  24  21  20  24  20  23  18  13  13  19  33  26  34  42  50  45  42  49  52  54  55  56  56  55  56  54  53  55  49  41  40  44  42  53  66  68  67  66  62  70  69  75  72  66 109 174 197 194 208 207 203 211 201 193 190 178 154 117  76  47  39  38  38  38  38
  39  38  41  44  45  42  41  44  50  46  48  49  55  61  90 129 123 108  95 102 104 104 104 103  89  82  52  43  29  30  25  20  20  19  17  17  24  27  22  17  18  19  19  30  42  53  58  53  55  49  53  54  53  55  56  56  55  50  47  45  43  47  50  42  47  61  68  68  71  72  70  76  71  79 106 159 197 196 200 208 200 196 201 186 188 185 156 120  80  48  40  38  39  36  33  35  40
  65  70  73  77  81  87  89  93  97 100 101  98 104 110 122 163 189 193 196 184 172 168 117  83  82  46  38  34  25  22  19  18  23  29  47  68  58  52  52  47  38  40  44  50  54  54  54  48  45  51  54  54  53  53  53  53  46  42  43  47  48  51  54  47  55  69  74  71  71  76  78  80  97 151 190 197 203 208 202 197 195 196 192 183 164 137  92  64  43  36  37  34  37  37  36  36  38
 116 117 117 114 115 116 112 107 104 102  98  93  89  91  87  79  84  96  91  73  65  70  77  48  35  33  28  24  18  17  18  38  70 104  94  57  40  38  39  42  45  43  44  45  49  52  53  50  43  53  55  54  53  50  47  44  39  46  51  50  54  58  57  51  59  79  72  69  79  77  89 137 187 201 198 205 201 196 194 191 186 189 180 149 110  72  39  39  37  35  34  35  37  39  37  37  43
  59  56  55  55  56  56  52  48  45  46  46  46  46  47  47  46  43  39  41  39  34  33  38  28  24  23  22  21  21  17  21  65 105  61  35  35  38  41  44  47  47  43  42  42  48  53  50  46  46  49  54  50  44  41  40  45  48  50  54  57  58  59  58  55  60  60  64  70  64 113 194 207 199 200 207 206 193 185 185 184 183 164 123  77  48  38  33  32  32  33  34  37  38  37  35  34  36
  41  42  42  45  46  47  46  44  41  41  41  42  45  47  42  44  42  37  38  35  31  30  29  27  23  21  19  19  22  19  23  33  37  34  39  38  40  41  42  43  43  43  43  43  47  51  49  49  49  44  42  40  41  49  54  60  62  60  65  68  61  59  58  59  60  64  67 102 164 200 193 193 212 207 199 189 180 179 175 160 129  89  54  40  34  33  33  34  35  35  35  35  35  35  36  39  39
  41  43  44  45  45  45  44  44  44  43  42  43  43  40  42  44  40  37  38  35  31  29  28  25  22  23  22  21  23  24  25  31  33  37  37  41  40  39  40  43  44  44  46  46  47  49  49  47  45  44  42  47  57  62  65  69  73  72  69  67  63  61  65  72  79  92 151 192 200 194 200 203 203 194 186 183 171 160 134  95  61  43  38  34  34  34  34  34  35  36  35  33  35  35  38  43  42
  38  41  45  46  47  47  45  43  45  44  43  45  47  46  43  42  42  39  39  38  33  30  26  21  19  24  23  19  20  27  28  34  33  38  39  41  39  38  38  41  43  42  42  42  44  42  42  40  38  46  60  62  64  66  65  66  75  78  70  68  61  65  71  82 133 188 204 196 192 196 202 201 193 179 170 161 146 106  68  44  36  35  36  32  32  32  33  32  30  32  35  34  32  32  36  40  40
  42  45  45  46  47  49  47  45  48  46  45  46  46  44  43  44  41  37  37  34  28  26  28  23  21  24  23  18  19  28  30  31  33  32  31  31  32  34  34  32  31  31  30  33  39  43  47  49  52  51  64  66  67  70  72  71  70  79  82  65  65  77 113 186 209 196 187 182 189 196 206 195 179 159 148 117  72  48  43  38  36  35  32  34  35  34  31  32  34  32  35  34  36  34  35  41  47
  42  44  43  39  39  40  39  36  38  35  33  34  35  32  31  31  29  26  24  20  17  19  27  23  21  22  22  19  18  27  32  33  34  36  36  35  34  35  37  38  39  39  47  54  56  56  52  57  66  58  68  74  72  71  74  77  82  83  81  68  96 152 200 197 185 188 181 194 185 185 184 169 150 124  90  52  37  39  39  36  34  34  32  33  32  33  32  31  32  29  34  37  37  38  42  44  40
  28  28  30  30  31  31  30  28  31  29  28  30  32  31  27  28  28  23  21  18  17  22  25  21  20  20  18  18  20  31  37  39  43  47  51  51  45  42  42  48  52  52  62  66  56  52  46  53  64  59  66  75  80  77  77  75  80  77  83 130 185 202 190 191 188 190 192 190 181 175 154 130  94  56  42  40  38  34  35  34  33  35  33  33  33  37  39  36  34  30  33  36  41  41  39  39  37
  37  37  34  37  39  41  39  37  39  38  38  41  43  43  46  47  40  34  32  28  24  25  26  23  22  20  17  17  22  37  43  42  45  49  51  50  54  52  50  51  52  51  58  62  54  56  53  54  62  64  61  62  66  69  68  74  72 116 180 206 196 191 191 188 183 185 187 183 164 137  95  60  42  38  38  32  33  35  36  34  34  37  36  35  32  36  37  34  36  35  38  40  42  39  37  40  41
  50  52  48  46  45  44  42  41  41  47  48  48  48  58  58  53  50  42  34  29  28  28  25  24  21  19  18  16  25  38  42  43  41  43  45  45  46  48  52  53  50  52  52  55  59  57  55  56  60  67  68  58  63  62  66  92 158 202 200 196 194 190 191 189 185 183 174 142 108  69  39  37  42  37  36  33  33  34  33  34  33  34  40  36  32  32  35  36  32  37  46  40  37  38  44  45  46
  50  53  54  52  50  49  47  46  48  50  48  48  44  48  46  47  41  35  36  37  33  24  24  24  21  19  18  17  26  37  39  42  43  45  49  51  50  53  59  62  60  63  67  71  70  63  64  66  61  64  66  66  66  82 137 194 205 189 194 190 188 183 185 181 172 142 116  84  48  39  32  33  36  36  36  35  34  34  34  33  34  38  41  34  32  33  37  39  37  36  38  40  41  40  48  49  51
  52  50  51  52  52  55  57  59  56  57  54  55  51  56  60  57  55  51  51  50  41  27  25  24  21  19  17  15  28  46  51  54  56  57  59  60  54  57  65  69  68  74  74  75  77  69  59  60  58  65  66  60 117 183 206 196 189 198 185 181 181 183 184 163 132  92  52  36  37  33  33  34  36  35  31  32  31  30  32  30  32  38  39  33  33  35  38  39  40  43  39  41  43  43  50  51  53
  57  56  66  75  76  72  69  67  74  74  67  62  56  64  67  58  60  60  54  48  38  27  25  24  21  19  18  17  31  47  51  56  59  60  61  61  59  61  69  71  70  68  60  60  66  63  61  70  62  63  97 166 205 196 189 189 192 187 180 176 177 163 137 100  65  39  34  36  31  34  31  33  34  33  35  38  37  33  32  31  31  34  37  35  35  36  38  39  40  40  41  49  51  48  53  53  55
  62  56  73  88  87  81  76  72  73  74  69  65  57  63  59  51  50  51  50  44  36  27  25  24  21  19  19  19  34  48  50  53  56  59  62  62  56  58  64  68  67  66  60  60  63  66  62  64  85 141 190 197 191 186 190 190 185 180 181 177 158 117  76  47  35  34  34  29  32  29  34  35  33  33  35  40  41  36  34  35  33  32  37  36  37  37  37  36  34  41  47  48  47  45  49  49  49
  69  56  75  89  85  81  80  76  76  72  70  75  58  56  59  56  53  49  50  43  33  28  26  22  20  20  19  18  36  47  48  53  55  59  59  55  55  55  60  67  69  68  61  59  68  65  73 129 179 198 194 189 191 189 189 192 186 178 170 140  95  54  37  33  30  30  30  31  32  34  37  35  35  30  30  40  45  38  36  34  36  39  40  39  40  41  40  39  36  37  40  45  47  45  50  52  54
  62  53  72  89  87  86  86  84  78  78  80  83  65  57  60  57  54  50  49  41  29  21  23  20  22  22  18  23  37  47  49  51  50  51  51  51  55  53  53  58  61  50  57  60  65 111 190 208 203 193 190 196 193 189 187 181 164 145 104  55  36  28  30  29  27  30  32  32  30  32  32  31  35  33  33  41  39  35  37  37  39  40  40  37  40  42  43  44  45  44  45  46  47  48  50  48  56
  63  55  67  82  82  84  85  82  82  80  78  72  60  59  61  57  54  47  41  34  29  27  25  23  23  22  20  26  41  48  47  44  44  45  48  50  53  56  56  55  58  59  61 102 165 202 194 194 191 189 195 188 192 177 175 146 108  73  45  35  33  31  30  30  28  29  32  32  30  31  31  30  36  35  37  42  38  37  36  36  37  37  38  44  53  59  58  55  59  58  56  54  53  55  55  50  56
  58  55  58  63  64  66  66  62  60  58  58  52  47  50  54  53  50  46  42  39  37  32  28  34  32  23  21  26  38  44  47  45  45  48  50  52  54  60  59  56  59  80 148 188 194 193 193 189 187 191 187 182 172 153 125  87  46  33  30  31  30  28  25  29  29  30  31  32  31  33  33  32  37  35  36  39  40  38  36  35  36  42  47  54  60  64  61  59  62  63  63  60  59  57  59  53  50
  52  56  59  63  66  71  72  70  71  60  67  67  66  61  62  59  55  54  49  60  47  33  35  52  60  51  38  32  39  43  47  46  53  60  65  67  66  66  62  81 129 190 200 196 194 187 196 184 179 172 164 158 130  98  54  35  33  30  27  28  29  32  31  31  32  31  30  31  32  33  35  36  37  35  35  37  39  36  34  37  46  55  58  61  61  64  66  65  64  60  57  54  57  55  58  58  49
  68  68  72  75  78  83  83  81  77  59  66  63  63  63  62  59  57  55  50  52  52  41  61 103 100 101  53  35  41  43  47  51  50  55  67  70  70  78 116 176 196 198 190 178 184 188 178 171 164 151 136  98  59  39  32  32  30  28  28  30  31  30  31  30  29  28  27  28  29  34  34  35  37  39  38  35  34  34  41  47  55  62  65  65  65  68  69  68  67  64  63  58  56  52  56  62  54
  79  75  78  80  81  83  81  78  78  63  69  61  59  56  53  51  52  51  54  46  49  40 124 136 111 108  52  35  38  38  41  41  49  65  70  72 111 157 188 192 193 190 185 188 195 188 175 161 148 109  66  42  36  33  29  28  30  31  29  30  30  29  30  29  30  30  29  29  31  35  34  35  37  37  36  35  39  47  49  52  54  59  67  65  65  69  70  69  69  68  69  66  63  59  60  61  55
  82  81  78  81  83  83  84  83  84  68  69  56  53  53  51  49  50  52  50  48  47  65 159 136 129 101  48  38  43  43  42  45  52  64  87 150 181 189 200 187 186 191 186 181 183 177 182 140  86  48  36  28  31  31  28  27  31  32  30  27  27  30  33  29  32  32  31  31  33  34  36  38  36  34  35  39  46  50  49  53  58  61  66  61  62  67  69  67  66  64  67  69  69  65  61  58  53
  73  78  78  81  83  82  82  81  78  64  66  57  57  53  54  54  52  52  50  46  53  78 120 135 120 105  50  42  43  43  46  46  69 138 184 187 187 193 179 181 180 180 174 181 162 119  93  69  42  33  26  25  31  29  32  30  31  30  29  29  28  28  30  28  30  31  30  31  32  36  35  35  36  38  43  44  46  47  54  55  58  62  63  60  61  66  68  66  64  66  71  72  72  69  66  63  61
  68  71  73  78  77  76  77  80  74  61  60  62  59  58  54  50  47  42  47  47  62  76  58  97 116  71  29  37  46  45  64 114 170 187 185 187 185 178 182 181 182 180 180 150 101  65  44  38  39  33  29  32  32  30  32  31  31  31  29  30  30  28  31  30  31  34  36  37  37  35  33  39  47  49  45  47  49  51  57  57  52  62  60  58  62  65  68  69  67  71  75  75  74  74  75  74  67
  64  66  71  72  69  67  66  66  68  59  54  52  49  47  43  39  38  40  38  49  68  46  32  41  45  23  22  39  49  89 162 203 197 192 185 188 181 187 187 186 185 161 116  74  44  39  37  36  39  32  31  32  30  31  34  32  32  30  27  27  28  29  34  34  33  37  36  34  35  39  43  51  55  53  49  51  53  55  63  62  54  60  57  58  61  62  63  67  70  75  79  81  77  73  72  72  68
  55  53  55  59  56  53  53  56  58  57  60  68  72  69  61  51  44  43  52  52  47  38  41  44  25  23  25  72 147 191 204 197 194 190 192 196 188 178 182 175 133  81  44  34  36  40  39  39  39  35  31  30  31  33  33  29  29  28  27  27  30  33  34  35  36  37  33  33  41  47  52  58  60  56  52  53  54  54  58  57  55  61  61  63  64  63  63  66  68  71  76  79  81  77  74  75  75
  75  68  66  66  60  52  53  58  59  58  65  74  73  66  62  54  48  44  50  55  50  41  30  26  29  53 119 176 193 190 195 191 196 189 182 179 177 165 146  95  58  38  31  35  33  32  33  35  39  43  35  31  32  32  30  27  29  30  30  31  32  33  32  37  41  39  40  45  48  53  53  57  60  58  56  56  56  56  57  56  57  58  60  62  64  63  62  66  70  71  74  77  80  78  79  80  79
  80  75  77  77  70  62  57  57  62  63  70  68  57  52  49  45  40  32  36  40  36  42  29  35  81 169 188 187 181 186 194 192 181 179 166 162 149 108  72  33  34  30  29  32  32  33  33  32  33  38  39  31  29  31  30  31  31  31  30  30  32  32  33  42  44  43  52  55  47  53  56  59  58  57  56  56  55  55  58  59  60  59  62  65  67  66  66  69  71  70  72  74  76  79  84  85  81
  78  81  81  79  74  72  58  58  62  65  62  58  51  48  45  44  42  36  29  30  28  20  69 145 190 186 176 172 179 182 187 180 173 169 151 120  78  42  30  29  29  31  32  32  31  31  32  34  34  35  37  36  32  30  29  29  30  30  30  29  32  37  39  45  45  48  54  54  51  51  52  54  54  55  59  62  61  60  65  66  62  61  65  68  70  66  70  71  71  69  74  73  72  77  81  79  73
  72  72  71  72  73  72  58  64  72  69  63  66  62  58  56  45  33  27  27  23  45 120 184 194 186 176 171 176 184 171 176 175 150 132  94  54  39  31  30  28  30  34  33  33  34  34  34  35  34  33  37  42  39  32  31  31  30  31  33  35  37  41  50  52  54  50  49  53  52  54  54  55  59  61  62  66  66  61  60  62  62  63  68  68  70  67  71  70  70  74  74  72  74  79  82  81  77
  67  65  64  64  64  65  53  59  64  64  60  63  59  54  53  51  41  36  44 100 162 188 182 184 187 185 193 189 178 166 159 131  93  72  41  34  30  30  26  29  34  32  30  30  31  33  35  35  35  34  36  47  48  37  33  34  34  35  36  38  43  54  63  56  51  48  50  54  54  58  60  61  61  60  61  66  71  66  64  65  65  64  66  66  68  66  70  71  71  72  71  72  74  74  71  72  75
  51  48  47  48  44  50  46  49  49  49  45  45  40  40  51  48  55  93 158 184 191 176 175 186 184 195 187 176 164 142 109  64  36  36  35  30  28  35  32  33  31  35  35  35  35  34  34  35  36  36  35  40  43  38  35  35  38  37  35  34  46  61  63  54  48  52  54  55  60  62  64  65  64  62  57  60  68  65  64  68  67  65  65  63  66  64  69  71  71  70  73  73  75  74  71  71  73
  47  48  50  53  52  60  62  64  67  64  60  52  56  60  71 105 158 191 187 179 179 187 186 177 183 176 169 146 118  72  43  30  33  34  31  33  31  32  30  36  35  31  32  32  33  35  36  38  38  36  35  33  34  36  35  39  41  41  39  38  46  55  57  53  52  56  56  57  64  57  58  62  62  61  56  58  63  62  60  62  62  61  61  59  61  60  62  68  72  71  72  71  69  66  61  58  58
  61  70  74  78  79  76  73  72  74  77  60  54  60  84 143 177 186 189 186 187 185 179 174 179 180 146 120  86  48  35  33  32  33  34  36  35  35  38  41  38  34  34  34  31  35  39  35  31  31  33  36  32  33  35  35  40  41  43  44  49  53  53  54  51  47  47  51  56  58  54  57  59  52  53  53  52  53  58  54  52  52  51  49  53  56  59  54  56  56  54  48  46  48  53  60  61  59
  64  76  75  73  57  47  53  59  63  69  56  62 121 166 186 186 189 189 189 188 181 178 179 164 124  99  55  37  35  33  32  31  35  37  34  33  38  36  33  33  34  34  34  33  32  32  30  30  32  34  34  32  34  39  42  43  45  46  46  47  48  50  51  52  58  59  55  52  49  54  57  52  46  47  48  55  53  53  56  57  56  55  54  56  59  58  51  50  52  56  57  55  53  57  64  67  67
  68  75  72  66  43  37  52  55  61  69  98 164 187 186 190 196 192 194 192 182 188 165 143 116  96  38  35  35  31  30  30  33  38  39  36  36  37  35  32  32  34  35  34  34  33  31  31  30  33  37  38  41  43  43  44  45  45  44  44  47  54  56  56  57  56  58  65  68  69  61  65  63  60  55  57  62  58  59  65  63  58  58  61  61  61  58  63  65  59  55  56  58  61  66  70  75  78
 155  90  70  60  49  43  67 106  90 149 184 185 188 192 191 188 194 187 181 168 148 122 122  91  75  49  43  35  38  38  33  32  33  34  37  36  32  32  32  32  32  35  32  35  34  32  32  33  34  37  38  41  42  44  50  50  45  43  44  46  52  61  63  64  61  63  66  64  62  62  65  67  64  44  42  53  59  74  74  71  70  67  64  75  71  62  67  67  62  58  62  66  66  70  74  78  80
 154 153  97  68  57  87 110 147 180 196 191 196 194 191 192 190 190 179 155 128  98  85  97  87  93 124 131  71  37  32  32  34  31  31  33  31  34  34  33  35  36  35  34  33  35  34  35  38  39  40  43  43  48  56  63  69  64  59  61  54  62  69  67  66  65  63  65  62  61  66  66  60  47  41  48  65  64  69  73  72  72  70  63  72  74  65  68  62  66  62  62  70  67  70  74  75  73
