P2
89 70
255
  77  50  19  17  15  17  16  16  16  13  17  20  23  16  12  12  14  15  16  17  19  18  20  24  23  23  23  23  25  25  26  23  51  62  27  21  24  23  25  23  15  12  10  11  11  10  13  16  13  10  14  27  25  15  15  17  16  16  16  17  19  20  65 100 105 110  84  54  54  59  58  61  62  65  64  71  74  79  82  79  78  78  70  66  68  69  70  69  65
  79  68  40  26  18  15  19  18  14  16  18  20  21  18  17  18  21  24  26  25  27  25  21  21  24  24  24  24  27  23  27  27  49  57  31  26  24  23  26  22  15  11   9  13  16  15  13  12  12  12  13  25  25  16  17  17  16  17  17  18  19  21  79 111 106 105  78  51  52  56  62  65  67  68  68  70  67  69  69  64  68  73  68  66  70  69  72  73  73
  92  89  89  84  56  30  18  17  16  20  19  19  20  23  25  25  25  25  24  24  20  17  15  17  24  24  25  25  26  24  25  30  43  49  29  26  23  26  25  22  16  12  11  15  17  14  12  11  12  15  15  24  25  17  18  18  16  17  18  18  20  26  81 112 121 124  88  46  61  65  61  65  67  65  66  67  67  67  68  71  69  75  78  81  83  82  80  73  66
  93  94  92  93  93  76  45  25  23  20  23  21  24  23  23  24  19  17  15  19  13  11  13  19  25  25  25  25  24  27  24  27  48  71  35  23  22  24  25  23  16  13  13  13  12  11  12  12  12  14  17  26  25  20  19  19  16  18  18  18  20  24  83 120 125 119  77  53  60  60  61  64  66  65  67  73  76  75  77  83  88  86  83  79  75  72  72  68  62
  79  77  80  84  84  85  80  49  24  18  18  17  26  18  17  20  15  15  13  10  12  15  11  17  25  26  25  26  25  26  25  25  52  71  33  23  24  25  25  24  17  13  13  12  12  12  12  12  13  13  18  24  27  22  18  19  17  18  17  18  20  26  87 118 126 134  93  53  52  58  64  68  69  73  76  73  74  76  77  77  75  75  71  70  72  68  70  70  67
  79  75  75  79  80  76  83  69  17  15  15  15  26  20  20  19  15  18  13  10  12  14  10  17  25  27  26  27  26  27  25  25  53  68  32  25  25  25  26  24  17  14  13  12  13  13  13  14  14  15  21  28  28  23  18  16  17  18  17  18  20  26  91 119 126 139  93  53  56  66  69  70  66  64  63  63  66  71  72  71  70  73  74  77  80  77  75  70  65
  78  76  77  80  80  84  81  81  19  18  17  15  25  20  20  19  16  20  16  16  13  12  11  20  26  28  26  28  28  27  25  26  55  70  31  22  24  25  26  24  17  13  13  13  14  15  16  16  19  22  28  33  27  27  21  16  19  18  17  19  20  29  93 122 127 137  89  55  57  61  62  61  61  62  64  64  66  69  72  73  76  78  74  68  65  62  59  56  56
  81  82  86  87  83  83  86  85  16  17  18  15  27  24  23  25  19  16  15  15  13  12   9  18  26  28  27  28  29  28  24  26  56  72  37  27  25  25  25  24  17  13  13  13  15  16  18  19  23  26  27  29  25  32  27  18  20  18  18  18  20  31  95 126 131 133  92  59  53  58  66  66  67  71  74  79  78  75  74  76  75  71  61  56  56  52  54  60  68
  79  81  84  85  82  86  90  87  19  16  17  21  24  24  20  20  16  15  20  11  12  11  11  17  26  28  27  27  28  26  29  62  78  84  56  38  27  26  26  26  20  17  15  16  16  16  21  27  26  28  23  25  25  30  30  21  18  18  18  17  18  31 101 131 133 133  90  54  56  62  68  69  73  70  73  70  71  67  69  69  68  67  67  73  82  88  95 103 110
  79  87  90  91  98  96  94  87  21  17  18  21  23  26  18  13  14  18  23  14  11  10  14  20  26  29  27  28  29  28  29  48  61  64  38  26  23  25  27  27  21  16  15  17  16  15  20  20  22  28  23  25  26  23  30  21  15  17  18  19  20  35 101 130 138 136  86  49  60  63  60  61  63  68  70  67  68  66  75  83  98 101 104 111 118 118 114 111 115
  93  98 102 106 112 109 105  97  25  18  20  19  23  28  27  20  21  25  20  14  14  15  17  20  25  28  27  27  29  30  28  25  50  80  43  27  27  28  27  27  21  15  15  16  16  18  17  23  25  27  28  29  27  25  27  21  19  20  22  23  25  43 100 115 104  89  56  57  58  56  64  63  64  68  76  81  94 103 111 111 114 117 116 117 115 110 108 106 111
  96  95  97 101 103 102  99  98  32  25  25  23  26  29  22  16  19  22  16  14  16  17  14  16  25  28  26  27  27  27  26  26  46  78  47  31  27  30  27  28  22  13  16  17  20  21  16  24  25  20  25  27  25  26  24  22  27  26  27  28  28  37  67  65  68  68  44  41  55  63  61  64  69  74  88  94  93  85  93 103 104 107 107 104 103 102 106 105 106
 100 102 100 101 107 105 100 104  50  46  40  37  40  39  38  39  41  39  33  32  30  27  25  26  30  32  31  31  31  31  31  33  30  46  34  32  29  31  28  28  22  13  18  18  22  23  17  20  23  20  26  26  29  28  31  31  32  32  31  31  31  33  38  36  55  57  47  47  52  56  55  58  63  72  80  88  96  97  97  94  96 102 104 102 102 104 106 106 107
  96  96 103 104 102 104 103 103  47  37  39  39  38  41  41  45  45  41  42  39  41  43  46  47  47  46  43  41  40  44  47  53  44  44  43  42  39  39  40  36  34  30  28  29  28  27  33  33  34  31  33  34  32  32  32  30  31  33  33  33  33  32  33  33  30  27  39  50  56  65  78  88  95  97  95  99  94  99  98  98 102 102 105 105 106 108 109 112 114
  93  94 114 102 106 105 104 104  37  21  21  22  27  30  31  33  32  30  30  32  34  36  36  36  40  40  40  41  38  43  45  46  43  42  43  43  43  42  40  40  43  44  44  46  43  42  45  40  38  37  37  38  40  39  38  36  36  38  38  38  38  35  35  35  37  38  47  63  77  93 103 104 106 105 108 112 110 100 104 107 107 107 109 112 109 111 115 116 114
  94 102 109 107 110 107 107 107  33  15  16  18  24  25  20  17  16  15  14  11  11  13  18  25  34  32  31  32  30  36  36  36  34  34  36  38  39  41  42  42  45  45  44  46  45  42  43  38  35  41  41  42  43  43  41  39  39  39  40  39  39  38  37  37  38  39  37  40  42  44  48  53  58  60  65  68  52  54  97 114 114 112 111 115 114 117 118 117 116
  99 102 103 106 109 106 105 111  35  17  16  18  25  23  22  18  15  16  14  10   9  11  17  27  36  31  29  30  29  30  29  32  28  26  28  29  31  32  32  32  35  37  34  35  35  34  35  31  26  38  36  37  38  39  39  38  38  39  39  38  39  37  38  38  38  37  37  35  33  32  31  28  25  25  22  22  18  32  71 110 121 116 109 114 109 113 115 115 114
  98  91 105 103 104 107 108 114  40  19  11  14  24  23  21  17  15  16  16  19  19  21  23  28  33  30  29  30  31  31  30  34  30  27  27  29  31  32  34  31  34  34  31  34  37  35  35  33  28  40  35  37  33  34  37  36  35  34  34  33  34  41  46  49  47  48  52  51  50  48  46  35  24  32  35  32  22  38  49  62 106 113 112 114 111 112 119 121 119
  95  95 105 106 108 105 110 114  43  16  14  16  24  23  20  20  20  23  26  25  24  27  29  31  34  31  32  32  32  30  30  32  30  30  27  29  33  33  32  30  33  33  33  35  36  35  33  32  28  39  36  38  36  34  37  37  33  36  36  34  34  41  50  51  51  54  54  54  53  50  49  37  22  33  40  39  51  73  51  44  70 103 113 107 104 109 112 112 113
  96 102 106 102 110 106 110 120  61  30  28  27  30  26  26  29  30  32  33  32  30  32  32  31  35  33  30  29  30  30  32  34  30  28  29  32  36  36  33  32  34  36  36  35  34  32  33  35  31  42  42  37  38  36  37  37  33  33  35  35  37  45  51  54  54  56  56  55  53  51  49  39  24  31  38  34  62  79  42  42  43  55  63  90 104 108 112 112 114
  93  95 102 105 115 110 116 117  69  42  42  43  44  43  43  44  44  43  42  45  42  47  46  40  41  44  41  42  41  39  43  44  41  36  38  37  36  36  35  35  34  35  38  38  37  37  37  34  29  37  39  33  36  37  34  33  36  35  33  36  48  46  50  56  60  61  57  55  53  52  52  42  27  30  38  41  45  58  45  44  42  51  56  82 107 113 115 113 114
 106  98 104 112 113 114 117 119  71  29  30  33  35  36  35  38  40  41  41  45  40  44  40  32  38  43  39  40  42  43  47  49  45  42  46  45  43  44  43  43  39  39  41  41  45  45  44  43  41  41  45  44  42  43  39  38  40  38  34  34  44  43  45  51  54  54  54  52  51  53  50  39  24  27  37  37  34  40  41  41  41  43  46  68 110 112 114 114 115
 112 109 111 115 115 118 116 117  81  30  30  33  30  35  44  46  46  46  46  47  46  33  30  23  34  33  30  28  39  44  49  49  43  38  31  35  34  37  37  33  32  37  39  39  39  41  41  38  30  38  41  42  46  40  36  36  38  39  39  36  37  37  33  38  37  33  35  33  33  32  30  27  22  24  26  24  25  26  39  42  40  41  47  60 108 111 111 114 116
 115 113 113 116 119 120 118 114  84  40  34  29  36  46  40  35  34  35  37  38  40  43  33  26  37  32  34  42  48  40  34  40  47  49  47  32  32  32  31  40  49  42  44  45  47  45  36  31  22  34  33  31  32  39  34  37  42  38  36  33  47  47  43  45  36  29  27  26  28  35  38  29  18  19  26  27  22  23  41  41  41  40  45  54  98 110 108 113 114
 112 112 110 114 120 118 118 111  80  42  38  28  41  44  36  34  34  35  35  34  32  40  38  24  32  27  39  45  36  30  31  36  37  33  40  38  34  33  40  49  42  31  31  35  40  44  46  37  28  37  33  33  40  43  37  38  47  48  43  34  51  52  44  39  36  42  45  38  30  31  42  44  26  25  37  32  36  46  51  42  41  40  45  47  82 105 108 112 113
 110 109 103 101 106 105 108 105  73  35  40  37  45  38  33  35  38  38  38  35  33  31  45  32  32  32  46  38  32  32  35  38  37  26  27  44  36  32  46  44  28  32  35  34  32  34  43  40  31  37  32  37  43  35  35  37  35  36  39  36  51  50  38  36  44  58  56  50  44  35  32  39  28  26  35  31  47  73  66  44  42  40  45  43  64  94 110 112 114
 118 122 120 117 121 120 120 118  79  29  36  41  41  35  33  38  44  48  50  42  39  33  35  39  32  39  43  32  35  38  44  45  38  27  28  34  42  37  45  37  32  30  34  38  37  33  35  41  32  35  33  40  37  34  36  36  36  35  38  37  45  44  37  45  51  54  56  52  55  47  30  33  27  27  35  37  43  76  76  45  44  40  44  43  51  82 111 108 114
 110 115 115 112 111 113 114 118  88  27  38  46  39  30  36  46  41  34  31  33  40  29  32  40  28  43  38  35  38  46  41  39  44  38  30  32  44  42  42  31  33  44  54  56  47  39  37  37  38  32  37  41  37  39  39  42  47  39  36  34  38  37  36  53  52  53  49  45  47  47  40  26  25  23  38  40  44  64  66  46  40  42  45  44  53  89 111 113 113
 111 115 117 113 112 117 114 115  90  29  39  46  34  26  39  42  32  30  34  31  37  41  33  39  32  46  39  37  42  44  35  34  32  41  35  31  41  44  38  26  41  52  47  42  36  42  36  37  40  37  41  41  38  43  43  38  41  39  38  35  35  34  40  55  48  43  41  38  33  38  45  28  25  20  36  41  50  56  51  46  44  43  43  43  49  81 111 113 112
 109 109 108 107 111 111 113 116  95  31  39  45  35  30  41  40  33  34  34  30  33  42  32  38  31  43  35  33  41  40  33  37  35  40  36  29  41  47  39  37  47  45  39  39  33  38  37  35  38  38  41  38  35  39  41  35  36  34  38  37  36  35  43  50  42  42  47  47  35  31  45  32  24  18  35  42  47  50  48  45  43  45  45  42  51  97 118 125 126
 107 109 107 108 111 111 112 113  93  30  39  40  37  33  39  37  35  37  30  31  36  38  33  38  35  44  35  33  41  40  31  32  31  38  34  28  42  44  32  41  47  36  37  40  33  35  39  34  35  35  40  37  36  37  41  38  39  36  37  35  34  34  45  44  41  47  49  48  42  27  38  35  25  19  39  46  49  55  55  48  45  44  43  40  44  84 113 109 111
 103 110 111 109 108 107 108 108  96  35  39  36  36  31  39  39  37  40  35  32  41  40  35  37  33  44  36  33  39  40  33  31  35  38  32  30  38  42  36  39  46  33  38  37  33  38  41  36  37  33  42  38  35  37  41  36  34  35  36  37  38  32  45  44  40  49  44  37  46  36  39  38  26  20  38  46  52  56  51  46  46  43  45  52  78 117 124 132 128
 108 115 111 110 109 106 112 110 102  38  38  35  37  34  38  39  36  34  38  37  40  42  36  39  29  43  38  33  37  39  37  33  40  35  31  36  35  43  40  40  44  33  39  37  36  38  40  38  40  32  43  40  39  39  41  38  35  39  37  38  36  31  43  40  37  49  36  36  48  36  39  44  27  20  37  46  51  58  58  55  51  47  46  48  63 108 118 119 117
 110 111 108 108 108 110 113 110 106  39  35  36  38  33  37  40  37  35  37  39  38  40  41  43  27  37  37  34  33  36  38  37  39  34  34  40  36  42  41  36  43  34  34  38  38  37  41  41  40  28  41  41  41  38  39  39  37  39  37  36  34  28  44  43  37  52  35  49  48  30  51  46  27  22  44  57  63  67  61  53  48  46  45  47  50  73  97 108 108
 107 105 109 109 110 110 111 109 106  38  31  36  37  33  35  38  39  37  37  39  37  37  44  41  27  34  35  37  32  38  43  40  34  32  36  41  34  41  42  35  42  39  33  40  45  41  40  42  40  27  39  40  41  39  40  40  37  40  38  37  35  30  47  50  38  52  41  34  33  35  58  46  27  20  40  47  49  52  51  49  41  41  42  45  46  57  92 105 105
 108 105 112 111 109 110 112 111 108  38  29  34  34  34  32  36  40  39  39  38  36  37  44  37  29  35  32  41  37  37  39  41  40  33  35  38  31  39  41  38  42  44  40  41  42  42  38  42  41  27  37  37  41  41  42  40  37  40  39  39  38  34  46  51  35  46  53  42  43  48  48  38  25  19  34  44  48  52  50  47  46  44  43  42  44  47  81  99 112
 109 109 111 111 110 112 112 113 111  41  30  33  35  34  33  35  41  41  37  38  39  41  42  34  30  35  29  37  40  35  34  38  44  32  33  36  31  35  40  37  39  44  45  42  38  37  38  44  37  33  40  36  43  43  46  43  42  46  40  41  41  32  45  50  36  40  49  51  49  47  41  30  23  22  31  39  48  56  55  51  46  44  43  43  42  44  61  82 107
 110 110 111 111 111 112 109 111 111  41  26  29  33  32  36  36  40  41  38  41  41  43  41  35  31  35  32  33  43  38  37  40  38  34  34  38  35  38  34  36  39  42  47  42  41  43  48  59  54  29  56  60  42  60  80  81  81  66  67  62  45  34  40  49  42  34  39  44  45  41  32  28  31  24  33  44  49  51  50  50  46  43  43  44  41  43  46  67  96
 107 110 114 114 112 110 109 110 111  44  30  34  39  39  37  35  36  38  38  41  39  39  38  34  31  36  38  32  41  44  43  43  39  36  33  34  32  35  36  37  36  37  45  44  44  60  85 106  84  32  71 108  69  42  77 107 115 117 116 104  47  30  33  44  48  43  38  34  35  33  30  36  35  23  33  41  46  49  47  46  46  43  43  43  42  46  43  67  97
 112 114 114 111 108 111 111 111 114  48  28  32  36  35  39  41  41  42  45  44  40  39  40  37  32  36  40  35  37  40  41  41  40  35  35  39  37  39  38  43  45  49  44  43  47  68 111 133 101  36  70 132 116  75  51  49  63  68  71  75  44  32  32  35  39  42  33  27  28  33  40  44  33  24  29  33  42  50  48  47  46  43  43  43  42  41  40  71  98
 111 112 112 112 112 110 112 111 115  49  26  29  32  30  34  38  39  38  41  41  36  36  40  38  32  38  38  38  45  36  38  47  39  35  35  36  29  32  33  54  76  80 104 108  87  59  64 111 111  36  68 131 127 102  61  39  39  71  81  85  54  34  35  39  41  37  34  34  30  30  35  42  34  26  30  34  41  47  47  49  46  43  43  43  45  44  47  80 100
 111 116 119 117 116 114 117 114 115  51  30  29  33  36  35  40  39  40  37  40  41  31  36  37  29  36  36  41  45  38  36  40  36  39  34  42  30  30  47  94 106 104 127 126 131 113  56  64 108  37  66 125  76  51  81  86  56  55 109 133  65  33  34  35  43  43  44  48  43  32  25  36  34  26  31  42  44  50  51  46  43  41  40  46  46  43  44  65  90
 102 107 109 107 107 108 105 101 111  56  33  30  34  37  36  39  37  41  41  41  42  38  34  36  29  30  36  40  39  34  37  39  38  31  40  57  65  37  79 127 113 112 119 126 128 131  99  46  61  41  55  82  49 100 130 128 119  54  59 126 117  45  51  53  45  45  44  47  49  41  28  31  31  29  29  43  44  51  53  47  45  42  39  43  45  45  46  63  86
 107 109 108 105 104 105 104 102 111  61  34  30  33  36  34  41  45  50  49  42  43  43  31  33  31  27  39  41  41  36  38  46  64  43  39  91 105  42  84 121  83  60  60  68 102 122 125  68  37  34  37  39  78 132 136 136 134  96  43  97 138  61  64  81  42  45  41  41  47  44  33  29  24  27  30  43  43  51  55  48  47  43  41  42  47  49  45  59  85
 111 113 114 115 117 119 118 116 119  69  37  30  32  35  34  42  44  43  37  35  39  44  38  31  34  29  41  40  39  36  41  48  76  76  38 102 124  43  79  73  50  82 103  80  49  80 128 105  41  33  40  49 110 140 112  93 108 127  53  65 142  61  73  93  36  34  34  30  33  37  38  32  23  22  30  48  47  57  63  54  48  45  47  48  55  53  47  60  83
 111 114 115 115 116 116 118 118 119  71  39  32  31  36  36  40  40  41  39  28  32  42  45  33  32  30  40  36  36  41  46  45  46  93  44  84 126  43  44  43  97 110 128 119  80  41 100 124  53  36  38  60 130 117  63  75  53 106  79  45 142  70  55  53  38  43  45  39  30  29  36  35  26  22  29  49  47  58  64  56  45  45  47  50  61  62  65  78  98
 114 113 115 114 113 118 117 117 117  75  38  31  28  34  38  39  40  39  39  37  30  41  45  33  31  29  40  35  36  46  46  81  40  93  46  79 126  46  34  60 122 103 100 106 122  55  68 127  74  32  38  67 133  77  71 129  73  79  85  43 132  75  27  38  57  48  41  47  37  26  33  41  26  23  33  52  58  78  82  78  78  79  71  73  87  83  78  75  87
 116 116 116 115 113 112 118 117 116  74  37  31  28  34  37  39  41  37  32  39  31  38  46  35  28  29  38  35  36  49  61  47  57  98  44  86 125  45  36  80 124  66  63  51  99  83  41 120  85  32  35  74 134  53  94  76  53  82  89  42 129  75  33  51 106  44  34  33  39  33  29  47  33  22  32  66  73  88  91  86  77  79  81  80  85  87  86  91 108
 112 111 110 110 110 110 118 119 118  77  37  31  28  34  37  36  38  37  32  40  34  36  47  39  29  26  39  36  38  53 112  98 121  92  37  98 125  45  35  92 116  52 113  65  82 101  37 119  91  31  34  70 128  52  91 103  77 120  81  42 132  77  30  73 141  47  44  30  40  39  29  48  35  21  31  64  72  87  91  88  81  81  84  78  77  80  79  78  79
 113 112 110 111 111 109 113 117 121  79  40  32  27  32  38  33  33  39  40  40  37  37  50  40  31  25  35  54  54  45 105 123 129  68  47 120 121  48  37  90 113  46  97  93 117 105  41 122  92  30  37  57 127  61  63 139 132 129  60  57 137  75  33  74 153  42  44  44  52  41  30  52  35  22  31  62  74  93  91  80  73  71  76  74  76  75  76  77  76
 111 111 108 109 115 110 111 116 118  82  36  34  26  30  39  32  29  37  45  37  36  40  49  38  30  23  32  70 100  38  73 119 105  42  70 134 116  51  32  82 126  57  77 124 131  84  41 127  83  29  36  38 119  89  42 108 136  92  42 100 133  62  28  66 178  60  40  55  57  43  37  59  36  23  25  60  64  80  83  74  75  73  74  74  79  80  77  78  80
 114 119 119 114 114 115 116 118 115  87  33  34  28  30  39  37  30  30  36  31  35  43  43  34  24  31  23  63 120  79  41  39  42  61  98 142  93  44  39  57 127  82  34  86  95  46  82 127  65  31  32  37  86 134  67  39  61  40  75 126 123  45  46  35 165  97  26  37  39  30  39  55  31  20  26  65  66  83  88  78  77  76  75  76  78  77  77  78  80
 113 113 111 112 117 117 116 115 113  89  33  34  34  28  32  37  38  37  39  38  42  47  38  34  30  26  30  40  95 121 106 106 108 107 105 138  64  61  77  37 112 110  87  57  61  82 124 108  39  38  30  32  58 128 124  99  90 107 130 131  96  42 112  24 128 116  35  29  33  34  53  43  25  20  27  63  65  82  86  78  75  74  73  74  74  74  77  79  80
 112 113 116 119 120 116 114 112 112  89  32  36  40  27  28  37  42  43  44  42  42  42  33  41  41  21  70  37  57 115 119 124 125 107 108 109  40  95 123  35  77 117 131 129 129 128 133  65  55  58  34  63  36  90 137 136 141 133 130 127  53  71 172  42  70 115  46  48  54  49  52  31  29  25  25  61  67  82  84  78  75  74  74  75  75  75  76  79  80
 115 114 115 116 115 116 115 112 114  94  35  38  42  35  27  31  37  38  41  42  36  35  36  69  54  23  83  82  36  61 111 124 133 109  76  50  80 134 131  94  35  70 129 134 131 130  80  45 108  77  31 102  80  37  94 133 134 128 121  63  43 111 183 130  36  64  53  53  54  54  40  27  51  28  26  64  71  84  84  77  73  73  72  73  75  75  73  74  77
 115 116 117 115 116 111 112 113 112  97  40  40  37  38  34  25  24  30  30  34  31  38  50 100  76  21  74 116  87  44  45  74  92  62  42  78 135 138 137 133  80  39  62  96  95  64  48  94 130  72  31  84 111  57  41  63  78  68  45  49 127 161 181 180 105  34  34  49  50  38  27  48  61  28  26  59  67  78  80  79  71  69  68  68  72  76  74  71  75
 116 118 114 109 108 108 110 112 112  98  38  37  34  37  35  32  28  27  27  32  33  37  57  91  65  28  63 101 110  85  47  31  33  43  71 115 134 124 122 123 119  81  36  35  37  46  78 103 108  74  30  85 137 130  77  34  33  38  66 109 131 138 165 169 167  89  29  28  28  33  49  60  53  31  25  59  62  50  46  58  69  65  74  79  72  73  72  74  76
 114 116 115 113 114 110 112 114 114 101  37  34  33  35  35  39  39  33  34  28  30  37  47  44  35  27  28  43  40  42  40  36  41  39  38  46  48  50  47  41  42  46  43  41  42  43  40  44  48  36  34  40  42  41  43  35  40  41  43  43  45  44  54  52  52  45  29  28  28  27  32  26  27  21  22  23  26  23  22  43  64  64  73  75  74  75  73  77  76
 114 115 112 111 114 114 114 113 110 100  40  34  34  37  36  41  42  40  41  41  57  98 131 131  83  21  65 121 128 126 124 123 123 110  97 129 150 144 135 135 141 134 140 141 141 144 144 137 141  94  21  83 146 139 139 138 142 141 139 137 135 145 173 176 181 141  58  50  56  53  55  52  53  30  18  42  44  24  18  41  60  65  66  68  73  73  74  76  77
 114 116 114 115 120 123 122 118 111 100  43  36  38  39  38  39  42  41  39  39  67 108 125 132  98  24  68 130 133 134 135 134 130 119  98 140 163 149 143 146 150 150 151 153 153 151 150 152 153 115  24  82 160 154 162 169 162 162 160 156 157 164 187 187 197 165  75  60  67  59  54  50  55  36  23  42  43  31  30  52  63  65  67  72  74  74  79  81  86
  94  98  99  98 101 107 107 102 101  86  40  32  33  31  32  34  38  39  39  62 108 147 160 162 121  25  63 132 137 137 142 142 134 121 103 147 168 157 147 149 153 154 157 157 159 156 153 155 160 122  38  83 161 159 169 169 161 161 161 160 165 169 188 195 200 165  82  65  64  59  53  50  47  38  28  39  38  41  52  62  73  72  74  77  79  78  79  84  87
 109 103 112 116 104 101 103 102 103  97  81  81  75  75  86  84  82  82  77  92 108 107 103 109  97  74  91 108 122 125 119 110  98  92  83 100 102 101  97  98  99  99  99  96  93  93  95  93  94  91  78  89  89  91  93  94  90  92  97  98  99 112 114 105 110 102  91  86  85  86  90  92  93  91  87  86  87  95 100  98  90  91  93  95  97  98  98 100 102
 119 108 115 125 115 111 116 116 108 101  97 103  98  99  97  97  93  90  93  91  91  93  88  84  87  87  85  87  96 102 108 103  88  83  85  84  82  84  83  84  82  80  79  81  83  85  86  84  86  84  85  82  81  84  82  82  83  85  90  94  94  94  93  93  93  92  91  92  92  98  99  95  94  93  92  93  91  93  94  93  91  93  95  96  97  98  99  99  99
 118 111 111 117 114 109 106 106 104 106  99 100  96 105 104 101  97  92  92  95 100  92  87  92  94  94  86  88  92  94  96  96  90  86  90  84  85  85  87  87  85  83  79  82  85  85  84  84  87  86  87  82  81  81  81  80  82  81  81  88  92  94  90  92  93 101  97  98  99 105 101  97  95  93  94  96  93  92  95  95  96  99 101 102 101 102 103 103 102
 114 111 114 119 119 111 111 110 105 111  92 102  98 106 107 102 100 102 102  91  92  90  87  86  88  87  85  86  86  85  88  87  86  80  82  79  81  78  76  75  71  72  73  77  77  76  79  79  77  77  80  81  78  78  77  77  79  78  71  71  76  76  77  85  80  79  80  80  79  83  81  79  79  79  80  83  84  81  85  83  82  83  84  84  83  84  85  83  90
 115 111 113 118 118 114 113 110 105 116  85 102 105 110 114 114 111 110 113 117 113 107 106 108 109 112 110 108 103  94  93  96 106 108 108 107 106 105 105 106 102 102 102 106 109 108 109 112 106 104 105 110 108 105 109 109 107 111 112 112 117 114 112 114 114 110 107 104  99 104 105 107 105 106 112 117 117 101 104 103 107 107 109 112 114 114 109 111 113
 128 115 112 114 112 114 113 111 106 120  99 115 111 112 111 111 110 110 108 108 105 102 102 104 105 108 107 107 107 101 102  99  98 100 101 100 101 101  98  98  96  94  93  96  99  97  92 100  98 106 106 108 101 100 103 102  96 100 103 105 109 106 104 104 102  98  96  95  95 106  99 104  98  94 102 106 105  92  96  98  96  97 100 104 104 106 102 117 105
 125 117 113 112 107 107 113 115 108 121 106 115  96 101 104 102 102 104 101  97 100  98  93  94  99 101  99 100  99  95 102 104  99  97  95  94  96  97  95  89  89  90  90  88  90  91  88  92  93 109 102  99  95  99  96  93  96  99  97  97 102 104 102 102 100  94  88  93  96 106  94 102 100  94  94  92  93  90  91  91  92  92  93  95  95 100 108 119 105
 108 108 111 112 107 110 112 113 107 122 108 116 100 104 103  97  96 101 100  95  96  92  89  91  95  95  92  93  98  94 100 103  98  97  94  91  92  93  91  88  90  88  85  87  94  98  92  95  90 106 100  99  94  95  97  92  88  92  95  95  96  98  97  98  96  92  91  93  97 111  95  91  92  92  92  93  92  94  94  95  91  91  93  95  98  94 109 118 105
 109 105 110 108 109 116 110 108 107 115 102 122 108 106 108 100  98 100 102 100  96  90  88  92  93  95  95  93  96  92  98 104  99  97  96  94  91  89  90  90  87  87  87  88  92  96  92  91  91  98 101 102  95  96  95  91  88  93  96  97  96  98  96  94  94  91  87  89  98 111  97  91  90  91  91  92  89  97  89  93  90  94  94  93  93  93 107 114 106
