P2
86 74
255
 125 123 122 121 121 121 121 120 120 119 119 116 114 116 116 116 115 114 114 112 112 110 109 102  29  61  85  84  79  77  74  69  66  63  60  55  52  51  50  48  46  45  43  43  43  42  41  41  41  41  40  39  39  39  39  39  38  37  36  36  36  36  37  36  34  32  31  30  29  29  28  27  28  28  28  29  28  29  29  28  30  32  32  32  31  31
 125 124 123 122 121 121 120 120 119 118 119 114 111 115 117 116 115 114 113 112 112 110 109 104  40  48  87  84  79  77  73  69  66  63  60  55  52  51  50  48  47  45  44  44  43  42  40  41  41  41  39  37  36  36  36  36  38  37  35  35  36  36  36  35  35  36  36  35  33  34  34  34  34  33  32  33  33  34  35  33  33  34  34  33  33  33
 125 124 123 122 121 121 120 119 119 119 121 115 112 116 117 116 115 115 113 111 112 111 108 105  52  40  86  81  80  76  72  69  66  63  60  55  52  51  51  49  47  46  45  45  43  41  40  41  42  41  40  37  36  36  36  37  37  36  35  35  36  37  37  37  37  36  36  38  37  33  32  31  30  29  29  30  30  30  31  31  31  31  31  30  30  29
 122 122 121 121 121 121 120 118 118 117 117 116 115 115 115 115 114 113 113 111 109 109 107 107  56  33  84  81  79  75  72  70  67  64  59  56  54  51  49  48  47  47  44  43  43  41  40  41  41  40  39  40  39  37  37  37  36  35  35  36  37  31  32  33  31  31  31  29  29  32  29  28  27  26  26  27  26  24  29  31  30  31  32  35  31  31
 122 122 121 121 120 120 118 117 116 117 117 116 115 115 114 114 113 113 111 108 107 105 104 103  67  27  68  77  74  70  68  66  63  59  56  53  52  52  52  51  50  49  46  42  40  40  41  40  38  36  34  32  32  33  33  31  36  38  43  47  50  55  57  60  56  41  32  35  40  35  43  49  54  55  54  52  44  41  35  29  32  36  40  42  47  61
 121 120 120 119 118 118 117 115 114 114 115 114 113 112 111 111 110 110 109 107 106 105 104 103  72  24  44  50  51  46  45  43  42  42  40  38  38  37  38  39  40  41  44  46  47  46  45  46  48  51  55  57  59  62  64  62  63  66  70  72  72  71  72  73  71  58  54  62  69  60  56  55  55  54  56  71  62  64  53  49  55  59  62  62  62  67
 118 117 117 116 116 116 115 113 112 111 111 110 110 109 107 107 106 106 106 106 105 103 102 101  69  54  82  81  70  66  66  65  63  62  60  59  60  62  63  65  66  67  66  69  73  75  76  77  73  72  73  77  78  77  75  75  76  76  74  69  67  78  75  66  69  67  65  60  59  59  59  59  59  60  60  53  52  65  64  65  64  64  63  63  66  66
 115 115 115 113 113 114 112 111 110 108 108 107 107 106 105 104 103 103 103 102 101 100  99  98  60  64  87  78  75  72  70  68  66  65  63  63  63  65  65  65  64  62  63  62  61  61  61  60  58  59  60  58  56  54  52  53  46  47  46  42  41  56  56  52  60  61  66  70  69  71  67  67  67  64  61  61  58  60  55  56  53  52  55  56  56  57
 112 113 112 111 109 107 106 108 107 105 105 104 104 103 102 102 101 101 100  99 100  98  97  97  58  69  88  82  77  75  72  70  69  67  65  66  64  63  61  61  61  58  59  60  60  59  57  56  55  56  53  50  49  46  43  41  38  38  38  38  38  38  38  38  38  38  42  45  43  43  41  43  46  47  48  53  53  54  54  55  53  52  54  51  47  47
 113 111 109 110 108 103 103 106 106 104 103 102 102 101 101 100 100  99  98  98  99  98  96  99  52  75  91  83  78  77  75  74  72  69  66  66  65  62  59  58  59  56  56  56  56  55  53  52  52  54  53  51  51  50  49  48  47  46  46  48  50  50  48  46  44  44  44  45  46  44  44  44  42  41  39  41  39  37  35  35  34  34  34  33  33  34
 111 109 108 109 109 106 105 105 103 101 101 101 100 100 100 100  99  98  98  98  98  97  96  96  45  83  91  86  83  81  77  74  72  70  66  66  64  61  59  58  59  56  55  53  52  52  52  50  50  52  50  48  47  46  45  44  47  45  43  43  43  42  41  40  40  39  39  39  39  38  35  34  34  34  34  31  31  31  32  32  33  33  32  33  33  32
 109 110 109 108 107 106 104 104 101 102 102 101 101 100 101 101 100 100  98  97  97  97  95  84  33  81  80  81  82  80  77  75  73  69  66  64  61  59  56  55  56  54  50  49  47  48  49  45  44  46  43  43  44  43  41  40  41  41  40  37  35  37  36  35  34  33  35  35  30  33  33  32  30  31  33  34  33  31  30  28  31  32  30  32  34  32
 109 109 108 106 106 106 105 104 102 102 103 102 101 101 101 100  99  99 101  99  99  95  94  62  49  65  59  58  58  57  58  60  61  59  60  63  62  59  56  54  53  52  48  47  45  44  43  44  40  39  38  40  40  38  36  36  36  37  36  35  34  35  33  34  34  33  34  34  32  32  35  34  33  33  33  33  33  33  33  33  32  33  32  33  33  33
 110 109 108 106 106 106 106 104 103 102 102 102 101 101 101 100  99  99 100  99  98 102  76  67  84  93  86  80  77  72  66  63  59  53  49  46  42  45  51  54  54  51  50  47  44  43  43  44  43  42  40  40  39  37  36  37  37  36  35  36  35  36  33  35  36  35  35  34  34  33  34  34  34  33  33  33  33  33  33  33  33  33  33  33  31  32
 110 109 108 107 107 107 106 105 104 103 103 103 102 102 102 100 100 100 101 100  98  91  64  87  94  90  87  89  84  82  79  76  74  70  64  61  57  52  45  36  35  38  38  43  47  46  43  43  42  42  43  42  40  38  37  37  38  38  37  36  36  37  35  37  37  36  36  36  35  35  35  35  35  34  33  33  33  33  33  33  33  33  33  33  32  32
 111 110 109 107 108 108 107 105 104 104 104 103 102 102 103 101 100 100 101 100  95  72  80  93  91  94  93  89  89  88  85  81  78  73  67  65  64  60  57  53  46  40  31  29  28  34  40  43  43  42  41  41  41  39  37  38  38  37  37  37  37  38  36  38  39  37  37  37  36  36  36  36  35  34  34  34  34  34  34  34  34  34  34  34  35  34
 111 110 109 108 108 108 107 106 105 105 104 104 103 103 103 101 101 101 100 102  85  69  95  94  94  96  96  95  94  94  92  89  85  77  70  66  65  64  63  59  54  50  47  45  39  30  24  22  34  42  41  41  41  40  38  38  39  38  38  37  37  39  37  38  39  38  38  38  37  36  36  36  36  35  35  35  35  35  35  35  34  34  34  34  37  36
 111 111 111 110 110 109 107 105 106 106 107 106 104 105 103 101 103 104 103  95  68  91  95  97  99  99  98  97  93  93  94  91  84  77  70  67  69  68  66  65  64  64  61  53  47  45  43  38  27  22  25  34  40  42  40  37  39  40  40  39  37  38  38  37  37  37  36  35  35  35  35  36  36  35  34  34  34  35  36  34  32  33  34  33  34  35
 113 112 112 111 111 110 108 107 107 106 107 106 104 105 104 106 104 101 103  82  78  93  98 100 103 103 101 100  97  96  95  91  83  74  70  67  66  64  62  65  68  71  72  66  61  55  48  44  43  38  30  24  24  28  34  39  39  39  38  38  38  38  38  37  37  37  36  36  36  36  34  35  36  35  35  36  35  35  34  34  35  36  35  33  35  37
 116 115 113 112 111 110 109 108 106 107 108 107 105 106 106 105 103 104  99  74  94 101 101 103 105 105 103 102 101  99  97  90  81  74  71  66  63  61  60  61  64  66  63  62  63  60  55  50  48  44  42  40  32  23  20  24  36  38  39  38  37  39  38  38  36  37  37  37  37  37  36  37  38  37  36  36  35  35  34  35  37  37  36  34  34  35
 119 117 115 113 112 112 113 111 109 109 111 110 108 109 109 105 107 106  86  81 102 104 108 107 108 107 106 104 103  99  95  88  79  75  71  65  63  61  59  58  58  58  55  55  56  56  52  48  50  49  46  44  43  41  35  26  15  21  32  38  39  39  38  37  35  37  37  37  37  37  38  38  37  35  34  35  36  35  36  35  35  36  36  35  34  35
 120 119 116 114 114 115 116 115 113 112 113 113 111 112 112 108 113 104  80 103 107 106 111 112 112 111 110 108 105 101  95  85  79  76  71  65  63  62  59  57  55  56  51  51  54  58  58  56  51  49  50  48  45  44  42  39  37  27  16  19  28  37  37  38  36  37  38  37  36  36  36  36  33  28  27  27  27  28  29  29  31  34  36  36  35  37
 118 120 120 119 118 117 117 116 115 113 114 115 114 114 112 112 112  96  88 107 109 112 114 115 115 114 111 110 107 103  95  85  78  76  72  65  63  62  59  57  58  59  55  53  51  52  52  52  51  50  50  51  48  47  46  42  40  39  33  25  21  19  27  35  39  39  36  36  38  36  34  33  25  20  22  24  20  20  19  19  24  29  32  32  31  36
 123 120 121 120 117 118 118 118 116 116 117 117 117 116 113 118 113  82 105 112 115 118 118 118 117 115 113 112 107 102  95  87  82  78  74  68  66  62  60  62  67  71  69  63  56  53  52  50  50  52  52  52  48  47  47  46  42  43  44  40  34  23  16  19  27  34  37  39  38  36  35  31  23  20  22  23  21  22  19  17  19  20  21  21  24  32
 122 123 122 120 119 120 121 120 118 118 119 120 119 118 118 118 111  86 113 117 122 125 124 121 119 117 114 114 111 104  95  87  83  78  73  70  66  64  63  64  68  72  71  68  65  65  65  63  58  53  50  50  50  49  50  46  36  36  40  42  40  39  30  22  17  19  31  36  32  36  34  30  26  22  18  17  18  21  20  19  19  17  16  16  19  22
 116 123 118 118 123 122 122 121 119 120 121 122 121 120 122 118  93 106 116 120 125 128 126 125 123 121 120 119 115 106  95  86  82  77  72  69  66  62  61  62  65  69  74  76  80  82  82  79  70  60  52  50  52  53  51  43  35  30  34  39  38  40  42  37  26  18  18  23  31  34  33  26  22  20  16  18  16  17  18  18  19  18  16  15  17  19
  45  56  58  65  76  77  76  75  77  83  98 109 115 115 120 115  86 117 120 123 130 129 132 132 129 127 120 119 116 107  95  88  82  80  74  71  66  63  60  62  63  68  73  71  72  73  73  70  61  50  40  40  44  48  49  39  35  31  31  37  38  46  50  45  30  21  20  13  22  23  24  22  20  18  18  18  15  20  22  19  19  19  18  15  17  18
  25  31  30  32  36  34  31  30  30  32  39  43  51  54  93  90  77  92  80 101 110 137 133 133 126 119 123 120 115 106  94  89  84  79  73  72  68  64  61  62  59  64  63  57  55  54  57  60  54  46  45  48  50  60  68  66  66  67  74  82  86  91  90  97  67  27  21  18  12  18  20  18  17  15  15  16  16  23  22  16  18  19  18  17  14  15
  29  30  26  25  26  26  25  25  25  28  25  25  28  26  40  60  40  38  41  60  86 146 128 115  79  96 123 122 108 109 115 120 117 114 108 105 103 102 103 102  99 101 100  95  98 106 111 113 115 107 109 111 105 116 116 118 115 114 119 117 113 112 101  93  80  62  29  21  13  12  19  18  18  17  17  15  14  16  16  14  15  17  18  18  16  15
  26  26  25  25  25  26  28  30  30  29  26  29  27  27  32  41  28  28  38  51  76 113  90  98  65  94 125 123 108 133 153 156 150 141 130 121 115 113 119 119 117 113 107  98  97 103 108 109 118 109 108 114 106 118 111 118 117 116 124 120 119 120 115 109  83  69  50  25  19  12  14  15  15  15  15  14  11  10  13  14  14  15  16  16  18  18
  23  22  24  25  23  23  25  25  24  25  23  25  22  29  24  32  29  31  47  48  61  62  60  60  55  70 106 110  70 119 123  99 103 109 100  95  93  94 109 112 109 101  93  84  85  96 104 108 116 106 110 123 114 128 119 131 127 124 132 127 126 126 124 125 106  75  71  37  17  16  13  15  14  15  14  14  14  13  14  15  14  15  15  14  15  15
  21  21  20  20  20  20  22  22  22  21  22  22  23  23  20  28  24  32  47  55  55  49  49  46  45  54  63  62  57 116 104  90  81  86  80  96  96  98 113 115 105  96  88  86  83 107  97 113 113 104 103 119 103 124 113 126 129 123 135 122 127 123 123 121 117 103  77  63  16  23  12  12  13  15  16  15  14  15  14  11  13  14  15  15  14  13
  20  20  20  20  19  19  20  21  20  19  20  20  21  21  23  28  22  31  45  51  50  45  43  43  43  45  49  45  55 112 101  88  83  80  69  85  93  99 115 116 107  97  85  84  78 100  91 108 101 106  98 109 101 115 107 113 119 111 129 110 123 118 118 120 121 123  90  74  28  21  13  13  14  15  16  15  14  15  14  11  12  13  14  13  13  13
  19  20  20  19  18  18  19  19  18  17  18  18  19  19  25  26  22  30  41  46  46  43  40  40  40  43  45  43  59 104  99  97  99  86  65  71  78  96 117 113 106  98  86  85  74  92  86  96 106 108 123 114 133 127 122 123 116 121 123 123 117 127 127 135 131 138 106  90  34  22  14  13  15  16  16  15  14  15  14  12  12  13  13  12  12  12
  18  20  20  19  18  19  20  19  18  17  18  18  18  19  25  24  21  31  40  42  43  44  40  39  41  40  39  36  72  98  97  94  94  80  61  64  69  93 112 100  94  90  83  85  74  92  92 106 119 115 146 118 148 135 134 138 118 143 128 152 134 161 140 175 148 173 148 124  49  17  15  14  15  17  17  15  15  15  14  13  14  15  13  12  11  12
  17  20  20  19  19  21  20  19  18  17  17  18  18  19  25  22  21  31  40  41  44  46  41  37  39  37  36  34  72  92  93  83  76  66  53  60  63  86 110  93  88  87  82  84  74  87  83  96 103 109 130 124 137 147 145 162 151 182 170 193 187 198 187 182 177 148 120 111  59  18  15  13  15  15  17  15  14  14  13  13  14  14  14  13  12  11
  17  18  19  19  20  20  19  17  16  16  17  17  17  18  25  20  23  32  41  43  45  47  43  37  38  34  35  33  85  98  96  85  84  83  80  89  85  91 109  93  92  90 101  97 107 109 125 127 149 151 167 184 175 208 190 225 201 224 206 222 212 206 203 179 181 139 110 103  73  19  14  12  13  12  17  16  14  12  12  12  12  12  13  14  13  12
  16  16  16  16  17  18  17  16  16  15  16  17  18  19  24  22  25  34  42  42  41  44  44  37  37  34  33  31  93 100 100 100 116 145 155 154 136 118 105  89  92  94 130 138 149 162 174 159 184 177 186 192 184 205 180 219 188 217 188 203 199 184 196 164 171 130 105 101  81  20  15  11  13  12  15  15  13  12  12  12  12  12  13  14  13  13
  18  18  18  18  19  19  19  19  18  19  19  20  20  21  24  25  30  37  42  44  43  44  49  42  34  32  30  30  96 101 106 100 112 134 158 157 130 113  87  79  79  96 120 145 143 156 160 140 160 148 149 148 145 159 143 173 145 172 159 165 166 152 170 145 148 117 101 102  83  22  17   9  12  12  12  13  12  12  12  12  11  12  13  13  13  12
  24  24  23  22  22  23  23  23  23  25  25  24  23  23  27  28  32  37  40  43  45  46  50  47  36  32  29  34 102 107 112 101 108 115 138 132 120 114  66  65  68  86 103 116 112 119 128 117 124 119 125 121 119 126 121 129 122 128 133 126 132 124 135 126 120 114  96  97  87  21  17   9  11  12  11  12  11  11  12  12  11  12  13  13  14  13
  24  24  24  24  24  23  23  23  24  22  23  24  22  21  27  29  33  38  38  37  39  41  43  45  45  40  36  38 109 113 114 105 109 107 119 117 116 115  65  62  70  89  96 101  91 102 102 110 106 114 108 118 116 118 122 116 119 110 125 109 118 117 118 121 108 118  93  96  90  26  17  10  11  13  11  13  10  11  11  10  12  12  12  13  15  15
  24  24  24  24  23  22  23  22  22  21  22  24  22  21  27  27  34  38  40  40  38  37  37  36  43  40  40  47 121 119 117 110 107 104 110 115 117 116  76  70  74  91  85  94  81 101  94 110 107 123 112 131 117 131 122 130 131 124 128 113 123 117 121 123 118 120 100  97  95  36  17  11  10  14  12  13  10  12  11  10  12  13  16  18  16  16
  23  23  23  23  22  22  22  22  22  22  22  22  22  22  26  27  33  38  40  41  38  36  35  35  38  37  39  57 135 121 115 111 104 101 105 115 116 118  82  72  66  74  68  87  84 118 134 116 140 122 131 130 130 140 127 137 125 128 125 121 129 122 133 129 137 123 115 103 100  42  19  11  10  14  13  14  13  15  15  14  16  16  16  16  17  17
  22  22  22  22  21  21  21  21  21  21  20  19  20  21  24  24  30  36  37  37  36  36  37  38  37  36  36  59 150 124 112 113 108 107 116 132 128 120  83  70  60  63  58  86 103 113 140 102 146 104 134 107 123 119 119 118 113 113 110 108 107 106 116 107 115 102  99  89  80  39  21  12  10  15  15  15  13  15  16  15  17  18  19  19  20  20
  22  22  22  22  21  21  21  21  21  19  18  16  17  19  21  22  28  33  35  37  36  36  36  36  36  37  36  61 170 137 118 123 125 125 132 143 124 110  77  68  62  69  75  93 105  98 114  94 109  96 103  95  91  89  84  76  73  61  59  56  48  43  46  35  34  30  27  28  26  24  22  12  10  15  16  19  18  21  21  22  24  24  24  23  23  23
  19  20  21  21  20  17  17  17  17  19  17  13  15  18  17  22  28  32  33  35  36  35  34  36  31  39  35  62 134 134 125 118 107 104 103 101  98  88  74  63  60  63  63  60  55  50  47  43  39  35  34  32  27  27  27  23  25  24  23  22  21  21  23  24  25  27  28  29  29  29  26  16  11  19  20  24  25  25  24  24  24  24  24  24  22  22
  20  20  20  19  19  18  18  18  18  16  14  12  16  19  17  21  27  31  33  34  34  34  34  36  33  37  37  38  46  46  41  38  34  35  34  34  33  33  31  27  23  19  21  21  21  20  20  21  20  22  23  23  21  23  25  22  23  23  23  24  24  22  23  25  26  27  28  28  29  30  29  19  11  20  22  22  23  23  22  21  22  22  22  22  20  20
  19  19  18  17  17  16  16  16  16  13  12  12  16  19  18  21  25  30  32  32  34  35  34  32  35  34  37  33  26  22  19  19  19  19  20  21  21  21  21  21  20  20  17  17  18  20  21  21  20  20  21  22  24  23  22  20  21  21  22  23  24  24  25  25  26  25  25  24  25  26  27  20  10  17  21  19  20  20  19  18  19  19  19  19  18  17
  18  17  17  17  16  15  15  15  15  14  13  15  17  19  18  19  24  28  31  31  33  34  34  34  36  33  30  32  27  21  19  17  18  17  17  18  19  23  21  18  17  18  19  19  20  21  20  20  20  21  23  22  23  25  24  26  26  25  26  25  25  23  23  23  23  22  21  21  22  23  22  18   9  13  16  16  16  16  16  16  16  16  16  16  15  15
  16  16  17  17  17  16  17  17  17  15  15  16  17  19  19  20  23  28  30  31  32  34  34  34  30  33  30  30  24  20  20  17  20  19  20  22  23  21  20  20  20  19  19  20  21  22  22  22  22  22  23  24  26  26  24  25  25  24  23  22  22  22  22  22  21  21  21  22  22  23  19  18  10  13  14  14  15  15  14  14  14  14  14  14  12  13
  17  17  17  17  16  17  17  16  16  16  15  15  16  17  19  22  24  27  28  30  32  32  32  33  33  31  28  27  21  20  19  19  19  19  20  22  24  23  22  21  20  19  20  21  22  23  23  24  24  25  25  25  24  23  23  24  24  24  23  22  22  22  22  21  20  22  21  21  21  22  18  15   8  12  13  14  14  14  14  13  12  13  12  13  12  12
  16  16  16  16  15  15  15  15  15  15  14  14  15  17  20  22  24  26  28  29  31  32  32  32  31  29  28  27  22  21  20  20  21  20  21  22  23  23  22  20  19  18  19  20  24  25  25  26  25  25  24  23  22  22  22  22  23  24  23  23  22  22  21  21  20  21  21  20  20  21  19  16   9  13  14  13  13  13  13  12  12  12  13  13  12  12
  15  15  15  16  15  15  14  14  14  15  16  15  17  18  19  21  24  27  28  29  31  31  30  31  30  28  26  25  24  22  21  21  22  22  22  24  25  26  25  22  20  20  23  23  24  24  25  25  24  23  23  22  23  23  23  23  22  22  22  22  22  21  20  20  20  20  19  18  18  20  19  16  10  13  14  13  12  12  12  12  13  13  13  12  11  11
  14  14  14  15  15  15  15  15  15  16  15  15  16  18  19  22  24  27  27  28  30  30  31  29  29  27  25  24  25  23  22  22  23  23  24  28  30  30  26  22  20  20  21  19  20  21  22  21  22  22  22  22  22  22  22  22  20  20  20  20  20  20  20  19  19  19  18  17  17  19  17  15   8  12  13  12  12  12  11  12  13  12  12  13  12  11
  15  15  15  15  15  14  14  14  14  14  14  15  15  14  18  21  25  27  27  27  29  29  29  29  27  25  24  22  24  24  23  24  24  24  25  28  30  28  24  22  20  20  17  17  18  18  19  21  20  19  19  19  19  19  19  18  20  20  19  19  19  20  19  19  19  18  16  17  19  19  18  16   7  11  13  12  12  12  13  12  13  13  12  12  11  10
  16  15  15  16  15  13  13  13  14  13  15  17  18  17  17  20  22  23  24  29  30  29  28  27  24  23  24  25  25  24  23  23  23  25  25  25  25  23  23  21  20  19  18  18  18  18  17  17  17  16  17  18  18  18  17  17  16  16  17  19  19  17  17  17  16  18  18  17  18  14  17  18   9  11  12  12  12  13  13  13  13  13  12  12  11  10
  15  15  15  15  14  14  13  13  14  13  14  16  18  18  18  20  23  24  25  28  29  26  26  26  25  25  25  25  24  24  22  20  21  24  24  22  21  21  21  20  19  18  19  18  18  18  18  17  17  18  18  18  18  18  17  17  18  17  17  16  16  18  17  17  17  15  14  16  19  18  18  17   8  11  14  13  12  13  13  12  13  13  13  12  13  11
  14  14  14  14  14  14  13  14  13  14  14  14  15  16  15  16  18  21  23  26  28  26  26  28  27  24  23  23  21  20  19  18  19  19  19  19  19  19  18  18  18  18  17  16  16  16  16  16  16  15  14  14  14  14  12  12  14  14  14  15  15  17  21  25  28  33  35  38  43  42  35  28  10   9  13  13  13  13  12  11  12  12  13  13  14  13
  14  14  14  14  13  14  13  13  13  13  13  15  18  21  19  16  14  14  15  17  21  21  22  22  20  19  19  20  15  15  16  16  17  15  15  14  14  13  13  13  14  14  14  14  14  14  14  13  14  15  16  17  18  17  16  16  19  20  20  20  20  22  22  23  24  21  18  17  17  14  16  17  10  11  13  14  14  12  12  11  11  12  13  14  15  13
  13  13  13  13  13  13  13  13  13  13  14  17  20  22  28  28  29  31  30  29  29  27  23  23  23  23  22  20  18  18  18  20  20  18  18  19  20  21  20  21  21  21  19  18  18  18  18  19  18  17  15  15  16  16  16  16  15  15  14  13  13  13  13  13  13  13  13  13  14  15  15  15  12  10  12  13  13  12  12  12  12  13  13  11  11  13
  13  13  13  14  13  13  13  13  13  13  13  13  13  13  14  15  17  19  22  26  28  29  27  30  32  32  30  28  25  24  24  24  24  21  21  21  23  21  20  20  20  20  16  15  14  14  13  13  14  14  12  12  11  11  11  11  14  14  14  13  13  13  14  13  13  14  14  14  15  16  14  13  10   8  12  13  13  13  13  12  13  14  14  13  11  11
  13  14  13  14  13  13  13  13  14  14  15  14  14  14  14  13  12  10  12  16  19  22  22  22  21  20  19  19  16  14  12  12  13  14  13  13  14  14  14  14  14  14  13  13  12  11  11  13  15  16  16  14  14  14  14  14  14  14  13  13  13  13  13  14  13  15  16  15  15  16  13  12   9   8  12  13  14  14  13  13  13  13  14  14  14  14
  14  13  14  14  13  13  13  13  13  13  13  13  14  15  11  11  12  13  13  15  18  21  21  23  21  19  18  18  16  15  14  15  16  15  13  13  14  14  14  14  14  14  14  14  14  13  12  12  14  14  14  14  14  14  14  14  14  14  13  13  13  14  13  13  13  15  16  14  14  14  12  12  10  10  13  14  14  14  14  14  14  14  16  18  16  15
  13  13  14  14  14  13  13  13  13  14  14  14  14  14  11  11  12  11  12  13  19  23  24  23  20  18  17  18  14  14  14  16  16  15  14  13  13  13  14  14  14  14  15  14  13  13  13  14  15  15  14  14  14  14  14  14  14  14  13  12  13  13  14  14  14  15  14  13  13  13  13  14  11  11  15  15  16  16  16  18  19  18  19  22  23  21
  12  13  14  15  14  12  12  13  12  11  12  14  13  12  11  12  12  11   9  12  18  23  23  22  21  19  18  18  13  13  14  16  16  14  15  16  14  13  16  16  13  15  17  15  12  13  13  14  14  14  14  15  15  15  15  15  13  14  13  12  14  13  14  16  17  16  15  16  16  15  15  20  11  11  16  17  19  20  21  21  19  18  17  17  18  18
  12  13  14  15  14  13  13  12  12  13  12  12  12  13  12  12  13  12  11  12  18  23  23  22  20  18  17  17  15  13  13  14  15  15  14  14  15  15  16  15  14  15  19  18  15  13  13  13  13  13  13  13  14  14  14  14  14  16  15  14  16  16  15  15  15  16  18  19  19  18  19  22  13  10  13  15  15  15  14  14  14  13  13  13  13  13
  12  13  14  15  14  12  12  12  12  13  13  12  11  12  12  12  13  12  11  13  18  23  23  22  20  18  18  18  16  15  14  15  16  16  15  15  16  17  16  15  15  17  16  17  17  17  16  15  15  16  16  15  15  15  15  15  16  18  17  16  18  19  18  17  16  15  15  16  16  14  15  16  14  10  14  15  14  13  12  13  14  14  14  15  13  13
  12  13  14  15  14  13  12  13  13  13  14  14  11  10  12  11  10  11  11  12  18  23  23  23  22  20  19  19  17  16  17  18  18  16  17  17  16  18  15  14  17  17  14  16  17  17  16  16  16  16  16  16  16  16  16  16  14  16  14  14  15  16  16  16  15  14  14  14  14  13  14  13  16  12  15  17  17  16  16  15  14  14  15  15  16  16
  12  12  13  13  13  11  11  11  11  13  13  12  12   9  11  10   9  11  11  12  18  22  22  22  22  21  21  22  18  17  18  19  17  15  18  17  15  18  17  14  15  15  14  14  13  13  13  14  15  15  14  12  11  11  11  13  11  12  12  13  14  13  15  15  14  14  17  17  16  15  16  15  18  13  15  19  19  18  18  17  16  17  17  16  16  15
  13  13  12  12  11  11  12  14  14  16  14  13  15  13  13  12  11  12  12  14  19  23  22  22  22  23  22  22  23  19  17  17  14  14  18  17  16  16  15  13  13  14  14  14  13  13  13  11  14  14  13  13  14  13  13  14  12  13  15  16  17  16  18  18  17  15  16  17  16  17  19  17  18  14  14  20  19  17  15  13  13  16  18  17  18  18
  11  12  13  15  15  14  13  13  12  15  13  12  14  12  13  12  11  12  12  14  19  23  22  22  22  21  20  20  22  18  16  15  13  15  16  14  15  15  16  14  12  13  11  13  14  13  13  13  15  16  16  16  15  13  13  13  16  17  17  17  18  19  19  19  20  16  15  17  17  19  16  15  20  18  18  16  17  18  19  21  23  26  28  29  29  29
  14  13  12  11  12  13  13  14  14  16  13  12  13  12  11  10  10  10  11  12  18  21  21  21  21  20  19  19  18  15  16  16  15  15  14  11  13  15  12  11  12  13  12  14  15  15  16  18  18  18  19  20  18  16  16  17  17  17  17  18  18  15  16  17  18  17  19  21  20  21  24  24  28  26  27  29  29  30  31  31  30  29  29  30  29  29
  41  37  32  27  24  21  19  16  14  13  11  11  12  11  12  11  11  12  12  14  19  23  22  22  22  22  23  24  23  19  18  17  15  15  14  14  20  33  23  16  19  15  13  13  14  16  19  19  17  15  16  15  14  14  15  16  18  20  22  24  25  26  30  31  31  30  33  34  33  33  33  31  34  31  32  30  30  30  30  31  31  29  29  30  33  33
  27  29  31  33  36  38  39  39  38  36  33  30  27  25  23  20  17  15  13  15  15  21  15  17  20  21  21  20  19  16  16  15  14  15  14  14  15  21  20  16  15  14  15  15  18  19  21  23  23  25  26  28  30  31  31  32  32  33  34  34  34  35  36  36  35  34  34  34  35  34  32  31  32  32  32  31  31  31  31  31  32  31  31  30  30  31
