P2
52 66
255
  87  78  80  84  90  80  88  89  82  69  73  79  83  84  85  81  86  92  88  87  90  87  85  90  91  90  88  88  89  88  78  82  82  89  91  88  86  85  86  84  87  82  82  69  84  69  67  67  63  70  70  58
  83  79  82  82  94  84  85  89  77  68  68  80  95  94  91  89  90  97  93  89  89  89  87  93  93  86  87  86  86  89  80  82  81  92  92  86  84  81  88  81  87  82  80  66  87  72  69  73  69  65  64  58
  81  90  99  92  86  92  95  88  80  70  62  77  95  86  88  87  92  99  98  94  90  92  94  98  94  92 100  99  94  92  87  88  89  97  90  91  91  84  86  80  84  78  76  61  83  72  71  71  72  66  56  53
  85  78  72  81  88  79  84  94  82  67  66  79  81  84  82  82  89  90  86  86  87  88  84  85  87  87  88  90  90  92  86  83  83  92  88  96  95  92  92  90  93  87  80  60  79  74  73  69  63  62  67  63
  80  87  89  76  74  80  92  89  79  69  65  81  84  81  87  89  93  89  85  85  88  90  84  85  87  86  88  89  87  92  82  82  84  87  88  91  83  83  87  83  84  77  80  65  79  79  71  72  70  74  72  62
  86  78  74  73  84  80  81  95  96  73  63  75  72  79  82  82  80  82  85  87  85  84  82  86  85  83  88  87  79  83  72  78  81  86  90  90  84  86  87  81  81  72  74  68  76  76  64  70  66  66  65  58
  82  76  86  78  79  83  86  86  84  72  60  99 145 144 136 134 126 120 118 114 105  97  89  86  85  83  79  79  69  73  65  68  66  77  80  78  77  83  79  78  84  80  71  70  77  77  67  73  73  69  62  57
  85  81  84  80  87  81  85  79  76  68  68 114 195 198 204 205 206 207 208 209 207 207 204 202 202 199 193 189 182 174 173 164 157 147 142 134 127 122 115 106 103  99  87  64  74  79  72  64  63  67  60  58
  84  81  85  81  87  76  73  79  83  73  64  95 131 126 132 135 141 146 149 155 160 164 169 175 179 182 186 189 192 194 198 198 201 203 203 204 204 203 200 197 197 196 178  81  78  85  74  77  68  66  64  64
  70  79  92  81  79  79  86  83  88  79  59  95 138 154 153 153 152 150 149 147 146 142 141 138 133 133 132 133 131 131 128 127 129 129 130 133 136 138 142 146 151 154 151  76  80  91  78  71  73  74  71  62
  93  83  79  75  86  78  75  87  91  70  58  87 115  88  90  93  96  98 100 102 104 112 113 113 117 119 122 124 130 132 136 145 142 141 141 141 141 140 137 132 126 127 109  65  75  89  70  71  67  62  64  59
  87  88  90  81  84  82  83  81  81  72  65  87 119  95  95  98 103 106 109 109 109 119 114 103 101  99  98  97  96  95  95 106  95  89  85  80  74  69  65  65  66  75 124  74  74  88  67  65  65  66  71  63
  94  87  81  73  79  84  84  90  81  74  68  86 124  99 101 108 113 113 115 116 119 132 121 112 110 109 108 108 107 108 104 128 112 106 102  95  88  84  76  73  73  77 134  77  72  83  69  67  65  68  68  62
  85  82  90  87  85  89  79  83  89  80  71  82 128 109 114 119 120 119 120 120 120 139 130 112 112 111 109 111 111 108 110 142 115 110 103  96  90  86  84  78  82 108 140  77  70  86  72  66  66  70  67  61
  83  83  93  89  82  78  87  87  76  76  70  81 140 117 121 124 125 123 123 123 121 142 136 116 117 115 115 115 113 115 114 147 121 114 107  99  94  89  85  80  84 131 149  92  80  96  79  75  69  68  66  61
  84  81  83  81  88  94  76  80  87  82  70  77 143 118 122 125 126 127 129 128 125 143 143 123 122 121 120 120 119 122 117 151 127 118 113 107  99  94  87  86  85 140 152 100  75  89  78  79  73  72  68  63
  83  79  82  84  78  81  85  88  89  79  74  78 142 121 123 126 129 130 131 129 131 143 147 129 127 125 124 123 124 124 122 154 133 125 122 115 107  99  95  91  87 146 158 106  71  88  81  70  69  71  69  64
  90  90  80  83  90 100  88  89  88  80  74  72 134 125 126 129 132 132 131 133 134 145 153 127 128 128 129 129 129 129 128 151 136 127 125 120 111 105  98  85  85 148 159 116  78  89  81  76  78  81  83  76
  80  82  86  89  82  92  82  92  97  86  76  72 135 137 136 137 139 139 139 141 142 148 158 134 136 135 133 132 129 130 130 152 144 130 128 123 115 107  94  95 103 148 161 124  78  85  78  67  70  75  75  68
  85  91  90  88  86  86  81  90  87  78  74  72 134 140 136 138 140 141 143 149 154 150 167 149 154 154 153 153 153 156 151 166 163 153 150 144 135 128 122 136 142 153 165 128  71  83  78  71  72  73  69  63
  82  88  85  82  82  88  73  76  88  88  76  68 124 134 128 131 133 137 140 139 141 139 162 135 136 135 134 134 133 137 137 153 158 137 138 136 133 130 125 120 130 147 161 136  72  81  83  74  70  68  64  61
  82  82  85  96  85  86  77  88  88  78  67  67 113 138 130 131 132 135 137 139 138 140 164 138 142 142 137 134 135 137 135 148 158 137 137 136 125 116 109 125 152 152 162 141  71  83  84  66  69  67  63  60
  81  84  83  85  86  94  82  82  89  88  70  67 109 142 131 132 133 136 138 138 137 136 161 135 138 138 135 135 136 138 137 148 161 139 141 136 119 115 138 159 128 142 164 146  72  81  87  73  70  65  64  64
  80  78  90  95  85  82  83  82  80  85  78  74 108 146 132 133 135 137 139 141 139 135 160 136 138 137 136 139 138 138 138 147 164 139 141 135 124 141 158 123 102 138 160 154  69  75  84  65  65  66  70  74
  83  96  87  88  84  89  82  83  84  90  83  74 101 147 133 135 136 139 140 142 141 136 163 140 140 141 139 140 139 138 140 147 168 138 139 137 130 140 126 109 116 142 166 161  65  73  83  67  69  67  63  61
  79  85  76  94  83  84  80  79  83  90  83  68  91 150 134 134 136 138 140 140 141 137 164 141 140 141 139 138 140 138 140 147 169 140 141 141 129 120 120 128 146 152 165 164  66  76  89  64  68  66  66  65
  82  93  91  94  81  83  82  83  89  81  80  71  85 159 132 131 132 136 142 140 143 139 165 143 142 140 139 139 137 139 135 143 171 139 141 141 133 119 128 148 142 137 167 165  72  73  85  66  70  64  63  61
  75  87  89  92  84  89  92  85  88  85  80  70  77 155 128 128 131 134 139 138 142 136 161 147 136 139 139 137 135 133 131 140 168 142 143 143 137 122 122 131 115 133 165 170  82  70  85  72  70  64  64  63
  79  85  91  96  90  85  86  87  90  89  79  69  67 150 128 130 133 134 136 134 141 137 154 148 136 139 138 133 131 131 146 156 174 142 141 140 136 126 121 128 124 140 164 174  91  72  93  70  68  68  66  63
  77  94  95  84  84  86  90  91  93  97  83  73  68 156 147 154 160 161 161 159 166 165 167 166 161 162 159 154 152 158 169 160 173 149 146 145 144 133 127 137 127 149 166 172  97  73  92  78  71  70  66  64
  83  78  81  85  88  77  82  77  79  81  72  68  64 157 153 159 167 168 170 166 174 174 174 173 175 176 176 175 176 174 179 175 176 178 175 178 175 175 173 174 170 166 160 158 104  79  93  73  70  72  71  70
  84  81  81  79  84  80  86  78  80  80  78  71  67 156 154 157 162 164 168 171 172 171 172 167 169 172 175 173 172 177 181 181 180 178 177 179 176 175 172 170 168 161 145 151 110  73  93  78  79  77  69  65
  79  82  87  84  85  75  83  75  74  79  79  69  65 145 153 155 161 164 167 166 166 169 170 178 172 171 169 170 167 168 171 168 171 166 167 166 169 163 159 159 153 147 126 150 116  67  88  76  70  66  66  68
  84  78  78  82  92  80  77  78  81  81  75  65  64 131 128 124 125 127 128 124 132 135 138 164 136 132 135 154 165 163 165 163 176 164 153 150 149 147 154 151 155 138 138 158 120  72  93  77  74  70  65  63
  73  79  84  75  73  72  89  89  82  84  78  62  66 131 133 124 121 119 120 127 127 134 131 166 132 123 123 146 157 155 159 154 169 159 128 128 117 114 122 119 144 116 146 167 127  69  79  81  73  67  66  67
  84  78  78  80  87  81  81  78  83  86  78  69  66 126 137 125 117 129 144 132 131 131 132 165 132 124 125 142 159 156 160 154 167 164 125 127 115 114 123 115 143 111 150 171 135  72  83  84  70  72  68  67
  79  82  88  82  80  83  89  89  89  91  85  74  65 117 132 121 122 141 157 125 134 135 136 170 140 130 128 140 160 158 160 156 168 166 128 128 118 114 123 114 143 110 145 171 144  78  83  87  70  72  64  62
  89  83  83  77  75  77  77  77  79  87  85  75  67 113 136 120 130 155 136 136 139 140 137 173 146 134 132 142 162 161 162 160 168 171 133 131 123 116 124 115 146 113 144 173 146  73  75  91  71  70  62  64
  97  87  86  86  88  85  81  80  81  84  78  69  64 105 139 125 148 138 149 154 141 142 139 170 147 135 136 144 164 165 165 165 168 175 138 135 129 119 127 117 149 118 143 173 153  77  78  87  66  65  62  62
  81  79  89  88  83  81  85  85  76  82  84  75  66 101 148 140 136 151 163 154 138 147 144 170 151 137 138 144 165 167 166 168 168 178 141 138 133 123 131 119 150 122 142 174 159  78  71  90  68  68  67  71
  92  74  76  84  94  90  79  75  80  89  80  78  65  97 147 136 152 166 165 158 139 145 144 166 154 138 139 148 163 167 170 169 168 182 143 144 136 125 129 129 145 128 141 169 165  83  72  98  73  69  68  68
  84  82  95  89  83  82  83  83  77  86  80  73  64  87 155 156 161 161 162 152 138 144 147 168 157 138 136 147 165 168 168 165 165 179 143 144 140 129 131 132 143 159 157 171 165  83  70  95  77  73  71  69
  98  84  88  90  93  84  75  77  81  89  79  71  67  81 158 155 159 164 165 156 146 150 151 167 159 147 144 150 167 170 169 168 168 180 150 145 140 131 130 132 144 171 158 171 166  85  71  91  80  77  77  73
  82  73  82  81  82  80  82  88  83  84  80  73  67  75 162 155 156 160 156 151 151 157 160 167 161 156 155 159 165 167 169 172 174 182 164 164 164 157 154 160 155 165 147 167 169  91  74  87  80  74  76  69
  91  81  82  83  84  83  79  83  79  88  89  78  68  66 156 158 162 163 159 139 139 141 142 155 157 135 139 162 166 164 165 164 165 174 153 146 146 136 136 145 136 159 139 167 170  98  74  82  75  72  68  66
  90  83  79  80  83  91  78  79  76  85  80  77  68  66 151 148 152 152 148 126 129 131 135 144 157 127 133 154 161 161 162 162 162 172 148 141 141 135 133 140 131 153 130 167 169 107  71  82  77  77  67  67
  84  83  89  91  86  82  84  91  83  83  90  77  70  65 138 127 125 125 117  91  90  87  98 116 143  91  96 120 140 140 141 141 140 166 141 121 122 119 117 126 122 152 125 166 174 111  69  81  75  72  69  68
  91  82  79  80  80  96  74  76  81  96  86  78  74  70 134 117 109 107 100  54  54  59  63  84 125  34  34  69 102 103 103 102 101 139 111  60  74  57  53  72  74 118  86 154 171 119  79  87  81  72  75  69
  84  78  83  87  79  78  78  88  84  90  91  80  72  68 133 120 107 105 108  70  54  64  61  78 138  37  35  72 103 102 103 101 100 134 112  53  62  47  35  62  59 109  75 155 169 126  70  87  83  71  76  64
  93  92  92  95  88  83  69  72  75  83  91  81  75  70 125 119 109 107 109  81  50  63  66  78 133  39  37  72 102  99  97  96  96 128 117  54  60  48  33  53  68 101  81 150 174 134  71  81  88  75  81  71
  87  87  87  90  85  92  82  89  81  86  78  73  68  66 118 122 113 107 104  86  55  64  62  63 141  41  34  79 102  99  98  98  98 122 124  51  50  55  37  46  68  89  89 141 174 142  72  82  85  80  73  69
  90  86  83  86  79  77  79  89  82  78  92  87  74  65 109 125 110 104 100  78  52  58  61  57 134  42  46  81 101 100  98  98  98 117 132  54  65  57  39  46  80  78 100 133 170 148  65  76  85  71  66  67
  92  89  85  87  82  90  86  86  80  90  88  90  83  60 107 133 107  97  92  77  62  58  62  62 139  53  42  83  95  94  95  97  97 108 145  52  58  57  41  37  73  74 106 125 167 153  73  76  90  70  73  65
  85  89  91  92  83  83  82  92  84  80  93  97  85  69 104 146 135 140 140 140 141 136 140 139 163 124 122 128 136 133 130 129 129 128 158 103 101  95  84  79  91  92 121 130 169 155  78  76  79  74  71  67
  90  95  87  91  87  84  77  77  81  82  93 108 104  82  96 134 126 140 142 147 149 152 155 156 156 160 162 161 164 165 166 167 168 170 171 173 174 174 175 175 174 172 172 164 153 150  70  77  78  71  74  72
  88  89  88  99  92  86  75  68  76  84  85 119 123 100 104 121 125 135 140 143 148 150 147 145 149 152 154 155 156 159 164 166 165 160 161 164 166 166 164 163 163 162 156 153 137 147  90  78  83  97  88  64
  84  87  81  85  81  83  86  83  87  87  82 118 121 102  98  96  92  88  87  86  87  88  88  85  85  88  92  95  94  94  98 104 109 103 104 105 106 107 108 109 111 115 120 126 129 137 126 125 128 128 122  70
  82  88  84  91  90  88  86  86  90  88  88 110 125 111 104 104  96  91  88  92  86  84  85  86  85  83  83  85  85  83  81  84  89  82  83  83  84  86  88  87  90  94  99 105 116 119 126 131 130 120 112  65
  80  83  85  91  85  74  78  89  94  84  75  74  93  73  44  50  46  50  49  47  47  47  50  51  48  47  47  50  51  51  51  52  53  51  53  55  55  56  57  58  62  64  70  76  78  86  87  92  92 106  81  69
  81  85  82  78  79  83  85  83  85  83  88  74  85  75  59  67  66  67  66  64  64  64  65  65  62  60  60  61  59  58  57  56  58  53  55  56  53  51  50  50  49  46  45  45  44  44  45  43  40  88  58  69
  82  82  80  80  86  86  86  87  88  80  86  88  91  82  68  76  76  78  76  74  77  77  75  73  73  73  73  74  72  73  73  71  72  69  70  69  67  66  68  69  65  65  65  65  65  63  60  53  54  90  85  75
  82  86  85  81  83  87  91  82  81  79  85  84  80  75  68  76  77  80  79  77  80  82  82  80  80  81  81  80  80  82  82  80  80  78  78  78  77  78  81  80  75  76  77  78  77  75  73  63  60  81  80  68
  83  87  88  87  89  88  90  86  87  82  88  84  80  76  66  75  77  81  80  76  76  77  78  78  78  77  75  72  72  77  81  81  82  83  83  84  85  87  83  78  77  75  74  73  72  73  73  68  63  81  72  71
  83  86  86  93  98  86  86  86  91  84  84  90  84  72  67  73  81  84  83  86  89  87  85  85  82  84  83  82  82  86  85  88  86  84  80  79  81  79  75  73  76  77  75  74  73  73  74  72  68  72  73  72
  83  90  90  85  84  87  96  87  87  79  96  86  76  79  72  80  82  79  82  80  86  86  85  84  81  85  86  85  88  87  81  84  83  82  81  79  77  75  76  78  80  81  81  78  77  78  82  74  70  72  70  71
  80  75  73  78  88  80  86  82  90  87  78  85  86  72  70  73  74  75  77  86  83  82  83  86  84  84  82  83  87  85  78  77  82  83  84  80  77  78  81  82  82  80  75  71  73  76  76  76  73  73  68  66
