P2
49 52
255
  18  15  23  21  52  82  59  74  65  49  33  36  37  55  64  58  42  78 111 111  91  84  73  33  46  48  31  29  33  26  31  27  47  52  62  80  89  97  70  47  40  80  81  72  68  79  78  65  81
  10  26  34  52  42  66  48  53  62  41  44  46  50  66  53  47  54  62 116 102  81  76 109  70  71  54  56  57  33  25  20  20  41  60  65  48  66  96  67  46  61 105 109 118  96  75  71  70  72
  21  53  63  72  55  31  25  18  28  19  21  37  44  48  47  61  45  60  79  86  83  80  74  50  49  58  70  69  45  33  24  39  53  41  64  68  59  59  55  50  60  68  92  69  70  95  73  83  76
  63  93  62  59  25  19  13  17  17  22  12  26  50  61  46  43  31  54  46  58  34  32  54  97  83  79  75  67  69  80  41  29  32  23  44  80  74  60  78  57  49  52  65  53  67  53  50  59  57
  74  72  49  21  19  12   9  11  14  18  15  29  21  39  26  26  37  58  64  53  44  46  64 108 104 127 107  72  62  85  43  29  24  21  23  35  51  53  54  65  58  57  62  57  71  54  46  52  71
  20  19  12  12  13  10  11  12  20  18  23  39  17  13  15  28  41  59  76  42  54  54  46  61  85 103 125 130  67  68  42  47  33  30  27  24  32  36  60  52  52  55  65  53  40  65  71  65  66
  12  11   9   9  10   8  12  21  35  26  15  16  15  13  25  32  37  34  27  55  83  38  35  38  43  58  64  64  58  58  50  56  54  35  25  25  24  28  55  54  53  60  80  55  41  64 101  55  49
  10   9   9   9  10  11  11   9  10  12  12  13  12  14  49  57  38  53  43  49  79  54  26  30  74  66  67  47  44  83  82  36  66  74  41  29  14  13  25  44  57  61  73  46  52  44  38  37  33
   9  10  11  11   9  10  13  12  11  11   9  17  14  28  38  28  72 126  57  68  94  90  88  69  92 104 112  51  96  83  84  71  71  61  48  46  28  24  22  21  50  58  58  47  40  38  39  59  33
   9  11  13  13  12  13  10   8  10  11  27  37  38  25  32  40  61 105  70  57  88 125  94  79  79  91  97  88 113 107 112 109  95  77  64  73  62  42  23  23  49  53  48  44  56  49  43  47  48
  11  11  11  10  14  13  11  10  11  18  27  36  59  26  46  46 105 123  48  64  70  73 126 124 102 112 112  99  91  88  86  83  78  76  70  66  53  59  32  38  51  47  41  37  37  41  49  47  56
  13  13  12  14  13  14  14  13  31  47  52  79  51  46  46  42  54  74  87 118 125 116  98  62  89  98 100 100 103 102 102 100  95  90  90  80  66  68  50  32  24  35  41  29  29  30  34  39  48
   9  10  14  26  31  26  15  25  34  54  94 109  62 142  94  79 107 122 113 100  95  98  89  72  99 106 104 109 111 106 102  97  93  93  93  85  82  79  68  52  39  29  27  34  35  29  36  37  45
  10   9  12  27  34  34  17  43  66  71  65  97 116 149 128 116 105  93 102 103 104 105  97  77  93 106 107 111 109 104 101 100  97  96  92  87  87  78  76  66  44  36  36  44  29  34  38  43  41
  12  13  14  28  25  31  25  37  49  53  76 132 132 107  99  99 104 104 106 107 103 104  94  75 100 107 108 108 103 100  98  96  93  90  87  86  83  78  72  68  59  36  20  24  30  55  46  37  41
  16  12  22  22  40  43  36  72  91 112 116 103  93  98 102 104 105 105 105 105 104 103  90  75 103 107 106 103  99  99  97  93  91  89  89  85  79  76  74  66  56  42  19  21  23  36  54  51  66
  16  22  42  45  71  59  70 122 117  95  93 100 105 104 103 105 106 105 104 104 103 103  92  79 104 103 102  97  96  95  93  90  88  90  95  85  75  73  70  67  56  40  22  13  11  19  31  51  54
  32  45  54  50  81  93 103  96  92 100 102 105 107 105 104 105 105 104 103 105 102  99  88  77 100  98 100  96  95  93  90  88  86  85  87  79  72  71  67  63  54  41  33  17  10  12  13  21  34
  51  76 101 104  91  72  87  95 100 102 104 100  98 103 103 103 103 101 101 101  98  96  86  78  98  94  98  94  93  90  86  85  85  87  79  73  72  72  66  59  57  55  43  75  65  20  19  23  17
  43 114 128  98  68  61  73  97 103 100 102 105 105 101 100 100  99  99  99  98  98  94  85  82  96  93  96  90  90  89  85  85  89  90  75  73  69  63  68  63  68  57  35  51  71  46  17  21  21
 119 115  81  83  83  76  63  84 103  99 100 101 100  99  99  99  97  97  97  97  95  90  76  73  92  91  91  90  89  84  85  79  71  79  72  69  63  66  55  63  62  50  27  52  43  26  26  18  20
  86  84  88  89  89  86  68  66  92 101  98  97  97  98  97  95  95  94  95  95  90  84  66  57  88  89  87  85  86  83  79  64  51  68  72  68  64  63  75  65  48  61  30  39  80  45  26  24  26
  86  86  86  93  89  88  81  64  73  96  97  96  97  97  95  93  92  92  92  92  87  81  58  52  85  87  86  80  82  83  69  52  54  67  69  63  62  66  70  53  45  55  37  65  70  56  58  34  37
  87  87  89  87  91  88  88  75  63  80  93  95  94  92  92  91  90  90  90  86  84  76  51  58  84  81  84  80  81  75  54  49  63  67  64  63  70  66  47  43  56  71  42  56  42  45  40  38  43
  88  88  88  90  89  87  86  84  70  64  85  92  91  90  91  90  89  87  87  86  78  70  44  62  82  81  80  78  75  60  44  57  63  63  60  68  73  52  39  55  74  65  53  85  99 118  88  53 106
  87  87  87  88  89  88  86  85  77  64  69  87  90  87  87  87  85  84  84  84  76  64  41  65  78  76  77  73  63  46  50  61  61  59  50  48  51  42  42  51  70  54  71  99 115  99  82  52  60
  84  85  86  86  86  85  83  83  80  72  53  71  88  86  85  85  83  82  81  80  72  54  38  67  74  74  74  61  43  43  62  61  59  49  42  45  46  43  44  64  79  64  98 132 118  96  51  59  42
  82  83  83  84  83  81  82  80  78  74  56  53  71  84  83  82  81  79  78  73  65  46  38  68  71  70  61  44  36  53  62  52  46  41  39  39  40  54  51  59  64  66  87 126  73  55  54  89  49
  82  82  82  83  82  81  82  80  77  69  64  50  54  80  80  78  79  75  74  68  62  39  40  67  67  61  46  35  45  58  51  42  34  38  39  33  42  56  61  69  89 119 115  78 105  53  71 119 102
  80  79  78  79  80  79  78  76  75  73  65  58  46  62  79  76  77  71  71  64  56  31  46  62  60  47  35  38  49  47  39  34  36  36  36  41  40  42  38  36  46  73 105  91 109  74  94  97  59
  77  76  75  76  77  77  76  74  74  74  68  63  48  42  64  72  67  69  66  60  41  26  48  59  45  31  32  43  43  34  31  38  41  36  36  38  33  30  29  38  50  60  67  75  93  95 107  75  57
  74  73  73  74  74  74  73  72  71  71  66  63  57  47  43  64  65  64  62  53  34  26  48  45  32  29  33  32  30  29  35  40  38  37  32  43  47  36  38  47  52  54  50  69  76  51  62  87  79
  74  73  73  73  74  72  71  69  69  68  66  62  57  47  39  46  60  59  51  43  33  24  41  32  28  30  33  32  34  35  37  40  42  47  42  47  62  31  31  45  30  38  36  45  61  64  77  94  94
  72  76  77  73  71  70  68  66  67  66  66  63  58  49  41  32  42  46  38  34  33  26  30  24  27  28  30  38  31  28  27  30  35  40  38  42  37  40  44  60  34  39  52  37  38  69 106 107  96
  46  52  60  67  69  69  69  67  64  63  60  59  57  51  39  30  27  33  38  46  38  34  33  31  31  30  33  29  28  23  25  28  25  27  40  30  32  38  43  80  48  56  64  59  97 110  97  85  62
  52  48  45  44  47  54  56  57  57  57  56  54  50  41  30  26  24  33  43  43  47  47  31  31  43  30  30  26  24  17  22  38  41  28  52  38  47  41  51  63  56  88  91 110 102  92  67  55  46
  54  54  51  47  44  44  41  40  42  42  44  47  43  33  26  29  30  39  49  42  24  17  14  24  58  28  22  30  23  17  18  35  49  43  54  43  48  45  76  82  94 105 110  96  73  54  49  46  57
  54  53  51  50  50  51  49  45  42  40  39  39  40  37  38  40  41  39  35  21  18  16  15  16  65  28  29  25  28  32  28  32  45  42  36  45  54  52  77 100 108  93  74  55  46  51  52  54  59
  53  51  51  52  52  49  47  46  42  38  32  24  21  20  28  33  30  23  23  19  20  16  19  26  51  45  20  28  31  30  36  49  78  60  47  60  78  97 102  96  78  60  44  42  50  52  51  51  54
  54  54  55  54  53  48  45  43  37  29  26  25  23  22  27  26  21  19  21  19  20  25  28  31  57  57  24  38  52  44  74  88  55  41  67  91 100  94  83  66  48  37  41  42  47  55  57  58  58
  55  56  55  50  46  41  39  38  33  33  34  30  27  26  25  22  21  21  20  23  20  24  38  50  72  53  39  63  53  73  83  46  64  85  98  96  89  66  54  43  41  47  47  47  54  62  64  60  65
  49  47  45  42  40  39  36  36  33  27  24  22  23  25  17  17  17  18  20  22  22  19  30  37  41  28  33  55  46  36  32  69 103  97  91  71  57  42  45  51  52  48  46  49  57  62  60  56  45
  40  37  37  36  39  34  32  28  25  22  23  27  27  24  17  17  16  17  31  30  36  32  24  16  13  26  24  36  37  54  92  99  93  77  59  46  47  53  51  47  47  51  50  52  57  60  55  39  33
  38  35  37  32  36  27  29  23  24  21  25  29  27  22  15  16  16  43  41  44  42  44  31  17  14  18  23  47  84 104  92  80  65  55  48  47  49  53  52  48  48  48  50  51  48  40  33  37  43
  29  31  27  28  23  23  26  26  29  25  26  23  19  17  47  39  85 126  46  49  34  28  22  18  16  41  82  99  97  84  68  46  38  50  56  53  52  53  49  46  47  49  47  40  33  34  40  48  57
  26  27  25  26  24  28  33  24  27  22  18  15  14  16 129 171 173  90  73 102  38  24  29  36  70  96 100  90  78  52  39  36  50  56  51  54  55  52  49  48  47  42  37  39  43  44  45  54  61
  57  76  59  82  70  29  24  18  16  15  12  10  12  16 117 184 136 106 132 115  68  50  65  95 102  91  78  57  41  32  43  52  49  57  56  55  50  49  45  41  38  35  42  49  55  51  47  59  62
 167 181 151 178 134  66  19  12  15  17  14  11  12  14  87 179 143  92 109  79  82  98 103  95  84  66  45  40  47  54  54  55  58  61  53  48  46  42  34  32  36  40  48  51  52  51  51  62  62
 169 165 120 116  88 101  57  17  16  14  13  15  17  17  57 151 117  68  78  73  83  99  83  69  49  36  46  53  53  56  57  53  51  49  48  40  32  31  31  33  38  44  47  48  51  57  61  61  60
 118 133 125 135  98  76  68  44  17  18  14  14  16  20  55 139  97  78 103  91  82  71  57  46  67  63  55  54  54  50  49  50  46  38  37  32  31  35  41  49  56  63  62  64  68  72  74  77  77
  92  94  90  95  80  51  47  40  15  11  11  15  13  24  72 145 105  92  92  82  62  56  91 133 168 140  95  77  57  47  48  45  34  30  31  38  38  37  50  61  64  65  71  76  80  79  77  79  81
  96  74  81  82  86  47  13  13  12  15  13  14  15  50 114 114  99  78  63  44  45 102 161 173 134  95  88 101  91  56  35  34  30  32  39  41  40  43  54  61  64  73  77  76  74  74  76  79  80
